<svg xmlns="http://www.w3.org/2000/svg" width="375.98" height="212.909" viewBox="0 0 335.57 190.026">
    <defs>
        <style>
            .cls-2{fill:#bfc8d8}
        </style>
    </defs>
    <g id="Group_5183" transform="translate(-1500 -300)">
        <g id="Group_5159">
            <rect id="HBO_Button_BG_copy_4" width="335.57" height="190.026" fill="#1e232e" rx="6" transform="translate(1500 300)"/>
            <g id="Group_5068" transform="translate(0 -527)">
                <g id="Group_2234" transform="translate(1603 879)">
                    <g id="Group_593" transform="translate(17.859)">
                        <g id="Group_590">
                            <path id="Path_985" d="M330.457 228.484a14.485 14.485 0 1 0 14.485 14.485 14.485 14.485 0 0 0-14.485-14.485zm0 21.449a6.966 6.966 0 0 0 6.015-3.461l2.071 1.206a9.359 9.359 0 1 1 0-9.417l-2.071 1.206a6.963 6.963 0 1 0-6.015 10.467z" class="cls-2" transform="translate(-315.972 -228.484)"/>
                        </g>
                        <g id="Group_591" transform="translate(30.811 .743)">
                            <path id="Path_986" d="M368.952 229.762v27.468h27.018v-27.468zm22.1 7.189h-7.362v15.5h-2.457v-15.5h-7.362v-2.4h17.181z" class="cls-2" transform="translate(-368.952 -229.762)"/>
                        </g>
                        <g id="Group_592" transform="translate(59.058 .743)">
                            <path id="Path_987" d="M417.522 229.762l16.251 28.224 16.25-28.224zm5.948 4.793h2.855l7.448 13.056 7.445-13.056h2.861l-10.306 17.9z" class="cls-2" transform="translate(-417.522 -229.762)"/>
                        </g>
                    </g>
                    <g id="Group_594" transform="translate(17.649 72.129)">
                        <path id="Path_988" d="M349.557 358.155H343.9V353.1h-3.078v13.054h3.078v-5.051h5.658v5.051h3.06V353.1h-3.06z" class="cls-2" transform="translate(-326.16 -352.757)"/>
                        <path id="Path_989" d="M370.915 353.1l-6.772 13.053h3.285l.985-1.951h5.711l.985 1.951h3.286L371.6 353.1zm-1.416 8.307l1.759-3.483 1.76 3.483z" class="cls-2" transform="translate(-335.918 -352.757)"/>
                        <path id="Path_990" d="M400.493 360.049l-8.085-6.945h-.724v13.054h3.078v-7.033l8.038 6.975.067.057h.706V353.1h-3.078z" class="cls-2" transform="translate(-347.443 -352.757)"/>
                        <path id="Path_991" d="M426.426 360.049l-8.085-6.945h-.723v13.054h3.082v-7.033l8.036 6.975.066.057h.706V353.1h-3.078z" class="cls-2" transform="translate(-358.294 -352.757)"/>
                        <path id="Path_992" d="M443.551 366.157H453.8v-2.95h-7.175v-2.1h6.656v-2.951h-6.656v-2.1h7.175V353.1h-10.249z" class="cls-2" transform="translate(-369.145 -352.757)"/>
                        <path id="Path_993" d="M469.2 363.207V353.1h-3.078v13.054h9.95v-2.95z" class="cls-2" transform="translate(-378.589 -352.757)"/>
                        <path id="Path_994" d="M324.484 356.128a3.9 3.9 0 0 1 1.049 1.124l2.762-1.566a6.751 6.751 0 0 0-2.149-2.138 6.882 6.882 0 0 0-10.535 5.834 6.9 6.9 0 0 0 6.891 6.874 7.006 7.006 0 0 0 3.664-1.058 6.872 6.872 0 0 0 2.106-2.1l-2.753-1.575a3.976 3.976 0 0 1-.964 1.062 3.56 3.56 0 0 1-4.572-.4 3.884 3.884 0 0 1-1.185-2.8 4.055 4.055 0 0 1 1.187-2.84 3.564 3.564 0 0 1 4.499-.417z" class="cls-2" transform="translate(-315.611 -352.508)"/>
                    </g>
                    <g id="Group_597" transform="translate(0 20.609)">
                        <path id="Path_995" d="M308.5 300.035a30.889 30.889 0 0 0-5.333-1.441 31.708 31.708 0 0 1-6.751-1.873 2.086 2.086 0 0 1-1.324-1.921 2.249 2.249 0 0 1 .929-1.8 6.707 6.707 0 0 1 4.087-1.046 13.52 13.52 0 0 1 4.5.732 12.106 12.106 0 0 1 4.193 2.4l.481.419 4.547-5.469-.434-.4a16.494 16.494 0 0 0-6.027-3.537 20.652 20.652 0 0 0-7.262-1.153 14.694 14.694 0 0 0-9.629 3.145 8.676 8.676 0 0 0-3.274 6.7 8.283 8.283 0 0 0 2.415 6.081 11.17 11.17 0 0 0 4.032 2.431 36.635 36.635 0 0 0 5.215 1.558 28.048 28.048 0 0 1 6.472 1.82 2.359 2.359 0 0 1 1.488 2.092 2.455 2.455 0 0 1-1.093 2.019 8.418 8.418 0 0 1-4.8 1.116 17.481 17.481 0 0 1-5.766-1.015 16.056 16.056 0 0 1-4.75-2.827l-.483-.422-4.5 5.449-.173.206.446.4a20.426 20.426 0 0 0 6.548 3.883 25.048 25.048 0 0 0 8.674 1.331c4.447 0 8.077-1.043 10.495-3.015a8.93 8.93 0 0 0 3.347-7.126 8.416 8.416 0 0 0-2.4-6.184 10.7 10.7 0 0 0-3.87-2.553z" class="cls-2" transform="translate(-285.264 -272.721)"/>
                        <path id="Rectangle_110" d="M0 0H8.348V30.718H0z" class="cls-2" transform="translate(121.774 14.311)"/>
                        <path id="Rectangle_111" d="M0 0H8.348V30.718H0z" class="cls-2" transform="translate(67.293 14.25)"/>
                        <g id="Group_596" transform="translate(94.766)">
                            <g id="Group_595">
                                <path id="Path_996" d="M453.763 308.947h8.43V286h8.48v-7.769h-8.452l.033-.341c.489-4.979 3.987-6.024 6.836-6.024a10.558 10.558 0 0 1 2.9.457l2.03-7.5a16.992 16.992 0 0 0-5.653-.9c-8.759 0-14.209 5.239-14.58 14.014l-.012.3h-5.559V286h5.549z" class="cls-2" transform="translate(-448.214 -263.921)"/>
                            </g>
                        </g>
                        <path id="Path_997" d="M364.414 307.213a8.433 8.433 0 0 1-7.368 4.084 9.313 9.313 0 0 1 0-18.607 8.523 8.523 0 0 1 7.375 4.07l6.535-4.282a16.645 16.645 0 0 0-13.91-7.323 16.838 16.838 0 0 0 0 33.677 16.142 16.142 0 0 0 14.035-7.654z" class="cls-2" transform="translate(-308.254 -272.806)"/>
                        <path id="Rectangle_112" d="M0 0H9.792V9.955H0z" class="cls-2" transform="translate(82.374 25.704)"/>
                    </g>
                </g>
            </g>
        </g>
    </g>
</svg>
