<svg xmlns="http://www.w3.org/2000/svg" width="255" height="87.931" viewBox="0 0 255 87.931">
    <defs>
        <style>
            .prefix__cls-2{fill:#e5eaf1}
        </style>
    </defs>
    <g id="prefix__Group_2539" data-name="Group 2539" transform="translate(-650 -2278)">
        <g id="prefix__CTVScifiChannel-ShowPage-Logo" transform="translate(573 1518)">
            <path id="prefix__Rectangle_113" d="M0 0H255V87.931H0z" data-name="Rectangle 113" transform="translate(77 760)" style="fill:none"/>
            <g id="prefix__Group_2203" data-name="Group 2203" transform="translate(78.465 776)">
                <path id="prefix__Path_985" d="M328.094 228.484a12.122 12.122 0 1 0 12.122 12.122 12.122 12.122 0 0 0-12.122-12.122zm0 17.95a5.83 5.83 0 0 0 5.034-2.9l1.733 1.009a7.832 7.832 0 1 1 0-7.881l-1.733 1.009a5.827 5.827 0 1 0-5.034 8.76z" class="prefix__cls-2" data-name="Path 985" transform="translate(-301.026 -228.484)"/>
                <path id="prefix__Path_986" d="M368.952 229.762v22.987h22.611v-22.987zm18.494 6.017h-6.16v12.971h-2.056v-12.971h-6.161v-2.005h14.378z" class="prefix__cls-2" data-name="Path 986" transform="translate(-328.221 -229.14)"/>
                <path id="prefix__Path_987" d="M417.522 229.762l13.6 23.62 13.6-23.62zm4.978 4.011h2.389l6.233 10.926 6.23-10.926h2.395l-8.625 14.977z" class="prefix__cls-2" data-name="Path 987" transform="translate(-353.153 -229.14)"/>
                <path id="prefix__Path_988" d="M348.132 357.331H343.4V353.1h-2.576v10.924h2.576V359.8h4.735v4.227h2.561V353.1h-2.561z" class="prefix__cls-2" data-name="Path 988" transform="translate(-313.782 -292.451)"/>
                <path id="prefix__Path_989" d="M369.81 353.1l-5.667 10.924h2.749l.824-1.633h4.784l.824 1.633h2.75l-5.689-10.924zm-1.185 6.952l1.472-2.914 1.473 2.914z" class="prefix__cls-2" data-name="Path 989" transform="translate(-325.752 -292.452)"/>
                <path id="prefix__Path_990" d="M399.056 358.916l-6.766-5.812h-.606v10.924h2.576v-5.885l6.725 5.837.056.048h.591V353.1h-2.576z" class="prefix__cls-2" data-name="Path 990" transform="translate(-339.89 -292.451)"/>
                <path id="prefix__Path_991" d="M424.99 358.916l-6.766-5.812h-.605v10.924h2.576v-5.885l6.725 5.837.056.048h.591V353.1h-2.577z" class="prefix__cls-2" data-name="Path 991" transform="translate(-353.202 -292.451)"/>
                <path id="prefix__Path_992" d="M443.551 364.028h8.581v-2.469h-6V359.8h5.57v-2.469h-5.57v-1.758h6V353.1h-8.581z" class="prefix__cls-2" data-name="Path 992" transform="translate(-366.513 -292.451)"/>
                <path id="prefix__Path_993" d="M468.7 361.559V353.1h-2.576v10.924h8.327v-2.469z" class="prefix__cls-2" data-name="Path 993" transform="translate(-378.098 -292.451)"/>
                <path id="prefix__Path_994" d="M323.036 355.537a3.268 3.268 0 0 1 .878.94l2.311-1.311a5.65 5.65 0 0 0-1.8-1.79 5.76 5.76 0 0 0-8.817 4.883 5.771 5.771 0 0 0 5.767 5.752 5.863 5.863 0 0 0 3.066-.885 5.752 5.752 0 0 0 1.763-1.759l-2.3-1.318a3.326 3.326 0 0 1-.807.889 2.979 2.979 0 0 1-3.826-.333 3.25 3.25 0 0 1-.992-2.345 3.394 3.394 0 0 1 .993-2.377 2.982 2.982 0 0 1 3.764-.346z" class="prefix__cls-2" data-name="Path 994" transform="translate(-300.841 -292.145)"/>
                <path id="prefix__Path_995" d="M304.713 297.575a25.854 25.854 0 0 0-4.463-1.206 26.547 26.547 0 0 1-5.65-1.567 1.746 1.746 0 0 1-1.108-1.608 1.882 1.882 0 0 1 .778-1.5 5.613 5.613 0 0 1 3.42-.875 11.316 11.316 0 0 1 3.768.612 10.128 10.128 0 0 1 3.509 2.013l.4.351 3.8-4.577-.363-.337a13.8 13.8 0 0 0-5.044-2.96 17.279 17.279 0 0 0-6.077-.965 12.3 12.3 0 0 0-8.058 2.632 7.26 7.26 0 0 0-2.74 5.609 6.932 6.932 0 0 0 2.021 5.089 9.35 9.35 0 0 0 3.374 2.034 30.637 30.637 0 0 0 4.364 1.3 23.479 23.479 0 0 1 5.416 1.523 1.974 1.974 0 0 1 1.245 1.751 2.054 2.054 0 0 1-.915 1.69 7.046 7.046 0 0 1-4.02.934 14.628 14.628 0 0 1-4.826-.849 13.439 13.439 0 0 1-3.975-2.365l-.4-.353-3.762 4.56-.144.172.373.335a17.1 17.1 0 0 0 5.48 3.249 20.962 20.962 0 0 0 7.259 1.114c3.721 0 6.759-.873 8.783-2.524a7.473 7.473 0 0 0 2.8-5.964 7.044 7.044 0 0 0-2.01-5.176 8.951 8.951 0 0 0-3.235-2.142z" class="prefix__cls-2" data-name="Path 995" transform="translate(-285.264 -257.47)"/>
                <path id="prefix__Rectangle_110" d="M0 0H6.987V25.707H0z" class="prefix__cls-2" data-name="Rectangle 110" transform="translate(101.909 29.224)"/>
                <path id="prefix__Rectangle_111" d="M0 0H6.987V25.707H0z" class="prefix__cls-2" data-name="Rectangle 111" transform="translate(56.315 29.172)"/>
                <g id="prefix__Group_595" data-name="Group 595" transform="translate(79.307 17.248)">
                    <path id="prefix__Path_996" d="M452.858 301.6h7.055v-19.2h7.1v-6.5h-7.074l.028-.286c.409-4.167 3.337-5.041 5.721-5.041a8.836 8.836 0 0 1 2.426.382l1.7-6.279a14.215 14.215 0 0 0-4.731-.753c-7.33 0-11.891 4.384-12.2 11.728l-.01.25h-4.652v6.5h4.644z" class="prefix__cls-2" data-name="Path 996" transform="translate(-448.214 -263.921)"/>
                </g>
                <path id="prefix__Path_997" d="M360.465 303.615a7.057 7.057 0 0 1-6.166 3.418 7.794 7.794 0 0 1 0-15.572 7.133 7.133 0 0 1 6.172 3.406l5.469-3.583a13.929 13.929 0 0 0-11.641-6.129 14.092 14.092 0 0 0 0 28.183 13.509 13.509 0 0 0 11.746-6.405z" class="prefix__cls-2" data-name="Path 997" transform="translate(-313.467 -257.573)"/>
                <path id="prefix__Rectangle_112" d="M0 0H8.194V8.331H0z" class="prefix__cls-2" data-name="Rectangle 112" transform="translate(68.936 38.759)"/>
            </g>
        </g>
    </g>
</svg>
