<svg xmlns="http://www.w3.org/2000/svg" width="255" height="87.931" viewBox="0 0 255 87.931">
    <defs>
        <style>
            .prefix__cls-2{fill:#e5eaf1}
        </style>
    </defs>
    <g id="prefix__Group_2543" data-name="Group 2543" transform="translate(-1830 -2278)">
        <g id="prefix__CTVSnackable-ShowPage-Logo" transform="translate(1753 1518)">
            <path id="prefix__Rectangle_113" d="M0 0H255V87.931H0z" data-name="Rectangle 113" transform="translate(77 760)" style="fill:none"/>
            <g id="prefix__CTV_Snackable_Logo" data-name="CTV Snackable Logo" transform="translate(78.466 795)">
                <g id="prefix__Group_419" data-name="Group 419">
                    <path id="prefix__Path_876" d="M179.082 142.347a11.8 11.8 0 0 1 4.516 2.509l-3.512 4.424a11.55 11.55 0 0 0-3.286-1.78 9.907 9.907 0 0 0-3.284-.5 4.084 4.084 0 0 0-2.737.775 1.613 1.613 0 0 0-.73 1.368 1.705 1.705 0 0 0 1.277 1.551 39.177 39.177 0 0 0 5.747 1.415 16.175 16.175 0 0 1 3.284 1.048 8.231 8.231 0 0 1 2.646 1.687 6.546 6.546 0 0 1 1.687 4.7 6.821 6.821 0 0 1-2.417 5.383c-1.87 1.505-4.607 2.281-8.074 2.281a19.979 19.979 0 0 1-6.887-1 14.541 14.541 0 0 1-5.017-2.828l3.6-4.561a15.711 15.711 0 0 0 3.786 2.19 14.256 14.256 0 0 0 4.561.73 5.911 5.911 0 0 0 3.147-.685 1.65 1.65 0 0 0 .821-1.46 1.823 1.823 0 0 0-1.323-1.6 37.7 37.7 0 0 0-5.108-1.369 21.745 21.745 0 0 1-3.467-1.049 9.454 9.454 0 0 1-2.783-1.687 6.3 6.3 0 0 1-1.87-4.744 6.856 6.856 0 0 1 2.371-5.154 11.15 11.15 0 0 1 7.481-2.463 17.606 17.606 0 0 1 5.571.819z" class="prefix__cls-2" data-name="Path 876" transform="translate(-162.297 -114.313)"/>
                    <path id="prefix__Path_877" d="M202.718 166.144h-6.386v-23.673h6.431v2.874a9.089 9.089 0 0 1 7.572-3.694c5.245 0 8.986 4.151 8.986 11.038v13.456h-6.386v-13c0-3.284-1.687-5.656-5.108-5.656-3.284 0-5.108 2.417-5.108 5.656z" class="prefix__cls-2" data-name="Path 877" transform="translate(-171.219 -114.346)"/>
                    <path id="prefix__Path_878" d="M250.543 145.39v-2.92h6.385v23.673h-6.385v-2.554c-1.186 1.87-4.151 3.512-7.481 3.512-6.431 0-11.768-5.7-11.768-12.68 0-7.07 5.428-12.771 11.859-12.771a8.934 8.934 0 0 1 7.39 3.74zm-12.908 9.031a6.441 6.441 0 1 0 6.477-6.8 6.457 6.457 0 0 0-6.477 6.8z" class="prefix__cls-2" data-name="Path 878" transform="translate(-180.383 -114.346)"/>
                    <path id="prefix__Path_879" d="M293.849 160.807A12.276 12.276 0 0 1 282.9 167.1a12.726 12.726 0 1 1 10.9-19.385l-5.382 3.422a6.151 6.151 0 0 0-5.519-3.422 6.668 6.668 0 0 0 0 13.319 6.142 6.142 0 0 0 5.519-3.422z" class="prefix__cls-2" data-name="Path 879" transform="translate(-190.575 -114.346)"/>
                    <path id="prefix__Path_880" d="M327.683 163.356h-7.936l-7.115-9.442h-.958v9.442h-6.386v-32.339h6.386v17.789h.958l6.659-9.123H327l-8.8 11.586z" class="prefix__cls-2" data-name="Path 880" transform="translate(-199.779 -111.558)"/>
                    <path id="prefix__Path_881" d="M353.286 145.39v-2.92h6.386v23.673h-6.386v-2.554c-1.187 1.87-4.151 3.512-7.48 3.512-6.431 0-11.768-5.7-11.768-12.68 0-7.07 5.428-12.771 11.859-12.771a8.936 8.936 0 0 1 7.389 3.74zm-12.908 9.031a6.441 6.441 0 1 0 6.477-6.8 6.457 6.457 0 0 0-6.477 6.8z" class="prefix__cls-2" data-name="Path 881" transform="translate(-207.315 -114.346)"/>
                    <path id="prefix__Path_882" d="M399.666 151.68c0 6.979-5.337 12.635-11.768 12.635-3.375 0-6.294-1.551-7.48-3.467v2.509h-6.431v-32.34h6.431v11.631a8.812 8.812 0 0 1 7.343-3.785c6.478 0 11.905 5.747 11.905 12.817zm-19.2 0a6.415 6.415 0 1 0 12.817 0c0-3.877-2.692-6.8-6.432-6.8a6.476 6.476 0 0 0-6.387 6.8z" class="prefix__cls-2" data-name="Path 882" transform="translate(-217.787 -111.558)"/>
                    <path id="prefix__Path_883" d="M448.861 156.793h-17.926c.73 2.691 2.828 4.424 6.112 4.424a7.666 7.666 0 0 0 5.975-2.828l4.151 4.242a12.627 12.627 0 0 1-10.126 4.47 12.739 12.739 0 1 1 12-12.771 10.624 10.624 0 0 1-.186 2.463zm-17.926-4.835h11.357a5.872 5.872 0 0 0-11.357 0z" class="prefix__cls-2" data-name="Path 883" transform="translate(-230.97 -114.346)"/>
                    <g id="prefix__Group_1429" data-name="Group 1429" transform="translate(28.442)">
                        <path id="prefix__Path_136" d="M424.565 235.644h22.757v-23.136h-22.757zm4.143-19.1h14.471v2.018h-6.2v13.058h-2.07v-13.057h-6.2z" class="prefix__cls-2" data-name="Path 136" transform="translate(-398.612 -211.882)"/>
                        <path id="prefix__Path_137" d="M381.868 211.184a12.2 12.2 0 1 0 12.2 12.2 12.2 12.2 0 0 0-12.2-12.2zm0 18.066a5.869 5.869 0 0 0 5.067-2.915l1.744 1.015a7.883 7.883 0 1 1 0-7.932l-1.744 1.015a5.865 5.865 0 1 0-5.067 8.816z" class="prefix__cls-2" data-name="Path 137" transform="translate(-369.668 -211.184)"/>
                        <path id="prefix__Path_138" d="M474.892 212.508l13.688 23.773 13.688-23.773zm5.01 4.037h2.4l6.273 11 6.27-11h2.411l-8.676 15.075z" class="prefix__cls-2" data-name="Path 138" transform="translate(-425.147 -211.882)"/>
                    </g>
                </g>
                <path id="prefix__Rectangle_54" d="M0 0H6.385V32.339H0z" class="prefix__cls-2" data-name="Rectangle 54" transform="translate(184.437 19.459)"/>
            </g>
        </g>
    </g>
</svg>
