<svg xmlns="http://www.w3.org/2000/svg" width="255" height="88.267" viewBox="0 0 255 88.267">
    <defs>
        <style>
            .prefix__cls-2{fill:#e5eaf1}
        </style>
    </defs>
    <g id="prefix__Group_2540" data-name="Group 2540" transform="translate(-945 -2278)">
        <g id="prefix__CTVDramaChannel-ShowPage-Logo" transform="translate(868 1518)">
            <path id="prefix__Rectangle_113" d="M0 0H255V87.931H0z" data-name="Rectangle 113" transform="translate(77 760)" style="fill:none"/>
            <g id="prefix__Group_2204" data-name="Group 2204" transform="translate(78.466 778)">
                <path id="prefix__Path_970" d="M336.694 233.119a12.14 12.14 0 1 0 12.14 12.14 12.141 12.141 0 0 0-12.14-12.14zm0 17.977a5.839 5.839 0 0 0 5.042-2.9l1.736 1.011a7.844 7.844 0 1 1 0-7.893l-1.736 1.011a5.836 5.836 0 1 0-5.042 8.773z" class="prefix__cls-2" data-name="Path 970" transform="translate(-291.197 -233.119)"/>
                <path id="prefix__Path_971" d="M375.4 234.345v23.023h22.646v-23.023zm18.523 6.026h-6.17v12.992h-2.06v-12.992h-6.17v-2.008h14.4z" class="prefix__cls-2" data-name="Path 971" transform="translate(-316.217 -233.723)"/>
                <path id="prefix__Path_972" d="M422.011 234.345L435.631 258l13.621-23.657zm4.989 4.018h2.393l6.242 10.943 6.239-10.943h2.4l-8.638 15z" class="prefix__cls-2" data-name="Path 972" transform="translate(-339.154 -233.723)"/>
                <path id="prefix__Path_973" d="M367.445 293.321v-2.931h6.412v23.77h-6.412v-2.564c-1.191 1.877-4.168 3.526-7.511 3.526-6.458 0-11.816-5.725-11.816-12.732 0-7.1 5.45-12.824 11.908-12.824a8.973 8.973 0 0 1 7.419 3.755zm-12.962 9.068a6.468 6.468 0 1 0 6.5-6.824 6.484 6.484 0 0 0-6.5 6.824z" class="prefix__cls-2" data-name="Path 973" transform="translate(-302.793 -260.895)"/>
                <path id="prefix__Path_974" d="M413.384 314.159h-6.457v-23.77h6.5v2.885a7.563 7.563 0 0 1 6.548-3.71 7.7 7.7 0 0 1 6.458 3.526 9.349 9.349 0 0 1 7.741-3.526c5.541 0 9.068 4.076 9.068 10.992v13.6h-6.413v-13.1c0-3.252-1.419-5.633-4.4-5.633-2.747 0-4.167 2.427-4.167 5.633v13.1H421.9v-13.1c0-3.252-1.466-5.633-4.4-5.633-2.748 0-4.123 2.427-4.123 5.633z" class="prefix__cls-2" data-name="Path 974" transform="translate(-331.732 -260.895)"/>
                <path id="prefix__Path_975" d="M503.1 293.321v-2.931h6.412v23.77H503.1v-2.564c-1.19 1.877-4.168 3.526-7.511 3.526-6.458 0-11.816-5.725-11.816-12.732 0-7.1 5.45-12.824 11.908-12.824a8.973 8.973 0 0 1 7.419 3.755zm-12.962 9.068a6.468 6.468 0 1 0 6.5-6.824 6.484 6.484 0 0 0-6.502 6.824z" class="prefix__cls-2" data-name="Path 975" transform="translate(-369.544 -260.895)"/>
                <path id="prefix__Path_976" d="M331.974 289.612c-3.168.178-6.213 2.077-8.3 5.518v-4.718h-6.411v23.77h6.411V303.42c0-5.16 4.076-7.218 8.3-7.363z" class="prefix__cls-2" data-name="Path 976" transform="translate(-287.607 -260.917)"/>
                <path id="prefix__Path_977" d="M278.208 275.538v10.926a9 9 0 0 0-7.419-3.8c-6.458 0-11.908 5.771-11.908 12.87 0 7.007 5.358 12.686 11.816 12.686 3.343 0 6.321-1.557 7.511-3.481v2.519h6.458v-31.72zm-6.458 26.727a6.789 6.789 0 1 1 6.412-6.732 6.523 6.523 0 0 1-6.412 6.731z" class="prefix__cls-2" data-name="Path 977" transform="translate(-258.881 -253.992)"/>
                <path id="prefix__Path_978" d="M351.04 353.581h-4.74v-4.234h-2.58v10.941h2.58v-4.234h4.742v4.234h2.558v-10.941h-2.56z" class="prefix__cls-2" data-name="Path 978" transform="translate(-300.628 -290.311)"/>
                <path id="prefix__Path_979" d="M371.776 349.347l-5.676 10.941h2.753l.825-1.635h4.787l.825 1.635h2.754l-5.692-10.941zm-1.187 6.962l1.474-2.919 1.475 2.919z" class="prefix__cls-2" data-name="Path 979" transform="translate(-311.641 -290.312)"/>
                <path id="prefix__Path_980" d="M399.915 355.168l-6.776-5.821h-.606v10.941h2.58v-5.895l6.736 5.847.056.048h.591v-10.941h-2.58z" class="prefix__cls-2" data-name="Path 980" transform="translate(-324.647 -290.311)"/>
                <path id="prefix__Path_981" d="M424.8 355.168l-6.776-5.821h-.606v10.941H420v-5.895l6.736 5.847.056.048h.592v-10.941H424.8z" class="prefix__cls-2" data-name="Path 981" transform="translate(-336.895 -290.311)"/>
                <path id="prefix__Path_982" d="M442.308 360.288h8.592v-2.473h-6.014v-1.761h5.579v-2.473h-5.579v-1.761h6.014v-2.473h-8.594z" class="prefix__cls-2" data-name="Path 982" transform="translate(-349.141 -290.311)"/>
                <path id="prefix__Path_983" d="M466.547 357.815v-8.468h-2.58v10.941h8.34v-2.473z" class="prefix__cls-2" data-name="Path 983" transform="translate(-359.799 -290.311)"/>
                <path id="prefix__Path_984" d="M326.961 351.809a3.281 3.281 0 0 1 .879.942l2.315-1.312a5.651 5.651 0 0 0-1.8-1.793 5.769 5.769 0 0 0-8.83 4.89 5.78 5.78 0 0 0 5.775 5.764 5.877 5.877 0 0 0 3.071-.886 5.767 5.767 0 0 0 1.765-1.762l-2.307-1.321a3.325 3.325 0 0 1-.809.89 2.984 2.984 0 0 1-3.832-.334 3.256 3.256 0 0 1-.993-2.349 3.4 3.4 0 0 1 .995-2.381 2.988 2.988 0 0 1 3.771-.348z" class="prefix__cls-2" data-name="Path 984" transform="translate(-288.722 -290.03)"/>
            </g>
        </g>
    </g>
</svg>
