<svg xmlns="http://www.w3.org/2000/svg" width="255" height="87.931" viewBox="0 0 255 87.931">
    <defs>
        <style>
            .cls-2{fill:#e5eaf1}
        </style>
    </defs>
    <g id="Group_5495" transform="translate(-1358 -2519)">
        <path id="Rectangle_1346" fill="none" d="M0 0H255V87.931H0z" transform="translate(1358 2519)"/>
        <g id="Group_5224" transform="translate(1358 2530)">
            <g id="Group_5067">
                <g id="Group_4752" transform="translate(2.868)">
                    <path id="Path_2607" d="M23.978 15.8a6.786 6.786 0 0 0 1.728 1.556 6.619 6.619 0 0 0 2.374.911c.012 0-.008-.006-.012 0-.035-.01 0-.012.021-.006s-.029-.012-.054-.017-.062-.014-.06-.027a2.357 2.357 0 0 1 .588.079c-.141.021-.3-.035-.447-.017.147.023.3.046.462.062s.329.012.484.021h.041a.163.163 0 0 1-.064-.014c.035 0 .06.008.1 0h-.019a.857.857 0 0 1 .232-.019c-.014-.012-.046-.006-.064-.017a.362.362 0 0 1 .188.008c0 .012.014.01.014.023h.062a2.516 2.516 0 0 1-.331 0c0 .01.019 0 .027.006a.787.787 0 0 1-.085 0 6.348 6.348 0 0 0 1.414-.12 6.48 6.48 0 0 0 1.256-.383 6.56 6.56 0 0 0 2-1.289 6.681 6.681 0 0 0 1.867-3.039 6.8 6.8 0 0 0-.174-4.233 6.769 6.769 0 0 0-1.238-2.049 6.437 6.437 0 0 0-1.83-1.455A6.615 6.615 0 0 0 29.957 5a6.89 6.89 0 0 0-2.879.329 6.58 6.58 0 0 0-2.107 1.178 6.655 6.655 0 0 0-1.5 1.78 6.747 6.747 0 0 0-.849 2.438 6.9 6.9 0 0 0 .228 2.92 6.565 6.565 0 0 0 1.128 2.155m2.906-7.387h.029c0 .017.025.017.023.037-.031.021-.052-.023-.052-.037m.06.06c.017-.031.054-.046.062 0-.012.014-.05.021-.062 0m1.219 9.7c.048-.01.1.017.147.021a.352.352 0 0 1-.147-.021m.164.021c.025-.014.06.008.1 0 0 .023-.081.01-.1 0m.145.01c0-.01.031-.006.035 0s-.031 0-.035 0m.075 0c.019-.01.058 0 .058.023a.052.052 0 0 1-.058-.023m.043.075a.23.23 0 0 1 .106.014.205.205 0 0 1-.106-.014m.039-.008a.087.087 0 0 1 .077.008c-.023.012-.054-.006-.077-.008m.1-.019c.012 0 .043-.01.043.01s-.048.01-.043-.01m-.017-.012c0-.017.031 0 .043 0-.006.01-.031 0-.043 0m.145-.06c.027-.014.062.008.083 0a.139.139 0 0 1-.083 0m.035-.021c.027-.025.11-.012.157-.012.029 0 .07-.014.077.019a1.793 1.793 0 0 1-.234-.006m.106.01c0 .006-.039.012-.035 0h.035m.36.031h-.122c-.12.006-.211.048-.3 0 .008-.019.033 0 .056 0s-.017-.017-.033-.012c.1-.006.226 0 .356 0 .021-.006.025-.029.06-.023.017 0 .017.019.031.023s.046-.008.075 0a.277.277 0 0 1-.118.017m.219.07c.008 0 .048-.01.05 0s-.052.012-.05 0m1.347-.457a.043.043 0 0 1 .046-.025c.006.027-.023.025-.046.025m-.261.075c0 .019.006.014 0 .027-.037-.021-.064.043-.091 0-.056.037-.155.039-.176.1.025 0 .052 0 .06-.012.006.01-.029.021-.035.037s.029-.01.023.01c-.056.014-.066.072-.13.079.008.014-.031.052-.077.039a.911.911 0 0 1-.439.079l.008-.008c-.043.006-.075-.019-.116 0a.02.02 0 0 0-.025-.019c.035-.027.122 0 .141-.043.01 0 .027-.008.035 0s-.01.012-.023.014a1.008 1.008 0 0 0 .335-.054c0-.014-.012-.008-.01-.023.041-.052.12-.068.182-.1a.106.106 0 0 1 .06-.066c.017 0 .021.006.027.008a2.837 2.837 0 0 1 .629-.2c-.108.062-.271.068-.375.135m-.962.292c.01-.01 0-.014 0-.025s.031.01.054 0c-.006.023-.037.017-.058.021m.337-.07c-.008-.012.017-.012.021-.019v-.023c.008-.01.1-.058.112-.012 0 .008-.031.05-.052.066a.317.317 0 0 1-.186.037c.008-.012.039-.006.058-.008-.017-.046-.085.017-.122-.008a.851.851 0 0 1 .17-.033m0-7.687c0-.017.008-.023.012-.031.033.006.037.046.07.056-.014.025-.066-.012-.083-.025m-.1 7.675c-.01.023-.066.023-.087.021a.6.6 0 0 1 .087-.021m-.043-.01a.061.061 0 0 1 .054-.019c-.006.019-.027.021-.054.019m.391-.1c.017-.027.052-.033.081-.048-.012.031-.046.037-.081.048m.21-.093c0-.014.012-.017.027-.017 0 .014-.014.017-.027.017m.2-.079c0 .023-.023.031-.052.027a.061.061 0 0 1 .052-.027m-.017-.559c.006-.008.008-.021.027-.017s-.01.019-.027.017m.046.559c.01-.01.019-.025.041-.021 0 .019-.017.021-.041.021m.182-.087c.01-.014.017-.027.046-.021a.048.048 0 0 1-.046.021m.06-.014c.006-.021.033-.023.058-.021 0 .021-.027.023-.058.021m-.1-.4c0-.014.014-.012.017-.023a.055.055 0 0 0-.046.012v.019c-.01.019-.037 0-.043-.008a.046.046 0 0 1-.043 0c0-.014.006-.014.008-.023-.027.006-.029-.01-.048-.012.01-.031.06 0 .083-.021a.078.078 0 0 1-.008-.033c.021-.014.06-.012.079-.033-.019-.025-.046.006-.07 0 .023-.037.077-.046.13-.05-.017.029 0 .062-.029.079.072 0 .079.056.151.054-.052.031-.128.008-.182.031m-.132-.052c0-.019 0-.031.023-.027 0 .014 0 .029-.023.027m.348.491c0-.025.043-.031.066-.021a.105.105 0 0 1-.066.021m-.026-.051c0-.027.029-.021.05-.023 0 .023-.033.014-.05.023m1.34-7.2c0 .012-.029 0-.023.025l.01.014c.021-.006.025-.035.046-.046 0-.014-.012-.021-.01-.039a.424.424 0 0 1 .2-.087.291.291 0 0 0-.006.172c.006.021.033.035.027.075 0 .021-.029.012-.027.035.027.014.07.07.087.008.052 0 .091 0 .112.031.075 0 .2-.019.147.079a.023.023 0 0 0 .027.012c.019 0 .019-.019.027-.031.075-.017.079.072.043.1-.033 0-.06-.039-.1-.031.014.029.031.054.046.081h.014c.017 0 .014-.031.029-.039a.037.037 0 0 1 .023.056c.006.023.041.019.041.048.017-.01.033 0 .046.014a.43.43 0 0 0 0 .155c.041 0 .037-.046.048-.07.023.012.035 0 .05-.01.023.017.075 0 .091.019a.064.064 0 0 1 .085-.006c0 .1.06.039.033-.031.014-.012.05-.008.054.008a.125.125 0 0 1 .124 0c0 .06 0 .116.035.139.021 0 .052-.006.066 0 0 .048-.021.068-.027.108 0 .012.017 0 .019.012.019-.023.025-.058.043-.085.056.008.006.1.039.124a.059.059 0 0 1-.006.039.2.2 0 0 1 .029.155c-.037.01-.068.048-.041.083-.017.027-.039.077-.01.11h.046l.019.031h.048c.014.046.062.056.085.093h.048c0 .012.01.012.008.027h.05c.01.008.006.029.025.029s.025-.021.035-.029h.124c.031.052.066.1.093.153h.033c.014-.027.054-.029.062-.062h.079c.01.012.01.039.039.031 0 .025.023.033.027.056.019.006.008-.019.027-.017 0 .014.01.014.008.027.017 0 .006-.033.025-.035s.027.035.041.052.014-.017.035-.012c.017.021.025.048.054.056.008.035.012.075.039.093 0 .029-.029.052-.019.075.025 0 .021-.037.035-.052s.012.023.012.039.021-.014.033 0a.336.336 0 0 0-.006.075c.025-.021.035-.072.085-.052 0 .075.017.164.017.242a.726.726 0 0 1-.128.342c-.068.031-.072.128-.124.176 0 .021-.01.027-.006.048-.012.021-.033.031-.039.054a.053.053 0 0 0-.029 0 .645.645 0 0 0-.064.19c-.008 0-.01.019-.019.027a1.348 1.348 0 0 1-.1.373c-.085.089-.1.246-.166.356-.014 0-.019.008-.029.014a.552.552 0 0 1-.079.093.2.2 0 0 1-.075.1c-.019.014-.033.048-.062.043 0-.014.01-.023.014-.035-.029 0-.033.014-.046.027-.041 0-.05.023-.083.019-.031.031-.066.056-.1.089-.087-.006-.114.046-.161.081a.061.061 0 0 1-.029 0c-.035.029-.041.083-.093.093a.1.1 0 0 0-.031.06c-.06.079-.052.166-.1.242-.017.033-.054.052-.087.077a1.055 1.055 0 0 0-.118.135c-.012-.012-.027 0-.046 0 0-.01-.006-.008 0-.021-.043.037-.062.1-.122.122a.13.13 0 0 1-.075.077c-.017.008-.021.031-.035.043-.031 0-.041.027-.075.029a1.063 1.063 0 0 1-.106.143c-.008.017.014.01.012.025-.066.027-.108.077-.186.089-.017 0-.017.017-.029.021-.058 0-.07.033-.1.054h-.039a.117.117 0 0 1-.106.027c-.012 0-.012-.012-.012-.023a.106.106 0 0 0-.058.054c.023.033.06.05.048.118 0 .014.014.012.019.021a.112.112 0 0 1-.019.031.279.279 0 0 0-.145.035c-.072 0-.106.037-.192.027a.275.275 0 0 1-.132-.056c-.021.014-.043.027-.052.056.025.006.062-.021.075.017-.017.014-.048.017-.052.039s.014.01.01.027a.332.332 0 0 0-.072.023c0 .017.01.017.025.017-.01.019-.027.029-.035.05s.027.01.014.025c-.033.014-.066-.01-.089-.021.006-.019.006-.029-.008-.035-.046.033-.033.122-.07.164 0 .014.019.01.025.017-.014.035-.058.037-.077.066s-.023.083-.054.114a.318.318 0 0 0-.066.048c-.054 0-.182.064-.186.112s.062.048.093.079c-.056.072-.166.093-.228.164a.194.194 0 0 0-.066.017.08.08 0 0 0 0 .039c-.041.017-.083.035-.083.093a.341.341 0 0 1-.066.012.069.069 0 0 0 .037.035.359.359 0 0 1-.259.023c-.008.006-.019.008-.021.021s.056-.008.075.01c0 .021-.046.006-.062.017 0 .014-.006.014-.008.023a.868.868 0 0 0 .106-.023c-.014.017-.019.043-.039.052-.041-.021-.077.012-.106.008a.054.054 0 0 1-.023-.025c.017 0 .033-.006.035-.027s-.019 0-.021-.008c0-.033 0-.056.021-.066 0-.027-.014-.035.006-.052 0-.01-.021-.008-.025-.019.012-.027.021-.056.033-.083-.014-.014-.023.012-.046 0v-.021c-.008-.012-.025.006-.035-.006.008-.008.025-.01.027-.025s-.01 0-.021-.006a.183.183 0 0 1 .066-.077c.008 0 .008.01.012.017.043-.056.085-.114.132-.168-.029 0-.06.064-.108.031 0-.054.043-.058.085-.066 0 .01.017.008.012.027.01-.01.025-.01.035-.019a.066.066 0 0 0 0-.029c.048-.017.043-.083.089-.1 0-.079.064-.1.077-.168 0-.014.023-.012.029-.023-.023-.033.01-.048-.023-.075a.066.066 0 0 0 .033-.019c-.033-.023-.054.056-.1.031a.209.209 0 0 1 .118-.161c-.021-.017.008-.039.014-.054-.025-.019-.037-.07 0-.087-.031-.066.014-.064.048-.1a.151.151 0 0 0 .048-.1c.083-.058.108-.172.18-.24 0-.056.041-.079.054-.128-.023-.058.021-.122 0-.18a.134.134 0 0 0 .064-.155c.01-.054.06-.072.064-.137l.029-.021c0-.041.021-.052.019-.089.054-.033.031-.143.079-.184-.033-.072.039-.13.019-.192a.734.734 0 0 0 .1-.281c0-.035.017-.077.017-.116a.475.475 0 0 1-.006-.172.831.831 0 0 0-.089-.079.106.106 0 0 0-.087-.083.335.335 0 0 0-.157-.089.586.586 0 0 0-.141-.083c-.033-.07-.176-.13-.106-.226a.736.736 0 0 0-.106-.174c0-.017.008-.029 0-.037-.048-.043-.05-.132-.1-.176v-.025c0-.019-.025-.021-.033-.033v-.037a.082.082 0 0 0-.021-.031.58.58 0 0 0-.093-.2c-.008-.021-.008-.039-.017-.058-.029-.058-.093-.089-.1-.157 0-.014-.014-.021-.021-.031.006-.068 0-.12-.072-.112-.043-.06.043-.087.06-.128.091 0 .11-.062.128-.13 0-.017-.019-.021-.017-.041a.11.11 0 0 0 .021-.118h-.031a.07.07 0 0 0-.017.093c-.01.021-.031.031-.046.048-.048-.019-.066-.1-.048-.168.008-.025.056-.048.041-.1a.116.116 0 0 0 .052-.128.672.672 0 0 0 .077-.039.067.067 0 0 1 .029.008.094.094 0 0 0 .043-.021c0-.041.029-.043.039-.07.012 0 .021-.01.033-.008a1.018 1.018 0 0 0 .1-.207c.008-.008.023-.01.025-.023-.008-.056.035-.087.027-.128s-.056-.05-.07-.093c.033-.041-.021-.093 0-.139a.135.135 0 0 1-.046-.07.086.086 0 0 1-.05-.12c.017 0 .046.006.054 0v-.021c-.01-.01-.035-.012-.033-.041-.079.033-.1-.043-.141-.079-.029 0-.037.031-.07.031-.006-.014-.017-.023-.012-.048.068-.029.12.033.2.021.029.062.1.081.126.147-.043.068.008.166.027.236a.052.052 0 0 1 .033.029c-.008-.075-.052-.182-.017-.248 0-.025-.01-.052 0-.075a.429.429 0 0 0 .052 0c.006-.008 0-.039 0-.05.025 0 0 .046.025.05s.035-.031.064-.035c.019.012.014.068.014.083.058.06.1-.033.13-.066a.357.357 0 0 1 .019.226c.041.006.035-.035.035-.07s.023-.027.023-.05-.017-.021-.023-.039a.186.186 0 0 1 .014-.149c0-.019-.008-.035-.037-.029-.006.006 0 .025-.012.029a.115.115 0 0 1-.087-.052c.008-.064.087-.089.046-.164.058-.027.145.01.209-.021a.669.669 0 0 0 .056.091.527.527 0 0 0-.089.207c.025.017.06.021.077.043.05-.039.135-.062.137-.128s-.058-.062-.052-.132a.382.382 0 0 0 .039-.041c.058-.012.106-.037.166-.05.014.012.01.039.025.05s.019-.014.029-.019c.052 0 .046.043.048.085.06 0 .139-.01.234-.006.01.068.132.031.126.12m-1.592 6.073v.008c0 .019-.017.029-.021.05-.01-.017-.021-.066.017-.058m-.021-.006v-.021h.031c0 .008 0 .025-.012.021m.041-.141c.037-.017.012-.093.058-.083-.008.037-.01.114-.058.083m.464-6c.043.023.037.147-.023.145-.035-.05.008-.106.023-.145M31.6 6.77v.023c-.05 0-.037.035-.068.056a.08.08 0 0 1-.087-.031c.025-.056.1-.06.155-.048m-.072-.062a.114.114 0 0 1 .058.008c-.01.008-.06.012-.058-.008m.2-.093c.027.008.029.041.048.06-.01.014-.039.01-.039.037-.008-.006-.021-.01-.019-.027s0-.012.014-.01a.086.086 0 0 1 0-.06m.017.12c-.012.012-.041.01-.041.035-.056.01-.089-.008-.1-.05.014-.01.025.008.043 0 .046-.025.048.014.1.01m-.021 3.446a.135.135 0 0 1-.066.056.044.044 0 0 1-.019-.021c.012-.027.05-.07.085-.035m.433-3.622l.035.031.01-.01c.027 0 .033.043.027.062-.031 0-.033-.029-.054-.039s.006.01 0 .023c-.008 0-.021-.006-.021-.019s.019-.025 0-.048m-.385-.25c.062-.006.039.075.075.1 0-.017.021-.014.039-.014a.027.027 0 0 1 0 .023c.068.058.18.056.228.137a.06.06 0 0 1-.039.043c-.023 0-.012-.033-.039-.031s.006.012 0 .017-.021-.01-.031-.017c-.064.023-.137-.021-.2 0-.017 0-.014-.014-.027-.017a.059.059 0 0 1 .023-.035c-.008-.019-.025-.029-.031-.046s.021-.006.025-.012-.021-.012-.025-.023c.012-.05-.014-.083 0-.122m-1.758-1.093c.037.035.132.01.161.052.023 0 .062-.008.05.019h.048c-.006.014-.025 0-.031.008 0 .035.06.027.093.035a.635.635 0 0 1 .159.043 1.344 1.344 0 0 1 .149.031c-.008.019-.017.014-.01.039h-.027c0 .017.033.023.025.031a1.913 1.913 0 0 0-.242-.07c-.014.01.019.008.017.023s-.014-.01-.031-.008c.085.058.215.062.3.13-.006.017-.008-.008-.021 0s.025.012.019.033c-.072-.014-.141-.037-.213-.052.052.046.155.039.2.091-.116-.006-.195-.052-.306-.06-.041-.058-.145-.05-.195-.1.008-.006.021 0 .035-.008a.052.052 0 0 0-.027-.035c.008-.006.021-.008.023-.019.029.006.035.037.064.039.006-.006.025 0 .019-.017h.064c-.006-.031-.054-.037-.083-.031-.093-.01-.168-.091-.263-.1h-.025a1.139 1.139 0 0 0-.23-.06v.017c-.072 0-.147.012-.217 0a.453.453 0 0 1-.048-.019c-.027 0-.062.014-.081-.012a.178.178 0 0 0 .05 0c-.017-.021-.079 0-.093-.021 0-.07.083-.066.143-.058-.012.01-.035.01-.041.027a.131.131 0 0 0 .058.039c0 .01-.01.01-.023.008a.264.264 0 0 1 .058.014c.014 0 .006-.023.014-.027-.008-.01-.031 0-.046 0 0-.017-.008-.021-.017-.035a.162.162 0 0 1 .145-.01v-.007c.058.008.143-.006.168.035.087 0 .118.052.211.035m.633.493c-.014 0-.025 0-.023-.014.012 0 .023 0 .023.014m-.575-.242c0 .014-.014.017-.019.031-.033 0-.07 0-.075-.027.023-.027.052 0 .093 0m-.534-.2a.3.3 0 0 1 .112.014c.008.054.081.043.1.091-.031 0-.046.023-.075.023s-.048-.031-.085-.023c.014.014.046.01.058.023-.043.017-.1-.012-.141-.027.01-.021.035-.029.035-.06l.027-.006c0-.021-.027-.012-.027-.035m.093.238c-.012-.017 0-.037 0-.062a.345.345 0 0 1 .1.027c.033 0 .064.006.052.035a.329.329 0 0 0-.149 0m0 .012a.011.011 0 1 1-.021 0zm-.4-.439c.017 0 .056-.017.06.008.1.027.217-.008.331.014-.006.008-.01.008 0 .021-.124 0-.259.006-.362-.008v-.021c0-.004-.021-.008-.029-.014m.139-.062c0-.01-.006-.008 0-.017a.086.086 0 0 1-.068-.006 1.788 1.788 0 0 1 .408 0c0 .021-.06.029-.079.031s.006.017.019.012c0 .017-.029.012-.05.012.012.006.01.014-.008.014 0 .01.021.006.027.012-.1.008-.2 0-.288 0 0-.017.037-.006.054-.008s-.014 0-.008-.019c.029-.006.037.012.066.01-.019-.021-.043-.017-.072-.014l.008-.008c-.035-.008-.1.025-.153 0 0-.01.014 0 .023 0-.027-.01-.05 0-.075-.01.054-.041.128 0 .2 0m-.149.054c-.014.021-.052 0-.079 0 .017-.021.064 0 .079 0m-.008.039c-.014.023-.05 0-.07 0 .012-.017.058-.021.07 0m-.186 0c0-.012.01-.019.01-.031.025.006.037 0 .058 0a.05.05 0 0 1-.068.027m.054.079c0 .012-.017.014-.035.014-.006-.029.027-.027.035-.014m-.017-.149c-.008.014-.064.008-.066-.008.027.006.05 0 .066.008m-.039.052c0 .01-.043.017-.037-.008.017 0 .023.008.037.008m.043.054c-.012.025-.046.025-.075.031 0-.017-.017-.017-.006-.027s.052 0 .081 0m-.041.043c.006.014-.017.006-.023.008v-.024zm-.248-.106h.012c.008.023.041.019.075.012-.017.025-.056.025-.1.027.021-.014.014-.008.01-.035m.052.079c-.017 0-.041.01-.043-.012.017 0 .046-.008.043.012m-.058.058a.091.091 0 0 1-.043 0c0-.025-.033-.029-.021-.052a.1.1 0 0 1 .064 0c.019.021-.008.023 0 .048m-.021-.11c-.006.012-.033.008-.048.012 0-.017.035-.021.048-.012m-.141-.035c0 .012-.025.008-.031.017s.021-.014.031-.017m.083.025c0 .019-.027.014-.048.014 0 .008.021 0 .031 0-.019.017-.058.014-.093.017 0-.014.029-.006.039-.012-.021-.017-.048 0-.079 0 0-.008 0-.008-.008-.008a.227.227 0 0 1 .157-.014m-.567.108a.5.5 0 0 0 .163-.075.663.663 0 0 1 .195.008c-.014.021-.052.017-.081.023.035.014.068-.012.106-.008-.008.021-.043.017-.066.025.046.01.085-.023.132-.012l-.012.008c.031.01.066-.012.1 0a.12.12 0 0 1-.023.043c.029.014.137-.019.141.035a.225.225 0 0 1-.149.014v.017a.791.791 0 0 1-.261.021c0-.008.012-.008.017-.012-.033-.027-.093.012-.126-.021a.858.858 0 0 1 .265-.019.66.66 0 0 0-.242-.012c.014-.029.058-.012.083-.023-.021 0-.039-.01-.06-.012a.4.4 0 0 1 .1-.031c-.1 0-.178.054-.281.058.017-.021 0-.019 0-.035m-1.838.5a1.619 1.619 0 0 1 .294-.145c-.029 0-.058.019-.1.021a2.225 2.225 0 0 1 .381-.132c-.023-.014-.043.017-.07.014a.7.7 0 0 1 .385-.128 2.655 2.655 0 0 1 .267-.031c0 .023.033.01.054.014 0 .008-.006.008 0 .017a.111.111 0 0 1 .037.01c-.01.029-.054.027-.064.056a.435.435 0 0 0 .153-.07c.012.014-.014.01-.019.023.066-.033.149-.023.215-.054.01 0 .006.008.014.01s.072-.031.093-.006c.06.017.11-.027.161-.021.014 0 .019.012.031.017s.029 0 .039 0c.033 0 .066.017.1.019.012 0 .025-.014.035 0a.162.162 0 0 1-.077.031c.048.025.172-.014.24 0 .012 0 .039 0 .035.025.014 0 .01-.017.025-.012s-.01.012-.008.027.041 0 .052-.006-.006-.019 0-.033c.023-.017.072-.006.1-.014l-.006.014a1.377 1.377 0 0 0 .277.012c.017 0 .017.01.027.012a.086.086 0 0 1 .106.027.136.136 0 0 0 .058-.027c0-.01-.014-.008-.01-.025a.781.781 0 0 0 .124-.033c-.014-.014-.008-.027-.008-.043-.041-.017-.085.017-.137-.008-.006-.019.023-.027-.01-.025.006-.021.033-.031.046-.01 0-.01 0-.027.021-.031 0-.021-.025-.021-.012-.039.035-.037.1-.012.168-.017a.071.071 0 0 1-.089.027c-.021.006-.027.027-.048.035.033.01.046.039.087.041 0 .012-.017 0-.012.019s.043.012.062.023.012.017.008.035a.107.107 0 0 0 .048.012.156.156 0 0 1 .014-.039.443.443 0 0 1 .056.019c0 .01-.017 0-.019.012a.94.94 0 0 0 .116.087c-.037.06-.116 0-.172.01.027.033.106.01.122.052-.033.039-.087.021-.145.012-.01 0-.006.021-.017.023a.618.618 0 0 1-.168-.031c-.031.014-.1.025-.124 0a.034.034 0 0 0-.01.043c.043.012.157-.029.153.054a.2.2 0 0 0-.137.039c.048.006.068.052.012.066.023.023 0 .06 0 .1a.254.254 0 0 0 .106.072v.019c0 .025-.027.021-.021.05.012.01.037.006.035.031a.179.179 0 0 1 .075 0c.01 0 0-.027.008-.031s.025.01.035.014.012-.019.027-.017a.387.387 0 0 1 .2.052c0 .027-.021.031-.043.035.064.031.13-.052.195 0 .006.019.008.023 0 .035.031 0 .031.037.056.043.027-.012.014-.037.023-.064L29.752 6c.033.033.091.014.143.023 0 .021-.008.025-.017.035s.017.008.023.019-.027.01-.027.031a.062.062 0 0 1 .017.035c.006.01.017.006.019.01.012.029 0 .075.031.085s.037-.012.06-.008.043.043.06.07c.077-.033.18.023.236-.043a.069.069 0 0 1 0-.066c-.025-.017-.062-.058-.039-.093-.012-.027-.05-.025-.058-.056a.838.838 0 0 0 .1-.112c-.017-.079-.1-.093-.12-.166a.082.082 0 0 1 .043-.019c-.006-.01-.021-.012-.029-.019s.012-.006.008-.021a.233.233 0 0 0-.1-.054c-.014-.014.019-.01.012-.031s-.062-.008-.064-.043c.037-.017.07.008.108.014s.079-.01.112-.008a.422.422 0 0 1 .151.064c.043.01.1.006.126.035a.349.349 0 0 0 .075.116c.041-.035.085.014.11.037a.034.034 0 0 1 .043 0c.019-.006.021-.025.05-.021 0-.012-.014-.008-.01-.023s.027 0 .031 0c-.019-.027-.012-.06-.021-.091a.571.571 0 0 0 .091.052c.031.017.058.039.089.058h.014c.012.006.019.021.029.027s.031 0 .046.012.037.058.077.058c.012.01-.01.01 0 .031.05.033.128.037.157.091h.027c.012 0 .017.012.025.017.027-.021.087.008.128.014a.048.048 0 0 1-.058.031c0 .023-.014.012-.031.023a.023.023 0 0 1 0 .021c0 .014.027.014.043.012s.033-.023.033-.052c.043 0 .1 0 .11.039.079-.021.108.075.166.1.006.027-.025.017-.025.039a.237.237 0 0 0-.089.008.209.209 0 0 1-.039.035l-.018.024c-.056.025-.128-.006-.2 0-.027 0-.05.008-.079.008h-.155c-.027.021-.019.1-.083.07a.16.16 0 0 0-.068.12c-.008.012-.029.019-.037.037s0 .025.012.027c.043-.027.048-.064.075-.106.081-.043.244-.12.323-.025-.01.017-.019.037-.039.043a.062.062 0 0 0-.07 0c.029.031.075.035.106.056a.067.067 0 0 1-.029.041.229.229 0 0 1 .13.1c-.006.023-.043.01-.05.031-.027 0-.025-.019-.041-.023-.012.039-.054.019-.093.027-.017.006-.01.035-.023.043-.041.014-.05-.052-.066-.052-.033 0-.012.048 0 .079a.03.03 0 0 1-.043 0c-.031.041-.1.091-.093.155 0 .029.033.048.019.083-.025 0-.05 0-.079.008-.019-.014 0-.062-.029-.07a.056.056 0 0 0 .012.056.256.256 0 0 0-.068.043c-.054-.01-.083.048-.108.083h-.027v.031c-.079.006-.1.066-.145.108.019.035-.017.064-.017.087-.006.039.033.064.029.118a.475.475 0 0 0-.054.083c-.048 0-.05.056-.081.077a.064.064 0 0 1-.043-.01c-.021.021-.017.056-.037.07a.1.1 0 0 1-.027-.017c-.01.012-.014.037-.039.039 0 .017.027.012.027.031a.068.068 0 0 1-.11.009c-.012.027.019.041.021.066-.021.017-.025.05-.046.066-.012 0-.021-.01-.031-.012s-.031.027-.041.043c.008.012.033.01.046.021a.143.143 0 0 1-.149.079c-.01-.019 0-.043 0-.064-.037-.023-.068.035-.1.012a.071.071 0 0 1-.093.027c-.014 0 .006.025-.008.033-.05 0-.06-.037-.106-.041-.025 0-.031.025-.056.029-.014-.021.008-.027.008-.048a.4.4 0 0 0-.166 0v.043c-.021.012-.068.017-.072-.012-.008 0 0 .014 0 .021a.23.23 0 0 1-.155-.021c0-.019.017-.019.019-.031-.035-.021-.106 0-.153-.008a.065.065 0 0 1-.1.035c-.014.006-.019.023-.029.031s-.012-.025-.021-.039-.035 0-.043 0 .017.017.017.035a.057.057 0 0 1-.089-.017.078.078 0 0 0-.048.01c.006.014.033.006.035.023 0 .043-.056.033-.066.07-.012 0-.017-.008-.027-.014a.109.109 0 0 1-.083.066.546.546 0 0 1-.132.135.259.259 0 0 0 0 .043c-.05.041 0 .151-.07.18.075.033 0 .145.058.188 0 .039-.023.058-.031.089s.029.014.043.008a.1.1 0 0 1-.062.1c-.017 0-.019-.01-.029-.017-.033.019-.025.079-.046.11.01.031.056.021.062.054.035-.035.075 0 .1.027l-.008.031c.041.039.077.085.122.122.027.081-.023.221.066.226.027 0 .048-.033.089-.014 0 .021-.014.025-.019.039a.054.054 0 0 0 .039.039c.025 0 .019-.023.035-.027a.1.1 0 0 1 .058.01.641.641 0 0 1 .387.029l.017-.008c0-.027-.014-.029-.017-.048a.064.064 0 0 0 .033-.079c-.017 0-.031.01-.043 0a.611.611 0 0 1 .062-.079c.019 0 .017.023.031.031.027-.012 0-.048-.008-.066a.4.4 0 0 0 .025-.1c.087-.023.11.054.147.093 0 .021-.021.019-.027.031.041.023.037.132-.008.145a.119.119 0 0 1 .008.058c.021.025.064.023.07.06-.027.046-.07.075-.1.12 0 .014.014.023.012.046-.017.006-.046 0-.058.01.023.029.06-.006.089.014.017 0 .008-.031.021-.039a.058.058 0 0 0 .07-.008c.014.012.012.043.027.056.017 0 .01-.033.021-.043s.048-.021.062 0a.17.17 0 0 1 .14-.012.194.194 0 0 1 .186.037c0 .031.031.039.029.077 0 .01-.008.01-.017.014.031.054-.017.1-.029.145 0 .052.072.064.06.122H30.2a.119.119 0 0 0 .052.087c-.006.05-.006.1-.041.12a.541.541 0 0 0 .147.087 1 1 0 0 0 .141.141c.048 0 .085.008.132 0a.132.132 0 0 1 .13-.023c0 .079-.108.05-.13.1.021.021.05.039.072.058.006.019-.033.031-.039.052-.046 0-.039-.056-.058-.087-.023 0-.025.014-.041.017 0-.021-.031-.023-.037-.043a.345.345 0 0 0-.118-.039c-.089-.017-.12-.11-.207-.128a.134.134 0 0 0-.07-.064.108.108 0 0 0-.017-.05h-.056c-.014-.027-.039-.048-.021-.083.068 0 .089.079.164.039-.008-.039-.037-.043-.056-.077s-.108-.108-.159-.081a.056.056 0 0 1 0 .07c-.056-.023-.07-.083-.1-.126 0-.014.019-.012.014-.029-.01-.052-.064-.056-.1-.085-.025 0-.023.023-.039.029-.041.012-.062-.012-.1-.019s-.064 0-.091 0-.054-.041-.077-.054-.041 0-.052-.023c-.035-.012-.081 0-.12-.017s-.031-.056-.07-.058c-.048-.077-.143-.106-.2-.176-.06 0-.075-.039-.149-.025-.014.008-.01.035-.021.05a.174.174 0 0 0-.089.037.646.646 0 0 1-.25-.062c-.027-.043-.089-.046-.141-.056s-.106-.058-.172-.058c-.025-.037-.072-.054-.1-.087-.048 0-.1 0-.114-.027a.1.1 0 0 1-.07-.017c0-.014-.006-.017 0-.031-.023-.058-.114-.048-.155-.087 0-.056-.1-.112-.014-.137a.613.613 0 0 1 .033-.147.468.468 0 0 0-.159-.192c0-.062-.052-.066-.056-.124-.05-.048-.075-.12-.141-.149 0-.052-.041-.06-.041-.11-.006-.008-.023-.012-.033-.019 0-.054-.062-.05-.079-.087a.15.15 0 0 1-.054 0c.014-.05-.008-.137-.075-.118-.012-.031-.023-.064-.035-.1A.12.12 0 0 0 27 7.983c0-.023.01-.075.033-.091-.079-.006-.072-.091-.143-.1-.006.014.023.041 0 .056.029.048-.01.13.062.145a1.521 1.521 0 0 0 0 .19c.07.029.083.116.132.168-.021.046.012.056.029.083s.017.1.058.093a.486.486 0 0 0 .066.184c-.027.031 0 .068.01.1.014 0 .019-.012.029-.017.046.025.091.128 0 .141-.01-.118-.153-.128-.126-.269-.029-.064-.087-.1-.12-.161l.006-.031a.281.281 0 0 1-.075-.157c-.017-.019-.037-.029-.041-.058-.033-.031-.081-.035-.093-.089 0-.014.006-.033.006-.052s-.029-.056-.035-.083 0-.077-.027-.1c.029-.068-.021-.1-.031-.149-.014-.025-.043-.023-.075-.019a.172.172 0 0 0-.137-.048c.056-.089-.11-.151-.012-.215 0-.025-.033-.014-.041-.031s.037-.012.046-.025a.071.071 0 0 0-.019-.046c0-.012.021-.014.039-.012a.392.392 0 0 1 .05.108c.052.008.021.075.052.1a.058.058 0 0 0 .046-.035.1.1 0 0 0-.041-.062c-.039-.085-.008-.195-.039-.279-.079.012-.031.1-.075.141-.019 0-.048 0-.052.023-.021 0 0-.017 0-.023a.137.137 0 0 0-.039-.019c-.031-.054.029-.114-.014-.164a.338.338 0 0 0 .108-.224.834.834 0 0 0 .174-.25c.012-.006.021-.017.035-.019a.193.193 0 0 1 .035-.068.1.1 0 0 1 0-.1c.033 0 .07.017.11.017-.01.035-.054.039-.066.075a.173.173 0 0 0 .128-.091c0-.017-.008-.021-.008-.035.019 0 .023-.023.035-.031 0-.029-.054-.006-.054-.035-.008 0-.014.006-.029 0 0-.023-.033-.035-.046-.058-.027.01-.033.031-.027.062a.058.058 0 0 0 .041.014c0 .023.01.054-.01.064a.191.191 0 0 1-.06-.008c-.014-.052-.077-.056-.081-.106l-.014-.008c0-.014 0-.027-.01-.031s.021-.012.027-.023c.017.017.072.039.087.006s-.021-.023-.037-.027a.322.322 0 0 1 .043-.093c-.01-.011-.028-.011-.047-.011 0-.021.014-.025.019-.037s-.025 0-.035-.008c.023-.041.06-.072.058-.118-.006-.01-.017-.006-.027 0l.027-.043c0-.01-.017 0-.023 0 .021-.017-.014-.01 0-.027 0-.012-.014.008-.023-.006.029-.023.066-.037.085-.072 0 0-.012-.019 0-.019h-.023c.01-.021.029-.035.035-.058-.027.012-.033.048-.066.054.008-.012 0-.019.01-.031-.037 0-.046.048-.085.021.012-.01 0-.025.019-.037-.023-.01-.006-.031 0-.041-.06.031-.077-.014-.137 0 0-.014-.017-.008 0-.021a.051.051 0 0 1-.035 0l.008-.021c-.062 0-.1.037-.141.062a.493.493 0 0 0-.153.05c-.014-.012.021-.012.027-.019.058-.064.18-.066.24-.137a5.468 5.468 0 0 0-.517.257c-.017-.033.043-.046.079-.056h-.019c.033-.035.1-.035.137-.062a.2.2 0 0 0-.1.029c0-.008-.019-.006-.008-.017-.035.01-.056.035-.089.043l.008-.008c0-.008-.019.012-.031.008a3.754 3.754 0 0 1 .383-.207c-.041-.008-.06.041-.106.041m3.026-.155c-.012.006-.037.01-.048 0s.046-.021.048 0m2.169.88c-.021.014-.083 0-.081-.035a.128.128 0 0 1 .081.035m-1.222 3.442c-.01.01-.021 0-.031 0s.033-.019.031 0m-1.308-.407c-.031 0-.046-.014-.048-.031-.008-.058.1-.023.048.031M26.6 6.2c-.021 0 0-.087.023-.091s.01.012.029.006a.034.034 0 0 1-.025.019c.006.017-.014.066-.027.066m.087-.242c.037-.029.019-.13.093-.1-.029.035-.048.079-.093.1m.132-.1a.069.069 0 0 1-.058.052c.019-.019.029-.043.058-.052m-.058.124c-.017.017-.019.048-.039.062s0-.021-.017-.014c0-.029.033-.025.031-.056.017-.006.008.012.025.008m-.654-.066a.246.246 0 0 1-.11.052.2.2 0 0 1 .11-.052m-.145.035a.358.358 0 0 1-.11.052c.023-.029.075-.033.11-.052m-.155.07c0 .019-.048.033-.079.039a.188.188 0 0 1 .079-.039m-.1.048c0 .017-.019.006-.023.019-.01-.006.012-.019.023-.019" class="cls-2" transform="translate(24.126 5.31)"/>
                    <path id="Path_2608" d="M102.209 0L53.451 26.3 4.152.037H0l53.411 45.377L106.479 0z" class="cls-2"/>
                </g>
                <g id="Group_4753" transform="translate(0 52.728)">
                    <path id="Path_2605" d="M89.082 4.263a4.181 4.181 0 0 1-4.436 4.182h-2.537a3.983 3.983 0 0 0 1.244-1.334h1.292a2.722 2.722 0 0 0 2.9-2.823 2.74 2.74 0 0 0-2.9-2.851H83v1.226a3.97 3.97 0 0 0-.842-.786 3.869 3.869 0 0 0-.623-.35V.1h3.11a4.166 4.166 0 0 1 4.436 4.163m.835 4.237h1.445V2.2h-1.445zm6.8-3.121a2.853 2.853 0 0 0-.626-.351 6.847 6.847 0 0 0-.69-.248c-.182-.067-.36-.125-.53-.181a3.655 3.655 0 0 1-.454-.183 1.091 1.091 0 0 1-.315-.231.388.388 0 0 1-.118-.289v-.027a.557.557 0 0 1 .231-.457 1.067 1.067 0 0 1 .649-.178 2.712 2.712 0 0 1 .86.162 4.719 4.719 0 0 1 .919.436l.571-1.024a4.181 4.181 0 0 0-1.113-.527 3.912 3.912 0 0 0-1.2-.191 2.886 2.886 0 0 0-.874.13 2.2 2.2 0 0 0-.726.38 1.8 1.8 0 0 0-.477.6 1.775 1.775 0 0 0-.173.8v.026a1.524 1.524 0 0 0 .178.764 1.711 1.711 0 0 0 .461.516 2.39 2.39 0 0 0 .632.341c.235.086.468.166.7.228.183.054.36.109.53.16a2.481 2.481 0 0 1 .453.18 1.016 1.016 0 0 1 .311.231.459.459 0 0 1 .114.311v.021a.578.578 0 0 1-.258.5 1.2 1.2 0 0 1-.722.185 2.9 2.9 0 0 1-1.018-.2 4.01 4.01 0 0 1-1.044-.577l-.645.98a4.423 4.423 0 0 0 1.294.7 4.2 4.2 0 0 0 1.379.237 3.306 3.306 0 0 0 .917-.122 2.222 2.222 0 0 0 .742-.372 1.669 1.669 0 0 0 .5-.616 1.951 1.951 0 0 0 .18-.867v-.017a1.376 1.376 0 0 0-.18-.725 1.745 1.745 0 0 0-.46-.508m13.928-1.314a3.2 3.2 0 0 1 .251 1.271v.026a3.115 3.115 0 0 1-.258 1.263 3.273 3.273 0 0 1-1.77 1.754 3.394 3.394 0 0 1-1.344.263 3.429 3.429 0 0 1-1.33-.255 3.3 3.3 0 0 1-1.064-.7 3.141 3.141 0 0 1-.7-1.037 3.223 3.223 0 0 1-.248-1.265v-.023a3.225 3.225 0 0 1 .251-1.279 3.288 3.288 0 0 1 1.77-1.752 3.312 3.312 0 0 1 1.34-.259 3.423 3.423 0 0 1 1.343.254 3.232 3.232 0 0 1 1.061.7 3.185 3.185 0 0 1 .7 1.034m-1.19 1.3a2.249 2.249 0 0 0-.143-.789 1.9 1.9 0 0 0-3.173-.649 1.726 1.726 0 0 0-.383.632 2.273 2.273 0 0 0-.13.78v.026a2.156 2.156 0 0 0 .141.772 2.02 2.02 0 0 0 .4.653 1.929 1.929 0 0 0 .607.442 2 2 0 0 0 1.561 0 1.815 1.815 0 0 0 .606-.439 1.865 1.865 0 0 0 .382-.637 2.227 2.227 0 0 0 .132-.768zm4.746 1.468L112.5 2.2h-1.553l2.588 6.345h1.3l2.58-6.345H115.9zm9.264-2.664a4.321 4.321 0 0 1 .191 1.292c0 .066 0 .13-.005.2s-.013.135-.021.209H119a1.751 1.751 0 0 0 1.812 1.6 2.076 2.076 0 0 0 .931-.193 3.011 3.011 0 0 0 .775-.557l.849.75a3.476 3.476 0 0 1-1.082.858 3.212 3.212 0 0 1-1.5.323 3.385 3.385 0 0 1-1.273-.238 3.163 3.163 0 0 1-1.026-.67 3.09 3.09 0 0 1-.682-1.029 3.44 3.44 0 0 1-.251-1.332v-.031a3.585 3.585 0 0 1 .227-1.273 3.092 3.092 0 0 1 .64-1.043 2.921 2.921 0 0 1 2.21-.958 3.039 3.039 0 0 1 1.32.27 2.749 2.749 0 0 1 .941.74 3.137 3.137 0 0 1 .567 1.081m-1.24.591a1.517 1.517 0 0 0-.155-.5 1.74 1.74 0 0 0-.322-.53 1.44 1.44 0 0 0-.486-.356 1.59 1.59 0 0 0-.634-.121 1.466 1.466 0 0 0-1.108.458 1.654 1.654 0 0 0-.527 1.045zm-20.891 2.633a1.919 1.919 0 0 1-1.883-2.041 1.894 1.894 0 0 1 1.811-2.016 2.123 2.123 0 0 1 1.635.789l.9-.967a3.148 3.148 0 0 0-2.516-1.083A3.247 3.247 0 0 0 98 5.368a3.3 3.3 0 0 0 5.828 2.089l-.87-.857a2.231 2.231 0 0 1-1.635.785m24.846-4.145V2.2h-1.444v6.3h1.444V6.1a3.143 3.143 0 0 1 .156-1.1 2.747 2.747 0 0 1 2.275-1.564l-.5-1.2a3.18 3.18 0 0 0-1.934 1.006m7.545-1.042L132.1 6.814l-1.5-4.617h-1.542l2.34 6.255-.015.039a4.873 4.873 0 0 1-.9 1.587 3.6 3.6 0 0 1-1.392.135v1.178a5.776 5.776 0 0 0 2.089-.211 2 2 0 0 0 .918-1.1c.364-.727 3.121-7.879 3.121-7.879z" class="cls-2" transform="translate(-49.858 -.1)"/>
                    <path id="Path_2606" d="M52.311 13.223h1.483l4.193 8.126 4.213-8.126h1.432l-5.068 9.5h-1.185zm17.18 0h8.522v.97h-7.192v3.222h6.433v.969h-6.433v3.3H78.1v.969h-8.609zm14.823 0h1.33v8.449h6.635v.982h-7.965zm12.766 4.745v-.027c0-2.6 2.442-4.878 6.029-4.878s6 2.249 6 4.849c.015.014.015.014 0 .028 0 2.6-2.442 4.875-6.029 4.875s-6-2.247-6-4.848m10.642 0v-.027c0-2.143-1.953-3.9-4.647-3.9s-4.614 1.726-4.614 3.867v.028c0 2.142 1.954 3.893 4.648 3.893s4.613-1.726 4.613-3.866m7.213 0v-.027c0-2.668 2.49-4.878 5.959-4.878a6.965 6.965 0 0 1 4.6 1.495l-.908.783a5.779 5.779 0 0 0-3.7-1.3c-2.61 0-4.564 1.7-4.564 3.867v.028c0 2.182 1.969 3.893 4.564 3.893a5.753 5.753 0 0 0 3.8-1.359l.876.685a6.891 6.891 0 0 1-4.714 1.656c-3.4 0-5.911-2.141-5.911-4.848m16.607-4.744h1.332v9.431h-1.332zm11.438.984h-3.96v-.984h9.262v.984h-3.957v8.447h-1.345zM158 18.923l-4.9-5.7h1.618l3.974 4.717 4.007-4.717h1.55l-4.9 5.687v3.744H158z" class="cls-2" transform="translate(-52.311 .988)"/>
                    <path id="Path_2611" d="M83.579 5.013a3.3 3.3 0 1 0-3.3 3.3 3.3 3.3 0 0 0 3.3-3.3m-1.418-1.446l-.01.009a.071.071 0 0 1-.04.01.451.451 0 0 1-.293-.141v-.034l.01-.025c.005-.011.038-.008.052-.021a.776.776 0 0 1 .283.2m-.74-.758c.031.015.012.043.022.046a.627.627 0 0 1 .1.043.4.4 0 0 1 .027-.049l.037-.031h.047a.194.194 0 0 1 .054-.009.139.139 0 0 1 .132.081.045.045 0 0 1-.023.02h-.014a.033.033 0 0 1-.025-.008v-.022a.219.219 0 0 0-.047.027.272.272 0 0 0-.053-.011h-.017V2.9c0 .008 0 .013-.013.025-.047 0-.1.039-.139.04a.041.041 0 0 1-.024-.011v-.01a.263.263 0 0 1 .005-.028v-.005a.038.038 0 0 1-.015-.013.1.1 0 0 1-.025 0 .14.14 0 0 1-.132-.08h.009c.021 0 .043.009.06.009a.064.064 0 0 0 .038-.015m.105.5c0 .016.042.038.062.05v.011l-.008.01-.036.01a.94.94 0 0 0-.147-.07c0-.007 0-.012.007-.014a.026.026 0 0 1-.026-.02.256.256 0 0 0 .033-.1v-.01h-.005c-.025-.01-.066 0-.1-.026v-.011l.011-.012-.049-.03c-.046-.02-.087-.044-.133-.065l-.031-.005a.133.133 0 0 1-.091-.057v-.012c.017-.012.065-.018.088-.03a.09.09 0 0 1 .044.069l.09-.022a.408.408 0 0 1 .22.124.74.74 0 0 1 .088.069c0 .008 0 .014-.018.023l.208.112-.005.013-.027.013c-.066-.013-.087-.039-.127-.038h-.054zm-.292 2.051c-.077.016-.087.124-.2.041-.019-.014-.021-.046-.038-.059-.034-.025-.1 0-.105-.05v-.007c.025-.009.034.022.059.015l.01-.012c.007-.026 0-.055.012-.074.067-.021.113.015.167-.022a.049.049 0 0 1 .024 0 .374.374 0 0 0 .028.029c.046.014.064-.029.105-.023.018.014.011.037.023.056s.145.074.119.115a.229.229 0 0 1-.115 0 .186.186 0 0 0-.1-.017m.088.346l-.01.014c-.027.01-.1.022-.114-.005v-.016c.014-.026.042-.034.069-.048a.057.057 0 0 1 .054.057m-.539-1.6c-.011.01-.022.02-.031.018a.053.053 0 0 1 .009.027.032.032 0 0 1-.014.026.071.071 0 0 1-.04.009h-.012a.06.06 0 0 0-.049-.022h-.016a.032.032 0 0 1 0 .024c-.017 0-.018.02-.04.035h-.013a.035.035 0 0 1-.027-.013v-.033L80.5 4.2c-.018.022 0 .062-.044.078l-.011-.009a.087.087 0 0 1 0-.023v-.007c-.013 0-.023.016-.043.017a.027.027 0 0 1-.018-.007.02.02 0 0 1 0-.021A.817.817 0 0 1 80.6 4c.017-.015.072-.049.068-.064 0-.009-.025-.008-.027-.043.022-.027.055-.05.063-.075 0 0-.007-.01 0-.01a.189.189 0 0 1-.056 0 .061.061 0 0 1-.047.044l-.08-.005-.06.02a.369.369 0 0 0-.129.119c0 .005.008.011.009.025l-.018.042a.093.093 0 0 1 0 .044h-.035a.082.082 0 0 0-.012-.017h-.006a.067.067 0 0 1-.021.038.047.047 0 0 1-.021 0h-.039c0 .036-.024.06-.023.078v.01c.02.007.056.01.07.037a.284.284 0 0 1 0 .051v.007a.092.092 0 0 1 .053 0v.013c-.017.023-.036.044-.059.069a.135.135 0 0 1-.033.005l-.024.027-.028.008-.035.036a1.01 1.01 0 0 0-.1.061H80l-.015-.013c0-.007-.014-.016-.021-.015s-.011 0-.012 0v.022a.025.025 0 0 1-.008.018.41.41 0 0 0-.069.01c-.01 0-.011.014-.027.027l-.021.005c-.024.012-.043.04-.075.052a.549.549 0 0 1-.112.021.4.4 0 0 1-.088.029s-.01 0-.023-.011v-.013a.506.506 0 0 0 .106-.08.021.021 0 0 1 .017-.013h.011l.012-.007h.009s.014-.008.028-.01h.009a.041.041 0 0 0 .041-.034l-.01-.035c-.042.013-.088.017-.126.033s-.046.035-.08.043a.283.283 0 0 1-.075.008h-.047a.408.408 0 0 0-.063 0c-.03.005-.054.025-.088.031a.175.175 0 0 1-.05-.013.258.258 0 0 1-.178.079h-.02a.7.7 0 0 0-.07-.018.056.056 0 0 0-.026.005.2.2 0 0 1-.015.037.178.178 0 0 1-.014.022c-.033 0-.033-.023-.062-.03a.035.035 0 0 0-.017 0c-.023 0-.049.011-.075.011h-.007l-.005.007a.078.078 0 0 1 .038.037v.01a.082.082 0 0 1-.018.014h-.005c-.042 0-.055-.035-.076-.048l-.047-.026-.011.007h-.01c-.01 0-.018.005-.041.005-.016-.023-.027-.052-.043-.061a.322.322 0 0 1-.041.011h-.011c-.014.005-.017.028-.04.049l-.029-.022v-.011l.011-.024a1 1 0 0 0-.03-.108h-.009c-.025.016-.049.033-.081.05-.042-.017-.116-.039-.137-.088V4.47a.039.039 0 0 1 .01-.025.083.083 0 0 1 .022 0c.028.014.043.005.08.02.006 0 .008 0 .008-.011a.148.148 0 0 0-.02-.052l-.111-.126c-.026 0-.046.035-.091.044l-.016-.02c0-.041.018-.048.025-.067V4.2a.028.028 0 0 1 .013-.026.038.038 0 0 1 .018.008c0 .014.005.021 0 .025s.039-.055.043-.064a.028.028 0 0 1-.013-.029v-.037l-.022-.03-.06.052h-.01l-.01-.01c0-.016 0-.025-.008-.027H78c-.013 0-.027.01-.045.01l-.012-.008v-.011c0-.01.008-.013.012-.018s.023-.016.036-.025a.043.043 0 0 1 .019 0h.031l.005-.026c.007-.01.039-.042.038-.06a.029.029 0 0 0-.009-.017.275.275 0 0 1-.033.04.146.146 0 0 1-.038-.008A.08.08 0 0 1 78 3.9a.041.041 0 0 1 .017-.038.093.093 0 0 1-.017-.037.2.2 0 0 1 .025-.1c.038 0 .024-.026.048-.057.012-.013.027-.012.028-.017s0-.056.041-.068l.01.008v.017a.22.22 0 0 1-.026.077l-.043.106c0 .014.007.028.01.048s-.008.02-.007.025a.224.224 0 0 0 .018-.016h.01l.013.009h.005c.013-.069.054-.105.067-.163v-.017c0-.02-.008-.038-.008-.061v-.008a.122.122 0 0 0 .039-.075v-.012a.3.3 0 0 0-.033.008c-.009-.008-.02-.016-.031-.028v-.009c0-.034.017-.039.024-.054a.322.322 0 0 1 .009-.039.463.463 0 0 1 .037-.06l.025-.023c.033-.06.067-.173.127-.209l.036-.016a.522.522 0 0 1 .129-.14l.031-.007.009.012a.968.968 0 0 0-.044.111c-.072.018-.07.086-.118.129a.115.115 0 0 1 .005.033c0 .021-.01.016-.014.046v.02a.024.024 0 0 1-.005.016.163.163 0 0 1-.024.024l-.013.056c-.008.028-.018.06-.029.09-.024.047-.049.091-.072.132v.055a.237.237 0 0 1-.1.141h-.007a.061.061 0 0 1 .018.041.041.041 0 0 1 0 .018c-.017.015-.052.033-.051.056v.008a.054.054 0 0 1 .011.027v.009c-.005.015-.013.017-.011.02l.052.054.021.011a.118.118 0 0 1 .034-.023l.008.01v.015a.228.228 0 0 1-.018.1l-.006.011.014.013a.068.068 0 0 0 .046.069l.036.008a.262.262 0 0 1 .085.077c.018.027.03.08.052.089h.022c.029 0 .056-.026.088-.027.015 0 .031.009.046.037a.082.082 0 0 1-.018.025h-.017a.886.886 0 0 0 .1.053l.022.022c.006.007.041.009.07.015s.05.021.072.026h.03l.029.008h.005c.008 0 .013-.005.027-.01l.051.007a.688.688 0 0 0 .081-.02c.04-.011.1 0 .12-.015a.276.276 0 0 0 .07-.093h.014l.043.053h.024c.086 0 .1 0 .152-.067h.006a.317.317 0 0 0 .066-.008l.041-.005c-.02-.014-.038-.023-.064-.041v-.013a.5.5 0 0 1 .1-.035h.01a.16.16 0 0 1 .036.011l.052-.011.044-.027.1-.038a.857.857 0 0 0 .231-.216c.026-.03.113-.105.112-.153v-.009c-.033-.144-.125-.173-.28-.2a.133.133 0 0 0-.028 0c-.041 0-.081.014-.122.014a.11.11 0 0 1-.031 0l-.057-.025a.347.347 0 0 0-.126-.023.264.264 0 0 0-.052.005.347.347 0 0 0-.109.04l-.057.04a.1.1 0 0 1-.03 0c-.021 0-.043-.007-.063-.005a.085.085 0 0 0-.024 0c-.014 0-.026.024-.051.039a.119.119 0 0 1-.035-.02.042.042 0 0 0 0-.02v-.007c-.009 0-.013 0-.02.007a.074.074 0 0 1-.031.005h-.009v-.01a.329.329 0 0 1 .033-.059.152.152 0 0 1 .041 0 .281.281 0 0 0 .018-.03.181.181 0 0 1 .046-.031v-.026h-.01l-.045.018s0 .01-.012.021h-.015a.041.041 0 0 1-.039-.031l.008-.008c0-.016-.01-.017-.023-.018h-.048a.043.043 0 0 1-.031-.011v-.009h.008c.04-.021.1-.015.122-.034a.181.181 0 0 1 .033-.033H79.262v-.016c0-.06.056-.125.055-.192v-.003L79.3 3.23l-.043.007s-.016.015-.022.016a.26.26 0 0 1-.013.076.215.215 0 0 1-.043 0 .2.2 0 0 0-.026-.03v.009a.109.109 0 0 1-.023.023h-.02l-.018-.024v-.024c-.036.017-.064.054-.113.055-.005 0-.012 0-.01-.005-.024.028-.085.074-.091.109a.2.2 0 0 1 0 .027v.01c-.018.017-.044.023-.055.037a.651.651 0 0 1-.079.108.247.247 0 0 1-.033-.009c-.015 0-.006.038-.039.048h-.019v-.008-.04c-.059.011-.07.057-.1.122a.206.206 0 0 0-.022.063l.01.035.036.023c.009 0 .005-.031.012-.031a.044.044 0 0 1 .036.018v.02c0 .009 0 .011.009.016a.967.967 0 0 0 .167.08v.031h-.008c-.007 0 0 0-.024.01h-.018a.092.092 0 0 0 .078.052.1.1 0 0 0 .025 0 .062.062 0 0 0 .041-.022l.068-.012a.079.079 0 0 0 .051.021h.005l.035-.026a.052.052 0 0 1 .025-.005h.037a.3.3 0 0 1 .076-.024h.013c.014.009.028.014.04.022a.07.07 0 0 1 .041.026v.017c-.008 0-.015.007-.017 0l-.009.009h.013c.035 0 .088-.048.13-.049a.035.035 0 0 1 .023.009c0 .009.005.018 0 .022h.006c.018 0 .039-.009.062-.01h.016c.021.005.039.017.059.022h.074a.065.065 0 0 1 .054.024v.01c-.02.014-.044.014-.059.023s-.024.024-.041.039H79.482a.136.136 0 0 0-.035.005l-.079-.026c-.011.013-.049.026-.046.031s.017.015.042.033v.027a.082.082 0 0 1-.041.037l-.054-.012c-.035.008-.061.055-.105.056a.054.054 0 0 1-.021 0l-.089-.047c-.024.007-.056.011-.07.014h-.005c.017.028.009.043.024.064l-.005.012-.04.007-.07-.052c-.036.009-.042 0-.057.013a.318.318 0 0 1 .06.128.474.474 0 0 1-.063.033c-.012-.01-.05-.013-.067-.027l-.033-.046a.818.818 0 0 1-.093-.139l-.022-.012-.024-.033c-.028-.022-.062-.029-.087-.062a.143.143 0 0 1-.015-.051l-.042-.061c-.014-.022 0-.042-.012-.054l-.039-.041.017-.038v-.065c0-.023 0-.048.026-.049.008 0 .014 0 .014.008s.009-.007.01 0v-.111a.544.544 0 0 1 .02-.176c.016-.034.052-.049.062-.075l.016-.012a.479.479 0 0 0 .044-.108.713.713 0 0 1 .166-.249c.053-.038.132-.049.185-.08l-.005-.007v-.011h.008c.027-.014.021-.005.036-.018h.005a.064.064 0 0 1-.021-.015V2.91a.131.131 0 0 1-.028-.017v-.008a.071.071 0 0 1 0-.033.054.054 0 0 1 .017 0 .046.046 0 0 0 .038.021c.052 0 .127-.085.2-.087.005 0 .011 0 .023.013l-.051.12.019.028c.156-.01.1-.154.21-.191l.042-.017a.608.608 0 0 1 .083-.066l.237-.064a.2.2 0 0 1 .073-.009c.028 0 .053 0 .076.005h.051c.017 0 .036-.012.046-.013v-.03a.049.049 0 0 1 .011-.031h.016a.076.076 0 0 1 .053.018c0 .015-.009.017-.016.017a.126.126 0 0 0 .036 0h.056a.1.1 0 0 1 .046.009v.018a.084.084 0 0 1-.014.042c.029 0 .073 0 .093.027a.17.17 0 0 0-.011.025h.052a.135.135 0 0 1 .121.064.082.082 0 0 1-.021.033c-.027 0-.061-.026-.085-.025h-.014l-.007.01c.051.014.07.053.118.062v-.017c0-.005 0-.01.014-.017s.066.01.083.035V2.853l-.022.007-.041-.023a.22.22 0 0 1-.014.06h-.011c-.049 0-.069-.03-.1-.042h-.012l-.009.015a.078.078 0 0 1-.048-.031c0-.012-.012-.008-.017-.029v-.025a1.2 1.2 0 0 0-.145-.04l-.065-.016c-.013.013-.044.015-.044.022a.491.491 0 0 1-.079.009l-.025.024a1.5 1.5 0 0 1 .242.037v.01c0 .009.039.018.049.038.05.014.158.056.178.1 0 .018.075.029.092.054s.036.073.057.109c-.007.014-.016.011-.022.016l-.005.008h-.012c-.072-.035-.126-.135-.291-.143h-.06l-.015-.022h-.011a1.333 1.333 0 0 0-.171.009h-.015c-.015 0-.021-.031-.034-.031l-.028.013.017.031.025.017a.05.05 0 0 1-.018.021.247.247 0 0 0-.049 0 .58.58 0 0 0-.145.024.2.2 0 0 0-.04-.028c-.047.049-.1.054-.138.1l-.039.055c0 .026.025.06.028.09a.233.233 0 0 1-.091.14.306.306 0 0 0 .065.014.056.056 0 0 0 .027-.007.085.085 0 0 1 .041-.026c.016.015.018.035.029.038h.009c.015 0 .025-.015.05-.027.024.015.038.005.078.018 0 .021.006.016.036.034-.011.033-.056.049-.053.068a.208.208 0 0 0 .141-.08.418.418 0 0 0 .061.005c.021 0 .029 0 .029-.012v.001s-.06-.018-.082-.041l.007-.018a.368.368 0 0 1 .034-.022.135.135 0 0 1 .083.035.128.128 0 0 1 .009.034l.046.023c.01.013.022.026.028.036s.037.009.057.015a.121.121 0 0 1 .024.022h.005c.007 0 .014-.007.027-.007s0 0 .012.008c.012.078.051.039.118.072l.005.016s.031-.022.044-.033c-.034-.013-.053-.047-.077-.073a.067.067 0 0 1 .014-.025c.017 0 .015-.015.053-.014a.031.031 0 0 0 .012.023h.012a.034.034 0 0 0 .01-.009.089.089 0 0 0 .008-.023v-.004a.084.084 0 0 0-.024-.021.191.191 0 0 1-.043.008.048.048 0 0 1-.025-.007c-.01-.03-.046-.034-.064-.075l.007-.016c.019-.009.023-.024.044-.038a.319.319 0 0 1 .127-.044c.028.017.037.034.063.034h.017a.024.024 0 0 1 .012.025c-.015.03-.008.092-.027.13s-.065.039-.069.064a.052.052 0 0 0 .025.015l.029-.016h.01a.1.1 0 0 1 .02.059.079.079 0 0 1-.022.056.053.053 0 0 0-.035.02c0 .023.009.029.029.047a.216.216 0 0 0-.006.027l.022.028c.055 0 .055-.042.086-.087l.082-.065c.012-.015 0-.037.011-.072s.039-.036.039-.05l-.036-.112V3.38c0-.023.014-.033.013-.037 0-.015-.012-.023-.017-.034s-.021.008-.039.008h-.014l-.015-.017v-.011a.068.068 0 0 1 .027-.024.1.1 0 0 0-.033-.033.047.047 0 0 1-.037.034l-.017-.017v-.012c0-.047.024-.059.056-.079.109.016.12.167.143.259 0 .018.022.033.032.06l-.009.013c-.009.013-.015.005-.019 0s.012.021.012.038v.047c.025-.005.038-.05.053-.076l.048-.057a.038.038 0 0 1 .016.013v.03l-.01.08a.214.214 0 0 0 .068-.018c.008 0 .014-.024.026-.042h.01a.157.157 0 0 1 .054.013.047.047 0 0 1 .008.027.048.048 0 0 1-.013.034.174.174 0 0 0-.038.021.152.152 0 0 1 .048.017c0 .027.051.044.079.062a.021.021 0 0 1 .009.023l.025.014v.012c-.013.017-.038.018-.062.02a.043.043 0 0 1-.018 0c-.01-.014-.008-.017-.017-.022a.067.067 0 0 1-.042.025l-.005-.008v-.004-.013L80.9 3.7v.011a.045.045 0 0 1-.034.02s-.009 0-.02-.011a.048.048 0 0 0-.024-.037h-.007a.1.1 0 0 0-.075.09.077.077 0 0 0 .011.036h.1a.042.042 0 0 0 .012.016c.014 0 .041-.015.066-.016a.042.042 0 0 1 .031.015l-.008.01a.1.1 0 0 0-.068.031v.011l-.015.021a.037.037 0 0 1 .008.018v.013l-.007.007a.352.352 0 0 0-.077.03s.005.01 0 .011h.022a.047.047 0 0 1 .032.013V4a.126.126 0 0 1-.012.059.129.129 0 0 1-.049.016.186.186 0 0 1 0 .037M79.62 6h-.02l-.057-.039c-.019-.013-.074 0-.1-.018V5.92a.392.392 0 0 1 .237-.079c.038 0 .069.041.118.02s.041-.09.08-.124h.035l.063.066.158.108.013.068c.043.02.1.005.141.023.025.011.046.049.069.064.039-.013.048-.053.091-.047.022 0 .034.014.04.042-.042.153-.405.1-.463.024-.008-.015 0-.038-.014-.054l-.057-.038c-.02-.031-.012-.069-.033-.094a.569.569 0 0 0-.242.028L79.62 6m.031.845h-.006a.562.562 0 0 0-.059.034.064.064 0 0 1-.041-.025.158.158 0 0 1 .014-.086h.008a.091.091 0 0 1 .085.078M79.1 5.654c.049-.026.111-.026.168-.054a.136.136 0 0 1 .117.044c-.009.137-.244.114-.287.027v-.017m-.114-.386c.013-.039.07-.061.152-.093l.078-.014.042.005c.029.022-.078.109-.146.118a.231.231 0 0 1-.126-.016m.838.2a.067.067 0 0 1 .016-.031c.051 0 .11.051.131-.009a.059.059 0 0 0 .007-.041c-.008-.013-.017-.015-.025-.029l.007-.007c.014 0 .025 0 .038-.008.027-.113.133-.033.229-.069a.054.054 0 0 1 .044.016v.02c-.03.013-.075.013-.1.036 0 .023.013.024.025.035s.021.026.038.033c.057.017.136-.014.167.027v.011a.687.687 0 0 1-.308.015l-.082-.018-.016.011a.029.029 0 0 0 .007.021.292.292 0 0 1 .094.025c0 .014 0 .014-.008.022l-.163.035a.6.6 0 0 1-.277.027c-.048-.011-.066-.075-.114-.081-.013.02-.047.069-.079.057s-.048-.044-.065-.062a.022.022 0 0 1 0-.016.133.133 0 0 1 .144.007c.051-.011.125-.008.183-.017.04-.007.078.01.105 0m-.044-.411c0-.088.055-.047.094-.088h.016a.073.073 0 0 1 .039.059.134.134 0 0 1-.138.04zm.591.052v-.01l.039-.026c.012-.02.009-.039.026-.052L80.486 5h.014c.035.025.021.089 0 .122-.04.014-.1.023-.129-.012m.021.192v.005c-.048 0-.114-.036-.118-.078h.007c.04 0 .13.04.114.081m.1-.486a.436.436 0 0 0-.12-.028c-.046.046-.037.108-.153.1-.134-.1.1-.189.193-.248h.026a.178.178 0 0 1 .083.171.281.281 0 0 0-.029.007m-.771.105a.1.1 0 0 0-.035.082.1.1 0 0 1 0 .04.01.01 0 0 1-.013 0 .106.106 0 0 0-.111-.031l-.01.013c-.006.026.021.035.013.059v.008h-.1c-.036.01-.057.051-.081.075-.044-.005-.016-.049-.031-.081-.008-.014-.018-.009-.021-.031s.008-.025.028-.027h.007v.034c.055 0 .1-.061.144-.086a.679.679 0 0 1 .119-.06l.063-.014h.018l.008.007zm-.475 1.652a.7.7 0 0 1 .267.158v.019a.8.8 0 0 1-.264-.1c-.01-.013-.01-.044-.015-.059a.042.042 0 0 1 .019-.016m1.149-.68c-.037-.007-.092.017-.115-.008a.058.058 0 0 1 0-.079c.041-.008.061.01.1.01.119 0 .116-.009.178.086v.028l-.009.009-.035.008-.015-.008-.1-.046m.152-.429c-.034-.008-.077 0-.08-.034a.07.07 0 0 1 .021-.014h.066c-.015-.01-.029-.023-.011-.031s.03-.039.072-.034a.124.124 0 0 1 .082.034c.035.023.061.07.026.074a.225.225 0 0 1 .042.024v.014a.785.785 0 0 1-.211-.034m-1-2.974a.119.119 0 0 1 .069-.048c0-.016.022-.028.019-.03l.005-.008a.111.111 0 0 1 .036 0s.007.007 0 .008l.066-.016h.005a.085.085 0 0 1 .044.012v.001l-.03.035-.029.023c-.061.048-.055.037-.13.037h-.073a.034.034 0 0 1 0-.02m1.688.93l.112-.018v.008a.561.561 0 0 0-.069.065.661.661 0 0 1 .064.038v.01a.061.061 0 0 0-.031.038l.02.013-.008.011c-.028.008-.037.025-.055.04-.035-.005-.043-.041-.063-.062l.014-.043a.149.149 0 0 1-.021-.027l-.016-.01v-.01h.005c-.007-.013-.012-.026-.018-.041a.187.187 0 0 1-.069.023l-.006-.043a.057.057 0 0 1-.056-.028l.025-.064a.182.182 0 0 1 .048.012A1.323 1.323 0 0 0 81 3.212a.158.158 0 0 1 .017-.061h.005c.051.016.029.063.051.077l.069.014a.282.282 0 0 1 .138.105c-.011.011-.023.022-.035.031s-.01.03-.014.046h.005m-.247-.524a.263.263 0 0 1-.173-.14l.007-.01a.143.143 0 0 1 .037 0c.091 0 .172.065.175.116a.036.036 0 0 1-.014.027.046.046 0 0 1-.03.011m-.154 2.566a.8.8 0 0 1 .243.128c.015.009.054.052.021.073h-.01l-.114-.083c-.038-.027-.127-.067-.148-.106 0-.009 0-.008.009-.013m-.257-3.379a.093.093 0 0 0 .072-.044.3.3 0 0 1 .126.053l-.026.051h-.008v.007c-.085-.023-.105-.024-.168-.04v-.01zm-.361.12h.08l.088-.033-.005-.027a.1.1 0 0 1-.041.008c-.007-.008-.02-.015-.02-.03s.006-.02.021-.028a.37.37 0 0 1 .082-.016.039.039 0 0 1 .021 0l.008.015v.007a.075.075 0 0 1-.025.014h-.008a.894.894 0 0 1 .1-.008.162.162 0 0 1 .109.034v.009a.042.042 0 0 1-.014.012h-.067a.5.5 0 0 0-.075.008l-.029.033a.246.246 0 0 1 .085-.012 1.317 1.317 0 0 1 .186.022h.019a.34.34 0 0 0 .046 0 .23.23 0 0 1 .046 0v-.012a.024.024 0 0 1 .013-.014c-.009-.011-.021-.018-.023-.037a.033.033 0 0 1 .014-.025.086.086 0 0 0 .053-.022.316.316 0 0 1 .156.049.03.03 0 0 1 0 .02l-.07.048c-.024 0-.05-.02-.07-.02a.125.125 0 0 1-.018 0l.041.017v.011l-.007.008a.122.122 0 0 1-.046.007.333.333 0 0 0 .056.013h.019c.072 0 .147-.054.236-.057l.008.012-.012.029a.186.186 0 0 1 .062.013l-.008.01a.365.365 0 0 0-.113.024.1.1 0 0 1 .028.016v.009c0 .008 0 .015-.015.023a.13.13 0 0 0-.03 0 .2.2 0 0 0-.078.016v.017l.2.056v.013a.126.126 0 0 1-.027.027h-.021a.014.014 0 0 1-.01.014.023.023 0 0 1 .014.022c-.006.016.093.034.1.074 0 .023.043.016.055.059v.01a.025.025 0 0 1-.027.026.154.154 0 0 0-.036 0c-.024 0-.039-.022-.079-.038s-.044-.03-.078-.057a.094.094 0 0 0-.056-.02h-.008l-.007.007a.1.1 0 0 1-.026.025c-.052-.022-.143-.044-.181-.1l.01-.012h.092a.027.027 0 0 1 .014 0v-.008a.023.023 0 0 1-.011-.029h-.073a.168.168 0 0 0-.081-.026h-.024c-.015.013-.044.009-.056.015h-.011c-.008 0-.007-.01-.024-.01a.1.1 0 0 0-.031.007.7.7 0 0 0-.128-.042.1.1 0 0 0-.037.012.459.459 0 0 1 .206.1v.011l.015.022c.01.01.02.017.022.024a.086.086 0 0 1 .024-.007l.005.012a.041.041 0 0 0-.01.025.084.084 0 0 1 .034.037.267.267 0 0 1 .043 0c.037 0 .074.007.077.037a.035.035 0 0 1-.005.018.061.061 0 0 1-.053.028.325.325 0 0 1-.04 0 .11.11 0 0 1-.057-.042.283.283 0 0 1-.206-.09l-.039.015h-.01a.087.087 0 0 1-.075-.061l.008-.009c-.031-.015-.039-.043-.059-.054l-.036-.009c-.034-.02-.064-.056-.1-.056-.038 0-.055.023-.1.03a.031.031 0 0 0-.02-.009c.007 0 .009.013.011.025l-.01.011-.082-.017a.123.123 0 0 0-.028 0c-.033 0-.068.007-.1.007a.084.084 0 0 1-.061-.021V2.36l.009-.008a.107.107 0 0 0 .03 0 .138.138 0 0 0 .067-.014s0-.011.014-.017l.065-.015a.726.726 0 0 0 .119.013.115.115 0 0 0 .042-.005c.008 0 .016-.024.03-.036l.024-.011-.048-.024v-.011s.012-.033.034-.036h.005m-2.385 1.273a.757.757 0 0 1 .142-.367l.093-.111a1.185 1.185 0 0 1 .075-.142 1.538 1.538 0 0 1 .454-.392l.192-.094c.04-.026.078-.057.124-.081a2.682 2.682 0 0 1 .36-.137l.161-.064a.414.414 0 0 1 .1-.01h.094a1.062 1.062 0 0 0 .19-.014h.188l.016.005c.037 0 .068-.036.1-.054L80.172 2h.008a.044.044 0 0 1 .02 0 .03.03 0 0 1 .005.016c-.006.018 0 .041-.027.062-.016 0-.044-.008-.064-.008H80.1a.052.052 0 0 1-.01.021l-.124.016-.14.062-.092.01-.077.043-.131.056a1.057 1.057 0 0 1-.157.048l-.076.007a2.039 2.039 0 0 0-.308.139h-.014c-.016 0-.021-.01-.029-.009h-.005a.419.419 0 0 0-.1.068c-.028.018-.057.038-.09.056L78.7 2.6a1.039 1.039 0 0 1-.1.066h-.01a.051.051 0 0 1 .015-.042 1.3 1.3 0 0 0 .14-.081l.039-.009.07-.049a2.028 2.028 0 0 1 .3-.15c.061-.023.2-.061.208-.106l-.014-.014a.423.423 0 0 0-.194.07.953.953 0 0 1-.168.055l-.115.043a1.361 1.361 0 0 0-.246.154l-.09.057c-.029.023-.046.065-.078.092-.053.042-.081.052-.134.092.005 0 .014.023 0 .028v.03l-.025.041c-.05.042-.1.094-.14.135v.013c.033-.005.044-.056.1-.068v.017l-.023.038-.229.3a.929.929 0 0 0-.082.122l-.057.183c-.008.011-.009.046-.038.048h-.01a.054.054 0 0 1-.014-.039 1.435 1.435 0 0 1 .03-.152m-.328.884l.029-.148a1.636 1.636 0 0 0 .152-.181c.031-.092.114-.192.143-.184h.014c-.007.086-.162.323-.093.476v.113a.54.54 0 0 1 .111.23h.014l.062.1c.006.037.074.075.077.107 0 0 .247.076.288.094.061.026.067-.039.1-.047a.335.335 0 0 1 .232.021c0 .009.067.028.065.052l.133.012c-.1.163-.415.126-.608.089l-.2-.029a.781.781 0 0 1-.384-.268l-.042-.081c0-.011-.043-.14-.043-.151-.038-.047-.124-.157-.112-.2s.033-.031.065-.015m-.216.467l-.012-.027v-.011l-.029-.028a.146.146 0 0 1-.048.012v-.009l-.007-.029.007-.008.022.005v-.016a.224.224 0 0 1-.029-.078.089.089 0 0 1 .048-.007v.029h.01v-.011c.007-.024-.017-.035-.017-.073l.006-.011h.042a.109.109 0 0 1-.026-.109l.021-.023h.028a.17.17 0 0 0 0 .075l.033.144a.042.042 0 0 1-.038 0v.028l.014.007.025-.02.029.037.005-.012c.024.012.049.078.055.1v.063l.038.082c0 .013.1.1.1.115a2.146 2.146 0 0 1 .31.1l.018.043a.291.291 0 0 1 .244.089c0 .011-.013.005 0 .012.057.037.133.026.194.065l-.029.015v.008l.115.062c.037 0 .029-.01.07 0v.015l-.025.015h-.045a.52.52 0 0 0-.107-.038l-.175-.077s-.068-.014-.068-.01l-.031.028c-.011.035 0 .034.033.051l.087-.016c.031.007.048.065.08.083.088.052.155.013.255.023-.011-.012-.016-.007-.026-.024a.677.677 0 0 1 .184-.014c0-.024-.016-.018-.009-.031s.022-.012.03-.012v-.025l.034-.035c.034-.03.063-.015.094-.048.056.01.014.035.051.041-.008.017.037.025.023.035-.037.03-.06.022-.1.041l-.1.065c-.014.009-.213.056-.231.06-.1.015-.11-.027-.19-.012a.8.8 0 0 1-.293-.077c-.091-.051-.074-.137-.221-.122-.061-.041-.108-.028-.154-.106-.01-.016.021-.017.029-.02-.014-.008-.055-.039-.059-.061.025-.017.19.075.19.075-.067-.131-.133-.068-.243-.142L77.413 5a.682.682 0 0 1-.121-.183m.517 1.3c-.082.02-.157-.218-.221-.261-.038-.027-.106-.024-.118-.076l.009-.01a.6.6 0 0 1 .23.134c.012.023 0 .043.024.057s.079.024.109.043c.01.036 0 .1-.033.112m.125.172a.069.069 0 0 1-.034.012c-.018-.009-.066-.051-.061-.074l.009-.009.036-.005c.037 0 .054.03.053.067l-.008.014m.144-.094a.065.065 0 0 1-.006.038h-.01a.242.242 0 0 1-.074-.056v-.015c.015-.028.046-.02.075-.016l.026-.026c.046 0 .1.078.147.1.018.01.056.011.067.027v.012l-.011.005c-.065.018-.17-.049-.2-.074l-.014.007m.359.2L78.43 6.4a.447.447 0 0 1-.138 0 .251.251 0 0 1-.041-.09l.005-.007a.29.29 0 0 1 .18.085zm.134.385c-.062-.012-.117-.087-.093-.142a.119.119 0 0 1 .1.138h-.011m-.04-.4c.012-.028.041-.028.054-.052V6.3c-.024-.044-.125-.079-.18-.1a1 1 0 0 1-.248-.111c-.017 0-.026.014-.04.017-.053.014-.108-.076-.137-.106s-.054-.037-.057-.066v-.007c.017-.008.053 0 .063-.02s-.011-.031-.015-.046l-.009-.041c-.018-.037-.117-.061-.16-.08a.565.565 0 0 1-.075-.06l-.026-.048-.034-.032.006-.036-.011-.028.007-.008a.374.374 0 0 1 .16.065.873.873 0 0 0 .117.034v.009c-.005.013-.01.02 0 .033.063.007.06.079.148.094a.317.317 0 0 0 .105-.014h.067s.1-.031.1-.033c.022-.015.011-.038.05-.049.077-.021.073.034.112.04l.137-.024a.366.366 0 0 1 .142.025c.025.005.176-.082.217-.025v.011a.113.113 0 0 1-.127.089.528.528 0 0 0-.057-.023.13.13 0 0 0-.087.055.27.27 0 0 0-.065.009h-.062l.01.035c0 .013-.022.015-.036.018a.3.3 0 0 1-.14.017c-.035-.005-.092-.023-.12-.01v.01c.038.076.219.012.307.026.039.062.122.076.185.114.023.014.035.038.074.031v-.013c-.018-.028-.055-.038-.079-.061V5.98a.557.557 0 0 1 .236-.007.243.243 0 0 0 .1.083c.015.008.055.012.061.027.011.031-.051.092-.065.106 0 .02.015.026.026.036a.036.036 0 0 1-.009.025c-.05.012-.241-.062-.263-.016s.075.079.1.1L79 6.347l-.035.014v.013c.012.026.039.037.054.062l-.026.009c-.013.01-.013.028-.027.037-.113-.021-.168-.241-.338-.206.014.022.043.02.055.044-.009.013-.028.013-.041.021.015.036.056.015.091.031.018.009.019.03.028.05s.016.025.011.041l-.005.009a.377.377 0 0 1-.181-.021.176.176 0 0 1-.054-.07m.591.242l-.008.009a.878.878 0 0 1-.208-.044.027.027 0 0 1 .009-.022.113.113 0 0 0 .034-.03c.065 0 .092.044.151.051-.009-.031.007-.037.02-.055s-.013-.023-.017-.041c.046 0 .125.066.1.108-.033.008-.06-.01-.1-.011a.368.368 0 0 0 .018.036m-.169.556a.146.146 0 0 1-.1.038h-.01l-.022-.05.02-.01.023-.008h.047c.022.005.053.021.046.033m-.094.391c-.086.007-.161.008-.2-.041.011-.015.025-.013.043-.023h.122a.1.1 0 0 1 .04.057m.183.22l-.171-.1.03-.037.011-.007a.208.208 0 0 1 .154.074.1.1 0 0 1-.024.068m0-.452c-.014-.036-.06-.075-.037-.116.036 0 .067.042.089.064 0 .03-.023.065-.052.052m.949.684a.159.159 0 0 1-.092.015c.01-.008.024-.016.018-.033a.341.341 0 0 1-.189-.01.021.021 0 0 1 0-.016.33.33 0 0 0 .089 0c.03-.007.083-.031.118-.017v.029c.012 0 .017-.01.026-.008a.051.051 0 0 1 .03.036m.419.014c-.037.013-.082 0-.12.012s-.079.072-.142.065h-.006c-.005-.1.037-.041.09-.06.007 0 .005-.013.013-.017.03-.022.083-.008.121-.024h.047a.03.03 0 0 1 0 .024m.059-.284a.207.207 0 0 0-.1.017l-.011.016h-.047c-.009 0-.01.01-.015.012-.022.01-.119-.017-.159 0l-.024.028-.032.024v.008a.1.1 0 0 1 .047.023v.005c-.017.013-.025.012-.047.007v.015c-.049 0-.105.057-.171.024a.037.037 0 0 0-.012-.018.646.646 0 0 1-.124.012.634.634 0 0 0-.263.005c0 .014-.008.017-.01.03s.035.041.044.051l-.034.009c-.05-.017-.109-.01-.158-.062.015-.031.082.008.113-.012a.319.319 0 0 0-.034-.016c.021-.012.067.005.085-.009a.817.817 0 0 0-.094-.022c-.046-.005-.079.021-.112.026a.337.337 0 0 1-.087-.037l.005-.008v-.007a.047.047 0 0 1-.027-.014v-.016a.18.18 0 0 0 .114-.027.023.023 0 0 0-.012-.024l-.193-.047v-.008l.009-.012c.012 0 .026 0 .034-.005a.2.2 0 0 1-.015-.091h.034c.031 0 .066-.007.1-.008l.017-.021c.034 0 .178.061.177.082-.029 0-.076 0-.094.016v.009a.483.483 0 0 0 .156-.008h.075v-.015c.063.007.137.076.2.086.017 0 .038-.014.049-.021-.079-.036-.158-.024-.212-.091v-.013a.2.2 0 0 0 .029-.007c0-.007 0 0-.007-.008l-.039-.005c-.025-.009-.027-.026-.06-.023v-.031a.391.391 0 0 1-.046-.039c-.076.012-.1-.017-.108-.092v-.005a.17.17 0 0 1 .139.078.4.4 0 0 1 .134.03c.027.013.056.047.088.05a.075.075 0 0 1 .105.026l-.01.016a.612.612 0 0 0 .214.115c.039 0 .057-.023.083-.03s.024.011.038.007h.007V7.7c-.009 0-.012-.008-.013-.021.016-.007.053.008.073.01.065.008.131-.012.184 0a.034.034 0 0 1-.007.029h-.02v.012h.031v.011m-1.184-.425h.005a.179.179 0 0 1 .153.068v.007c-.077.005-.149 0-.157-.07m3.271-.727a2.225 2.225 0 0 1-.374.473c-.028.014-.131.1-.159.111-.013.013-.1.069-.115.082s-.1.03-.121.048a.915.915 0 0 1-.308.148c-.086.025-.225.038-.281.05a.912.912 0 0 1-.284 0c-.076 0-.111-.02-.186-.021a.761.761 0 0 0-.107.018.9.9 0 0 1-.119.017.854.854 0 0 1-.344 0c-.042-.01-.1-.014-.126-.043a2.256 2.256 0 0 0 .242-.055c.026-.01.066-.017.056-.055-.005-.021-.024-.026-.041-.035a.18.18 0 0 0-.128-.028l-.1.012a.874.874 0 0 1-.12-.031c-.026-.005-.064.009-.088 0l-.016-.016h-.033l-.166-.026-.139-.029v.021h.001a.189.189 0 0 1-.083-.037l.01-.008a.077.077 0 0 0 .047.005v-.001a.105.105 0 0 0-.074-.014c-.028.007-.052.044-.083 0v-.005a.047.047 0 0 0 .017-.011l-.005-.007c-.024 0-.112-.028-.1-.051.039-.015.035 0 .069 0V7.093a.494.494 0 0 1-.098-.033v-.008c.01 0 .018 0 .022-.014a.363.363 0 0 1-.147-.062v-.021l.037-.008c.025.007.094.07.122.038a.176.176 0 0 0-.09-.07c-.016 0-.018.012-.031.01s-.049-.026-.073-.037v-.01c.033-.015.041.026.073.027.088-.037.09-.009.153.031.017.011.042.005.055.025v.009l-.057.017v.007a1.049 1.049 0 0 1 .092.062c.013.009.03.01.041.022v.008l-.022.007c.014.024.036 0 .046-.008a.183.183 0 0 1 .059.01.244.244 0 0 1 .157.041c.018.011.031.039.054.044h.206a.231.231 0 0 1 .092.029l.019.013v.009c0 .017.022.027.037.03.031-.007.06.013.091.008a1.008 1.008 0 0 1 .211-.025l.108-.005.043.024.05-.009.126-.012.128.01c.034.007.069-.009.108 0 .072.008.1-.03.212-.025h.078l.043-.008h.114c.017 0 .023.007.036.009.034.005.092-.041.124-.043a.088.088 0 0 0 .018.016.794.794 0 0 1-.08.069l-.14.018-.015-.003-.091.018a1.491 1.491 0 0 1-.238.021.7.7 0 0 0-.158 0v.013a.035.035 0 0 0-.031.017v.008c.038.063.136-.022.193-.009s.086.029.135.036a.724.724 0 0 0 .292-.04l.1-.017c.027-.013.049-.039.079-.051l.155-.038V7.24l.111-.065.075-.055a1.108 1.108 0 0 1-.183.04l.049-.049c.069-.047.163-.046.233-.093.023-.014.042-.035.064-.048s.051-.021.072-.037a4.989 4.989 0 0 1 .438-.454v.005a.15.15 0 0 1-.025.114" class="cls-2" transform="translate(-50.241 .036)"/>
                </g>
            </g>
        </g>
    </g>
</svg>
