<svg xmlns="http://www.w3.org/2000/svg" width="375.98" height="212.909" viewBox="0 0 335.57 190.026">
    <defs>
        <style>
            .cls-3{fill:#fff}
        </style>
    </defs>
    <g id="Group_5510" transform="translate(-427 -780)">
        <g id="Group_5170">
            <rect id="HBO_Button_BG_copy_4" width="335.57" height="190.026" fill="#346f9d" rx="6" transform="translate(427 780)"/>
            <g id="Discovery-Logo-Channel-Dropdown" transform="translate(459 847)" style="isolation:isolate">
                <g id="Group_1793" transform="translate(0 .046)">
                    <path id="Path_1247" d="M781.813 525.1c.126 2.13 1.629 4.2 4.889 4.2 2.444 0 3.635-1.317 3.635-2.7 0-1.128-.753-2.068-3.072-2.569l-3.572-.815c-6.645-1.442-9.278-5.2-9.278-9.589 0-5.7 5.015-10.341 11.973-10.341 9.026 0 12.16 5.641 12.473 9.275l-7.9 1.442a4.092 4.092 0 0 0-4.45-3.823c-1.818 0-3.384 1.065-3.384 2.7 0 1.316 1.066 2.068 2.444 2.318l4.137.816c6.457 1.316 9.59 5.2 9.59 9.776 0 5.328-4.074 10.529-12.41 10.529-9.779 0-12.912-6.33-13.163-9.776z" class="cls-3" transform="translate(-718.875 -491.199)"/>
                    <path id="Path_1248" d="M847.146 519.831c0 4.951 3.322 7.708 7.272 7.708a6.422 6.422 0 0 0 6.455-4.638l8.4 2.569c-1.379 5.453-6.519 10.842-14.855 10.842-9.277 0-16.736-6.831-16.736-16.482a16.08 16.08 0 0 1 16.418-16.545c8.587 0 13.6 5.265 14.981 10.842l-8.525 2.57a6.126 6.126 0 0 0-6.268-4.639c-3.946.001-7.142 2.758-7.142 7.773z" class="cls-3" transform="translate(-755.071 -491.199)"/>
                    <path id="Path_1249" d="M947.152 519.767a16.548 16.548 0 0 1-33.1 0c0-9.651 7.271-16.482 16.549-16.482 9.342 0 16.551 6.831 16.551 16.482zm-9.528 0c0-5.263-3.384-7.709-7.02-7.709-3.573 0-7.021 2.445-7.021 7.709 0 5.2 3.448 7.772 7.021 7.772 3.636 0 7.02-2.507 7.02-7.772z" class="cls-3" transform="translate(-798.297 -491.199)"/>
                    <path id="Path_1250" d="M1009.079 536.6h-9.59L986.7 505.451h10.342l7.209 19.365 6.644-19.365h10.029z" class="cls-3" transform="translate(-839.413 -492.424)"/>
                    <path id="Path_1251" d="M1093.415 526.411c-1.5 5.39-6.456 9.9-14.354 9.9-8.587 0-16.234-6.142-16.234-16.608 0-10.028 7.459-16.42 15.545-16.42 9.653 0 15.608 5.954 15.608 15.982a19.97 19.97 0 0 1-.188 2.945H1072.1c.188 3.51 3.385 6.017 7.083 6.017 3.448 0 5.39-1.63 6.268-4.075zm-8.65-10.341c-.125-2.381-1.754-5.264-6.268-5.264a5.935 5.935 0 0 0-6.205 5.264z" class="cls-3" transform="translate(-882.498 -491.199)"/>
                    <path id="Path_1252" d="M1162.641 514.443a12.876 12.876 0 0 0-3.009-.314c-3.824 0-7.271 2.256-7.271 8.461v13.6h-9.528v-31.148h9.214v4.2c1.63-3.51 5.578-4.513 8.086-4.513a9.4 9.4 0 0 1 2.507.314z" class="cls-3" transform="translate(-927.779 -492.015)"/>
                    <path id="Path_1253" d="M1197.509 548.57l7.083-16.17-13.1-26.949h10.657l7.584 16.672 6.895-16.672h10.092l-19.18 43.119z" class="cls-3" transform="translate(-955.318 -492.424)"/>
                    <g id="Group_1792">
                        <path id="Path_1254" d="M679.887 497.524a13.214 13.214 0 0 0-13.208-13.251h-13.251v-8.835h13.252c12.8 0 22.9 9.358 22.9 22.085s-10.1 22.085-22.9 22.085h-13.252v-8.834h13.252a13.214 13.214 0 0 0 13.207-13.25z" class="cls-3" transform="translate(-650.789 -475.438)"/>
                        <g id="Group_1791" transform="translate(0 11.496)">
                            <path id="Path_1255" d="M653.153 513.3c-.028.034-.02.031.027-.009s.034-.03.015-.024a.1.1 0 0 0-.042.033z" class="cls-3" transform="translate(-650.624 -508.341)"/>
                            <path id="Path_1256" d="M668.332 508.336c0-.039-.011-.036-.035.016-.015.033-.012.042.007.03a.054.054 0 0 0 .028-.046z" class="cls-3" transform="translate(-659.198 -505.538)"/>
                            <path id="Path_1257" d="M669.984 505.959c.006-.025-.045-.013-.059.015s0 .022.021.013.037-.021.038-.028z" class="cls-3" transform="translate(-660.124 -504.2)"/>
                            <path id="Path_1258" d="M658.277 541.6c-.023.027-.022.03.015.023.021 0 .04-.013.041-.026.004-.036-.033-.035-.056.003z" class="cls-3" transform="translate(-653.524 -524.363)"/>
                            <path id="Path_1259" d="M665.725 548.2c.013.009.025.01.027 0s-.007-.014-.023-.016-.018.001-.004.016z" class="cls-3" transform="translate(-657.743 -528.105)"/>
                            <path id="Path_1260" d="M664.681 509.177c.011-.01 0-.019-.016-.014s-.028.011-.018.02.025.004.034-.006z" class="cls-3" transform="translate(-657.136 -506.02)"/>
                            <path id="Path_1261" d="M689.551 524.679c.011.009.009 0 0-.028-.024-.055-.036-.064-.026-.021a.1.1 0 0 0 .026.049z" class="cls-3" transform="translate(-671.216 -514.76)"/>
                            <path id="Path_1262" d="M653.868 524.867c-.025 0-.026 0-.016.056s.044.051.043-.015a.037.037 0 0 0-.027-.041z" class="cls-3" transform="translate(-651.025 -514.908)"/>
                            <path id="Path_1263" d="M653.908 516.988c0-.009-.009-.005-.02.013a.121.121 0 0 0-.013.049c0 .009.01.005.02-.013a.1.1 0 0 0 .013-.049z" class="cls-3" transform="translate(-651.041 -510.447)"/>
                            <path id="Path_1264" d="M655.768 525.562c-.025.036-.037.14-.014.143.007 0 .026-.018.04-.044.031-.061.006-.148-.026-.099z" class="cls-3" transform="translate(-652.098 -515.294)"/>
                            <path id="Path_1265" d="M658.073 541.3a.027.027 0 0 0 .016.028c.012 0 .017-.009.013-.022s-.013-.027-.017-.028-.012.009-.012.022z" class="cls-3" transform="translate(-653.417 -524.198)"/>
                            <path id="Path_1266" d="M656.472 532.942a.129.129 0 0 0 .059.064c.035.016.035.009 0-.04-.041-.066-.08-.081-.059-.024z" class="cls-3" transform="translate(-652.508 -519.459)"/>
                            <path id="Path_1267" d="M657.641 540.383c-.01 0-.01.008 0 .025a.114.114 0 0 0 .03.031v-.026a.048.048 0 0 0-.03-.03z" class="cls-3" transform="translate(-653.169 -523.691)"/>
                            <path id="Path_1268" d="M663.707 507.019c0 .006 0 .016.008.026s.021 0 .028-.015 0-.028-.009-.026a.045.045 0 0 0-.027.015z" class="cls-3" transform="translate(-656.606 -504.799)"/>
                            <path id="Path_1269" d="M672.012 524.83c-.095-.044-.1-.037-.052.064.03.063.136.066.136 0 .004-.009-.037-.038-.084-.064z" class="cls-3" transform="translate(-661.26 -514.873)"/>
                            <path id="Path_1270" d="M668.209 526.519c-.024-.011-.047-.015-.047-.008a.207.207 0 0 0 .042.06c.027.026.045.03.047.007a.083.083 0 0 0-.042-.059z" class="cls-3" transform="translate(-659.128 -515.838)"/>
                            <path id="Path_1271" d="M678.177 525.3a.053.053 0 0 0 .025-.04c0-.007-.014-.014-.031-.014s-.027.018-.024.04a.018.018 0 0 0 .03.014z" class="cls-3" transform="translate(-664.778 -515.125)"/>
                            <path id="Path_1272" d="M668.231 526.862c-.011.019-.006.037.01.037a.041.041 0 0 0 .038-.037c0-.022 0-.037-.01-.037s-.027.015-.038.037z" class="cls-3" transform="translate(-659.163 -516.017)"/>
                            <path id="Path_1273" d="M678.116 527.578a.187.187 0 0 0 .042.142c.042.041.046.041.015 0a.438.438 0 0 1-.039-.142.469.469 0 0 0-.02-.091.458.458 0 0 1 .002.091z" class="cls-3" transform="translate(-664.761 -516.39)"/>
                            <path id="Path_1274" d="M689.846 516.7c0-.017-.013-.031-.022-.032s-.011.009-.005.028.016.031.022.032.008-.011.005-.028z" class="cls-3" transform="translate(-671.383 -510.27)"/>
                            <path id="Path_1275" d="M677.394 531.544c0-.042 0-.08-.019-.088s-.026.06-.027.152-.008.188-.007.216a.222.222 0 0 0 .028.1c.027.042.032.027.041-.109a.593.593 0 0 0-.007-.179.2.2 0 0 1-.009-.092z" class="cls-3" transform="translate(-664.323 -518.638)"/>
                            <path id="Path_1276" d="M672.1 511.525a.183.183 0 0 0-.04.064c0 .027.087-.013.1-.047s-.022-.061-.06-.017z" class="cls-3" transform="translate(-661.332 -507.343)"/>
                            <path id="Path_1277" d="M677 529.12a.5.5 0 0 1 .115-.022c.025 0 .038-.016.026-.026a.28.28 0 0 1 .049-.136c.056-.1.06-.12.021-.136-.075-.029-.191-.018-.216.024a.622.622 0 0 0-.044.176c-.021.126-.015.136.049.12z" class="cls-3" transform="translate(-664.097 -517.126)"/>
                            <path id="Path_1278" d="M681.336 508.993s0 .011.006.03.019.032.028.034 0-.014-.005-.03a.088.088 0 0 0-.029-.034z" class="cls-3" transform="translate(-666.583 -505.925)"/>
                            <path id="Path_1279" d="M674.815 510.7c0 .02-.01.03-.027.019s-.035 0-.039.029-.016.043-.029.029-.025 0-.032.016a.026.026 0 0 0 .022.035c.053 0 .131-.069.126-.12 0-.023-.009-.044-.015-.044s-.008.011-.006.036z" class="cls-3" transform="translate(-662.821 -506.868)"/>
                            <path id="Path_1280" d="M674.493 508.922c0 .017.011.034.02.034s.024-.015.028-.031 0-.033-.02-.033a.026.026 0 0 0-.028.03z" class="cls-3" transform="translate(-662.711 -505.867)"/>
                            <path id="Path_1281" d="M674.5 510.6c0 .017.012.024.021.014a.045.045 0 0 0 .018-.036c0-.007-.009-.014-.021-.014s-.023.016-.018.036z" class="cls-3" transform="translate(-662.713 -506.814)"/>
                            <path id="Path_1282" d="M674.293 510.82a.059.059 0 0 0 .015.054c.011.011.021 0 .019-.03-.005-.06-.018-.071-.034-.024z" class="cls-3" transform="translate(-662.597 -506.942)"/>
                            <path id="Path_1283" d="M662.757 509.041c.012-.024-.039-.007-.06.021s-.006.02.015.009a.153.153 0 0 0 .045-.03z" class="cls-3" transform="translate(-656.03 -505.945)"/>
                            <path id="Path_1284" d="M659.946 514.191a.1.1 0 0 0-.057.037c-.045.058-.031.061.028.009s.051-.047.029-.046z" class="cls-3" transform="translate(-654.431 -508.866)"/>
                            <path id="Path_1285" d="M662.316 510.144c.023 0 .024-.008.009-.028-.029-.036-.054-.028-.081.025-.017.035-.014.043.01.029a.313.313 0 0 1 .062-.026z" class="cls-3" transform="translate(-655.772 -506.548)"/>
                            <path id="Path_1286" d="M661.964 508.764a.125.125 0 0 1 .045-.036c.018-.011.008-.015-.02-.013a.092.092 0 0 1-.068-.012c-.01-.007-.017-.005-.019.009a.149.149 0 0 1-.036.059c-.022.025-.016.032.028.023a.115.115 0 0 0 .07-.03z" class="cls-3" transform="translate(-655.557 -505.758)"/>
                            <path id="Path_1287" d="M660.772 509.327c.006 0 .022 0 .035-.005s.01-.015-.01-.012-.029.01-.025.017z" class="cls-3" transform="translate(-654.945 -506.104)"/>
                            <path id="Path_1288" d="M660.7 514.071c.022-.05.009-.067-.027-.029s-.035.08-.011.08.022-.022.038-.051z" class="cls-3" transform="translate(-654.872 -508.771)"/>
                            <path id="Path_1289" d="M661.7 513.379c.011 0 .02-.017.022-.034s-.005-.033-.015-.032-.018.014-.021.034.004.032.014.032z" class="cls-3" transform="translate(-655.461 -508.37)"/>
                            <path id="Path_1290" d="M662.256 506.806c-.015 0-.024.013-.018.019s.018 0 .028-.009.007-.016-.01-.01z" class="cls-3" transform="translate(-655.774 -504.686)"/>
                            <path id="Path_1291" d="M662.625 506.5c.026-.032.017-.03-.049.011l-.047.03.036-.006a.107.107 0 0 0 .06-.035z" class="cls-3" transform="translate(-655.94 -504.503)"/>
                            <path id="Path_1292" d="M659.925 510.631c.01-.04-.027-.063-.048-.027-.008.015-.01.026 0 .025a.039.039 0 0 1 .027.016c.007.011.015.007.021-.014z" class="cls-3" transform="translate(-654.435 -506.827)"/>
                            <path id="Path_1293" d="M661.77 506.964c-.017-.015-.023-.014-.031.014a.1.1 0 0 1-.052.046c-.033.015-.029.017.01.012.057-.01.096-.048.073-.072z" class="cls-3" transform="translate(-655.451 -504.771)"/>
                            <path id="Path_1294" d="M660.216 537.627c.015-.023.021-.048.014-.054s-.053.037-.045.072c.004.014.015.005.031-.018z" class="cls-3" transform="translate(-654.612 -522.098)"/>
                            <path id="Path_1295" d="M662.314 513.42c.028-.038.028-.038-.037 0-.04.024-.044.03-.018.03s.041-.013.055-.03z" class="cls-3" transform="translate(-655.777 -508.414)"/>
                            <path id="Path_1296" d="M657.151 515.679a1.763 1.763 0 0 0-.22.438c0 .063.085-.041.15-.184a.537.537 0 0 1 .145-.209c.1-.1.105-.1.115-.023a.1.1 0 0 1-.031.106.349.349 0 0 0-.057.077c-.008.017 0 .013.023-.007s.039-.027.034.033l-.007.077.076-.118a1.352 1.352 0 0 0 .084-.144c0-.014.015 0 .024.026.021.076.067.005.054-.081s-.053-.094-.064-.034c0 .016-.013.033-.022.033s-.012-.013 0-.03c.031-.074-.23-.039-.304.04z" class="cls-3" transform="translate(-652.772 -509.664)"/>
                            <path id="Path_1297" d="M658.271 516.2a.183.183 0 0 0 .138-.048c.039-.044.049-.108.009-.068a.243.243 0 0 1-.1.035c-.125.028-.158.081-.047.081z" class="cls-3" transform="translate(-653.491 -509.931)"/>
                            <path id="Path_1298" d="M656.395 511.047l-.08.077-.08.078.029-.005a.138.138 0 0 0 .057-.037.111.111 0 0 1 .043-.034c.012 0 .005.011-.014.031s-.006.015.029-.017a.548.548 0 0 1 .1-.071c.073-.032.1-.084.026-.057-.047.019-.054.018-.024-.006.061-.048-.018-.023-.15.05l-.1.057.083-.033z" class="cls-3" transform="translate(-652.374 -507.05)"/>
                            <path id="Path_1299" d="M658.19 511.387c.019-.032-.019-.024-.048.011-.013.015-.02.032-.014.039s.037-.008.062-.05z" class="cls-3" transform="translate(-653.447 -507.268)"/>
                            <path id="Path_1300" d="M657.844 514.587c.021-.043.012-.07-.014-.043s-.047.075-.023.073a.055.055 0 0 0 .037-.03z" class="cls-3" transform="translate(-653.26 -509.061)"/>
                            <path id="Path_1301" d="M657.085 512.836c-.027.029-.039.048-.029.047a.823.823 0 0 0 .149-.167c.023-.04-.007-.025-.053.027-.024.026-.039.048-.033.047s-.011.021-.034.046z" class="cls-3" transform="translate(-652.84 -508.019)"/>
                            <path id="Path_1302" d="M657.208 515.115c.04-.024.062-.031.048-.015-.031.04.011.074.1.074h.074l.028-.092c.011-.037.019-.084.005-.077s-.027 0-.029-.025c-.009-.083-.063-.073-.225.042-.087.062-.166.119-.175.129-.034.037.104.009.174-.036z" class="cls-3" transform="translate(-652.825 -509.282)"/>
                            <path id="Path_1303" d="M659.266 510.22c-.006 0-.016.014-.023.03s-.007.027 0 .027a.105.105 0 0 0 .023-.03c.008-.018.009-.029 0-.027z" class="cls-3" transform="translate(-654.077 -506.619)"/>
                            <path id="Path_1304" d="M656.748 514.4a.227.227 0 0 0 .029-.09c.008-.04.005-.058 0-.042-.025.046-.048.156-.029.132z" class="cls-3" transform="translate(-652.664 -508.91)"/>
                            <path id="Path_1305" d="M656.684 512.459a.22.22 0 0 0-.1.054c-.061.058-.061.058.053-.009.089-.049.093-.052.047-.045z" class="cls-3" transform="translate(-652.554 -507.885)"/>
                            <path id="Path_1306" d="M656.84 513.722c-.042.054-.051.069-.041.084s0 .03-.013.046a.08.08 0 0 0-.021.05c0 .008.021-.014.042-.055a1.231 1.231 0 0 0 .063-.133c.022-.059.022-.059-.03.008z" class="cls-3" transform="translate(-652.677 -508.572)"/>
                            <path id="Path_1307" d="M657.574 516.541c-.069.028-.1.081-.046.081a.717.717 0 0 0 .271-.14c.035-.044.008-.037-.225.059z" class="cls-3" transform="translate(-653.094 -510.149)"/>
                            <path id="Path_1308" d="M657.093 513.646l-.037.022a.118.118 0 0 0-.047.04.26.26 0 0 0-.022.163.212.212 0 0 1-.017.114c-.027.063-.026.069 0 .027a.767.767 0 0 0 .081-.213c.026-.086.042-.153.042-.153z" class="cls-3" transform="translate(-652.783 -508.558)"/>
                            <path id="Path_1309" d="M656.955 514.8c.013 0 .035-.024.048-.05a.238.238 0 0 0 .019-.047.51.51 0 0 0-.049.05c-.034.034-.039.047-.018.047z" class="cls-3" transform="translate(-652.778 -509.154)"/>
                            <path id="Path_1310" d="M656.442 511.755c-.009-.013-.014-.01-.021.019s-.024.047-.089.1l-.077.058.063-.01a.316.316 0 0 0 .1-.04l.109-.085a.551.551 0 0 1 .09-.061.113.113 0 0 0 .044-.034c.038-.045-.014-.026-.086.032s-.11.059-.133.021z" class="cls-3" transform="translate(-652.388 -507.443)"/>
                            <path id="Path_1311" d="M683.746 516.641c-.025 0-.046.01-.045.031s.019.034.044.036.045-.014.045-.03a.041.041 0 0 0-.044-.037z" class="cls-3" transform="translate(-667.922 -510.253)"/>
                            <path id="Path_1312" d="M683.561 515.565c-.028 0-.036 0-.016.015a.07.07 0 0 0 .052 0c.003-.004-.007-.012-.036-.015z" class="cls-3" transform="translate(-667.828 -509.644)"/>
                            <path id="Path_1313" d="M683.956 508.747c-.006 0-.008.008 0 .025a.072.072 0 0 0 .026.033c.008 0 .007-.011 0-.025a.067.067 0 0 0-.026-.033z" class="cls-3" transform="translate(-668.064 -505.786)"/>
                            <path id="Path_1314" d="M683.052 515.476c-.063.029-.077.058-.059.119s.04.059.044-.017c0-.037.021-.065.046-.064s.04-.013.035-.03-.012-.034-.013-.031a.491.491 0 0 1-.053.023z" class="cls-3" transform="translate(-667.517 -509.581)"/>
                            <path id="Path_1315" d="M681.926 509.079c0 .034 0 .043.018.046s.023.025.027.045.014.04.023.032 0-.046-.018-.089c-.036-.086-.049-.094-.05-.034z" class="cls-3" transform="translate(-666.918 -505.952)"/>
                            <path id="Path_1316" d="M683.659 508.806c-.028-.045-.085-.1-.069-.064a.288.288 0 0 0 .052.062c.036.038.038.036.017.002z" class="cls-3" transform="translate(-667.858 -505.777)"/>
                            <path id="Path_1317" d="M684.142 515.146c-.008 0 0 .016.019.035a.185.185 0 0 0 .053.037c.01 0 0-.016-.02-.035a.141.141 0 0 0-.052-.037z" class="cls-3" transform="translate(-668.17 -509.407)"/>
                            <path id="Path_1318" d="M686.479 513.616a.82.82 0 0 0 0 .1.5.5 0 0 1-.067.3c-.025.021-.025.021.005.028s.044-.018.058-.048.032-.055.041-.054c.028.005.026-.141 0-.235a.5.5 0 0 0-.037-.091z" class="cls-3" transform="translate(-669.447 -508.541)"/>
                            <path id="Path_1319" d="M687.238 518.331c-.008 0-.009.012 0 .032s.021.034.035.034.013-.015 0-.031-.026-.035-.035-.035z" class="cls-3" transform="translate(-669.92 -511.21)"/>
                            <path id="Path_1320" d="M657.937 501.924a10.591 10.591 0 1 0 10.59 10.59 10.59 10.59 0 0 0-10.59-10.59zm9.621 11.48a.026.026 0 0 1 0 .026c0 .008-.007 0-.008-.012s.001-.025.008-.018zm-.677-.434c.011-.005.015 0 .01.011s-.013.013-.019.007-.002-.016.009-.019zm-.079-.137c.009-.033.012-.031.011.01s0 .035.006.014.008-.033.011-.025a1.418 1.418 0 0 1-.066.214 1.777 1.777 0 0 1 .036-.214zm-.022.413c.032-.008.045 0 .043.026s-.007.037-.026.027a.055.055 0 0 0-.043 0c-.01 0-.018 0-.018-.018s.018-.029.044-.036zm0 .391a.157.157 0 0 1-.017.048c-.012.021-.018.025-.014.009a.2.2 0 0 1 .017-.047c.005-.014.012-.018.013-.011zm-.142-1.48a.194.194 0 0 1 .018-.075 1.033 1.033 0 0 1 .079.246c0 .015-.01.019-.019.012s-.017 0 0 .043.015.06 0 .062c-.029.005-.051-.026-.072-.1-.015-.056-.024-.066-.044-.055a.051.051 0 0 0-.025.047c0 .02-.006.015-.013-.016a.18.18 0 0 1 .013-.095c.013-.025.026-.033.029-.018.008.038.02.022.033-.052zm.037 1.192c-.009 0-.017-.009-.017-.021a.03.03 0 0 1 .02-.031c.013 0 .021.005.017.022a.043.043 0 0 1-.021.03zm.007.657v.023a.044.044 0 0 1-.029.032c-.022.008-.021 0 0-.023a.321.321 0 0 1 .027-.033zm0-1.07a.1.1 0 0 1-.1.055c-.057 0-.073.007-.085.046a.2.2 0 0 0-.008.094c.009.042.014.044.048 0a.158.158 0 0 1 .06-.05c.017 0 .011.011-.029.066l-.051.069v.199a.277.277 0 0 1-.025.131c-.017 0-.013-.033.006-.072s.008-.049-.02 0c-.013.024-.02.018-.021-.026a.616.616 0 0 1 .005-.09.041.041 0 0 0 0-.033.41.41 0 0 0-.044.125.5.5 0 0 1-.054.149c-.016.014-.014 0 .007-.07a.256.256 0 0 0 .018-.122.7.7 0 0 1 .06-.258.278.278 0 0 0 .026-.079c.012-.063.08-.18.092-.155s.091.021.116-.018c.034-.058.036-.027-.004.039zm-.1.871a.069.069 0 0 1-.027.033.411.411 0 0 0-.072.084c-.067.093-.072.1-.058.042a.474.474 0 0 1 .121-.156c.032-.032.047-.032.034-.003zm-.314.162a.02.02 0 0 1 .026.022c0 .049-.019.062-.035.022l-.016-.037zm-.037-.048a.153.153 0 0 0-.05.031c-.021.021-.024.019-.013-.013s.025-.04.036-.038.017-.007.017-.02.008-.023.02-.018a.031.031 0 0 1-.012.059zm-.015-.463c-.025.029-.032.028-.035 0s-.022-.033-.06-.022-.057 0-.053-.011-.01-.019-.028-.016-.032-.01-.024-.08a.233.233 0 0 0 0-.1.511.511 0 0 1 .022-.241c.012-.033.026-.043.058-.037s.043 0 .05-.039a.2.2 0 0 1 .058-.094.62.62 0 0 0 .089-.121c.009-.042.021-.08.029-.081a.216.216 0 0 0 .026-.107c.012-.117.025-.13.067-.062a.724.724 0 0 0 .059.08c.027.028.027.031.01.034s-.016.026-.011.049 0 .043-.01.045-.009.013-.008.03 0 .027-.009.028a.278.278 0 0 0-.007.109.263.263 0 0 0 .015.1c.023 0 0 .051-.027.064s-.034.036-.046.084a.556.556 0 0 1-.051.125.2.2 0 0 0-.032.078.37.37 0 0 1-.083.185zm-.057.46c0 .014-.012.029-.019.031s-.009-.011-.006-.025.013-.029.019-.031.008.007.005.026zm-.683-.592a.059.059 0 0 1 .005.045c0 .018-.009.022-.017.015a.075.075 0 0 1-.006-.045c.003-.018.011-.022.016-.014zm-.029-.183s-.01-.013-.011-.028 0-.029.012-.03.015.01.011.027a.061.061 0 0 1-.014.032zm.017-.254a1.924 1.924 0 0 0-.121-.215c0-.018 0-.025.021-.018a.135.135 0 0 0 .06.013.32.32 0 0 1 .145.155.491.491 0 0 0 .074.149c.008 0 .025.019.037.043a.951.951 0 0 0 .047.1.127.127 0 0 1 .008.091.311.311 0 0 0 .023.153.293.293 0 0 1 0 .244c-.03.1-.045.135-.069.145-.04.016-.132-.226-.132-.353a.9.9 0 0 0-.021-.181.353.353 0 0 1-.014-.113.833.833 0 0 0-.06-.213zm.364.9c.013.024.047.028.1.011s.082-.013.084.019a.051.051 0 0 0 .054.049c.029 0 .05.017.046.032s-.153.044-.22.024a.539.539 0 0 0-.1-.016c-.067 0-.11-.051-.09-.1a.071.071 0 0 1 .125-.015zm-.031-.458c.022-.035.031-.022.032.047 0 .039 0 .07-.01.071s-.036-.096-.019-.114zm.082.107a.03.03 0 0 1 .018-.031c.025 0 .025.012 0 .042-.01.012-.018.009-.02-.007zm.162.365c-.009-.006 0-.015.012-.019s.02 0 .013.01-.019.019-.026.012zm0-5.69a.888.888 0 0 0 .06.1c.041.064.046.073.023.052s-.026-.012-.026.005-.016-.015-.106-.247c-.06-.154-.121-.295-.134-.317a.541.541 0 0 1-.065-.183s0-.021-.014-.051-.007-.025.029.037a.768.768 0 0 1 .055.111 2.432 2.432 0 0 0 .141.285c.031.051.039.079.02.075s-.01.074.016.136zm.071 2.611v.064l-.032-.065a.385.385 0 0 1-.042-.155.316.316 0 0 1 0-.1c.005-.009.012-.018.015-.018a1.3 1.3 0 0 1 .058.277zm.273 1.262a.319.319 0 0 1-.007.12c-.022.149-.04.139-.018-.01a.288.288 0 0 1 .024-.107zm-.026-.274c0-.012 0-.015.016-.007a.2.2 0 0 1 .038.081c.015.062.015.062-.015.008a.564.564 0 0 1-.04-.079zm.184.4c-.018-.025-.021-.042-.021-.1s0-.077-.015-.04-.018.029-.034-.035-.011-.068.008-.057.053.069.07.179c.011.071.009.083-.009.059zm.014-.1c0-.041 0-.041.022 0a.119.119 0 0 1 .024.062c0 .011-.011 0-.017-.016s-.017-.028-.02-.018-.009.003-.011-.021zm-.206 1.833c.05-.005.041.033-.012.047-.022.006-.039 0-.034-.017a.051.051 0 0 1 .044-.023zm.2-2.056c.023 0 .039.041.056.165.009.061.007.061-.017.017s-.024-.056-.019-.072 0-.032-.018-.063-.023-.036-.003-.036zm-.038.044a.068.068 0 0 1-.025-.028c-.006-.023.018-.013.032.015s.003.028-.008.02zm-.046-.13c-.023-.034-.039-.047-.035-.027s0 .027-.01.012a.068.068 0 0 0-.044-.021c-.015 0-.028-.016-.034-.049s-.014-.045-.018-.035-.022-.02-.041-.067-.032-.087-.024-.093a.165.165 0 0 0-.009-.082 1.07 1.07 0 0 1-.024-.118c0-.03.006-.046.028-.043s.038.02.058.1a.55.55 0 0 1 .022.142.245.245 0 0 0 .091.214.112.112 0 0 1 .063.076c.022.064.02.064-.024-.002zm-.034-2.378c.029.093.034.145.01.1-.014-.028-.019-.026-.018 0a.034.034 0 0 1-.04.033c-.029 0-.037.01-.029.055.012.074-.016.074-.038 0-.011-.036-.023-.052-.041-.054s-.021 0 0 .044.044.119.018.088c-.01-.01-.018 0-.019.027 0 .044-.005.044-.025 0s-.017-.057-.005-.074c.021-.033.013-.058-.018-.055a.022.022 0 0 0-.016.031c.005.015 0 .021-.01.011-.031-.027-.026.009.007.054s.031.045.044.132c.018.126-.011.131-.044 0-.018-.07-.025-.086-.032-.071s-.03-.036-.025-.1c.008-.133.034-.185.084-.179s.055-.02.025-.171c-.007-.036-.005-.036.01.01s.021.049.032.01a.518.518 0 0 0-.027-.264c-.038-.109-.048-.158-.025-.137s.016.008 0-.014-.018-.037-.015-.037a.958.958 0 0 1 .06.109.473.473 0 0 1 .065.189 1.494 1.494 0 0 0 .071.27zm-.128-.685c-.009 0-.016.016-.015.041s0 .038-.028.014-.074-.045-.071-.013a.024.024 0 0 0 .014.022c.012 0 .014.011.016.036s0 .027-.024-.01-.042-.148-.021-.144 0-.062-.04-.164c-.031-.081-.021-.076.051.03a.268.268 0 0 0 .067.072c.046.031.088.131.046.123zm-.053-.705c-.005-.017 0-.026 0-.025s.018.023.011.039-.007.009-.012-.007zm-1.333-2.489l.03.017.05.051a.322.322 0 0 1-.081-.052c-.027-.017-.027-.021 0-.009zm-.346-.192a.035.035 0 0 1 .032.011.9.9 0 0 0 .115.064c.094.047.12.066.128.095s-.181-.035-.224-.072-.075-.082-.052-.091zm.315.317c.024.03-.012.02-.06-.021-.024-.018-.031-.029-.03-.041s.053.025.089.069zm-1.221-.5c0 .013 0 .023-.012.02a.071.071 0 0 1-.031-.034c-.008-.017 0-.024.012-.02a.05.05 0 0 1 .03.044zm-.774-.595c.018-.047.076-.063.086-.022 0 .01.028.027.057.038.049.016.084.044.084.065a.447.447 0 0 1-.122-.013l-.122-.019zm-.462-.238c.012-.009.016-.021.007-.023s-.009-.022 0-.037c.027-.052.214.019.235.086a.137.137 0 0 0 .069.051.125.125 0 0 1 .085.082c.024.053.019.054-.095.011-.132-.048-.194-.089-.183-.118.006-.009-.025-.022-.067-.028s-.068-.003-.052-.013zm-1.45-.391a.111.111 0 0 1 .059-.013c.024 0 .024.01 0 .023a.115.115 0 0 1-.059.013c-.023.006-.024.001 0-.012zm-.148-.024c.044.007.078.021.075.029 0 .03-.116.021-.134-.01s.012-.016.059-.009zm-.138.007c.027 0 .031.01.02.032s-.035.032-.046-.007c-.006-.008.006-.017.025-.015zm-.088.889c.018 0 .038-.024.045-.057s.024-.059.038-.058.018-.019.012-.045 0-.046.015-.044.039-.029.057-.066a.384.384 0 0 1 .349-.123.289.289 0 0 0 .116-.008c.043-.026.156-.01.168.024 0 .015-.042.033-.1.041-.2.029-.293.054-.294.081a.024.024 0 0 1-.029.023c-.043-.006-.182.194-.168.244a.357.357 0 0 0 .092.109l.08.071-.095-.007a.206.206 0 0 1-.129-.054.177.177 0 0 0-.083-.052c-.063.002-.129-.075-.075-.069zm-.036.307c.008.036-.054.065-.08.041a.067.067 0 0 1-.016-.049c.004-.028.086-.018.095.018zm-.32-1.277l.089.005-.083.028c-.083.031-.1.029-.1-.015.003-.001.043-.011.093-.008zm-1.99-.241a.387.387 0 0 0 .138 0 .43.43 0 0 1 .252.045c.021.033-.188.1-.232.071a.7.7 0 0 0-.143-.041c-.166-.022-.176-.083-.016-.065zm-.288.089c.015.016.029.017.027 0a.235.235 0 0 1 0-.051c0-.035.083-.023.095.016.007.019.022.027.036.017a.022.022 0 0 1 .033.011c0 .016.038.039.073.05a.821.821 0 0 1 .155.083c.049.031.1.052.106.046s.012 0 0 .023c-.027.053-.193.053-.175 0s-.048-.1-.1-.1c-.017 0-.047.027-.064.062s-.042.063-.055.062-.03.025-.04.053c-.017.048-.025.047-.1 0-.051-.031-.07-.057-.049-.06s.019-.012-.017-.026-.042-.027.046-.05.088-.029.053-.046a.108.108 0 0 0-.089.007c-.052.034-.177 0-.16-.048.008-.016 0-.029-.013-.029a.043.043 0 0 1-.034-.033c-.008-.03.228-.02.272.023zm-1.672 3.251c-.013-.009-.019-.048-.012-.086s.027-.066.063-.068a.1.1 0 0 0 .073-.054c.03-.073.19-.078.2 0a.117.117 0 0 1-.028.083.075.075 0 0 0-.024.067.207.207 0 0 1-.12.19c-.037.012-.089.031-.123.046a.082.082 0 0 1-.083-.011c-.023-.031-.018-.041.027-.091s.042-.056.026-.066zm.3-.606a.059.059 0 0 1 .039-.035c.012 0 .011.014 0 .034s-.029.035-.038.035-.011-.007-.002-.024zm.013.9a.269.269 0 0 1 .123-.079c.045 0 .044-.012-.018-.031a.134.134 0 0 0-.091-.012c-.013.011-.018 0-.016-.014a.1.1 0 0 1 .057-.054c.042-.018.045-.028.028-.073s-.011-.055.037-.057a.1.1 0 0 0 .075-.054c.011-.028.009-.052 0-.052s-.018-.024-.014-.051-.011-.045-.063-.026-.067.015-.038-.071 0-.127-.035-.047c-.012.024-.01.01 0-.031s.011-.069-.012-.055-.019-.009.023-.1a.782.782 0 0 1 .078-.139.164.164 0 0 1 .09-.03c.055 0 .057.005.019.047-.064.066-.058.076.026.061s.092.029.021.133c-.038.056-.039.063 0 .083a.105.105 0 0 1 .044.085.114.114 0 0 0 .041.085.18.18 0 0 1 .055.1c.01.048.036.086.059.086.059 0 .071.071.019.125a.093.093 0 0 0-.034.081c0 .021 0 .042-.021.043s-.061.011-.1.016l-.2.035a.786.786 0 0 0-.175.046c-.036.027-.029.017.021-.041zm.537-1.576c-.074-.008-.126-.026-.111-.034.039-.025.04-.078 0-.076s-.026-.009 0-.05.023-.05-.033-.049c-.071 0-.049-.048.036-.083a.053.053 0 0 1 .077.03c.014.036.037.046.061.028a.471.471 0 0 1 .154-.04c.065-.011.124-.032.128-.049s.015-.03.021-.03a.542.542 0 0 1 .167.167c-.038.149-.342.213-.5.195zm-1.47-2.236c.033 0 .053 0 .045.017s-.12.028-.111 0a.139.139 0 0 1 .066-.008zm-2.522.863a.178.178 0 0 1 .058-.049.087.087 0 0 0 .04-.035c.008-.02.033-.033.111-.059a.2.2 0 0 1 .133.032.09.09 0 0 0 .036.007.086.086 0 0 1 .042.016c.015.008.024 0 .029-.016s.044-.037.139-.056a.544.544 0 0 0 .149-.046c.02-.021-.053-.013-.183.023-.052.015-.061.012-.035-.011s.036-.034.015-.029a.139.139 0 0 0-.05.038.084.084 0 0 1-.124 0c-.024-.03.008-.058.1-.087a.7.7 0 0 0 .136-.058.175.175 0 0 1 .1-.027.123.123 0 0 0 .084-.027.812.812 0 0 1 .19-.085 1.577 1.577 0 0 1 .856-.114.385.385 0 0 1-.139.062c-.067.022-.119.049-.114.058s-.028.031-.074.052a2 2 0 0 0-.184.089 1.878 1.878 0 0 1-.353.158c-.051.012-.076.058-.026.049.03 0 .031 0-.018.042a.27.27 0 0 1-.107.059.114.114 0 0 0-.069.037.185.185 0 0 1-.056.052c-.042.027-.044.029-.013.042s.009.026-.3.1c-.256.058-.319.053-.168-.018.057-.025.067-.035.056-.049s.017-.021.069-.025.079-.012.074-.019 0-.02.008-.031-.007-.013-.036 0c-.064.019-.073 0-.029-.034.023-.019.016-.02-.017 0-.151.079-.2.095-.234.085-.055-.016-.055-.034.007-.071.04-.022.036-.023-.018-.007-.085.021-.12.006-.085-.041zm.088.19c.01-.033.042-.041.048-.011s0 .024-.026.03-.026.004-.022-.009zm.007.046v.025c0 .016-.015.028-.022.029s-.007-.01 0-.025a.1.1 0 0 1 .022-.019zm-.25-.182c.018-.006.021 0 .009.008s-.028.013-.033.01.006-.003.02-.008zm-.026.108a.046.046 0 0 1 .047-.022.216.216 0 0 0 .063 0c.024-.006.025 0 0 .031s-.021.043.01.042.039 0-.02.016c-.035.012-.063.014-.062 0a.015.015 0 0 0-.01-.018.032.032 0 0 1-.028-.039zm-.014.14c.012-.015.032-.025.044-.021a.792.792 0 0 0 .108 0c.05 0 .093.014.1.037s.035.033.225-.016c.154-.042.222-.049.232-.027l.013.029-.044.029a1.77 1.77 0 0 1-.322.083c-.213.041-.267.047-.26.018s.013-.037.019-.039.012-.02.011-.039-.026-.03-.056-.023c-.072.031-.099.015-.07-.021zm.026.116c.019.056-.066.109-.115.075l-.022-.011.052-.039c.067-.036.074-.036.085-.015zm-.3-.212a.074.074 0 0 1 .068-.032h.092c.047 0 .071.03.048.068s-.08.044-.069.014-.033-.013-.081 0c-.063.017-.077.017-.044-.006s.042-.03.007-.021c-.019.01-.03.002-.019-.013zm-.08.153c0 .017 0 .022-.02.028s-.017-.006-.011-.018c.014-.022.03-.027.033 0zm.019.091c.017.024.023.023.045-.012s.026-.034.032-.017.044.02.04-.011c0-.015.017-.027.064-.04s.064-.01.041.035a.251.251 0 0 1-.15.132c-.034.009-.036 0-.007-.035s.025-.041-.032-.014c-.042.021-.066.024-.059.007s-.005-.021-.021-.017-.026 0-.022-.016a.038.038 0 0 1 .072-.002zm-.109.089c.022-.006.016.009-.017.039-.012.01-.017.007-.012-.008a.058.058 0 0 1 .031-.021zm.014.205c.021-.022.023-.03.008-.026-.033.008 0-.044.046-.064a.281.281 0 0 1 .143-.04c.009.005 0 .017-.036.052s-.047.045-.018.053-.015.092-.07.105a.124.124 0 0 0-.061.041c-.014.021-.032.017-.047-.014a.117.117 0 0 0-.051-.05c-.015 0-.016-.02 0-.035s.03-.019.041-.007.025.017.047-.005zm-.158-.395c.034-.019.063-.034.069-.039a.018.018 0 0 1 .017.01c.006.01-.014.021-.069.039s-.069.031-.015.001zm-.021.047c.041-.013.057-.01.042.007a.225.225 0 0 1-.086.048c-.033.011-.05.007-.042-.006a.205.205 0 0 1 .088-.038zm-.125.044c.015-.007.017 0 .007.008s-.022.015-.024.01.006-.002.019-.007zm-.022.155a.057.057 0 0 0 .064.014c.046-.014.046-.014.045-.048a.072.072 0 0 1 .031-.062c.048-.043.06-.042.046.007-.009.033 0 .038.047.016s.054-.017.042 0a.287.287 0 0 1-.154.109.7.7 0 0 0-.167.073c-.086.048-.116.057-.121.044s0-.023.029-.034.03-.014.029-.028-.016-.007-.032.006a.153.153 0 0 1-.06.032.193.193 0 0 0-.052.008l-.028.007.067-.067a.267.267 0 0 1 .132-.086.092.092 0 0 1 .085.021zm-.3.113a.134.134 0 0 1 .05-.037c.022-.007.019 0-.009.023-.049.053-.075.062-.043.025zm-.013-.063c.132-.1.268-.157.221-.1s-.134.107-.116.073 0-.01-.039.022-.051.043-.044.033 0-.005-.018.01a.145.145 0 0 1-.075.037l-.042.006zm-.4.4c.06-.061.085-.09.085-.1s.02-.026.052-.048a.381.381 0 0 1 .11-.041.453.453 0 0 0 .091-.023c.047-.019.086.011.059.043s-.009.022.02.009.039-.009.024.013-.009.026.041 0 .063-.022.054 0 0 .02.033-.008c.065-.054.086-.056.07 0-.019.074.016.055.043-.023.021-.061.023-.063.055-.072a.141.141 0 0 0 .057-.039c.028-.033.12-.064.1-.037a.357.357 0 0 1-.05.055.239.239 0 0 0-.071.131c-.02.062-.021.1 0 .095a.063.063 0 0 1 .051.023l.024.027-.05.016c-.026.009-.045.02-.041.027.033.042-.122.107-.175.073-.018-.011-.041 0-.069.02-.074.061-.307.142-.3.1 0-.017-.01-.027-.035-.021a.056.056 0 0 1-.055-.016l-.012-.025.07-.039a.4.4 0 0 1 .116-.04.1.1 0 0 0 .063-.026c.009-.014-.042-.007-.106.012s-.116.026-.109.01a.1.1 0 0 1 .052-.04c.045-.016.043-.022-.006-.028l-.034-.005.07-.064.07-.064-.042.026a.653.653 0 0 0-.152.12c-.034.051-.131.088-.16.063l-.028-.023c.033-.019.05-.033.084-.066zm-3.2 5.505a.13.13 0 0 1-.024.045c-.009.008-.006-.011.005-.046s.022-.054.026-.048a.118.118 0 0 1-.008.064zm1.379 2.6c-.008 0-.017-.028-.021-.057s0-.042.01-.03a.149.149 0 0 1 .019.057c.002.038-.003.051-.009.05zm2.518 5.823c0 .04-.005.07-.021.066a.029.029 0 0 1-.026-.028c0-.012-.015-.018-.039-.016a.066.066 0 0 1-.064-.024c-.014-.017-.016-.031 0-.028s-.014-.049-.055-.115c-.054-.09-.082-.121-.107-.122s-.029-.006-.02-.017.007-.129-.012-.133-.018.016-.023.039-.012.032-.026-.035a.194.194 0 0 0-.047-.1c-.017-.013-.029-.033-.024-.04s.026.009.051.036.045.047.045.042c-.031-.161-.056-.2-.139-.2-.016 0-.015-.013 0-.034a.057.057 0 0 1 .072-.01c.033.02.04.006.03-.062-.008-.047-.014-.1-.016-.112-.022-.155-.041-.227-.07-.233s-.023.024-.013.067.006.076-.008.078-.024 0-.025-.041a1.3 1.3 0 0 0-.024-.154.373.373 0 0 1-.013-.135.275.275 0 0 0-.026-.121.428.428 0 0 1-.026-.228 1.066 1.066 0 0 0-.035-.461c-.024-.069-.033-.12-.022-.129s.008-.035 0-.06a.732.732 0 0 1-.024-.185 5.543 5.543 0 0 0-.105-.758.69.69 0 0 0-.281-.482c-.145-.122-.277-.285-.272-.339a.835.835 0 0 0-.076-.2c-.043-.085-.12-.262-.173-.394a2.062 2.062 0 0 0-.151-.319.4.4 0 0 1-.066-.377c.042-.055.039-.14 0-.14-.018 0-.036-.035-.045-.075-.019-.1.015-.376.046-.37.013 0 .024-.036.023-.088a.144.144 0 0 1 .024-.089c.065-.026.1-.464.109-.612a.636.636 0 0 0-.011-.167c-.016-.033-.112.07-.117.128s-.048.055-.08-.019a.145.145 0 0 0-.06-.074c-.057-.022-.059-.023-.043-.072a.111.111 0 0 0-.067-.129c-.009 0-.006-.038.008-.081a.433.433 0 0 0 0-.173.4.4 0 0 1-.008-.131.025.025 0 0 0-.024-.03.3.3 0 0 1-.2-.224c-.026-.154-.045-.176-.115-.127s-.069.036-.144-.059a.686.686 0 0 1-.093-.142.277.277 0 0 0-.04-.067.471.471 0 0 1-.061-.228.292.292 0 0 1 .038-.089.774.774 0 0 0 .062-.419 1.241 1.241 0 0 1 0-.188 1.017 1.017 0 0 0 .007-.179 1.206 1.206 0 0 1 .034-.276c.022-.079.026-.129.011-.151s-.022-.031-.063.072a.529.529 0 0 0-.036.131 1.678 1.678 0 0 1-.018.174 1.332 1.332 0 0 0-.017.159c0 .009-.016.073-.034.139a.3.3 0 0 0-.018.141c.017.014 0 .1-.02.125s-.032-.2-.009-.251a.213.213 0 0 0 .014-.108c-.038-.16-.035-.147.005-.187s.039-.047.037-.119a1.429 1.429 0 0 1 .048-.272c.057-.212.059-.273.014-.3a.034.034 0 0 1-.018-.042 1.063 1.063 0 0 0 .036-.152.613.613 0 0 1 .057-.176c.018-.028.022-.04.008-.027s-.007-.08.026-.143a.175.175 0 0 0 .02-.057 4.384 4.384 0 0 1 .3-.555 1.35 1.35 0 0 0 .139-.266c.025-.072.026-.075.038-.063.043.043.055.042.077-.011.034-.077.039-.118.018-.137a.031.031 0 0 1 0-.041c.009-.014.011-.026 0-.025s-.043.074-.038.125a.071.071 0 0 1-.018.066c-.028.02-.069-.17-.046-.209.009-.015.019-.022.022-.014.019.036.034.039.051.012s.006-.03-.009-.027-.018-.023.014-.063a.649.649 0 0 0 .031-.068c.016-.039.015-.054 0-.041s-.019.006.022-.051.044-.064.015-.033c-.07.074-.069.052 0-.053.039-.061.055-.092.044-.084s-.01-.1.014-.123.008-.019-.006-.016-.027.008-.042.058c-.009.028-.009.046 0 .037s0 .013-.018.041c-.028.045-.034.052-.033.027a.388.388 0 0 1 .034-.1c.017-.035.019-.052.009-.043s-.013.005 0-.009a.088.088 0 0 1 .037-.035c.019 0 .072-.091.064-.106s-.014.009-.028.035a.118.118 0 0 1-.034.046c-.006 0 0-.011.006-.025s.024-.039.033-.055a.266.266 0 0 0 .024-.057c.008-.025.005-.024-.006 0s-.021.035-.029.038a.027.027 0 0 0-.018.023.755.755 0 0 1-.083.166c-.017 0 .039-.13.082-.189.026-.037.033-.048.018-.03-.038.049-.059.052-.062.014s.034-.105.014-.1c-.04 0-.027-.022-.031-.034-.011-.032-.022-.023-.047.023-.016.029-.029.041-.044.046a.383.383 0 0 0-.075.055c-.059.054-.11.079-.057.028.023-.022.029-.03.02-.027s.085-.1.12-.128.025-.019.008-.015a.647.647 0 0 0-.15.132.215.215 0 0 1-.048.042c-.039.027-.078.079-.055.072s.011 0-.027.038c-.023.022-.069.062-.1.089a.488.488 0 0 0-.072.067.076.076 0 0 1-.028.026.489.489 0 0 0-.077.065.807.807 0 0 1-.113.091.53.53 0 0 0-.055.04l.024-.039c.02-.017.034-.025.031-.019s.008 0 .021-.014.056-.058.1-.1a1.412 1.412 0 0 0 .13-.136c.048-.061.051-.066.025-.055a.129.129 0 0 0-.041.033c-.007.01-.013.01-.012 0s-.015-.012-.036 0-.034.018 0-.033.03-.049.018-.044c.068-.1.139-.2.212-.3a.427.427 0 0 0 .09-.075l.041-.057c.024-.033.023-.035-.006-.013l-.037.026.1-.125a.074.074 0 0 0 .037-.024c.032-.042.055-.082.034-.059a.044.044 0 0 1-.016.013c.082-.1.164-.2.248-.3.032-.025.07-.052.117-.084l.069-.049c.02-.015.037-.024.038-.021a.33.33 0 0 0 .039-.008.258.258 0 0 1 .056-.009.166.166 0 0 0 .059-.009c.143-.047.084.008.15.024.031.009.048 0 .086-.03a.906.906 0 0 1 .254-.135.364.364 0 0 0 .1-.06c.032-.03.036-.028.031.007s.007.049.058 0c.024-.024.032-.027.026-.006s.018.014.054-.005a.131.131 0 0 1 .109-.009.251.251 0 0 0 .111.009c.061-.015.1.013.047.029a.172.172 0 0 0-.057.042c-.018.02.008.021.093 0 .141-.038.2-.028.162.031-.014.023-.017.033 0 .023a.277.277 0 0 0 .051-.072.153.153 0 0 1 .087-.08c.033-.017.061-.035.063-.043s-.028 0-.069.027-.064.026-.061.016c.017-.045.14-.082.153-.043s.23.036.292-.026.065-.084.026-.076-.017 0 .04-.048.109-.051.114.01c0 .035 0 .035-.024.043a.158.158 0 0 1-.048.009c-.01 0-.015.01-.011.031a.1.1 0 0 1-.019.066c-.014.018-.017.04-.007.045s.024 0 .044-.042a.144.144 0 0 1 .077-.078c.06-.028.116-.085.08-.079-.012 0-.009-.011 0-.026s.022-.03.017-.032c-.062 0-.077-.032-.042-.092a.278.278 0 0 1 .084-.091.234.234 0 0 0 .1-.144.147.147 0 0 1 .055-.085c.035-.029.271-.088.258-.066a.556.556 0 0 1-.19.136c-.012-.008-.043.013-.084.054s-.059.064-.049.062.033.132.008.147c-.042.025-.053.066-.017.06s.029.011.01.052c-.033.069-.028.071.044 0 .046-.044.056-.046.071-.021s.011.037-.02.062-.036.038-.032.07c0 .049.036.034.068-.031.016-.033.029-.045.036-.035s.043-.018.079-.052.06-.066.051-.065c-.027 0 .01-.05.048-.07.016-.008-.012-.017-.06-.023-.068 0-.091-.023-.089-.068s0-.061.072-.139a.4.4 0 0 1 .237-.157c.062-.011.062-.008.011.032a.25.25 0 0 0-.063.06l-.034.06a.071.071 0 0 0-.007.067c.02.036.025.036.047 0 .011-.017.008-.028 0-.026s-.008-.022.007-.054a.288.288 0 0 1 .2-.153c.072-.025.092-.025.084.005s0 .028.011 0a.12.12 0 0 1 .092-.045c.079-.012.141.026.1.069-.013.016-.008.026.01.024s.04.028.05.066.034.058.054.038c.037-.032.112 0 .091.039-.008.015 0 .022.023.021.063 0 .071 0 .046.033s-.011.027.021.013.047-.011.043.008a.051.051 0 0 1-.044.039c-.031.006-.034.012 0 .026s.028.022 0 .027c-.1.018-.076.112.046.133.031.007.054.026.051.045s.022.038.055.045l.062.015-.078.076c-.044.042-.085.069-.087.06s-.016 0-.028.029c-.025.054-.077.045-.089-.016-.024-.1-.042-.11-.1-.063s-.054.049-.039.1c.009.027.026.047.039.046s.024.03.024.07a.149.149 0 0 1-.046.127c-.041.049-.049.046-.106 0-.075-.073-.107-.046-.045.034.044.06.039.145-.005.113a.564.564 0 0 0-.071-.03.1.1 0 0 1-.052-.05c0-.015-.017-.02-.034-.007-.036.03-.074-.041-.045-.08.011-.012.008-.025-.008-.024s-.031-.019-.035-.04-.045-.032-.139-.015c-.076.012-.126.012-.117 0 .029-.056.1-.11.127-.094a.159.159 0 0 0 .1-.012c.052-.016.068-.029.071-.06s.016-.046.051-.064c.131-.071.169-.184.086-.233-.031-.014-.049-.041-.041-.056s-.005-.02-.029-.011-.037.01-.028 0a.066.066 0 0 0 0-.067c-.031-.049-.038-.051-.055 0-.01.029-.046.042-.156.051a.505.505 0 0 0-.129.018.608.608 0 0 0 .051.036c.02.02.03.046.018.064s-.033.032-.038.027c-.021-.009-.043.047-.034.088l.008.042-.053.04a.4.4 0 0 1-.1.052.078.078 0 0 0-.064.053c-.011.03-.016.033-.016.011a.064.064 0 0 0-.052-.039c-.027-.005-.045 0-.04.005.015.026-.229.265-.276.271a.229.229 0 0 0-.145.106.045.045 0 0 1-.039.03.872.872 0 0 0-.284.246c-.123.149-.152.2-.113.223.023.006.024.044.01.089-.022.067-.012.075.053.075a.107.107 0 0 1 .106.06c.015.035.042.064.058.062a.021.021 0 0 1 .023.029c0 .015.032.028.079.025.089-.006.089 0-.021.214a.277.277 0 0 0-.007.137c.011.086.02.1.071.064s.083-.075.137-.246l.036-.119.1-.069a.551.551 0 0 0 .138-.118.3.3 0 0 0 .067-.236c-.023-.032-.023-.035.036-.1a.519.519 0 0 0 .112-.2.922.922 0 0 1 .075-.161.082.082 0 0 1 .076-.009.349.349 0 0 0 .112.009c.061-.011.119.043.1.085-.007.013.012.03.04.041.05.015.049.022-.005.135s-.052.12-.022.105a.03.03 0 0 1 .043.023c.01.057.107.008.213-.112l.091-.1c0 .074.006.112.011.186a.721.721 0 0 1-.01.239.1.1 0 0 0-.007.086.16.16 0 0 1 .02.066c0 .016.017.033.038.039a.105.105 0 0 1 .042.013c0 .01.025.023.051.029s.013.01-.014.03-.018.044.02.074.05.057.018.139a.182.182 0 0 1-.136.13.846.846 0 0 0-.187.106c-.079.058-.113.064-.268.049-.138-.013-.188-.005-.242.036-.037.028-.1.072-.143.1a1.361 1.361 0 0 0-.179.164c-.08.088-.086.1-.028.044a.626.626 0 0 1 .346-.2c.073 0 .09.01.073.047a.148.148 0 0 1-.086.072c-.049.017-.056.025-.024.027s.031.024.01.072a.122.122 0 0 0 .076.182c.046.007.079-.01.139-.079s.073-.075.055-.028-.013.063 0 .063.009.011-.019.035-.04.017-.038-.011 0-.031-.017 0a.485.485 0 0 1-.23.154.479.479 0 0 0-.116.072c-.042.034-.081.051-.087.037s.024-.121.046-.12a.252.252 0 0 0 .075-.055c.056-.051.054-.051-.007-.031l-.087.031a.6.6 0 0 0-.074.041c-.029.02-.1.055-.147.082a.366.366 0 0 0-.209.26c0 .035-.019.048-.1.069-.068.013-.1.033-.091.051s0 .031-.037.031-.06.02-.1.085-.06.086-.083.085-.038.017-.046.048a.4.4 0 0 1-.058.113c-.039.054-.041.047-.008-.052.025-.079.027-.1 0-.069a.582.582 0 0 0-.085.246.148.148 0 0 1-.037.079c-.03.03-.034.044-.019.044s.009.018 0 .035-.03.024-.036.013-.015 0-.022.031-.023.058-.046.058a.143.143 0 0 0-.077.05.168.168 0 0 1-.064.051.307.307 0 0 0-.1.084.332.332 0 0 1-.1.083.6.6 0 0 0-.148.206.952.952 0 0 0-.035.144 1.453 1.453 0 0 1-.11.419c-.025.048-.053.084-.063.084s-.036-.089-.022-.123a.518.518 0 0 0 .008-.107.326.326 0 0 1 .034-.144c.049-.091.023-.227-.034-.187-.033.023-.049.018-.057-.012s-.055-.05-.112-.052c-.094 0-.1 0-.124.074s-.027.074-.078.045a.214.214 0 0 0-.264.008.194.194 0 0 1-.08.054c-.04 0-.139.144-.179.26a.361.361 0 0 1-.052.114 1.118 1.118 0 0 0-.107.221 1 1 0 0 0-.1.372c-.019.2.017.267.115.225.036-.013.068-.017.073-.007.013.032.11-.082.141-.161a.214.214 0 0 1 .195-.162c.1-.013.1.009.026.123a1.534 1.534 0 0 0-.083.148c-.024.049-.047.085-.051.074s-.027.035-.054.1a.854.854 0 0 1-.08.16c-.04.05-.044.05.123.061.091.006.12.023.13.072s0 .084-.082.288-.093.229-.087.315a.419.419 0 0 0 .037.146c.025.045.039.047.106 0 .086-.05.131-.031.16.077.019.068.019.069.1-.028a.68.68 0 0 0 .1-.148c.008-.027.026-.05.035-.048l.04-.006a.067.067 0 0 0 .042-.026.068.068 0 0 1 .05-.019.276.276 0 0 0 .109-.061c.093-.074.11-.058.042.04-.054.075-.054.139 0 .081a.1.1 0 0 1 .073-.034c.018 0 .039-.017.042-.041s.008-.031.008-.017a.031.031 0 0 0 .027.032c.016 0 .037.036.045.08s.038.072.083.067a.113.113 0 0 1 .09.032c.015.03.054.031.126 0 .092-.033.105-.031.108.02a.11.11 0 0 0 .052.085c.038.023.044.045.018.1s-.024.069.025.075.077.063.117.173c.059.155.072.168.222.2s.165.056.222.165a2 2 0 0 1 .105.253.57.57 0 0 0 .08.169c.045.047.044.062-.006.153a.34.34 0 0 0-.047.175c.01.063.015.06.046-.02s.053-.086.1-.065c.093.034.115.1.057.169-.026.034-.04.076-.028.091s.044-.016.073-.071l.05-.1.152.092c.122.073.158.11.162.169s.015.071.065.047a.11.11 0 0 1 .113.016.428.428 0 0 0 .169.055c.094.01.149.046.279.175a.671.671 0 0 0 .227.166c.053.006.073.037.11.153a.721.721 0 0 1 .035.233 1.867 1.867 0 0 1-.273.51c-.033.049-.038.112-.018.26a1.571 1.571 0 0 1 .006.317.364.364 0 0 0-.006.134.308.308 0 0 1-.033.13.528.528 0 0 0-.038.141c.008.053-.085.118-.159.112a.632.632 0 0 0-.378.192.366.366 0 0 0-.011.19.356.356 0 0 1-.025.226c-.024.048-.056.113-.068.14s-.017.035-.01.016a.063.063 0 0 0-.008-.058c-.024-.026-.06.058-.077.179a.444.444 0 0 1-.062.17c-.048.065-.064.068-.176.037a.458.458 0 0 1-.161-.075c-.025-.026-.036-.028-.031-.007a.173.173 0 0 0 .059.07.2.2 0 0 1 .064.093c.008.031.025.058.036.06.039.006.04.072 0 .142s-.114.09-.262.07c-.059-.01-.076 0-.062.024a.286.286 0 0 1 .016.107c0 .066-.008.068-.1.035s-.1-.031-.065.033a.335.335 0 0 0 .059.087c.021.02.021.024 0 .021s-.023 0-.017.018a.571.571 0 0 1 .007.162.055.055 0 0 1-.048.042c-.092.013-.04.171.062.19a.066.066 0 0 1 .01.124.1.1 0 0 0-.042.087c0 .033-.011.058-.027.055-.044-.009-.041.029.006.111.036.061.037.072.008.069s-.019 0 .02.027a.172.172 0 0 1 .062.062.543.543 0 0 0 .22.169c.076.015.047.052-.039.048a.185.185 0 0 1-.119-.039c-.032-.029-.034-.029-.013 0s.009.031-.027.023-.051-.02-.049-.035-.022-.029-.06-.037-.06-.02-.055-.029a.019.019 0 0 1 .022-.015c.008 0 .022-.015.033-.037s.016-.038-.016-.045-.03-.014-.021-.041 0-.036-.021-.041-.042.03-.039.07zm-2.4-12.1c-.046.027-.022-.017.027-.049a.282.282 0 0 0 .057-.052.079.079 0 0 1 .033-.029c.013 0 .01 0-.017.026s-.028.031-.022.029-.046.07-.079.091zm.324.18a.067.067 0 0 1 .039-.028c.017 0 .013.012-.019.067a.84.84 0 0 1-.047.073.273.273 0 0 1 .026-.096zm3.587-1.907c-.04.073-.076.1-.129.108s0-.1.086-.127c.035-.015.067-.027.07-.03s-.011.037-.03.065zm.045.01c.022 0 .027 0 .012.013a.043.043 0 0 1-.038 0c-.008.011.003.004.025.002zm-.154-.118a.188.188 0 0 1-.059.05c-.009 0 .009-.021.038-.047.068-.047.076-.048.02.012zm-.3.644c-.01.01-.026.015-.032.006s0-.018.02-.019.018.019.009.028zm-.229-.028c-.026-.023-.044-.018-.112.032s-.079.052-.081.024-.02-.027-.047-.012-.039.019.005-.023a.775.775 0 0 0 .1-.126.374.374 0 0 1 .085-.1l.04-.022a.16.16 0 0 1-.017.03c-.013.018-.016.039-.006.041.056.016.105.065.092.09s0 .03.014.028.024.009.014.028c-.024.063-.052.063-.091.025zm.062.144c.013 0 .012.011 0 .031a.1.1 0 0 1-.049.034c-.013 0-.011-.014 0-.03a.093.093 0 0 1 .045-.019zm-.124-.018a.111.111 0 0 1-.064.035c-.021 0-.027-.009-.012-.028a.1.1 0 0 1 .064-.036c.017.015.022.026.009.045zm-.188.7a.165.165 0 0 1-.04.034c-.018.01-.026 0-.018-.011a.059.059 0 0 1 .04-.034c.01.011.018.017.014.023zm-.3.383c-.008.016-.023.023-.031.014s-.011-.025-.008-.032a.041.041 0 0 1 .031-.014c.009.012.013.024.003.045zm1.466.679c-.017.024-.043.035-.058.02s-.021-.028.033-.087.091-.086.053-.034c-.015.017-.019.038-.009.046s0 .043-.024.068zm.038-.237c-.033.059-.036.073-.008.053s-.013.024-.073.082c-.111.106-.179.143-.107.061.033-.038.01-.042-.11-.036-.089 0-.145 0-.136-.026s.024-.034.033-.034.029-.024.04-.051.028-.052.037-.052.035-.027.057-.065a1.153 1.153 0 0 1 .12-.154c.094-.1.185-.133.094-.03s-.127.161-.09.133c.017-.014.035 0 .039.028s.033.045.079.032c.059-.004.061 0 .02.072zm-.587-.023a.122.122 0 0 1-.051-.051c-.008-.054.068-.035.085.02s.004.064-.039.043zm-.17.36c-.022 0-.046-.021-.053-.052s-.008-.041 0-.031a.255.255 0 0 0 .053.052c.028.036.029.04-.006.043zm-1.425 4.407c0 .018-.019.034-.032.033s-.017-.02-.012-.037.021-.034.032-.033.012.028.006.049zm-.07-.981a.062.062 0 0 1-.063.03c-.029 0-.046-.022-.04-.04a.059.059 0 0 1 .063-.03c.023.015.041.031.034.051zm-.712-.38c-.022 0-.035-.027-.031-.055s-.012-.053-.034-.055a.042.042 0 0 1-.041-.039c0-.021-.018-.036-.043-.037a.029.029 0 0 1-.03-.037c.015-.04-.041-.048-.078-.009a.3.3 0 0 1-.081.05c-.047.021-.048.017-.009-.032a.332.332 0 0 1 .111-.079c.111-.041.159-.008.334.224a.92.92 0 0 0 .086.1c.049.043-.019.09-.113.083-.075-.006-.086-.018-.064-.058s.015-.042-.012-.044zm-.038.313c.012.026 0 .035-.044.031s-.058-.023-.057-.04c-.006-.034.074-.027.096.021zm.179-.795c.008-.021.022-.034.031-.034s.013.015.005.036-.02.034-.031.033-.017-.006-.01-.023zm.044.772c.056.023.095-.038.079-.117s.172-.032.231.051a.222.222 0 0 1 .044.09.479.479 0 0 1-.094.014.3.3 0 0 0-.109.022c-.038.025-.222-.027-.212-.054s.028-.007.056.006zm2.718 9.449c0 .011 0 .019-.019.015s-.027-.011-.013-.023.017-.005.027.021zm-.242.443a.132.132 0 0 0-.085-.022.085.085 0 0 1-.081-.026c-.018-.021-.02-.027 0-.024a.211.211 0 0 0 .047.007l.079.007c.066.008.076-.008.016-.025-.032-.01-.04-.018-.03-.026s0-.034-.012-.059-.019-.048-.005-.049c.044-.007.064.006.152.107.154.172.151.221-.012.182-.095-.021-.1-.027-.051-.038l-.024-.022zm-.2-.135c.076.024.074.032 0 .024-.033 0-.058-.016-.057-.025s.023.004.056.013zm-.038-.067c.015 0 .027.013.024.017s-.014 0-.027-.007-.014-.002.002.003zm.258-.116c.009-.024.029-.023.041.008a.033.033 0 0 1-.013.035c-.025.03-.042.003-.029-.03zm-.3.289c0 .009-.012.014-.027.01a.111.111 0 0 1-.046-.033c-.011-.015 0-.018.027-.01s.046.035.046.046zm-.436-1.795c-.04.011-.043.007-.031-.028a.053.053 0 0 1 .058-.031c.054.01.037.045-.027.059zm-.087-.029c-.025.018-.03.015-.033-.019s.012-.036.029-.032c.041.008.04.025.004.051zm-.139 1.612v.016a.058.058 0 0 1-.024-.026c-.006-.012 0-.018 0-.016a.049.049 0 0 1 .024.026zm-.376-2.552c0 .013 0 .026-.013.023a.05.05 0 0 1-.028-.032c-.005-.017 0-.025.013-.023a.041.041 0 0 1 .03.032zm.055 2.417c-.04-.015-.087-.031-.106-.036a.06.06 0 0 1-.035-.023.111.111 0 0 0-.047-.037c-.025-.014.01 0 .082.027.136.052.23.113.106.069zm1.645.988a.176.176 0 0 1-.062.007l-.072-.032c0-.01.03-.016.061-.016.1.003.134.021.075.04zm.247-.326c-.029-.012-.05-.014-.046 0a.05.05 0 0 0 .031.025c.016 0 .015.022 0 .051s-.034.034-.045.025-.026-.007-.027.011-.043.025-.115.017-.133-.011-.164-.011a.729.729 0 0 1-.329-.112.316.316 0 0 0-.122-.051c-.019.017.114.116.218.161.055.024.08.041.072.05a1.282 1.282 0 0 1-.335-.128c-.046-.023-.061-.025-.047-.007a.223.223 0 0 0 .087.05.329.329 0 0 1 .1.054c.01.01 0 .009-.022 0a9.887 9.887 0 0 1-1.21-.695.144.144 0 0 0-.03-.023.148.148 0 0 1-.039-.031.43.43 0 0 0-.054-.047c-.017-.011 0 0 .042.016s.067.025.062.015a.246.246 0 0 0-.087-.05.194.194 0 0 1-.088-.054c-.008-.014.006-.012.037.007a2.487 2.487 0 0 0 .6.241.075.075 0 0 1 .059.018.266.266 0 0 0 .081.041.223.223 0 0 1 .08.037.551.551 0 0 0 .119.066c.088.041.107.044.114.021s.022-.019.053 0a.653.653 0 0 0 .083.043c.023.011.067.033.1.051s.058.026.05.009a.069.069 0 0 0-.029-.032c-.01 0-.008-.012.005-.021s.031-.006.059.032.048.048.185.07.2.014.18-.022a.8.8 0 0 0-.061-.089c-.126-.171-.121-.161-.072-.147s.04 0 .025-.052-.024-.065-.036-.06-.02-.006-.025-.021.017-.041.051-.059a.26.26 0 0 0 .075-.052.514.514 0 0 1 .191-.061.087.087 0 0 0 .052-.016.076.076 0 0 1 .055 0l.051.014-.045.008c-.025 0-.042.018-.039.029s-.01.018-.03.013c-.057-.013-.127.026-.127.071 0 .024-.013.033-.031.022s-.05 0-.093.055a.167.167 0 0 0 .025.055c.02.034.038.05.06.051s.169.122.167.15c0 .012.017.03.037.042a.09.09 0 0 1 .05.071c.008.028.021.054.03.056a.013.013 0 0 1 .01.017c0 .008.02.031.049.053l.054.041zm-.069-.657c0 .011 0 .019-.017.017a.055.055 0 0 1-.031-.028c0-.014 0-.02.017-.017a.046.046 0 0 1 .032.027zm.207 1.169s.009 0 .009-.006c0-.021.044-.013.068.014a.04.04 0 0 1 .01.022zm.249-16.131c-.034-.144-.033-.145.025-.216s.059-.068 0-.032c-.08.049-.081.049-.06-.007a.24.24 0 0 0 0-.118c-.016-.044-.013-.073.007-.084s.026-.027.015-.055 0-.047.062-.111a.284.284 0 0 1 .111-.076c.023 0 .057-.035.09-.087.042-.068.046-.078.013-.045s-.034.024-.031.008-.016-.039-.044-.047c-.05-.015-.05-.015-.028.024l.023.042-.048.022c-.066.029-.114 0-.091-.053.01-.025.026-.045.036-.046s.019-.013.02-.029a.074.074 0 0 1 .036-.049c.017-.011.022-.008.01.011s0 .031.035.028a.137.137 0 0 1 .077.014c.041.037.039-.043 0-.09a.106.106 0 0 0-.12-.022c-.082.025-.085-.005-.011-.081.032-.033.038-.058.025-.155-.008-.062-.024-.113-.035-.111s-.024-.016-.026-.035c-.006-.072-.137-.094-.33-.054-.125.028-.19.033-.2.012a.111.111 0 0 0-.049-.044c-.028-.012-.021-.016.046-.029a.166.166 0 0 0 .095-.047c.007-.015.006-.022-.009-.01s-.184-.01-.169-.039.067-.044.288-.118c.123-.039.167-.061.183-.093s-.014-.025-.048-.019-.051 0-.037-.015a.777.777 0 0 1 .29-.131c.05-.008.076-.023.086-.048.019-.051.384-.149.4-.105.01.024.02.026.036 0a.042.042 0 0 1 .063-.01c.06.034.083.027.082-.024s.02-.061.167-.018.137.039.139 0c0-.017.01-.03.021-.031.035 0 .013-.039-.034-.057-.03-.012.03-.024.157-.026a.562.562 0 0 0 .214-.031.186.186 0 0 1 .117-.043 1.543 1.543 0 0 1 .6.01.305.305 0 0 0 .123.029c.048 0 .07.012.06.03a.13.13 0 0 1-.094.031c-.042 0-.085.013-.095.032s.021.024.088.011c.1-.016.1-.013.063.031a.151.151 0 0 1-.059.049.011.011 0 0 0-.01.016c0 .01.041 0 .086-.025a.2.2 0 0 1 .128-.028.272.272 0 0 0 .132-.02.275.275 0 0 1 .183-.011l.1.028-.1.038a.682.682 0 0 0-.232.133.137.137 0 0 1-.074.027.077.077 0 0 0-.06.046c-.01.025-.03.047-.044.047s-.046.028-.074.066l-.049.066.042-.022c.026-.012.043-.006.048.017a.06.06 0 0 0 .06.039c.063 0 .071.027.027.084-.02.025-.03.028-.026.006s-.026-.03-.077-.029c-.008.011-.018.02-.025.02s-.01-.007-.012-.017c-.088.009-.1.055-.008.056a.1.1 0 0 1 .078.111c0 .01-.023.019-.048.019-.066 0-.066.063 0 .068h.057l-.056.022c-.032.009-.058.031-.058.051 0 .052-.127.079-.183.043-.028-.02-.058-.03-.065-.02s.015.036.051.059c.063.036.076.076.04.105s-.124-.044-.116-.077-.005-.033-.021-.033c-.052 0-.015.094.048.117a.2.2 0 0 1 .1.172c-.007.037-.154.018-.161-.022a.1.1 0 0 0-.043-.056c-.031-.02-.04-.013-.04.026a.061.061 0 0 1-.044.065c-.026.01-.015.016.028.023a.327.327 0 0 1 .114.03c.035.021.021.033-.105.1-.207.1-.446.15-.483.1-.023-.03-.029-.027-.032.017a1.928 1.928 0 0 1-.393.055c-.011 0 .31.031.266.075a.473.473 0 0 1-.164.1.557.557 0 0 0-.127.058c-.039.03-.04.023-.014-.026s.026-.056-.018-.006a.351.351 0 0 1-.137.079c-.071.021-.085.031-.079.071s0 .046-.029.05-.029.011-.018.021c.031.026 0 .067-.083.125-.049.034-.086.075-.084.092a.514.514 0 0 1-.071.149c-.055.088-.082.112-.125.113s-.048-.016-.042-.033a.019.019 0 0 0-.02-.027c-.015 0-.023-.013-.017-.029s-.014-.02-.044-.009c-.086.037-.125-.002-.161-.158zm.682 16.4h-.09c-.136-.037-.272-.076-.406-.118h.041c.056 0 .081-.015.088-.049a.077.077 0 0 1 .063-.053c.09-.01.251.047.261.094a.23.23 0 0 0 .04.068c.033.037.033.041.004.055zm.043-2.58c-.05-.037-.051-.04 0-.021a.184.184 0 0 1 .073.041c.031.036-.01.03-.072-.022zm2.479 2.928a10.02 10.02 0 0 1-1.759-.158.066.066 0 0 0 .04-.018.109.109 0 0 0-.049-.028l-.048-.012.035-.024c.034-.023.031-.024-.054-.029a.526.526 0 0 0-.108 0 .705.705 0 0 1-.209-.1c.024-.1.6-.109.78-.085.055.008.095 0 .1-.011s.044-.044.1-.068c.083-.038.089-.044.034-.037s-.062 0-.06-.024.026-.031.054-.032a.094.094 0 0 0 .063-.023.043.043 0 0 1 .037-.016.165.165 0 0 0 .067-.015c.037-.019.037-.022.007-.059s-.03-.038 0-.023a.091.091 0 0 0 .079-.006c.042-.019.053-.015.08.022s.033.042.071 0 .1-.061.09-.02c-.006.011.06.03.144.041a.532.532 0 0 0 .3-.027 1.33 1.33 0 0 1 .431.007.059.059 0 0 0 .066-.006 1.242 1.242 0 0 1 .447 0 1.172 1.172 0 0 0 .326-.027.6.6 0 0 0 .321-.118c.028-.023.041-.019.073.02s.05.041.069.031.032-.006.031.007c0 .03.071.008.106-.033a.6.6 0 0 1 .23-.106.653.653 0 0 0 .1-.038.247.247 0 0 1 .109-.018c.04.006.052 0 .053-.02s.012-.024.048-.021.047 0 .052-.024c.014-.061.246-.118.3-.075a.077.077 0 0 1 .023.038 1.343 1.343 0 0 0 .4.014c.076-.005.127 0 .123.013a.383.383 0 0 1-.126.125.081.081 0 0 0-.037.024c-.023.027 0 .041.037.02s.025-.014-.007.02a.186.186 0 0 1-.053.042c-.031.005-.066.069-.042.076s.128-.049.185-.114c.028-.031.051-.052.051-.047s.016 0 .037-.022a.655.655 0 0 1 .134-.073 1.137 1.137 0 0 0 .182-.1.534.534 0 0 1 .116-.07.221.221 0 0 0 .07-.037.876.876 0 0 1 .234-.083.225.225 0 0 0 .073-.049l.005-.005a.133.133 0 0 1 .037-.028.312.312 0 0 1 .2-.04c.115 0 .131-.008.165-.039.05-.047.139-.087.148-.066s.071.026.132.008a1.511 1.511 0 0 0 .288-.118c.011-.009.022-.007.023 0 0 .03.047.014.09-.03a.274.274 0 0 1 .106-.06c.062-.023.071-.029.095-.065a.132.132 0 0 1 .041-.044c.011 0 .007.006-.016.035s-.025.039-.012.035c.035-.009.059-.014.107-.024a.812.812 0 0 0 .149-.039c.012-.007.013 0 0 .009s.023.027.075.015c.014 0 .023 0 .018.006s.009 0 .028-.006a.156.156 0 0 0 .044-.03c.015-.022.032-.027.02-.007s.011.009.033 0a.1.1 0 0 1 .058-.01c.013.011.034.007.1-.022a9.913 9.913 0 0 1-5.889 1.918zm-1.426-.579v-.022s.013.011.02.026.005.023 0 .023a.032.032 0 0 1-.019-.026zm.9-.214l.013-.034s.008.017.014.036 0 .035-.014.034-.014-.021-.009-.038zm3.82-6.01a.293.293 0 0 1 .2-.329.39.39 0 0 0 .147-.113 1.021 1.021 0 0 1 .1-.124.23.23 0 0 0 .058-.1.167.167 0 0 1 .029-.07.1.1 0 0 1 .026-.024.636.636 0 0 1 .047.283c0 .1-.008.115-.039.1s-.036 0-.032.045a.178.178 0 0 1-.021.1.582.582 0 0 0-.039.084 3.686 3.686 0 0 1-.332.77.377.377 0 0 1-.11.048c-.117.037-.169-.026-.162-.213a.324.324 0 0 1 .074-.231.243.243 0 0 0 .057-.228zm.9 3.329c.036 0 .041.011.019.031-.049.042-.1.045-.082 0 .013-.023.033-.035.068-.035zm-.007-3.171c0-.018.01-.03.015-.03s.016.009.018.026a.023.023 0 0 1-.015.031c-.008 0-.016-.014-.013-.028zm.15-3.877c.044 0 .055.02.026.053-.01.011-.029 0-.043-.017s.001-.037.022-.037zm.907 7.945c-.007 0 0-.014.016-.018s.021 0 .012.007-.017.01-.023.01zm1.345-7.242c-.032.035-.045.033-.069-.005a1.14 1.14 0 0 1-.08-.337c0-.08.02-.064.1.07.093.16.104.221.054.271zm.661-1.317l-.021.082c-.021.082-.039.092-.09.062-.021-.013-.03-.035-.031-.091 0-.078-.07-.247-.1-.247-.01 0-.019-.023-.022-.049a.119.119 0 0 0-.053-.085.52.52 0 0 1-.11-.161c-.066-.138-.121-.192-.109-.1.006.032 0 .059-.012.063a.366.366 0 0 0-.077.02.751.751 0 0 1-.076.017c-.011 0-.015.03-.006.064.019.07 0 .141-.029.141-.012 0-.037.051-.054.108-.049.186-.1.3-.117.3s-.017.014-.013.03a.047.047 0 0 1-.027.048c-.028.017-.027.045.008.182a1.054 1.054 0 0 1 .036.587c-.052.16-.088.157-.16-.022-.03-.069-.089-.189-.132-.265a1.233 1.233 0 0 1-.089-.184 1.41 1.41 0 0 0-.093-.2 2.478 2.478 0 0 1-.234-.643.446.446 0 0 0-.042-.135c-.045-.093-.045-.093-.043-.021 0 .128-.065.135-.167.014-.084-.1-.087-.108-.042-.108.025 0 .042-.017.036-.038s-.015-.024-.023-.014c-.022.028-.128-.066-.252-.221-.052-.063-.1-.11-.109-.1a1.093 1.093 0 0 1-.652-.047.379.379 0 0 1-.06-.1c-.041-.089-.093-.118-.077-.043 0 .021 0 .028-.01.017s-.036-.008-.057.013c-.164.035-.343-.175-.424-.3-.078-.145-.136-.171-.213-.1-.039.039-.039.039.033.176a.5.5 0 0 0 .11.159.442.442 0 0 1 .09.155c.052.13.058.133.061.058.009-.1.067-.063.067.04 0 .2.212.2.314.007l.059-.12c.012.04.016.06.027.1.036.125.074.175.157.2a.349.349 0 0 1 .134.1l.064.082-.029.113c-.015.06-.039.114-.053.114-.03 0-.042.1-.016.138.008.017-.007.046-.033.067s-.048.057-.044.078-.015.036-.041.036a.04.04 0 0 0-.039.05c.006.028-.028.057-.086.072a.212.212 0 0 0-.134.108.331.331 0 0 1-.134.13.623.623 0 0 0-.15.106.186.186 0 0 1-.07.055.142.142 0 0 0-.07.026.235.235 0 0 1-.093.034.231.231 0 0 0-.1.052.142.142 0 0 1-.1.037 1.12 1.12 0 0 1-.157-.423.718.718 0 0 0-.112-.221.729.729 0 0 1-.107-.189.435.435 0 0 0-.114-.139.333.333 0 0 1-.119-.186.533.533 0 0 0-.169-.329.241.241 0 0 1-.075-.1 1.211 1.211 0 0 0-.131-.228c-.069-.1-.135-.213-.149-.242s-.019-.026-.013.029c.01.113-.048.086-.131-.061a.44.44 0 0 0-.089-.118c-.014 0 .008.055.045.117s.092.173.123.235.086.18.13.257a1.012 1.012 0 0 1 .085.194.461.461 0 0 0 .093.155.6.6 0 0 1 .118.267.448.448 0 0 0 .119.249.614.614 0 0 1 .125.215.426.426 0 0 0 .163.229c.152.116.352.349.314.372-.018.008 0 .051.051.108l.079.093.268-.077a2.209 2.209 0 0 0 .3-.106c.042-.029.046-.019.057.142a.851.851 0 0 1-.008.211c-.009.022-.039.137-.066.259a1.022 1.022 0 0 1-.356.609 1.469 1.469 0 0 0-.236.238c-.09.1-.2.23-.246.283a1.615 1.615 0 0 0-.181.275c-.077.14-.09.187-.07.245a.811.811 0 0 1 .019.227.332.332 0 0 0 .034.19c.03.027.035.1.013.311-.025.25-.032.28-.1.355a.544.544 0 0 1-.16.118.5.5 0 0 0-.168.13 1.133 1.133 0 0 1-.147.142c-.062.049-.066.062-.047.167a.911.911 0 0 1 .006.232c-.012.109-.018.118-.14.181s-.128.067-.149.2a.352.352 0 0 1-.1.226c-.046.048-.121.138-.168.2a.873.873 0 0 1-.677.343.65.65 0 0 0-.219.048.124.124 0 0 1-.123.005c-.074-.031-.143-.144-.115-.189a1.008 1.008 0 0 0-.221-.416.657.657 0 0 1-.161-.4.745.745 0 0 0-.084-.265 1.327 1.327 0 0 1-.275-.5.84.84 0 0 1 .133-.472.184.184 0 0 0 .039-.2c-.017-.068-.039-.177-.048-.239a1.418 1.418 0 0 0-.339-.657c-.187-.192-.249-.3-.209-.359a.606.606 0 0 0 .036-.211 1.159 1.159 0 0 1 .026-.226.191.191 0 0 0-.082-.147.2.2 0 0 0-.237-.068c-.154.026-.219-.008-.214-.1a.178.178 0 0 0-.077-.109c-.168-.1-.41 0-.566.075a.391.391 0 0 1-.31.053.568.568 0 0 0-.259 0c-.279.071-.3.069-.367 0-.129-.125-.367-.3-.376-.461a.632.632 0 0 0-.081-.221.631.631 0 0 1-.085-.176c0-.018-.023-.044-.057-.056-.049-.019-.058-.044-.038-.121a.41.41 0 0 0 0-.179c-.015-.055-.013-.084.007-.095a1.056 1.056 0 0 0 .147-.388c.032-.216.034-.285.006-.347s-.02-.077.058-.219a2.251 2.251 0 0 1 .145-.231.323.323 0 0 0 .067-.114 1.141 1.141 0 0 1 .315-.391c.156-.1.248-.215.247-.307a.616.616 0 0 1 .25-.39.408.408 0 0 0 .149-.173c.05-.12.07-.135.1-.081a.476.476 0 0 0 .336.031 1.023 1.023 0 0 1 .627-.2c.162-.013.34-.033.4-.044s.1-.008.1.017.021.025.049.014.042-.018.007.036a.089.089 0 0 0 0 .12c.029.051.026.069-.03.124a.29.29 0 0 0-.066.088.619.619 0 0 0 .279.147c.041-.029.24.067.269.133a.113.113 0 0 0 .1.065.62.62 0 0 1 .2.068c.114.065.131.068.166.017a.3.3 0 0 0 .035-.131.176.176 0 0 1 .229-.145c.041.012.073.034.074.049s.077.049.17.076.211.066.266.085a.293.293 0 0 0 .3 0 .116.116 0 0 1 .159.007c.122.086.2.018.258-.211a1.723 1.723 0 0 0 .038-.342v-.147l-.084.012c-.047.006-.091.026-.1.044-.014.05-.12.036-.209-.027-.07-.049-.083-.049-.12 0s-.056.049-.107.019c-.034-.023-.1-.057-.137-.083a.141.141 0 0 1-.082-.1c0-.029-.015-.055-.028-.055s-.02-.04-.015-.09-.007-.09-.028-.091-.028-.022-.021-.05c.026-.118-.164-.187-.224-.081a.067.067 0 0 1-.081.034c-.055-.026-.072.03-.021.071a.076.076 0 0 1 .011.075c-.007.029 0 .05.01.048.121-.026.164.061.055.113-.046.024-.064.053-.051.089s0 .054-.023.054c-.048 0-.173-.159-.137-.177.014 0-.025-.073-.085-.15a.425.425 0 0 1-.113-.232.228.228 0 0 0-.11-.184.829.829 0 0 0-.18-.114.256.256 0 0 1-.117-.125c-.026-.068-.056-.1-.083-.085a.041.041 0 0 1-.057-.032c-.021-.085-.121-.027-.123.072 0 .046.007.085.023.085a.536.536 0 0 1 .126.143c.057.078.125.142.146.142s.044.015.043.036a.037.037 0 0 0 .036.035c.045 0 .227.143.208.165s-.04 0-.074-.029-.064-.035-.092 0-.028.054.006.079.028.05-.039.134-.08.1-.059.019c.034-.144-.013-.22-.192-.33a1.194 1.194 0 0 1-.285-.271c-.062-.085-.125-.156-.14-.153a.7.7 0 0 0-.161.087c-.1.065-.146.077-.187.049-.086-.06-.18 0-.2.11a.155.155 0 0 1-.1.134.456.456 0 0 0-.235.273c0 .072-.083.218-.127.218-.018 0-.041.026-.053.055s-.058.056-.119.057a.506.506 0 0 0-.172.039c-.06.034-.083.027-.117-.034a.091.091 0 0 0-.124-.049c-.075.023-.081.016-.068-.063a.264.264 0 0 0-.007-.126c-.016-.032-.009-.072.028-.155a1.1 1.1 0 0 0 .063-.266c.012-.14.02-.161.075-.2.034-.022.073-.034.087-.023a1.527 1.527 0 0 0 .247.023c.215.01.225.006.257-.076a.949.949 0 0 0 .044-.175c.016-.132-.092-.3-.194-.294a.042.042 0 0 1-.04-.052c.008-.053.053-.068.176-.057.047 0 .063-.012.071-.072s.015-.067.053-.036.062.027.126-.016a.307.307 0 0 0 .1-.107.163.163 0 0 1 .091-.075.343.343 0 0 0 .145-.131c.05-.081.073-.1.082-.067s.022.024.035-.029c.018-.073.036-.081.207-.089.062 0 .066-.026.051-.277-.005-.1 0-.127.018-.11s.041 0 .062-.028c.041-.062.114-.076.089-.021a.107.107 0 0 0 .006.086c.019.034.014.052-.023.069a.115.115 0 0 0-.058.069c-.027.08.045.138.183.138a.4.4 0 0 1 .156.024.341.341 0 0 0 .191-.041c.108-.045.172-.054.186-.034.032.045.134.048.133 0 0-.02.021-.034.047-.033s.046-.024.043-.113c-.007-.185.059-.262.15-.17.057.059.084.047.1-.049 0-.044-.007-.072-.036-.083a.073.073 0 0 1-.045-.055c0-.048.063-.07.251-.077a.328.328 0 0 0 .166-.028c.022-.04-.05-.09-.118-.078l-.193.031c-.162.025-.269-.028-.269-.139a.567.567 0 0 0-.018-.125c-.017-.054.011-.078.238-.27.065-.055.037-.1-.071-.115s-.207.057-.18.118c.016.04-.021.083-.138.147a.3.3 0 0 0-.164.259c0 .034.013.061.029.061a.137.137 0 0 1 .071.048c.037.041.039.052.01.092a.392.392 0 0 1-.1.091c-.052.033-.061.057-.054.139.011.109-.038.174-.133.174-.032 0-.057.014-.057.031 0 .062-.095.066-.117 0a.15.15 0 0 1-.009-.076c.007-.011-.008-.045-.031-.079a.211.211 0 0 1-.041-.109c0-.024-.007-.044-.02-.044s-.021-.02-.02-.048a.176.176 0 0 0-.029-.088c-.021-.027-.031-.031-.032 0a.293.293 0 0 1-.1.109.183.183 0 0 1-.173.049c-.1-.03-.115-.05-.065-.1s.039-.052-.012-.03-.05.014-.017-.024.035-.051.014-.089a.186.186 0 0 1 .083-.254.425.425 0 0 1 .128-.058c.019 0 .037-.024.039-.05s.015-.04.033-.03.055-.01.087-.05.065-.06.075-.05.019 0 .019-.016a.035.035 0 0 1 .03-.036c.016 0 .049-.044.069-.1a.527.527 0 0 1 .157-.191c.111-.085.162-.165.085-.127a.057.057 0 0 1-.065-.017c-.023-.027-.017-.03.018-.013s.041.014.031-.015-.006-.03.029 0c.051.046.126.018.079-.032-.024-.026-.02-.033.019-.036s.061-.005.072 0 .02-.01.013-.026c-.012-.036.007-.036.06 0a.073.073 0 0 0 .089-.014.121.121 0 0 1 .095-.026.052.052 0 0 0 .062-.011.279.279 0 0 1 .093-.062c.061-.027.067-.024.044.011a.138.138 0 0 0-.029.067c0 .013.013.007.027-.015a.127.127 0 0 1 .065-.046.176.176 0 0 0 .074-.029c.017-.012.03-.008.032.014s.013.026.026.021a.167.167 0 0 1 .088.017c.067.032.069.032.025.059s-.025.028.071.052a1.552 1.552 0 0 1 .489.173.65.65 0 0 1 .205.146c.01.027-.005.062-.045.091s-.086.04-.253 0c-.189-.05-.264-.047-.156 0a.073.073 0 0 1 .051.068.209.209 0 0 0 .025.1.4.4 0 0 0 .2.133c.041 0 .022-.055-.024-.078a.1.1 0 0 1-.047-.058c0-.027.008-.033.042-.014a.537.537 0 0 0 .135.047c.08.021.085.018.053-.033-.043-.068-.042-.072.042-.121a.14.14 0 0 1 .121-.015c.061.03.1-.035.053-.081a.115.115 0 0 1-.024-.076.138.138 0 0 0-.029-.08c-.033-.031.086-.029.135 0s.053.081.012.078-.052.047-.011.076.137.034.141-.011.114-.1.213-.112a.259.259 0 0 0 .076-.031c.014-.011.035 0 .047.018s.06.034.164.02.146-.009.164.021.03.031.05.009c.031-.04.008-.084-.079-.152-.053-.044-.056-.05-.02-.031s.106.041.179.065a1.687 1.687 0 0 1 .275.127c.167.1.2.069.06-.05-.05-.04-.081-.075-.07-.073s.012-.02 0-.045a.1.1 0 0 0-.036-.054c-.011 0 0-.022.015-.043a.151.151 0 0 0 .036-.1c0-.033.012-.057.026-.055s.023-.011.018-.027 0-.029.024-.025.032.011.022.032 0 .029.037.035a.107.107 0 0 1 .089.12.078.078 0 0 0 .023.072.377.377 0 0 1 .058.131.362.362 0 0 0 .072.151c.035.041.037.053.016.133s-.033.087-.091.064-.061-.014-.046.009a.154.154 0 0 0 .218 0 .1.1 0 0 0 .018-.127c-.021-.051-.02-.069.006-.071a.145.145 0 0 1 .14.1c.017.047.02.048.018.009a.175.175 0 0 0-.164-.144c-.089-.014-.127-.056-.123-.129 0-.038 0-.051-.042-.092s-.046-.055-.034-.076a.041.041 0 0 1 .04-.023c.014 0 .018-.018.007-.049s-.01-.039 0-.025a.49.49 0 0 1 .043.091c.02.056.036.07.081.083s.05.011.012-.018c-.07-.052-.067-.078 0-.046s.061.028.015-.024-.045-.054.019-.026c.037.015.1.05.14.071s.086.041.1.034.007-.016-.035-.041-.146-.149-.121-.153c0 0 .083 0 .17.007.107.01.143 0 .115-.018l-.043-.031.021-.028c.033-.053.3-.067.466-.024.053.014.088.015.078 0s0-.017.019-.012.031 0 .027-.018a.039.039 0 0 1 .024-.04.149.149 0 0 1 .17.07c.006.026.1.075.181.091a.368.368 0 0 1 .116.052.732.732 0 0 0 .071.047.116.116 0 0 1 .034.032c.035.058.035.075 0 .089l-.084.034a.6.6 0 0 1-.072.032c-.048.012 0 .045.064.043.039 0 .053-.011.039-.032s0-.022.055.008a1.839 1.839 0 0 0 .2.082.588.588 0 0 1 .167.085.456.456 0 0 0 .125.065c.06.019.071.016.052-.021s-.007-.035.071 0a1.359 1.359 0 0 1 .126.07c.032.023.035.026.024.038s-.008.018.015.026.076.074.047.064-.014 0 .025.043c.09.1.126.123.128.082s.021-.031.083-.007a.449.449 0 0 1 .113.059c.018.016.027.015.023 0s.009-.012.027 0 .03.02 0-.033-.031-.057-.01-.053.035.012.047.016.05.025.087.044a.149.149 0 0 1 .086.073c.014.026.019.032.01.01-.02-.047.089.006.134.066s-.014.044.113.106a.664.664 0 0 1 .119.066l.065.078a.079.079 0 0 0 .033.042l.01.009.024.03.007.011c.017.027.023.034.024.027a10.206 10.206 0 0 1 .66.929c-.006.007-.013 0-.024-.011-.036-.046-.059-.052-.063-.019s-.008.021-.016 0-.014-.022-.017-.014-.013.01-.024 0-.015.02 0 .072c.017.093.025.115.047.123s.021.02.036.06a.179.179 0 0 0 .03.057.084.084 0 0 1 .023.034c.007.017.006.023 0 .013-.027-.029-.023.022.005.077.02.04.024.056.01.063s-.011.027 0 .061.014.058.007.063a.065.065 0 0 0 .006.054c.024.057.022.157 0 .107-.01-.021-.052-.1-.092-.184s-.092-.185-.113-.234a.384.384 0 0 1-.048-.244.126.126 0 0 0 .011-.066.449.449 0 0 1 .005-.107.289.289 0 0 0-.055-.2c-.009 0-.006.019.005.05s.019.051.013.038-.013 0-.017.022c-.007.044-.029.031-.054-.035a.083.083 0 0 0-.058-.054c-.035-.014-.044 0-.043.068s0 .09.025.112.026.028.009.022a.194.194 0 0 0-.051 0c-.025 0-.039-.006-.045-.024-.01-.037-.1-.1-.1-.067 0 .013-.029.008-.067-.009-.132-.062-.037-.017-.059.225a.7.7 0 0 1-.024.114l-.018.046.038.018a.115.115 0 0 1 .059.067c.019.045.02.045.013.009s.006-.017.027.039c.013.035.023.03.027-.009.008-.093.176.14.195.272a1.287 1.287 0 0 0 .052.166 1.026 1.026 0 0 1 .062.379c.015.3 0 .36-.057.3-.032-.031-.04-.027-.051.035a.291.291 0 0 0 0 .117.253.253 0 0 1-.019.165.681.681 0 0 0 .082.147.812.812 0 0 1 .122.246c.032.1.032.113 0 .142s-.045.022-.048.013a1.626 1.626 0 0 1-.082-.254.107.107 0 0 0-.063-.094c-.036 0-.049-.03-.069-.116-.014-.065-.019-.074-.062-.1s-.053-.009-.065.019c-.024.051-.055.008-.057-.076 0-.055 0-.061-.028-.082s-.035.01-.047.073-.032.1-.045.1c-.032 0 0 .092.041.109a.109.109 0 0 1 .046.057c.021.06.055.082.058.033 0-.027.023-.031.056-.015.061.028.078.066.042.089a.263.263 0 0 0-.025.217.8.8 0 0 1 .132.2c.084.147.113.237.094.276l-.015.033h.026c.05.009.076.108.07.3a.618.618 0 0 0 0 .117c0 .015.007.034.011.05a.7.7 0 0 1-.026.234c-.025.1-.1.158-.131.1-.014-.025-.016-.019-.006.016s0 .066-.042.1c-.058.051-.06.115 0 .2a.161.161 0 0 1 .025.1c0 .075-.015.1-.051.08-.052-.037-.057-.169-.008-.17.022 0 .02-.01 0-.038a.339.339 0 0 1-.043-.094c-.029-.1-.1-.073-.128.049-.03.137-.006.212.12.391a1.029 1.029 0 0 1 .215.426c.032.125.035.155.016.218-.012.041-.033.074-.045.075s-.021.017-.016.035a.285.285 0 0 1-.037.155c-.007 0-.019-.032-.028-.075a.188.188 0 0 0-.048-.1.8.8 0 0 1-.114-.133.39.39 0 0 0-.107-.113c-.011 0-.026-.021-.033-.049-.026-.1-.038-.02-.025.148.017.215.022.24.079.318a.486.486 0 0 1 .062.133c.011.046.029.075.054.085.071.034.213.188.194.293a1.006 1.006 0 0 0-.012.18c0 .076 0 .084-.017.087-.066.01-.125-.234-.163-.4a.947.947 0 0 0-.159-.285 1.3 1.3 0 0 1-.065-.252 1.593 1.593 0 0 0-.1-.368c-.029-.067-.076-.177-.1-.251zm-8.112-2.815a.027.027 0 0 1 .027-.036c.047 0 .052.021.013.054-.009.009-.026.002-.035-.019zm.576-.2c.061-.018.079.007.074.118 0 .09-.048.145-.112.146-.011 0-.016-.057-.012-.126s.026-.13.056-.137zm0-.183c.034-.043.061-.018.057.049 0 .039-.014.072-.027.072-.021.002-.044-.091-.022-.12zm.333.58c0-.014.061-.029.137-.03.129 0 .135 0 .12.089-.006.051-.021.091-.032.084s-.065-.036-.121-.064-.097-.063-.096-.078zm1.279.352c.053 0 .075.009.051.019a.214.214 0 0 1-.1 0c-.013-.012.004-.019.057-.018zm.663.045c.006-.021.041-.035.078-.034s.059.016.054.037a.084.084 0 0 1-.077.035c-.03 0-.052-.016-.047-.037zm-2.025-2.531c-.012.01-.027 0-.036-.018a.024.024 0 0 1 .022-.034c.039 0 .046.021.014.052zm.09-.1c.065-.028.075-.024.073 0 0 .052-.054.1-.086.086s-.039-.065.01-.083zm.526-.194a.044.044 0 0 1 .036-.034c.012 0 .021.014.021.035a.035.035 0 0 1-.036.033.024.024 0 0 1-.024-.03zm.3-.1c0-.02.021-.033.05-.033s.042.008.017.034c-.039.052-.065.052-.067.003zm7.32.977v.022a.06.06 0 0 1-.016-.029c-.005-.016 0-.024 0-.022a.057.057 0 0 1 .016.037zm-.557.188a.078.078 0 0 1-.023-.032c-.007-.018-.007-.028 0-.027a.061.061 0 0 1 .023.032c.004.022.006.037 0 .035zm.549 8.914c0-.006 0-.013.018-.019s.017 0 .008.008-.022.021-.026.018zm.14.443c-.018.036-.032.06-.032.054s-.014.011-.03.035c-.038.063-.044.03-.016-.083l.022-.093.06-.028c.062-.019.061-.012-.004.123zm.479-.244c-.026.045-.053.1-.06.112s-.012.025-.011.018c0-.023-.049.056-.086.131-.055.112-.093.161-.13.165-.018 0-.025-.009-.018-.027a1.738 1.738 0 0 1 .165-.251 1.856 1.856 0 0 0 .129-.206c.043-.081.062-.112.059-.1s0 .019.01.015-.005.054-.058.15zm.224-.378a.108.108 0 0 0-.024.043 1.067 1.067 0 0 1-.117.21c0-.008 0-.023.022-.063s.026-.057.02-.075a.081.081 0 0 1 .017-.066.412.412 0 0 0 .036-.068.693.693 0 0 0 .062-.2.333.333 0 0 1 .009-.061c.013-.053.02-.063.024-.035a.387.387 0 0 1-.019.1c-.012.042-.017.069-.01.061s.01 0 .007.027 0 .033.021.011.023-.023.019-.012a.667.667 0 0 1-.067.132zm.068-1.942c.013.014.013.035 0 .086a.925.925 0 0 0-.023.113c0 .022-.011.075-.019.115a.224.224 0 0 0 0 .118.332.332 0 0 1 0 .133.224.224 0 0 0 0 .1.055.055 0 0 1 0 .043.585.585 0 0 0-.009.12.512.512 0 0 1-.022.16c-.013.04-.03.1-.038.135a1.151 1.151 0 0 1-.052.156l-.066.166a1.324 1.324 0 0 1-.063.13c-.043.072-.2.4-.229.466-.017.042-.027.058-.044.066a.522.522 0 0 0-.085.088c-.061.074-.064.076-.064.039s0-.034-.041.016-.044.051-.049.038a.051.051 0 0 0-.034-.02c-.034 0-.036-.035-.008-.108s.03-.116 0-.086-.015.008 0-.028c.036-.074.038-.107 0-.044-.048.081-.038.041.013-.056.067-.128.062-.137-.016-.018s-.1.14-.077.089.022-.205 0-.2a.033.033 0 0 1-.035-.012c-.005-.009-.038 0-.078.03-.189.126-.26.183-.3.255-.018.035-.04.05-.1.069a.344.344 0 0 0-.149.1c-.089.089-.1.1-.14.055s-.026-.06.012-.094a.588.588 0 0 0 .088-.222.272.272 0 0 1 .014-.085c.01-.043.028-.137.041-.213.02-.113.027-.145.048-.166a.117.117 0 0 0 .026-.091c0-.079.094-.33.114-.313s.019-.005.024-.022a.057.057 0 0 1 .025-.035.2.2 0 0 0 .051-.055.991.991 0 0 1 .145-.129 1.189 1.189 0 0 0 .131-.1.779.779 0 0 0 .107-.2c.023-.07.067-.139.061-.094 0 .018 0 .033.007.031s.016-.022.017-.043.013-.042.029-.047a.047.047 0 0 0 .029-.039.368.368 0 0 1 .085-.147.044.044 0 0 0 .018-.028c.01-.036.053-.067.066-.043a.082.082 0 0 1 0 .054c-.005.023 0 .027.026.012a.077.077 0 0 0 .039-.055.266.266 0 0 1 .032-.08.4.4 0 0 0 .034-.074.123.123 0 0 1 .068-.076.093.093 0 0 0 .041-.09c-.013-.031 0-.028.031 0a.082.082 0 0 0 .065.025c.028 0 .035.005.027.033a.308.308 0 0 1-.024.055c0 .009-.024.052-.042.1a.156.156 0 0 0 .014.192.185.185 0 0 1 .029.076c0 .039.024.014.058-.058a1.9 1.9 0 0 0 .073-.212c.053-.185.089-.314.1-.348.023-.056.025-.028 0 .116.007.109.006.143.019.159zm-.232.02v.026a.051.051 0 0 1-.018.03v-.026a.089.089 0 0 1 .017-.022zm.073-.646c.008-.028.019-.063.021-.076s.01-.025.016-.027 0 .031-.026.1c-.025.055-.026.055-.012.011zm.346.1c-.007-.1-.028-.13-.062-.079a.25.25 0 0 0-.035.075c-.014.068-.077.088-.087.031-.006-.039-.015-.043-.044-.021s-.035.023-.022-.015a.094.094 0 0 1 .028-.048c.007 0 .015-.017.02-.036a.449.449 0 0 0-.015-.186c-.007 0-.029-.018-.051-.044s-.044-.037-.047-.024-.009.025-.014.027-.006-.016 0-.037a.113.113 0 0 0 0-.059c-.01-.02-.006-.026.023-.036s.03-.016.013-.018a.039.039 0 0 1-.026-.036.076.076 0 0 0-.022-.047l-.021-.015.036-.042c.031-.038.082-.048.087-.019a.382.382 0 0 1-.007.079.44.44 0 0 0 0 .111c.006.045.01.042.065-.06s.058-.1.072-.082a.843.843 0 0 0 .08.076c.066.057.089.106.08.154a.1.1 0 0 0 .019.065c.018.024.019.04.008.051a.156.156 0 0 0-.021.128.236.236 0 0 1 0 .077v.013c0-.007.012.016.015.052.005.054 0 .066-.006.061a.217.217 0 0 0-.034-.014c-.019.001-.031-.034-.033-.073zm.07 1.031c-.005 0-.01-.03-.012-.072 0-.1.007-.1.016-.008a.178.178 0 0 1 0 .089zm.081-1.329a.019.019 0 0 1-.032 0l-.016-.022.036-.022a.137.137 0 0 0 .055-.075c.02-.054.032-.07.025-.03a.666.666 0 0 1-.069.158zm.084-.173a.106.106 0 0 1 0-.037c0-.015.006-.019.009-.013a.092.092 0 0 1 0 .037c-.003.025-.006.029-.01.022zm.037.174c-.009.022-.014-.05-.006-.092 0-.015.007-.005.01.021a.2.2 0 0 1-.002.081zm.053.211c-.007 0-.011 0-.009-.017s.01-.02.016-.016a.016.016 0 0 1 .008.017s-.007.022-.015.025zm.034-.07c0 .018 0 .029-.007.023a.109.109 0 0 1 0-.037c.007-.024.01-.019.007.024zm.055.646c0-.022.009-.034.017-.032s.009.01 0 .025c-.007.049-.023.052-.017.016zm.051-.1v-.023a.078.078 0 0 1 .015-.031v.024a.09.09 0 0 1-.015.039z" class="cls-3" transform="translate(-647.347 -501.924)"/>
                            <path id="Path_1321" d="M686 514.615c.013.036.021.046.016.02a.182.182 0 0 0-.024-.062c-.009-.012-.007.006.008.042z" class="cls-3" transform="translate(-669.216 -509.081)"/>
                            <path id="Path_1322" d="M686.464 510.047s0-.012-.01-.026a.066.066 0 0 0-.026-.032c-.006 0 0 .008.01.026a.124.124 0 0 0 .026.032z" class="cls-3" transform="translate(-669.464 -506.489)"/>
                            <path id="Path_1323" d="M685.117 514.661c-.007 0-.009.012 0 .031a.057.057 0 0 0 .036.036c.012 0 .012-.015 0-.032s-.026-.034-.036-.035z" class="cls-3" transform="translate(-668.72 -509.132)"/>
                            <path id="Path_1324" d="M676.789 528.258c-.009-.011-.036 0-.059.037s-.038.066-.029.072.035-.005.06-.037.039-.066.028-.072z" class="cls-3" transform="translate(-663.959 -516.826)"/>
                            <path id="Path_1325" d="M678.293 517.5c-.026 0-.031.01-.011.021s.04.009.045 0-.008-.021-.034-.021z" class="cls-3" transform="translate(-664.849 -510.74)"/>
                            <path id="Path_1326" d="M679.413 511.882c0-.021-.012-.034-.016-.034s-.011.012-.012.032.006.034.016.034.016-.014.012-.032z" class="cls-3" transform="translate(-665.479 -507.541)"/>
                            <path id="Path_1327" d="M676.4 517.388c.01.018.025.036.032.036s.008-.017.006-.036a.037.037 0 0 0-.032-.037c-.012 0-.016.015-.006.037z" class="cls-3" transform="translate(-663.787 -510.656)"/>
                            <path id="Path_1328" d="M679.405 516.1a.027.027 0 0 0-.028-.033c-.022 0-.038-.026-.042-.065s.012-.056.037-.047a.086.086 0 0 0 .067 0c.02-.012.014-.034-.035-.1s-.069-.073-.1-.039-.032.037-.036-.029c0-.042-.014-.074-.024-.074a.66.66 0 0 1-.123-.128c-.057-.071-.088-.126-.07-.125s.039-.019.045-.047.033-.043.054-.036c.042.009.059-.039.039-.122-.023-.109-.156-.109-.278 0s-.159.181-.094.292a.6.6 0 0 1 .053.107 1.139 1.139 0 0 0 .115.177l.111.148-.018.112a.42.42 0 0 0 0 .177c.048.122.3.233.388.173.034-.023 0-.242-.045-.28a.071.071 0 0 1-.016-.061z" class="cls-3" transform="translate(-665.14 -509.423)"/>
                            <path id="Path_1329" d="M678.782 517.672s0 .025.014.054.035.054.047.055.008-.021-.015-.054a.232.232 0 0 0-.046-.055z" class="cls-3" transform="translate(-665.137 -510.837)"/>
                            <path id="Path_1330" d="M675.212 516.745c-.05 0-.1.011-.1.032s.024.036.078.038.1-.015.1-.033-.025-.036-.078-.037z" class="cls-3" transform="translate(-663.058 -510.312)"/>
                            <path id="Path_1331" d="M678.541 512.889c.016-.026.021-.056.013-.067s-.021.009-.034.042c-.019.066.017.194.046.158.009-.013 0-.034-.017-.052s-.029-.042-.008-.081z" class="cls-3" transform="translate(-664.987 -508.091)"/>
                            <path id="Path_1332" d="M676.257 530.045a.484.484 0 0 0 .047.233.481.481 0 0 1 .063.139c.01.043.032.074.048.073.042 0 .036-.04-.03-.163a.652.652 0 0 1-.065-.228c-.012-.199-.061-.244-.063-.054z" class="cls-3" transform="translate(-663.709 -517.772)"/>
                            <path id="Path_1333" d="M675.3 511.1c.08-.007.068-.081-.021-.143s-.1-.064-.107-.018.066.161.128.161z" class="cls-3" transform="translate(-663.092 -507.008)"/>
                            <path id="Path_1334" d="M680.882 515.527a.111.111 0 0 1-.026-.1c.011-.044 0-.052-.044-.05-.09 0-.155.113-.128.236.018.073.036.091.15.125.065.021.086.018.069-.01a.125.125 0 0 1 0-.089.1.1 0 0 0-.021-.112z" class="cls-3" transform="translate(-666.212 -509.535)"/>
                            <path id="Path_1335" d="M675.972 510.906a.219.219 0 0 0-.039-.112c-.029-.048-.049-.066-.045-.039s-.007.037-.027.022c-.054-.033-.029.032.037.1.032.03.066.045.074.029z" class="cls-3" transform="translate(-663.469 -506.915)"/>
                            <path id="Path_1336" d="M676.571 511.779a.167.167 0 0 0-.053-.07c-.037-.029-.045-.029-.036.005.018.079.099.137.089.065z" class="cls-3" transform="translate(-663.835 -507.45)"/>
                            <path id="Path_1337" d="M676.042 515.352c-.062-.041-.112-.085-.115-.1s.012-.017.032-.006.064-.086.039-.118c-.006-.007.013-.035.042-.058l.05-.047h-.057a.178.178 0 0 0-.1.028 1.128 1.128 0 0 1-.134.065c-.084.039-.091.046-.048.09a.11.11 0 0 0 .1.029c.038-.013.051-.006.043.022a.061.061 0 0 1-.059.037.162.162 0 0 0-.089.032c-.032.027-.055.019-.1-.035s-.054-.076-.019-.107.022-.035-.04-.04c-.043 0-.081-.021-.083-.039-.011-.106-.164.016-.186.15-.006.035-.019.056-.031.042-.027-.036-.109.288-.088.349.039.1.268.136.4.051a.261.261 0 0 1 .3.024.634.634 0 0 0 .444.054c.135-.175-.191-.349-.301-.423z" class="cls-3" transform="translate(-663.111 -509.335)"/>
                        </g>
                    </g>
                </g>
                <g id="Group_1796" transform="translate(42.553)">
                    <g id="Group_1795" transform="translate(0 13.072)">
                        <g id="Group_1794">
                            <path id="Path_1338" d="M745.389 536.6v-31.149h9.528V536.6z" class="cls-3" transform="translate(-745.389 -505.451)"/>
                        </g>
                    </g>
                    <path id="Path_1339" d="M750.495 475.333a4.463 4.463 0 1 1-4.413 4.463 4.484 4.484 0 0 1 4.413-4.463z" class="cls-3" transform="translate(-745.781 -475.333)"/>
                </g>
            </g>
        </g>
    </g>
</svg>
