<svg xmlns="http://www.w3.org/2000/svg" width="255" height="87.931" viewBox="0 0 255 87.931">
    <defs>
        <style>
            .cls-3{fill:#e5eaf1}
        </style>
    </defs>
    <g id="Group_5493" transform="translate(-690 -2519)">
        <path id="Rectangle_113" fill="none" d="M0 0H255V87.931H0z" transform="translate(690 2519)"/>
        <g id="Discovery-Logo-Channel-Dropdown" transform="translate(690 2569)" style="isolation:isolate">
            <g id="Group_1793" transform="translate(0 .031)">
                <path id="Path_1247" d="M779.152 517.918a2.976 2.976 0 0 0 3.28 2.817c1.64 0 2.439-.884 2.439-1.808 0-.757-.5-1.387-2.061-1.724l-2.4-.547c-4.458-.967-6.225-3.49-6.225-6.433 0-3.827 3.365-6.938 8.033-6.938 6.056 0 8.158 3.784 8.369 6.223l-5.3.967a2.745 2.745 0 0 0-2.986-2.565 2.036 2.036 0 0 0-2.271 1.808c0 .883.715 1.387 1.64 1.555l2.775.547c4.332.883 6.434 3.489 6.434 6.559 0 3.575-2.733 7.064-8.326 7.064-6.56 0-8.663-4.247-8.832-6.559z" class="cls-3" transform="translate(-736.926 -495.176)"/>
                <path id="Path_1248" d="M844.031 514.386a4.783 4.783 0 0 0 4.878 5.172 4.308 4.308 0 0 0 4.331-3.112l5.636 1.724a9.9 9.9 0 0 1-9.966 7.274 10.9 10.9 0 0 1-11.228-11.058 10.788 10.788 0 0 1 11.017-11.1c5.761 0 9.126 3.532 10.051 7.274l-5.72 1.724a4.11 4.11 0 0 0-4.205-3.112c-2.649-.001-4.794 1.849-4.794 5.214z" class="cls-3" transform="translate(-782.257 -495.176)"/>
                <path id="Path_1249" d="M936.26 514.343a11.1 11.1 0 1 1-11.1-11.058 10.808 10.808 0 0 1 11.1 11.058zm-6.392 0c0-3.531-2.271-5.172-4.71-5.172-2.4 0-4.71 1.64-4.71 5.172 0 3.49 2.313 5.214 4.71 5.214 2.442 0 4.71-1.682 4.71-5.214z" class="cls-3" transform="translate(-836.393 -495.176)"/>
                <path id="Path_1250" d="M1001.715 526.348h-6.434l-8.578-20.9h6.938l4.836 12.992 4.458-12.992h6.728z" class="cls-3" transform="translate(-887.885 -496.711)"/>
                <path id="Path_1251" d="M1083.349 518.8c-1.009 3.616-4.331 6.643-9.63 6.643-5.761 0-10.892-4.121-10.892-11.142 0-6.728 5-11.016 10.429-11.016 6.476 0 10.471 3.995 10.471 10.722a13.4 13.4 0 0 1-.126 1.976h-14.55a4.523 4.523 0 0 0 4.752 4.037 4.037 4.037 0 0 0 4.205-2.734zm-5.8-6.938c-.084-1.6-1.177-3.532-4.205-3.532a3.982 3.982 0 0 0-4.163 3.532z" class="cls-3" transform="translate(-941.843 -495.176)"/>
                <path id="Path_1252" d="M1156.123 511.246a8.64 8.64 0 0 0-2.019-.211c-2.565 0-4.878 1.514-4.878 5.676v9.125h-6.392v-20.9h6.182v2.817c1.093-2.355 3.743-3.028 5.425-3.028a6.3 6.3 0 0 1 1.682.211z" class="cls-3" transform="translate(-998.552 -496.199)"/>
                <path id="Path_1253" d="M1195.528 534.379l4.752-10.849-8.79-18.08h7.15l5.088 11.185 4.626-11.185h6.771l-12.868 28.929z" class="cls-3" transform="translate(-1033.041 -496.711)"/>
                <g id="Group_1792">
                    <path id="Path_1254" d="M671.18 490.255a8.865 8.865 0 0 0-8.861-8.89h-8.891v-5.927h8.891c8.591 0 15.365 6.278 15.365 14.817s-6.774 14.817-15.365 14.817h-8.891v-5.927h8.891a8.865 8.865 0 0 0 8.861-8.89z" class="cls-3" transform="translate(-651.657 -475.438)"/>
                    <g id="Group_1791" transform="translate(0 7.712)">
                        <path id="Path_1255" d="M653.148 513.286c-.019.023-.014.021.018-.006s.023-.02.01-.016a.066.066 0 0 0-.028.022z" class="cls-3" transform="translate(-651.451 -509.96)"/>
                        <path id="Path_1256" d="M668.317 508.328c0-.026-.007-.024-.024.011s-.008.028.005.02a.036.036 0 0 0 .019-.031z" class="cls-3" transform="translate(-662.189 -506.45)"/>
                        <path id="Path_1257" d="M669.963 505.955c0-.017-.03-.009-.039.01s0 .015.014.009.025-.015.025-.019z" class="cls-3" transform="translate(-663.348 -504.775)"/>
                        <path id="Path_1258" d="M658.272 541.589c-.016.018-.015.02.01.016s.027-.009.028-.017-.02-.023-.038.001z" class="cls-3" transform="translate(-655.083 -530.026)"/>
                        <path id="Path_1259" d="M665.722 548.191c.009.006.017.007.018 0s0-.01-.016-.011-.012.004-.002.011z" class="cls-3" transform="translate(-660.367 -534.712)"/>
                        <path id="Path_1260" d="M664.668 509.172c.007-.007 0-.013-.011-.01s-.019.008-.012.013.017.004.023-.003z" class="cls-3" transform="translate(-659.606 -507.054)"/>
                        <path id="Path_1261" d="M689.541 524.654c.007.006.006 0 0-.019-.016-.037-.024-.043-.017-.014a.064.064 0 0 0 .017.033z" class="cls-3" transform="translate(-677.24 -517.999)"/>
                        <path id="Path_1262" d="M653.861 524.866c-.017 0-.018 0-.011.037s.029.034.029-.01a.025.025 0 0 0-.018-.027z" class="cls-3" transform="translate(-651.953 -518.185)"/>
                        <path id="Path_1263" d="M653.9 516.986c0-.006-.006 0-.013.009a.082.082 0 0 0-.009.033c0 .006.007 0 .013-.009a.064.064 0 0 0 .009-.033z" class="cls-3" transform="translate(-651.974 -512.598)"/>
                        <path id="Path_1264" d="M655.76 525.557c-.017.024-.025.094-.01.1s.017-.012.027-.03c.023-.042.005-.103-.017-.07z" class="cls-3" transform="translate(-653.297 -518.669)"/>
                        <path id="Path_1265" d="M658.073 541.294a.018.018 0 0 0 .011.019c.008 0 .011-.006.009-.015s-.009-.018-.011-.019-.009.006-.009.015z" class="cls-3" transform="translate(-654.949 -529.82)"/>
                        <path id="Path_1266" d="M656.47 532.93a.086.086 0 0 0 .039.043c.023.01.024.006 0-.027s-.053-.054-.039-.016z" class="cls-3" transform="translate(-653.811 -523.885)"/>
                        <path id="Path_1267" d="M657.638 540.383c-.007 0-.007.005 0 .017a.078.078 0 0 0 .02.021v-.017a.033.033 0 0 0-.02-.021z" class="cls-3" transform="translate(-654.638 -529.184)"/>
                        <path id="Path_1268" d="M663.707 507.015s0 .011.005.017.014 0 .019-.01 0-.019-.006-.018a.03.03 0 0 0-.018.011z" class="cls-3" transform="translate(-658.943 -505.525)"/>
                        <path id="Path_1269" d="M671.985 524.821c-.063-.03-.068-.025-.035.043.02.042.091.044.091 0 .001-.005-.025-.025-.056-.043z" class="cls-3" transform="translate(-664.771 -518.142)"/>
                        <path id="Path_1270" d="M668.193 526.515c-.016-.008-.031-.01-.031-.005a.139.139 0 0 0 .028.04c.018.018.03.02.032 0a.056.056 0 0 0-.029-.035z" class="cls-3" transform="translate(-662.101 -519.349)"/>
                        <path id="Path_1271" d="M678.166 525.286a.036.036 0 0 0 .016-.027s-.009-.01-.021-.009-.018.012-.016.027a.012.012 0 0 0 .021.009z" class="cls-3" transform="translate(-669.177 -518.457)"/>
                        <path id="Path_1272" d="M668.23 526.85c-.008.012 0 .025.007.025a.028.028 0 0 0 .025-.025c0-.015 0-.025-.007-.025s-.018.01-.025.025z" class="cls-3" transform="translate(-662.146 -519.574)"/>
                        <path id="Path_1273" d="M678.116 527.546a.126.126 0 0 0 .028.1c.028.028.031.028.01 0a.293.293 0 0 1-.026-.1.32.32 0 0 0-.013-.061.307.307 0 0 1 .001.061z" class="cls-3" transform="translate(-669.156 -520.04)"/>
                        <path id="Path_1274" d="M689.836 516.691c0-.012-.008-.02-.015-.022s-.008.006 0 .019.011.021.015.022.002-.01 0-.019z" class="cls-3" transform="translate(-677.449 -512.376)"/>
                        <path id="Path_1275" d="M677.377 531.515c0-.028 0-.054-.013-.059s-.017.04-.018.1-.005.126 0 .145a.149.149 0 0 0 .018.068c.018.028.021.018.027-.073a.4.4 0 0 0 0-.12.136.136 0 0 1-.014-.061z" class="cls-3" transform="translate(-668.608 -522.856)"/>
                        <path id="Path_1276" d="M672.083 511.516a.121.121 0 0 0-.027.043c0 .018.058-.009.068-.032s-.012-.041-.041-.011z" class="cls-3" transform="translate(-664.861 -508.71)"/>
                        <path id="Path_1277" d="M676.981 529.01a.331.331 0 0 1 .077-.015c.016 0 .025-.01.017-.017a.185.185 0 0 1 .033-.091c.037-.069.04-.081.014-.092-.05-.02-.128-.012-.145.016a.423.423 0 0 0-.03.118c-.013.085-.009.092.034.081z" class="cls-3" transform="translate(-668.323 -520.963)"/>
                        <path id="Path_1278" d="M681.336 508.993v.02c0 .012.013.022.019.023s0-.009 0-.02a.059.059 0 0 0-.019-.023z" class="cls-3" transform="translate(-671.438 -506.934)"/>
                        <path id="Path_1279" d="M674.773 510.683c0 .013-.007.02-.018.013s-.024 0-.026.019-.011.029-.019.019-.017 0-.021.01a.017.017 0 0 0 .015.023c.035 0 .088-.047.085-.08 0-.016-.006-.029-.01-.029s-.008.012-.006.025z" class="cls-3" transform="translate(-666.726 -508.115)"/>
                        <path id="Path_1280" d="M674.493 508.911c0 .011.007.022.014.022s.016-.01.018-.021 0-.022-.014-.022a.017.017 0 0 0-.018.021z" class="cls-3" transform="translate(-666.588 -506.862)"/>
                        <path id="Path_1281" d="M674.5 510.588c0 .012.008.016.014.009a.031.031 0 0 0 .012-.024s-.006-.009-.015-.01-.011.012-.011.025z" class="cls-3" transform="translate(-666.591 -508.048)"/>
                        <path id="Path_1282" d="M674.293 510.81a.039.039 0 0 0 .01.036c.007.007.014 0 .013-.02-.004-.04-.016-.047-.023-.016z" class="cls-3" transform="translate(-666.445 -508.209)"/>
                        <path id="Path_1283" d="M662.735 509.037c.008-.016-.026 0-.041.014s0 .013.01.006a.1.1 0 0 0 .031-.02z" class="cls-3" transform="translate(-658.222 -506.96)"/>
                        <path id="Path_1284" d="M659.918 514.191a.064.064 0 0 0-.038.025c-.03.039-.021.041.019.006s.034-.032.019-.031z" class="cls-3" transform="translate(-656.218 -510.619)"/>
                        <path id="Path_1285" d="M662.289 510.127c.015 0 .016-.006.006-.019s-.036-.019-.054.017-.009.029.007.02a.21.21 0 0 1 .041-.018z" class="cls-3" transform="translate(-657.898 -507.715)"/>
                        <path id="Path_1286" d="M661.928 508.742a.083.083 0 0 1 .03-.024c.012-.007.005-.01-.013-.009a.062.062 0 0 1-.045-.008c-.007 0-.011 0-.013.006a.1.1 0 0 1-.024.039c-.015.017-.01.022.019.016a.077.077 0 0 0 .046-.02z" class="cls-3" transform="translate(-657.629 -506.726)"/>
                        <path id="Path_1287" d="M660.772 509.321h.024c.009 0 .007-.01-.007-.008s-.02.003-.017.008z" class="cls-3" transform="translate(-656.862 -507.158)"/>
                        <path id="Path_1288" d="M660.679 514.054c.015-.034.006-.045-.018-.02s-.023.054-.008.054.018-.015.026-.034z" class="cls-3" transform="translate(-656.772 -510.499)"/>
                        <path id="Path_1289" d="M661.694 513.358c.008 0 .014-.011.015-.023s0-.022-.01-.022-.012.009-.014.023.003.022.009.022z" class="cls-3" transform="translate(-657.509 -509.997)"/>
                        <path id="Path_1290" d="M662.25 506.8c-.01 0-.016.009-.012.013s.012 0 .018-.006.005-.007-.006-.007z" class="cls-3" transform="translate(-657.901 -505.383)"/>
                        <path id="Path_1291" d="M662.594 506.5c.018-.022.011-.02-.033.007l-.032.02h.024a.072.072 0 0 0 .041-.027z" class="cls-3" transform="translate(-658.108 -505.154)"/>
                        <path id="Path_1292" d="M659.907 510.616c.007-.027-.018-.042-.032-.018s-.007.018 0 .017a.026.026 0 0 1 .018.011c.007.007.007.004.014-.01z" class="cls-3" transform="translate(-656.223 -508.064)"/>
                        <path id="Path_1293" d="M661.736 506.961c-.012-.01-.015-.009-.021.01a.07.07 0 0 1-.035.031c-.022.01-.02.011.007.008s.064-.033.049-.049z" class="cls-3" transform="translate(-657.496 -505.49)"/>
                        <path id="Path_1294" d="M660.206 537.608c.01-.015.014-.032.01-.036s-.036.025-.03.048.014.003.02-.012z" class="cls-3" transform="translate(-656.446 -527.19)"/>
                        <path id="Path_1295" d="M662.29 513.41c.019-.025.019-.025-.025 0-.027.016-.03.02-.012.02s.029-.008.037-.02z" class="cls-3" transform="translate(-657.905 -510.052)"/>
                        <path id="Path_1296" d="M657.079 515.653a1.179 1.179 0 0 0-.147.294c0 .042.057-.027.1-.123a.359.359 0 0 1 .1-.141c.07-.068.071-.068.077-.015a.07.07 0 0 1-.021.071.232.232 0 0 0-.038.052c-.005.011 0 .009.015 0s.026-.018.023.022v.052l.051-.079a.891.891 0 0 0 .056-.1c0-.009.01 0 .016.018.014.051.045 0 .036-.054s-.035-.063-.043-.023c0 .011-.009.022-.015.022s-.008-.009 0-.02c.011-.053-.16-.029-.21.024z" class="cls-3" transform="translate(-654.141 -511.617)"/>
                        <path id="Path_1297" d="M658.249 516.158a.124.124 0 0 0 .093-.032c.026-.029.033-.073.006-.045a.164.164 0 0 1-.067.023c-.081.018-.107.054-.032.054z" class="cls-3" transform="translate(-655.042 -511.952)"/>
                        <path id="Path_1298" d="M656.34 511.025l-.053.052-.054.052h.02a.092.092 0 0 0 .038-.025.077.077 0 0 1 .029-.023c.008 0 0 .007-.009.021s0 .01.019-.011a.371.371 0 0 1 .068-.048c.049-.021.064-.056.017-.038s-.036.012-.016 0c.041-.032-.012-.015-.1.034l-.07.038.055-.022z" class="cls-3" transform="translate(-653.643 -508.344)"/>
                        <path id="Path_1299" d="M658.169 511.381c.013-.022-.013-.016-.032.007s-.013.022-.01.026.025-.005.042-.033z" class="cls-3" transform="translate(-654.987 -508.617)"/>
                        <path id="Path_1300" d="M657.828 514.57c.014-.029.008-.047-.01-.029s-.031.05-.016.049a.037.037 0 0 0 .026-.02z" class="cls-3" transform="translate(-654.752 -510.862)"/>
                        <path id="Path_1301" d="M657.074 512.789c-.018.02-.026.032-.02.031a.553.553 0 0 0 .1-.112c.016-.027 0-.016-.035.018-.016.017-.026.032-.022.031s-.007.015-.023.032z" class="cls-3" transform="translate(-654.226 -509.558)"/>
                        <path id="Path_1302" d="M657.148 515.053c.026-.016.041-.021.032-.01-.021.027.008.05.066.05h.049l.019-.062c.008-.025.013-.057 0-.052s-.018 0-.019-.016c-.006-.056-.042-.049-.151.028-.058.041-.111.08-.117.087-.02.022.073.005.121-.025z" class="cls-3" transform="translate(-654.208 -511.139)"/>
                        <path id="Path_1303" d="M659.257 510.22a.035.035 0 0 0-.015.02v.018a.072.072 0 0 0 .016-.02c.004-.012.005-.019-.001-.018z" class="cls-3" transform="translate(-655.775 -507.804)"/>
                        <path id="Path_1304" d="M656.745 514.359a.152.152 0 0 0 .02-.06c.005-.027 0-.039 0-.028-.017.029-.032.101-.02.088z" class="cls-3" transform="translate(-654.005 -510.673)"/>
                        <path id="Path_1305" d="M656.639 512.458a.147.147 0 0 0-.065.036c-.041.039-.041.039.036-.006.057-.033.059-.035.029-.03z" class="cls-3" transform="translate(-653.868 -509.389)"/>
                        <path id="Path_1306" d="M656.816 513.706c-.028.036-.034.046-.027.056s0 .02-.009.031a.054.054 0 0 0-.014.033c0 .005.014-.01.028-.037a.821.821 0 0 0 .042-.089c.014-.039.014-.039-.02.006z" class="cls-3" transform="translate(-654.023 -510.25)"/>
                        <path id="Path_1307" d="M657.55 516.513c-.046.019-.066.054-.031.054a.48.48 0 0 0 .182-.094c.023-.029.005-.024-.151.04z" class="cls-3" transform="translate(-654.544 -512.225)"/>
                        <path id="Path_1308" d="M657.047 513.646l-.025.015a.079.079 0 0 0-.031.027.175.175 0 0 0-.015.109.142.142 0 0 1-.011.076c-.018.042-.017.046 0 .018a.515.515 0 0 0 .054-.143c.017-.057.028-.102.028-.102z" class="cls-3" transform="translate(-654.155 -510.232)"/>
                        <path id="Path_1309" d="M656.951 514.763c.008 0 .024-.016.032-.033a.164.164 0 0 0 .017-.03.372.372 0 0 0-.033.033c-.027.025-.03.031-.016.03z" class="cls-3" transform="translate(-654.149 -510.978)"/>
                        <path id="Path_1310" d="M656.38 511.729c-.006-.009-.009-.007-.014.013s-.016.032-.06.066l-.052.039.042-.007a.211.211 0 0 0 .069-.027l.073-.057a.378.378 0 0 1 .06-.041.076.076 0 0 0 .029-.023c.026-.03-.009-.017-.058.021s-.069.041-.089.016z" class="cls-3" transform="translate(-653.661 -508.836)"/>
                        <path id="Path_1311" d="M683.731 516.641c-.017 0-.031.007-.03.021s.013.023.029.024a.026.026 0 0 0 .03-.021.027.027 0 0 0-.029-.024z" class="cls-3" transform="translate(-673.115 -512.355)"/>
                        <path id="Path_1312" d="M683.552 515.565c-.019 0-.024 0-.011.01a.047.047 0 0 0 .035 0c.005-.003-.004-.008-.024-.01z" class="cls-3" transform="translate(-672.996 -511.593)"/>
                        <path id="Path_1313" d="M683.954 508.747s-.005.006 0 .017a.048.048 0 0 0 .018.022c.005 0 0-.007 0-.017a.045.045 0 0 0-.018-.022z" class="cls-3" transform="translate(-673.292 -506.76)"/>
                        <path id="Path_1314" d="M683.031 515.469c-.042.019-.052.039-.04.08s.027.04.03-.011c0-.025.014-.044.031-.043s.027-.009.023-.02-.008-.023-.009-.021a.319.319 0 0 1-.035.015z" class="cls-3" transform="translate(-672.608 -511.514)"/>
                        <path id="Path_1315" d="M681.926 509.067c0 .023 0 .029.012.031s.016.017.018.03.009.027.015.022 0-.031-.012-.06c-.024-.058-.032-.064-.033-.023z" class="cls-3" transform="translate(-671.857 -506.968)"/>
                        <path id="Path_1316" d="M683.636 508.781c-.019-.03-.057-.066-.046-.043a.189.189 0 0 0 .035.042c.023.025.024.02.011.001z" class="cls-3" transform="translate(-673.035 -506.749)"/>
                        <path id="Path_1317" d="M684.141 515.146c-.006 0 0 .011.013.023a.124.124 0 0 0 .036.025c.006 0 0-.011-.013-.023a.094.094 0 0 0-.036-.025z" class="cls-3" transform="translate(-673.425 -511.296)"/>
                        <path id="Path_1318" d="M686.451 513.616a.576.576 0 0 0 0 .069.337.337 0 0 1-.045.2c-.017.014-.017.014 0 .019s.03-.012.039-.032.022-.037.027-.036.018-.095 0-.158a.324.324 0 0 0-.021-.062z" class="cls-3" transform="translate(-675.025 -510.211)"/>
                        <path id="Path_1319" d="M687.236 518.331c-.005 0-.006.008 0 .021s.014.023.023.023.008-.01 0-.021-.017-.023-.023-.023z" class="cls-3" transform="translate(-675.617 -513.553)"/>
                        <path id="Path_1320" d="M654.452 501.924a7.105 7.105 0 1 0 7.105 7.105 7.105 7.105 0 0 0-7.105-7.105zm6.455 7.7a.017.017 0 0 1 0 .017c0 .005 0 0-.006-.008s-.001-.015.006-.007zm-.454-.291c.007 0 .01 0 .007.007s-.009.009-.013 0-.002-.004.005-.006zm-.053-.092c.006-.022.008-.021.007.007v.009c0-.014.006-.022.007-.017a.948.948 0 0 1-.045.143 1.193 1.193 0 0 1 .031-.141zm-.015.277c.021-.005.03 0 .029.018s0 .025-.017.018a.037.037 0 0 0-.029 0c-.007 0-.012 0-.012-.012s.011-.018.029-.022zm0 .262a.1.1 0 0 1-.011.032c-.008.014-.012.017-.009.006a.137.137 0 0 1 .011-.032c.003-.006.007-.009.008-.004zm-.1-.993a.132.132 0 0 1 .012-.05.7.7 0 0 1 .053.165c0 .01-.007.013-.013.008s-.011 0 0 .029.01.041 0 .042-.034-.017-.048-.07-.016-.044-.03-.037a.034.034 0 0 0-.017.032c0 .013 0 .01-.009-.011a.121.121 0 0 1 .009-.064c.009-.017.018-.022.02-.012.01.03.018.02.027-.03zm.025.8c-.006 0-.011-.006-.011-.014a.02.02 0 0 1 .013-.021c.009 0 .014 0 .012.015a.028.028 0 0 1-.011.022zm0 .441v.016c0 .016-.011.02-.02.021s-.014 0 0-.016a.2.2 0 0 1 .028-.019zm0-.718a.066.066 0 0 1-.068.037c-.039 0-.049 0-.057.031a.134.134 0 0 0-.005.063c.006.029.009.03.032 0a.1.1 0 0 1 .04-.033c.011 0 .007.007-.019.044l-.034.046v.134a.185.185 0 0 1-.017.088c-.011 0-.009-.022 0-.048s.005-.033-.013 0c-.009.016-.013.012-.014-.017a.4.4 0 0 1 0-.06.028.028 0 0 0 0-.022.274.274 0 0 0-.029.084.336.336 0 0 1-.036.1c-.01.01-.01 0 0-.047a.172.172 0 0 0 .012-.082.469.469 0 0 1 .04-.173.188.188 0 0 0 .017-.053c.008-.042.054-.121.062-.1s.061.014.078-.012.045-.022.018.022zm-.066.585a.047.047 0 0 1-.018.022.276.276 0 0 0-.048.056c-.045.062-.048.065-.039.028a.317.317 0 0 1 .081-.1c.029-.024.039-.024.031-.001zm-.21.109a.013.013 0 0 1 .017.015c0 .033-.013.042-.024.015l-.01-.025zm-.025-.032a.1.1 0 0 0-.034.021c-.014.014-.016.013-.009-.008s.017-.027.024-.025.011 0 .011-.013.005-.016.014-.012a.021.021 0 0 1 0 .038zm-.01-.311c-.017.02-.022.019-.023 0s-.015-.022-.04-.015-.038 0-.036-.008-.007-.013-.019-.011-.021-.007-.016-.054a.16.16 0 0 0 0-.066.341.341 0 0 1 .015-.161c.008-.022.018-.029.039-.025s.029 0 .034-.026a.134.134 0 0 1 .039-.063.416.416 0 0 0 .06-.081c.006-.028.014-.053.02-.054a.145.145 0 0 0 .018-.072c.008-.078.017-.087.045-.042a.457.457 0 0 0 .04.053c.018.019.018.021.007.023s-.011.017-.007.033 0 .029-.007.03-.006.009-.005.02 0 .018-.006.019a.187.187 0 0 0 0 .073.175.175 0 0 0 .01.069c.015 0 0 .034-.018.043s-.023.024-.031.056a.376.376 0 0 1-.034.084.135.135 0 0 0-.022.053.249.249 0 0 1-.056.123zm-.038.309c0 .009-.008.02-.013.021s-.006-.007 0-.017.009-.02.013-.021.009.007.006.018zm-.458-.4a.04.04 0 0 1 0 .03c0 .012-.006.015-.012.01a.05.05 0 0 1 0-.03c.009-.008.009-.011.018-.006zm-.019-.123s-.007-.009-.008-.019 0-.02.008-.02.01.007.008.018a.042.042 0 0 1-.003.026zm.011-.171a1.282 1.282 0 0 0-.081-.144c0-.012 0-.017.014-.012a.093.093 0 0 0 .04.009.214.214 0 0 1 .1.1.327.327 0 0 0 .05.1c.006 0 .017.013.025.029a.641.641 0 0 0 .032.064.085.085 0 0 1 .006.061.207.207 0 0 0 .015.1.2.2 0 0 1 0 .164c-.02.069-.03.091-.046.1s-.088-.152-.089-.237a.6.6 0 0 0-.014-.121.236.236 0 0 1-.01-.076.56.56 0 0 0-.037-.132zm.245.606c.009.016.031.019.07.007s.055-.009.056.013a.034.034 0 0 0 .036.033c.02 0 .033.012.031.021s-.1.029-.148.016a.36.36 0 0 0-.068-.011c-.045 0-.073-.034-.06-.068a.048.048 0 0 1 .088-.006zm-.021-.308c.015-.023.021-.015.021.031 0 .026 0 .047-.007.048s-.017-.061-.009-.074zm.055.072a.02.02 0 0 1 .012-.021c.017 0 .017.008 0 .028s-.006.009-.007-.002zm.109.245c-.006 0 0-.01.008-.012s.014 0 .009.007-.007.014-.012.014zm0-3.817a.6.6 0 0 0 .04.069c.028.043.031.049.016.035s-.018-.008-.018 0-.01-.01-.071-.166c-.04-.1-.081-.2-.09-.212a.368.368 0 0 1-.044-.123s0-.014-.009-.034 0-.017.019.025a.511.511 0 0 1 .037.075 1.635 1.635 0 0 0 .094.191c.021.034.027.053.013.05s.001.053.018.095zm.048 1.752v.043l-.021-.043a.26.26 0 0 1-.028-.1.212.212 0 0 1 0-.07c0-.006.008-.012.01-.012a.879.879 0 0 1 .044.186zm.183.846a.217.217 0 0 1-.005.081c-.015.1-.027.093-.012-.007a.191.191 0 0 1 .022-.069zm-.017-.184c0-.008 0-.01.011 0a.132.132 0 0 1 .025.054c.01.041.01.041-.01.005a.371.371 0 0 1-.023-.054zm.123.27c-.012-.017-.014-.028-.014-.07s0-.051-.01-.027-.012.019-.023-.023-.008-.045.006-.039.036.047.047.12c.013.052.011.06-.001.044zm.009-.066c0-.027 0-.027.015 0a.079.079 0 0 1 .016.042c0 .008-.007 0-.011-.011s-.011-.019-.013-.012-.001.002-.002-.011zm-.138 1.23c.034 0 .028.022-.008.031-.015 0-.026 0-.023-.011a.034.034 0 0 1 .04-.015zm.135-1.379c.016 0 .026.028.037.111.006.041 0 .041-.011.011s-.016-.038-.013-.048 0-.021-.012-.042-.01-.027.003-.028zm-.025.03a.046.046 0 0 1-.017-.019c0-.015.012-.008.022.01s.007.018-.001.013zm-.031-.087c-.016-.023-.026-.032-.023-.018s0 .018-.007.008a.046.046 0 0 0-.03-.014c-.01 0-.019-.011-.023-.033s-.01-.03-.012-.023-.014-.013-.027-.045-.021-.058-.016-.062a.111.111 0 0 0-.006-.055.73.73 0 0 1-.016-.079c0-.02 0-.031.019-.029s.025.013.039.064a.363.363 0 0 1 .015.1.165.165 0 0 0 .061.144.075.075 0 0 1 .042.051c.014.038.014.039-.012-.005zm-.023-1.6c.019.062.023.1.007.066s-.013-.017-.012 0a.023.023 0 0 1-.027.022c-.02 0-.025.007-.02.037.008.05-.01.05-.025 0-.008-.024-.016-.035-.027-.036s-.014 0 0 .03.029.08.012.059-.012 0-.013.018 0 .029-.017 0-.011-.039 0-.05.009-.039-.012-.037a.015.015 0 0 0-.01.021c0 .01 0 .014-.007.007s-.017.006 0 .036.021.03.03.088c.012.085-.007.088-.03 0-.012-.047-.017-.057-.021-.048s-.02-.024-.017-.068c.006-.089.023-.124.057-.12s.037-.013.016-.115c0-.024 0-.024.007.007s.014.033.021.007a.349.349 0 0 0-.018-.177c-.026-.073-.032-.106-.017-.092s.011.005 0-.009-.012-.025-.01-.025a.649.649 0 0 1 .04.073.316.316 0 0 1 .044.127 1 1 0 0 0 .053.187zm-.086-.46c-.006 0-.011.011-.01.028s0 .026-.019.009-.049-.03-.048-.009a.016.016 0 0 0 .009.015c.008 0 .009.007.011.024s0 .018-.016-.007-.028-.1-.014-.1 0-.041-.027-.11-.014-.051.034.02a.178.178 0 0 0 .045.048c.035.029.065.096.04.091zm-.036-.473v-.017c0 .001.012.015.007.026s.001.01-.002 0zm-.895-1.67l.02.012.033.034a.215.215 0 0 1-.054-.035c-.011-.008-.011-.01.006-.002zm-.232-.129a.023.023 0 0 1 .022.007.6.6 0 0 0 .077.043c.063.031.08.045.086.063s-.122-.023-.151-.049-.044-.05-.032-.055zm.212.213c.016.02-.008.013-.04-.014-.016-.012-.021-.019-.02-.027s.041.02.065.049zm-.819-.333c0 .009 0 .016-.008.013a.047.047 0 0 1-.021-.022c-.005-.011 0-.016.008-.014a.033.033 0 0 1 .03.031zm-.519-.4c.012-.031.051-.042.058-.015 0 .007.019.018.038.026s.056.029.056.044a.3.3 0 0 1-.082-.009l-.082-.013zm-.31-.159c.008-.006.011-.014.005-.016s-.006-.015 0-.025c.018-.035.144.013.158.058a.092.092 0 0 0 .046.034.084.084 0 0 1 .057.055c.016.036.013.036-.064.008s-.13-.06-.123-.079-.017-.015-.045-.018-.041-.001-.029-.008zm-.973-.262a.075.075 0 0 1 .04-.008c.016 0 .016.007 0 .015a.078.078 0 0 1-.039.008c-.011.006-.012.002.004-.007zm-.1-.016c.03 0 .052.014.05.02s-.078.014-.09-.007.015-.01.046-.005zm-.093 0c.018 0 .021.007.014.021s-.023.022-.031 0 .01-.01.021-.008zm-.059.6c.012 0 .026-.016.03-.038s.016-.04.025-.039.012-.013.008-.03 0-.031.01-.03.026-.019.038-.044a.258.258 0 0 1 .234-.082.194.194 0 0 0 .078-.005c.029-.017.1-.007.113.016s-.028.022-.07.027c-.136.02-.2.036-.2.054a.016.016 0 0 1-.019.015c-.029 0-.122.13-.113.164a.241.241 0 0 0 .062.073l.053.048-.064-.005a.138.138 0 0 1-.087-.036.12.12 0 0 0-.056-.035c-.028.003-.073-.05-.036-.044zm-.024.206c.006.024-.036.044-.054.027a.045.045 0 0 1-.011-.033c.009-.016.064-.011.07.015zm-.215-.857h.059l-.056.019c-.056.021-.067.02-.065-.01.008.005.034-.002.064 0zm-1.335-.162a.258.258 0 0 0 .093 0 .288.288 0 0 1 .169.03c.014.022-.126.066-.156.048a.464.464 0 0 0-.1-.027c-.101-.013-.108-.052 0-.042zm-.193.06c.01.011.02.011.018 0a.152.152 0 0 1 0-.034c0-.023.055-.015.063.011s.015.018.024.012a.015.015 0 0 1 .022.007c0 .011.025.026.049.034a.548.548 0 0 1 .1.056c.033.021.065.035.071.031s.008 0 0 .015c-.018.036-.13.036-.118 0s-.032-.068-.064-.069c-.012 0-.032.018-.043.042s-.028.042-.037.042-.02.017-.027.036-.017.032-.07 0c-.034-.021-.047-.038-.033-.04s.013-.008-.011-.018-.028-.018.031-.034.059-.02.036-.031a.072.072 0 0 0-.06 0c-.035.023-.119 0-.108-.032.005-.011 0-.02-.009-.02a.029.029 0 0 1-.023-.022c.007-.013.166-.005.195.023zm-1.122 2.181c-.009-.006-.013-.032-.008-.057s.018-.045.042-.046a.064.064 0 0 0 .049-.036c.02-.049.128-.052.132 0a.078.078 0 0 1-.019.056.05.05 0 0 0-.016.045.138.138 0 0 1-.081.128c-.025.008-.06.021-.082.031a.055.055 0 0 1-.056-.007c-.015-.021-.012-.028.018-.061s.037-.037.027-.044zm.2-.407a.04.04 0 0 1 .026-.024c.008 0 .008.009 0 .023s-.019.024-.026.024.001-.002.007-.013zm.009.6a.181.181 0 0 1 .083-.053c.03 0 .029-.008-.012-.021a.09.09 0 0 0-.061-.008c-.009.007-.012 0-.011-.009a.065.065 0 0 1 .038-.036c.028-.012.031-.019.019-.049s-.008-.037.025-.038a.063.063 0 0 0 .05-.036c.007-.019.006-.035 0-.035s-.012-.016-.009-.034-.007-.03-.042-.018-.045.01-.026-.048 0-.085-.023-.031c-.008.016-.007.007 0-.021s.008-.046-.008-.037-.013-.006.015-.067a.518.518 0 0 1 .052-.093.11.11 0 0 1 .06-.02c.037 0 .038 0 .013.032-.043.044-.039.051.018.041s.062.019.014.089c-.026.037-.026.042 0 .056a.071.071 0 0 1 .03.057.076.076 0 0 0 .027.057.121.121 0 0 1 .037.069c.006.033.024.058.039.058.039 0 .048.048.013.084a.063.063 0 0 0-.023.054c0 .014 0 .028-.014.029s-.041.008-.067.01l-.133.024a.53.53 0 0 0-.118.031l.021-.024zm.361-1.057c-.05-.005-.084-.018-.074-.022.026-.016.027-.052 0-.051s-.017-.006 0-.034.015-.034-.022-.033-.033-.032.024-.056a.036.036 0 0 1 .052.02c.009.024.025.031.041.019a.317.317 0 0 1 .1-.027c.044-.008.083-.022.086-.033s.01-.02.014-.02a.364.364 0 0 1 .112.112c-.017.107-.22.149-.327.138zm-.986-1.5c.022 0 .036 0 .03.011s-.081.019-.075 0a.093.093 0 0 1 .051.002zm-1.692.579a.119.119 0 0 1 .039-.033.058.058 0 0 0 .027-.024c.005-.013.022-.022.075-.04a.137.137 0 0 1 .089.022.06.06 0 0 0 .024.005.058.058 0 0 1 .028.01c.01.006.016 0 .02-.011s.029-.025.093-.038a.361.361 0 0 0 .1-.031c.013-.014-.036-.009-.123.015-.035.01-.041.008-.023-.007s.024-.023.01-.019a.092.092 0 0 0-.034.025.056.056 0 0 1-.083 0c-.016-.02.005-.039.067-.058a.468.468 0 0 0 .091-.039.117.117 0 0 1 .066-.018.082.082 0 0 0 .056-.018.545.545 0 0 1 .128-.057 1.057 1.057 0 0 1 .574-.076.258.258 0 0 1-.094.042c-.045.015-.08.033-.077.039s-.019.021-.05.035a1.3 1.3 0 0 0-.123.06 1.265 1.265 0 0 1-.237.106c-.035.008-.051.039-.017.032s.021 0-.012.028a.181.181 0 0 1-.072.039.076.076 0 0 0-.046.024.125.125 0 0 1-.038.035c-.028.018-.029.02-.009.028s.006.017-.2.066c-.172.039-.214.035-.112-.012.038-.017.045-.023.037-.033s.011-.014.046-.017.053-.008.05-.013 0-.013.005-.021 0-.009-.024 0c-.043.013-.049 0-.02-.023s.011-.014-.011 0c-.1.053-.133.064-.157.057s-.037-.023 0-.047.024-.015-.012 0c-.045.02-.068.01-.045-.021zm.059.128c.007-.022.028-.028.032-.008s0 .016-.017.02-.014.009-.009 0zm0 .031v.017c0 .011-.01.019-.015.02s0-.007 0-.017a.067.067 0 0 1 .026-.008zm-.168-.122c.012 0 .014 0 .006.005s-.019.008-.022.006.015.005.027.001zm-.017.072a.031.031 0 0 1 .032-.015.144.144 0 0 0 .043 0c.016 0 .017 0 0 .021s-.014.029.007.028.026 0-.013.011c-.024.008-.042.01-.041 0a.01.01 0 0 0-.007-.012.022.022 0 0 1-.01-.02zm-.01.094c.008-.01.022-.017.029-.014a.523.523 0 0 0 .073 0c.034 0 .063.009.067.025s.024.022.151-.011c.1-.028.149-.033.156-.018l.009.02-.03.02a1.184 1.184 0 0 1-.216.055c-.143.027-.179.031-.175.012s.009-.025.013-.026.008-.013.007-.026-.018-.02-.038-.015c-.036.025-.05.015-.034-.009zm.017.078c.013.038-.044.073-.077.051l-.015-.007.035-.026c.057-.022.062-.023.069-.005zm-.2-.142a.05.05 0 0 1 .046-.022h.062c.032 0 .047.02.032.046s-.054.029-.046.01-.022-.008-.054 0-.052.011-.03 0 .029-.02 0-.014-.005.001.002-.008zm-.053.1c0 .011 0 .015-.013.019s-.011 0-.008-.012.03-.01.032.008zm.013.061c.012.016.015.015.03-.008s.018-.023.021-.012.029.013.027-.007.011-.018.043-.027.043-.007.027.024a.169.169 0 0 1-.1.089c-.023.006-.024 0 0-.024s.017-.028-.021-.01-.044.016-.04 0 0-.014-.014-.011-.017 0-.014-.011a.025.025 0 0 1 .052.012zm-.073.059c.015 0 .011.006-.011.026s-.012 0-.008-.005a.039.039 0 0 1 .03-.006zm.009.138c.014-.015.016-.02.005-.017s0-.029.031-.043a.19.19 0 0 1 .1-.027c.006 0 0 .011-.024.035s-.031.03-.012.035-.01.062-.047.071a.083.083 0 0 0-.041.027c-.009.014-.022.011-.031-.009a.079.079 0 0 0-.034-.034c-.01 0-.011-.013 0-.024s.02-.013.027 0 .023.016.037.001zm-.106-.265l.046-.026a.012.012 0 0 1 .011.007c0 .007-.01.014-.046.026s-.036.029 0 .009zm-.014.032c.027-.009.038-.007.028 0a.152.152 0 0 1-.057.032c-.022.007-.034 0-.028 0a.137.137 0 0 1 .068-.017zm-.084.03c.01 0 .011 0 0 .005s-.014.01-.016.007.019.006.028.003zm-.015.1a.038.038 0 0 0 .043.009c.031-.009.031-.009.031-.032a.048.048 0 0 1 .021-.042c.032-.029.04-.028.031 0s0 .026.032.011.036-.012.028 0a.192.192 0 0 1-.1.073.472.472 0 0 0-.112.049c-.058.032-.078.038-.081.029s0-.015.019-.023.02-.009.019-.019-.01 0-.021 0a.1.1 0 0 1-.04.021.131.131 0 0 0-.035.006h-.018l.045-.045a.179.179 0 0 1 .088-.058.062.062 0 0 1 .062.04zm-.2.076a.089.089 0 0 1 .034-.025c.014 0 .012 0-.006.016s-.042.052-.02.028zm-.009-.042c.088-.065.18-.105.148-.065s-.09.072-.078.049 0-.007-.026.015-.034.029-.029.022 0 0-.012.007a.1.1 0 0 1-.05.025h-.028zm-.268.271c.04-.041.057-.06.057-.068s.013-.018.035-.032a.256.256 0 0 1 .074-.027.3.3 0 0 0 .061-.015c.031-.013.058.007.039.029s-.006.014.013.006.026-.006.016.009-.006.017.028 0 .042-.015.036 0 0 .013.022-.005c.044-.036.058-.037.047 0s.011.037.029-.015.016-.042.037-.048a.094.094 0 0 0 .038-.026c.019-.022.08-.043.069-.025a.239.239 0 0 1-.033.037c-.023.022-.029.032-.048.088s-.014.065 0 .063a.042.042 0 0 1 .034.015l.016.018-.034.011c-.018.006-.03.014-.027.018.022.028-.082.072-.117.049-.012-.007-.027 0-.046.013-.05.041-.206.1-.2.07s-.006-.018-.023-.014a.038.038 0 0 1-.037-.01l-.008-.017.047-.026a.261.261 0 0 1 .078-.027.071.071 0 0 0 .043-.018c.006-.009-.028 0-.071.008s-.078.017-.073.007a.064.064 0 0 1 .035-.027c.031-.011.029-.015 0-.019h-.023l.047-.043.047-.043-.028.018a.435.435 0 0 0-.1.081c-.023.034-.088.059-.107.042l-.019-.015zm-2.147 3.694a.086.086 0 0 1-.016.03c-.006.005 0-.007 0-.031s.015-.036.018-.032a.079.079 0 0 1 .006.051zm.925 1.748c-.005 0-.012-.019-.014-.039s0-.029.007-.02a.1.1 0 0 1 .013.038c.01.03.006.04.002.04zm1.689 3.907c0 .027 0 .047-.014.045a.019.019 0 0 1-.017-.019c0-.008-.01-.012-.026-.011a.044.044 0 0 1-.043-.016c-.009-.012-.011-.021 0-.019s-.009-.033-.037-.077c-.036-.061-.055-.081-.072-.082s-.02 0-.014-.011 0-.086-.008-.089-.012.011-.016.027-.008.021-.018-.024a.131.131 0 0 0-.032-.069c-.012-.009-.019-.022-.016-.027s.018.006.034.024.03.032.03.029c-.021-.108-.038-.132-.093-.136-.01 0-.01-.009 0-.023a.039.039 0 0 1 .048-.007c.022.013.027 0 .02-.041l-.011-.075c-.015-.1-.028-.152-.047-.156s-.015.016-.009.045 0 .051-.006.052-.016 0-.017-.027a.878.878 0 0 0-.016-.1.251.251 0 0 1-.009-.091.183.183 0 0 0-.018-.081.287.287 0 0 1-.018-.153.715.715 0 0 0-.023-.309c-.016-.046-.022-.081-.015-.087s.005-.024 0-.04a.483.483 0 0 1-.016-.124 3.738 3.738 0 0 0-.071-.508.463.463 0 0 0-.189-.324c-.1-.082-.186-.191-.182-.227a.562.562 0 0 0-.051-.132c-.029-.057-.081-.176-.116-.265a1.392 1.392 0 0 0-.1-.214.269.269 0 0 1-.044-.253c.028-.037.026-.094 0-.094-.012 0-.024-.024-.03-.051-.013-.064.01-.252.031-.248s.016-.024.016-.059a.1.1 0 0 1 .016-.059c.044-.017.07-.311.073-.41a.428.428 0 0 0-.007-.112c-.011-.022-.075.047-.079.086s-.032.037-.054-.013a.1.1 0 0 0-.041-.049c-.038-.015-.039-.015-.029-.048a.074.074 0 0 0-.045-.086c-.006 0 0-.025.005-.054a.291.291 0 0 0 0-.116.268.268 0 0 1-.006-.088c0-.009 0-.019-.016-.02a.2.2 0 0 1-.133-.15c-.017-.1-.03-.118-.077-.085s-.046.024-.1-.04a.453.453 0 0 1-.062-.1.184.184 0 0 0-.027-.045.317.317 0 0 1-.041-.153.2.2 0 0 1 .025-.06.518.518 0 0 0 .041-.281.831.831 0 0 1 0-.126.688.688 0 0 0 0-.12.811.811 0 0 1 .023-.185c.015-.053.018-.087.007-.1s-.015-.021-.042.048a.353.353 0 0 0-.024.088 1.128 1.128 0 0 1-.012.117.885.885 0 0 0-.011.106c0 .006-.011.049-.023.093a.2.2 0 0 0-.012.094c.012.009 0 .067-.013.084s-.021-.133-.006-.168a.143.143 0 0 0 .009-.073c-.026-.108-.024-.1 0-.125s.026-.031.025-.08a.959.959 0 0 1 .032-.183c.038-.142.04-.183.009-.2a.023.023 0 0 1-.012-.029.708.708 0 0 0 .024-.1.411.411 0 0 1 .038-.118c.012-.019.015-.027.005-.018s-.005-.053.017-.1a.116.116 0 0 0 .014-.038 2.948 2.948 0 0 1 .2-.373.913.913 0 0 0 .094-.179c.017-.049.018-.05.026-.042.029.029.037.028.052-.007.023-.052.026-.079.012-.092a.021.021 0 0 1 0-.027c.006-.01.007-.017 0-.017s-.029.05-.026.084a.048.048 0 0 1-.012.044c-.018.014-.046-.114-.031-.14.006-.01.013-.015.015-.009.013.024.023.026.034.008s0-.02-.006-.018-.012-.016.01-.042a.412.412 0 0 0 .021-.046c.011-.026.01-.037 0-.027s-.012 0 .015-.034.03-.043.01-.022c-.047.05-.046.035 0-.036.026-.041.037-.061.03-.056s-.007-.066.009-.083.005-.013 0-.01-.018.006-.028.039-.006.031 0 .025 0 .008-.012.027-.023.035-.022.018a.257.257 0 0 1 .023-.064c.011-.024.013-.035.006-.029s-.009 0 0-.006a.059.059 0 0 1 .025-.023c.013 0 .048-.061.043-.071s-.009.006-.019.024a.078.078 0 0 1-.023.031v-.017l.022-.037a.178.178 0 0 0 .016-.038c.005-.017 0-.016 0 0s-.014.024-.02.025a.018.018 0 0 0-.012.015.509.509 0 0 1-.056.112c-.012 0 .026-.087.055-.127s.022-.032.012-.02c-.026.033-.04.035-.042.01s.023-.071.01-.069-.018-.015-.021-.023-.014-.016-.032.015-.019.027-.03.031a.254.254 0 0 0-.05.037c-.039.036-.074.053-.038.019.016-.015.019-.02.013-.018s.057-.07.08-.086.017-.012.005-.01a.435.435 0 0 0-.1.088.145.145 0 0 1-.032.028c-.026.018-.053.053-.037.048s.007 0-.018.025-.046.042-.068.06a.334.334 0 0 0-.048.045.052.052 0 0 1-.019.017.33.33 0 0 0-.052.043.53.53 0 0 1-.076.061.355.355 0 0 0-.037.027l.016-.026c.013-.012.022-.017.021-.013s.006 0 .014-.009.038-.039.067-.065a.959.959 0 0 0 .087-.091c.033-.041.034-.044.017-.037a.088.088 0 0 0-.028.022c0 .007-.009.007-.008 0s-.01-.008-.024 0-.023.012 0-.022.02-.033.012-.03c.046-.068.093-.135.142-.2a.287.287 0 0 0 .061-.05l.028-.038c.016-.022.016-.023 0-.008l-.025.017.065-.084a.049.049 0 0 0 .025-.016c.021-.028.037-.055.023-.039a.031.031 0 0 1-.011.009c.055-.068.11-.135.167-.2.022-.017.047-.035.079-.056l.046-.033c.012-.008.025-.016.025-.014l.026-.006a.172.172 0 0 1 .038-.006.11.11 0 0 0 .04-.006c.1-.032.056.006.1.016.021.006.032 0 .058-.021a.61.61 0 0 1 .171-.09.244.244 0 0 0 .066-.04c.021-.02.024-.019.021 0s0 .033.039 0c.016-.016.021-.018.018 0s.012.009.036 0a.088.088 0 0 1 .073-.006.168.168 0 0 0 .075.006c.041-.01.069.009.031.02a.116.116 0 0 0-.038.028c-.012.014.005.014.062 0 .095-.025.134-.019.109.021-.009.015-.011.022 0 .016a.185.185 0 0 0 .034-.048.1.1 0 0 1 .058-.053c.022-.011.041-.023.042-.029s-.019 0-.046.018-.043.017-.041.011c.012-.03.094-.055.1-.029s.154.024.2-.018.043-.056.017-.051-.011 0 .027-.032.073-.034.076.007c0 .024 0 .024-.016.029a.1.1 0 0 1-.032.006c-.007 0-.01.007-.008.02a.064.064 0 0 1-.012.044c-.009.012-.011.027 0 .03s.016 0 .029-.028a.1.1 0 0 1 .052-.053c.04-.019.078-.057.054-.053-.008 0-.006-.008 0-.018s.015-.02.011-.021c-.042 0-.052-.022-.028-.062a.186.186 0 0 1 .056-.061.157.157 0 0 0 .07-.1.1.1 0 0 1 .037-.057c.023-.02.182-.059.173-.044a.372.372 0 0 1-.128.091c-.008-.005-.029.009-.056.036s-.039.043-.033.041.022.089.005.1-.036.045-.012.04.02.008.007.035c-.022.046-.019.048.03 0 .031-.03.037-.031.048-.014s.007.025-.014.042-.024.026-.022.047.024.023.045-.021c.011-.022.019-.03.024-.024s.029-.012.053-.035.04-.044.034-.043.007-.034.032-.047-.008-.012-.04-.016-.061-.015-.06-.045 0-.041.048-.093a.268.268 0 0 1 .159-.105c.042-.007.042-.005.007.021a.169.169 0 0 0-.042.04l-.023.04a.047.047 0 0 0 0 .045c.014.024.017.024.031 0s.005-.019 0-.018-.005-.015 0-.036a.194.194 0 0 1 .136-.1c.048-.016.062-.017.057 0s0 .018.008 0a.08.08 0 0 1 .062-.031c.053-.008.094.017.07.046-.009.01-.006.017.006.016s.027.019.034.044.023.039.036.026.075 0 .061.026c-.005.01 0 .015.016.014.042 0 .047 0 .031.022s-.007.018.014.009.031-.007.029.005a.034.034 0 0 1-.029.026c-.021 0-.023.008 0 .018s.019.014 0 .018c-.07.012-.051.075.031.089.021 0 .036.018.034.03s.015.026.037.03l.042.01-.052.051c-.029.029-.057.046-.059.04s-.011 0-.019.02c-.017.037-.051.03-.06-.011-.016-.065-.029-.074-.066-.042s-.036.033-.026.065.018.032.026.031.016.02.016.047a.1.1 0 0 1-.031.085c-.027.033-.033.031-.071 0-.05-.049-.072-.031-.03.023s.026.1 0 .076a.367.367 0 0 0-.048-.02.068.068 0 0 1-.035-.034c0-.01-.011-.014-.023 0s-.05-.027-.03-.054c.008-.008.005-.017-.005-.016s-.021-.013-.024-.027-.03-.022-.093-.01-.084.008-.079 0c.02-.037.068-.074.085-.063a.107.107 0 0 0 .065-.008c.035-.011.046-.02.048-.04s.011-.031.034-.043c.088-.048.114-.123.058-.156-.021-.01-.033-.027-.027-.038s0-.013-.019-.007-.025.007-.019 0a.044.044 0 0 0 0-.045c-.021-.033-.025-.034-.037 0s-.031.028-.1.034a.344.344 0 0 0-.087.012l.034.024c.013.013.02.031.012.043s-.022.022-.025.018-.029.031-.023.059l.005.028-.035.027a.269.269 0 0 1-.068.035.052.052 0 0 0-.043.035c-.007.02-.01.022-.01.007a.043.043 0 0 0-.035-.026h-.027c.003 0-.153.178-.185.182a.154.154 0 0 0-.1.071.03.03 0 0 1-.026.02.584.584 0 0 0-.191.165c-.083.1-.1.137-.076.15s.016.029.007.06-.008.05.035.05a.072.072 0 0 1 .071.04c.01.023.028.043.039.042a.014.014 0 0 1 .015.02c0 .01.021.019.053.017.06 0 .06 0-.014.143a.188.188 0 0 0 0 .092c.008.058.013.064.047.043s.055-.05.092-.165l.024-.08.07-.047a.369.369 0 0 0 .093-.079.2.2 0 0 0 .045-.158c-.015-.022-.015-.024.024-.066a.35.35 0 0 0 .075-.133.614.614 0 0 1 .05-.108.055.055 0 0 1 .051-.006.234.234 0 0 0 .075.006c.041-.007.08.029.066.057 0 .009.008.02.027.028.034.01.033.014 0 .091s-.035.08-.015.071a.02.02 0 0 1 .029.016c.007.038.072.006.143-.075l.061-.069c0 .05 0 .075.007.125a.483.483 0 0 1-.006.16.07.07 0 0 0 0 .058.106.106 0 0 1 .013.044c0 .011.011.022.025.026a.072.072 0 0 1 .028.009c0 .007.017.015.034.02s.009.007-.009.02-.012.029.013.05.033.038.012.093a.122.122 0 0 1-.091.087.567.567 0 0 0-.126.071c-.053.039-.076.043-.18.033s-.127 0-.163.024-.067.048-.1.066a.911.911 0 0 0-.12.11c-.054.059-.058.066-.019.029a.42.42 0 0 1 .232-.134c.049 0 .06.006.049.032a.1.1 0 0 1-.058.048c-.033.012-.037.016-.016.018s.021.016.007.048a.082.082 0 0 0 .051.122c.031 0 .053-.007.094-.053s.049-.051.037-.019-.009.042 0 .042.006.007-.013.024-.027.011-.026-.007 0-.021-.011 0a.325.325 0 0 1-.154.1.317.317 0 0 0-.078.048c-.029.023-.055.034-.058.025s.016-.081.031-.081a.167.167 0 0 0 .05-.037c.038-.034.036-.034 0-.021l-.059.021a.407.407 0 0 0-.049.027c-.019.014-.064.037-.1.055a.245.245 0 0 0-.14.174c0 .023-.013.032-.07.046s-.067.022-.061.034 0 .021-.025.021-.04.013-.065.057-.04.058-.056.057-.026.011-.031.032a.263.263 0 0 1-.039.076c-.026.036-.027.032-.005-.035s.018-.067 0-.046a.39.39 0 0 0-.057.165.1.1 0 0 1-.025.053c-.02.02-.023.03-.013.03s.006.012 0 .023-.02.016-.024.009-.01 0-.015.021-.015.039-.031.039a.1.1 0 0 0-.051.033.112.112 0 0 1-.043.034.207.207 0 0 0-.067.056.221.221 0 0 1-.065.056.4.4 0 0 0-.1.138.64.64 0 0 0-.023.1.974.974 0 0 1-.074.281c-.017.032-.036.056-.042.056s-.024-.06-.015-.083a.348.348 0 0 0 .006-.072.219.219 0 0 1 .023-.1c.033-.061.016-.152-.023-.126-.022.015-.033.012-.038-.008s-.037-.033-.075-.035c-.063 0-.067 0-.083.05s-.018.05-.053.03a.143.143 0 0 0-.177.005.132.132 0 0 1-.054.036c-.027 0-.093.1-.12.174a.242.242 0 0 1-.035.076.746.746 0 0 0-.072.148.676.676 0 0 0-.064.249c-.013.134.011.179.078.151.024-.009.046-.011.049 0s.074-.055.094-.108a.143.143 0 0 1 .131-.109c.065-.009.067.006.017.082a1.009 1.009 0 0 0-.056.1c-.016.033-.031.057-.034.05s-.018.024-.036.068a.577.577 0 0 1-.053.107c-.027.034-.03.033.082.041.061 0 .08.015.087.048s0 .057-.055.193-.062.154-.058.212a.28.28 0 0 0 .025.1c.016.03.026.032.071 0s.088-.021.107.052c.013.046.013.046.069-.019a.453.453 0 0 0 .065-.1c.006-.018.017-.033.024-.032h.027a.045.045 0 0 0 .028-.018.046.046 0 0 1 .034-.013.185.185 0 0 0 .073-.041c.062-.049.074-.039.028.027-.036.05-.036.093 0 .055a.07.07 0 0 1 .049-.023c.012 0 .026-.011.028-.028s.005-.021.005-.011a.021.021 0 0 0 .018.021c.011 0 .025.024.03.053s.025.048.055.045a.075.075 0 0 1 .06.022c.01.02.036.021.085 0s.071-.021.073.013a.074.074 0 0 0 .035.057c.026.015.03.03.012.064s-.016.046.017.05.052.043.079.116c.039.1.048.113.149.135s.111.038.149.111a1.329 1.329 0 0 1 .071.17.386.386 0 0 0 .054.113c.03.031.03.042 0 .1a.227.227 0 0 0-.032.118c.007.042.01.041.031-.013s.036-.058.068-.044c.063.022.077.064.038.113-.017.023-.027.051-.019.061s.03-.011.049-.048l.034-.067.1.062c.082.049.106.074.109.113s.01.047.043.032a.074.074 0 0 1 .076.011.288.288 0 0 0 .113.037c.063.007.1.031.187.117a.449.449 0 0 0 .152.112c.035 0 .049.025.074.1a.487.487 0 0 1 .023.156 1.248 1.248 0 0 1-.183.342c-.022.033-.025.075-.012.174a1.054 1.054 0 0 1 0 .213.244.244 0 0 0 0 .09.206.206 0 0 1-.022.087.36.36 0 0 0-.026.094c.005.035-.057.079-.107.075a.424.424 0 0 0-.254.129.247.247 0 0 0-.007.128.239.239 0 0 1-.017.152l-.046.094c-.008.018-.012.023-.007.011a.043.043 0 0 0-.005-.039c-.016-.018-.04.039-.052.12a.3.3 0 0 1-.042.114c-.032.044-.043.046-.118.025a.309.309 0 0 1-.108-.05c-.017-.018-.024-.019-.021-.005a.117.117 0 0 0 .039.047.132.132 0 0 1 .043.062c.005.021.017.039.024.04.026 0 .027.048 0 .1s-.077.06-.176.047c-.04-.007-.051 0-.041.016a.191.191 0 0 1 .011.072c0 .044-.005.045-.067.024s-.065-.021-.044.022a.224.224 0 0 0 .04.058c.014.013.014.016 0 .014s-.015 0-.011.012a.38.38 0 0 1 0 .109.037.037 0 0 1-.032.029c-.062.009-.027.115.041.128a.044.044 0 0 1 .007.083.07.07 0 0 0-.028.059c0 .022-.008.039-.018.037-.03-.006-.027.019 0 .074s.025.048.005.046-.013 0 .013.018a.114.114 0 0 1 .041.042.366.366 0 0 0 .147.113c.051.01.032.035-.026.033a.124.124 0 0 1-.08-.026c-.021-.019-.023-.02-.008 0s.006.021-.018.016-.034-.014-.033-.023-.015-.02-.04-.025-.04-.014-.037-.02a.013.013 0 0 1 .015-.01c.006 0 .015-.01.022-.025s.011-.026-.011-.03-.02-.009-.014-.028 0-.024-.014-.028-.027.021-.022.047zm-1.61-8.12c-.031.018-.015-.011.018-.033a.191.191 0 0 0 .038-.035.054.054 0 0 1 .022-.02c.009 0 .007 0-.011.017s-.019.02-.015.019-.021.054-.044.069zm.217.12a.045.045 0 0 1 .026-.019c.012 0 .009.008-.013.045a.553.553 0 0 1-.031.049.185.185 0 0 1 .023-.058zm2.407-1.28c-.027.049-.051.069-.086.073s0-.064.058-.085c.024-.01.045-.018.047-.02zm.03.007c.014 0 .018 0 .008.009a.028.028 0 0 1-.026 0c.005.014.012.009.027.008zm-.1-.079a.126.126 0 0 1-.04.033c-.006 0 .006-.014.026-.031.052-.025.057-.025.02.015zm-.2.432c-.007.007-.017.01-.021 0s0-.012.013-.013.017.023.011.03zm-.154-.019c-.017-.016-.03-.012-.075.022s-.053.035-.054.016-.014-.018-.032-.008-.026.013 0-.016a.521.521 0 0 0 .069-.084.249.249 0 0 1 .057-.064l.027-.015a.107.107 0 0 1-.011.02c-.009.012-.011.026 0 .027.038.011.071.044.062.061s0 .02.009.018.016.006.01.019-.034.046-.059.021zm.042.1c.008 0 .008.007 0 .021a.066.066 0 0 1-.033.023c-.009 0-.007-.009 0-.02a.063.063 0 0 1 .035-.01zm-.083-.012a.074.074 0 0 1-.043.024c-.014 0-.018-.006-.008-.019a.071.071 0 0 1 .043-.024c.016.013.02.02.01.033zm-.126.467a.109.109 0 0 1-.027.023c-.012.007-.017 0-.012-.007a.04.04 0 0 1 .027-.023c.011.013.017.017.014.021zm-.2.257c-.005.011-.015.016-.021.01s-.008-.017-.005-.021a.028.028 0 0 1 .021-.009c.009.013.012.021.005.034zm.983.456c-.011.016-.029.023-.039.013s-.014-.019.022-.058.061-.058.036-.023c-.01.012-.013.026-.006.031s.001.035-.012.051zm.025-.159c-.022.04-.024.049-.006.035s-.009.016-.049.055c-.074.071-.12.1-.072.041.022-.026.006-.028-.074-.024-.06 0-.1 0-.091-.017s.016-.023.022-.023.019-.016.027-.034.019-.035.025-.035.023-.018.038-.044a.776.776 0 0 1 .08-.1c.063-.069.124-.089.063-.02s-.086.108-.06.089.023 0 .026.019.022.03.053.021.047.003.019.051zm-.394-.016a.082.082 0 0 1-.034-.034c-.005-.036.046-.023.057.013s.007.049-.022.035zm-.114.241c-.015 0-.031-.014-.036-.035s-.005-.028 0-.021a.172.172 0 0 0 .036.035c.023.031.024.038.001.038zm-.956 2.956c0 .012-.013.023-.021.022s-.011-.013-.008-.025.014-.023.021-.022.012.026.008.04zm-.047-.658a.042.042 0 0 1-.042.021c-.019 0-.031-.015-.027-.027a.04.04 0 0 1 .043-.02c.018.016.031.027.027.045zm-.477-.255c-.015 0-.024-.018-.021-.037s-.008-.036-.023-.037a.028.028 0 0 1-.027-.026c0-.014-.012-.024-.029-.025s-.024-.014-.02-.025c.01-.027-.028-.032-.052-.006a.2.2 0 0 1-.054.034c-.032.014-.032.012-.006-.021a.223.223 0 0 1 .075-.053c.075-.027.107-.006.224.15a.629.629 0 0 0 .058.066c.033.029-.013.061-.076.055s-.058-.012-.043-.039.013-.019-.006-.021zm-.026.21c.008.017 0 .024-.03.021s-.039-.015-.039-.027c.002-.015.055-.011.07.021zm.12-.533c.005-.014.015-.023.021-.022s.009.01 0 .024-.013.023-.021.022-.004.002.001-.009zm.03.518c.037.016.064-.025.053-.078s.115-.022.155.034a.15.15 0 0 1 .029.06.324.324 0 0 1-.063.009.2.2 0 0 0-.073.015c-.026.017-.149-.018-.142-.036s.023.002.041.011zm1.823 6.34c0 .007 0 .013-.013.01s-.018-.007-.009-.015.016.002.023.02zm-.163.3a.088.088 0 0 0-.057-.015.057.057 0 0 1-.054-.018c-.012-.014-.014-.018 0-.016a.142.142 0 0 0 .031 0h.053c.044.006.051-.005.011-.017-.021-.007-.027-.012-.02-.018s0-.023-.008-.04-.013-.032 0-.033c.03 0 .043 0 .1.072.1.115.1.148-.008.122-.064-.014-.069-.018-.034-.026.006.018.006.017-.013.001zm-.131-.091c.051.016.05.022 0 .016-.022 0-.039-.011-.038-.017s.017.007.039.013zm-.025-.045c.01 0 .018.008.016.012s-.009 0-.018 0-.008-.003.003.001zm.173-.078c.006-.016.02-.016.027.005a.022.022 0 0 1-.009.023c-.014.025-.026.007-.017-.015zm-.2.194c0 .006-.008.01-.018.007a.075.075 0 0 1-.031-.022c-.007-.01 0-.012.018-.007s.031.028.031.035zm-.292-1.213c-.027.007-.029 0-.021-.019a.036.036 0 0 1 .039-.021c.036.02.025.043-.018.053zm-.058-.019c-.017.012-.02.01-.022-.013s.008-.024.019-.022c.027.018.026.026.002.047zm-.093 1.081v.01a.037.037 0 0 1-.016-.017v-.011a.032.032 0 0 1 .015.028zm-.252-1.712c0 .009 0 .017-.008.016a.034.034 0 0 1-.019-.021c0-.011 0-.017.009-.016a.027.027 0 0 1 .017.034zm.037 1.621l-.071-.024a.039.039 0 0 1-.024-.016.075.075 0 0 0-.032-.025c-.017-.009.007 0 .055.018.091.048.154.09.071.06zm1.1.663a.115.115 0 0 1-.042 0l-.048-.022c0-.007.02-.011.041-.011.07.021.092.033.052.046zm.166-.219c-.02-.008-.034-.009-.031 0a.033.033 0 0 0 .021.016c.01 0 .01.015 0 .034s-.023.023-.03.017-.017-.005-.018.007-.029.017-.077.012-.09-.008-.11-.008a.489.489 0 0 1-.221-.075.21.21 0 0 0-.082-.034c-.013.012.077.078.146.108.037.016.054.028.048.034a.856.856 0 0 1-.225-.086c-.031-.015-.041-.017-.032 0a.151.151 0 0 0 .058.034.22.22 0 0 1 .067.036c.007.007 0 .006-.015 0a6.636 6.636 0 0 1-.812-.466.1.1 0 0 0-.02-.016.1.1 0 0 1-.026-.021.294.294 0 0 0-.036-.031c-.011-.008 0 0 .028.011s.045.017.041.01a.165.165 0 0 0-.058-.033.131.131 0 0 1-.059-.036c-.005-.01 0-.008.025 0a1.664 1.664 0 0 0 .4.162.051.051 0 0 1 .039.012.179.179 0 0 0 .055.028.148.148 0 0 1 .054.025.369.369 0 0 0 .079.044c.059.028.072.029.076.014s.015-.012.036 0a.433.433 0 0 0 .056.029l.068.034c.028.015.039.017.034.006a.046.046 0 0 0-.019-.021c-.007 0-.005-.008 0-.014s.021 0 .039.021.032.032.124.047.132.009.121-.015a.541.541 0 0 0-.041-.06c-.085-.115-.081-.108-.048-.1s.027 0 .017-.035-.016-.044-.024-.04-.013 0-.017-.014.012-.027.034-.04a.175.175 0 0 0 .05-.035.344.344 0 0 1 .128-.041.059.059 0 0 0 .035-.011.051.051 0 0 1 .037 0l.034.009-.03.005c-.017 0-.028.012-.026.02s-.007.012-.02.009c-.038-.009-.085.017-.086.048s-.008.022-.021.015-.034 0-.062.037a.111.111 0 0 0 .016.037c.013.023.025.033.04.034s.113.082.112.1.011.02.025.028a.06.06 0 0 1 .034.047c.005.019.014.036.02.037a.009.009 0 0 1 .007.012c0 .005.014.021.033.036l.036.027zm-.046-.441c0 .007 0 .013-.011.011a.037.037 0 0 1-.021-.018c0-.009 0-.013.011-.011a.03.03 0 0 1 .027.031zm.139.784h.006s.03-.008.045.01a.027.027 0 0 1 .007.015zm.167-10.822c-.023-.1-.022-.1.017-.145s.039-.045 0-.022-.054.033-.04 0a.163.163 0 0 0 0-.079c-.011-.03-.009-.049 0-.056s.017-.018.01-.037 0-.031.042-.074a.19.19 0 0 1 .075-.051c.015 0 .039-.023.06-.058s.031-.052.009-.03-.023.016-.021.006-.01-.026-.029-.031-.033-.01-.019.016l.016.028-.032.015c-.044.02-.076 0-.061-.035.007-.017.018-.03.024-.031s.013-.009.013-.019a.05.05 0 0 1 .024-.033c.011-.007.015-.005.007.007s0 .021.024.019a.092.092 0 0 1 .051.009c.027.025.026-.029 0-.06a.071.071 0 0 0-.08-.015c-.055.017-.057 0-.007-.054.022-.022.025-.039.017-.1-.006-.041-.016-.076-.024-.075s-.016-.01-.017-.024c0-.048-.092-.063-.222-.036-.084.019-.128.022-.135.008a.074.074 0 0 0-.033-.03c-.019-.008-.014-.011.031-.019a.111.111 0 0 0 .064-.032c0-.01 0-.015-.006-.006s-.123-.007-.114-.026.045-.03.193-.079c.083-.026.112-.041.123-.062s-.01-.017-.032-.013-.034 0-.025-.01a.521.521 0 0 1 .194-.088c.033-.005.051-.015.057-.032.013-.034.258-.1.272-.071s.014.017.024 0a.028.028 0 0 1 .042-.007c.04.023.055.018.055-.016s.014-.041.112-.012.092.026.093 0 .007-.02.014-.021c.024 0 .009-.026-.023-.038s.02-.016.105-.018a.378.378 0 0 0 .143-.021.125.125 0 0 1 .078-.029 1.035 1.035 0 0 1 .4.007.2.2 0 0 0 .082.019c.032 0 .047.008.04.02a.087.087 0 0 1-.063.021c-.028 0-.057.009-.063.021s.014.016.059.008c.065-.011.068-.008.042.02a.1.1 0 0 1-.039.033.007.007 0 0 0-.007.01c0 .007.028 0 .058-.017a.13.13 0 0 1 .086-.019.183.183 0 0 0 .088-.014.184.184 0 0 1 .123-.008l.069.019-.069.025a.456.456 0 0 0-.156.089.092.092 0 0 1-.05.018.052.052 0 0 0-.04.031c-.007.017-.02.032-.029.031s-.031.019-.05.044l-.033.045.028-.015c.018-.008.029 0 .032.011a.04.04 0 0 0 .04.026c.042 0 .047.018.018.056-.013.017-.02.019-.017 0s-.017-.02-.052-.019c-.005.007-.012.013-.017.013s-.007-.005-.008-.012c-.059.006-.069.037-.006.037a.067.067 0 0 1 .053.074c0 .007-.016.013-.032.013-.044 0-.044.042 0 .046h.038l-.038.015c-.022.006-.039.021-.039.034 0 .035-.085.053-.123.029-.019-.013-.039-.02-.044-.014s.01.024.034.04c.042.024.051.051.027.07s-.083-.029-.078-.051 0-.022-.014-.022c-.035 0-.01.063.032.079a.134.134 0 0 1 .068.116c-.005.025-.1.012-.108-.015a.067.067 0 0 0-.029-.037c-.021-.014-.027-.009-.027.017a.041.041 0 0 1-.03.044c-.018.006-.01.011.019.016a.221.221 0 0 1 .077.02c.023.014.014.022-.071.064-.139.065-.3.1-.324.07s-.02-.018-.021.011a1.3 1.3 0 0 1-.264.037c-.007 0 .208.021.179.05a.318.318 0 0 1-.11.07.378.378 0 0 0-.085.039c-.026.021-.027.016-.01-.018s.018-.038-.012 0a.236.236 0 0 1-.092.053c-.048.014-.057.021-.053.048s0 .031-.02.033-.02.007-.012.014 0 .045-.056.084c-.033.023-.058.05-.056.062a.35.35 0 0 1-.048.1c-.037.059-.055.075-.084.076s-.032-.011-.028-.022a.013.013 0 0 0-.013-.018c-.01 0-.016-.008-.012-.02s-.01-.013-.03-.006c-.046.03-.073.004-.099-.101zm.457 11h-.061c-.091-.025-.183-.051-.272-.079h.028c.038 0 .054-.01.059-.033a.052.052 0 0 1 .042-.036c.061-.007.169.032.175.063a.156.156 0 0 0 .027.045c.025.042.025.045.005.054zm.029-1.731c-.034-.025-.034-.027 0-.014a.125.125 0 0 1 .049.027c.023.041-.005.034-.046.002zm1.663 1.964a6.731 6.731 0 0 1-1.18-.106.045.045 0 0 0 .027-.012.075.075 0 0 0-.033-.019l-.033-.008.024-.016c.023-.015.021-.016-.036-.019a.359.359 0 0 0-.072 0 .469.469 0 0 1-.14-.067c.016-.068.4-.073.523-.057.037.005.064 0 .064-.008s.03-.03.065-.046c.056-.025.06-.03.023-.025s-.042 0-.04-.016.017-.021.036-.021a.063.063 0 0 0 .042-.015.029.029 0 0 1 .025-.011.109.109 0 0 0 .045-.01c.025-.013.025-.014 0-.04s-.02-.025 0-.016a.061.061 0 0 0 .053 0c.028-.012.036-.01.054.015s.022.029.048 0 .07-.041.06-.013c0 .007.04.02.1.027a.357.357 0 0 0 .2-.018.9.9 0 0 1 .289.005.039.039 0 0 0 .045 0 .833.833 0 0 1 .3 0 .791.791 0 0 0 .226-.014.4.4 0 0 0 .215-.079c.019-.016.027-.013.049.014s.034.027.046.021.021 0 .021 0 .047.006.071-.022a.4.4 0 0 1 .154-.071.442.442 0 0 0 .067-.025.167.167 0 0 1 .073-.012c.027 0 .035 0 .036-.013s.008-.016.032-.014.031 0 .035-.016c.009-.041.165-.079.2-.051a.051.051 0 0 1 .016.025.9.9 0 0 0 .267.01c.051 0 .085 0 .083.009a.257.257 0 0 1-.084.084.055.055 0 0 0-.025.016c-.016.018 0 .028.025.013s.017-.009 0 .014a.126.126 0 0 1-.035.028c-.021 0-.044.046-.028.051s.086-.033.124-.077c.019-.021.034-.035.034-.031s.011 0 .025-.015a.436.436 0 0 1 .09-.049.769.769 0 0 0 .122-.069.357.357 0 0 1 .077-.047.151.151 0 0 0 .047-.025.582.582 0 0 1 .157-.056.152.152 0 0 0 .049-.033.088.088 0 0 1 .025-.019.21.21 0 0 1 .133-.027c.077 0 .088-.005.111-.026s.093-.058.1-.044.048.018.088.005a1.008 1.008 0 0 0 .193-.079c.007-.006.015 0 .016 0s.032.009.06-.02a.185.185 0 0 1 .071-.04c.042-.015.048-.02.063-.043a.089.089 0 0 1 .027-.03c.007 0 0 0-.011.024s-.017.026-.008.024.04-.01.072-.016a.553.553 0 0 0 .1-.026c.008 0 .009 0 0 .006s.015.018.051.01h.012.019a.1.1 0 0 0 .03-.02c.01-.015.022-.018.014 0s.007.006.022 0a.063.063 0 0 1 .039-.007c.009.007.023 0 .064-.015a6.651 6.651 0 0 1-3.946 1.288zm-.956-.388v-.015s.009.007.014.017 0 .016 0 .015a.021.021 0 0 1-.007-.002zm.605-.143c0-.012.009-.023.009-.023l.01.024c.005.013 0 .023-.01.023s-.007.004-.007-.01zm2.563-4.032a.2.2 0 0 1 .131-.221.261.261 0 0 0 .1-.076.685.685 0 0 1 .069-.083.154.154 0 0 0 .039-.054.111.111 0 0 1 .019-.047.066.066 0 0 1 .018-.016.427.427 0 0 1 .032.19c0 .067-.005.077-.026.067s-.024 0-.021.03a.12.12 0 0 1-.014.066.4.4 0 0 0-.026.056 2.481 2.481 0 0 1-.223.517.254.254 0 0 1-.074.032c-.079.025-.114-.017-.109-.143a.218.218 0 0 1 .049-.155.163.163 0 0 0 .038-.149zm.6 2.234c.024 0 .027.008.013.02-.033.028-.064.03-.055 0s.027-.008.049-.006zm-.005-2.128c0-.012.007-.02.01-.02s.01.006.012.018a.015.015 0 0 1-.01.021c-.001.015-.007.006-.005-.004zm.1-2.6c.03 0 .037.014.018.035s-.019 0-.029-.011.005-.01.019-.01zm.609 5.331c-.005 0 0-.009.011-.012s.014 0 .008 0-.007.028-.011.025zm.9-4.859c-.021.024-.03.022-.046 0a.765.765 0 0 1-.053-.226c0-.054.014-.043.064.047.07.118.079.159.045.192zm.444-.884l-.014.055c-.014.055-.026.062-.061.041-.014-.009-.02-.024-.021-.061 0-.052-.047-.166-.065-.165s-.013-.015-.015-.033a.08.08 0 0 0-.036-.057.349.349 0 0 1-.074-.108c-.044-.093-.081-.129-.073-.069 0 .022 0 .04-.008.042a.246.246 0 0 0-.052.013.5.5 0 0 1-.051.011c-.008 0-.01.02 0 .043.013.047 0 .094-.019.094s-.025.034-.036.073c-.033.124-.065.2-.078.2s-.012.009-.008.02a.032.032 0 0 1-.018.032c-.019.012-.018.03.005.122a.707.707 0 0 1 .024.394c-.035.108-.059.105-.107-.014-.02-.047-.059-.127-.088-.178a.83.83 0 0 1-.06-.123.942.942 0 0 0-.062-.131 1.66 1.66 0 0 1-.157-.431.3.3 0 0 0-.028-.09c-.03-.062-.03-.062-.029-.014 0 .086-.044.091-.112.009s-.058-.072-.028-.072.028-.012.024-.026-.01-.016-.015-.009-.086-.045-.169-.148c-.035-.043-.067-.074-.073-.067a.732.732 0 0 1-.437-.032.256.256 0 0 1-.04-.07c-.028-.06-.062-.079-.052-.029 0 .014 0 .019-.007.012s-.024-.005-.038.009c-.11.023-.23-.117-.284-.2s-.091-.115-.143-.07c-.026.026-.026.026.022.118a.333.333 0 0 0 .074.107.3.3 0 0 1 .061.1c.035.087.039.089.041.039.006-.067.045-.042.045.027 0 .134.142.135.211 0l.04-.08.018.067c.024.084.05.117.106.137a.235.235 0 0 1 .09.067l.043.055-.019.076c-.008.03-.026.076-.036.076s-.028.067-.011.093 0 .031-.022.045a.071.071 0 0 0-.03.053c0 .012-.01.024-.027.024a.027.027 0 0 0-.026.034c0 .019-.019.038-.058.048a.142.142 0 0 0-.09.073.223.223 0 0 1-.09.087.419.419 0 0 0-.1.071.125.125 0 0 1-.047.037.1.1 0 0 0-.047.017.158.158 0 0 1-.062.023.155.155 0 0 0-.067.035.1.1 0 0 1-.068.025.753.753 0 0 1-.105-.284.479.479 0 0 0-.075-.148.487.487 0 0 1-.072-.127.293.293 0 0 0-.076-.093.223.223 0 0 1-.08-.125.358.358 0 0 0-.114-.221.161.161 0 0 1-.05-.067.812.812 0 0 0-.088-.153c-.046-.069-.091-.143-.1-.163s-.013-.017-.009.019c.007.076-.032.058-.088-.041a.3.3 0 0 0-.06-.079c-.009 0 .006.037.03.079s.062.116.083.158.058.121.087.173a.683.683 0 0 1 .057.13.31.31 0 0 0 .062.1.4.4 0 0 1 .079.179.3.3 0 0 0 .08.167.412.412 0 0 1 .084.145.286.286 0 0 0 .11.154c.1.078.236.234.21.249s0 .034.034.073l.053.062.18-.052a1.5 1.5 0 0 0 .2-.071c.028-.02.031-.013.038.095a.57.57 0 0 1-.006.142c-.006.014-.026.092-.044.174a.686.686 0 0 1-.239.409.987.987 0 0 0-.159.159l-.165.19a1.074 1.074 0 0 0-.121.184c-.052.094-.06.125-.047.164a.545.545 0 0 1 .013.152.224.224 0 0 0 .023.127c.02.018.023.069.009.208-.017.168-.021.188-.067.238a.365.365 0 0 1-.108.079.339.339 0 0 0-.112.087.761.761 0 0 1-.1.1c-.042.033-.044.041-.032.112a.612.612 0 0 1 0 .156c-.008.073-.012.079-.094.122s-.086.045-.1.134a.236.236 0 0 1-.069.152c-.03.032-.081.092-.112.132a.586.586 0 0 1-.454.23.434.434 0 0 0-.147.032.083.083 0 0 1-.083 0c-.049-.02-.1-.1-.077-.127a.677.677 0 0 0-.148-.279.44.44 0 0 1-.108-.267.5.5 0 0 0-.057-.178.891.891 0 0 1-.184-.338.565.565 0 0 1 .089-.316.124.124 0 0 0 .026-.133c-.011-.046-.026-.118-.032-.161a.953.953 0 0 0-.228-.441c-.126-.129-.167-.2-.14-.241a.408.408 0 0 0 .024-.142.777.777 0 0 1 .018-.151c.005-.023-.015-.063-.055-.1a.137.137 0 0 0-.159-.046c-.1.018-.147-.005-.144-.068a.119.119 0 0 0-.052-.073c-.113-.069-.275 0-.38.05a.262.262 0 0 1-.208.035.38.38 0 0 0-.174 0c-.187.047-.2.046-.247 0-.087-.084-.246-.2-.252-.309a.424.424 0 0 0-.055-.148.429.429 0 0 1-.057-.118c0-.012-.016-.03-.038-.037s-.039-.03-.026-.081a.275.275 0 0 0 0-.12c-.01-.037-.009-.057 0-.064a.708.708 0 0 0 .1-.26c.022-.145.023-.191 0-.233s-.014-.051.039-.147a1.506 1.506 0 0 1 .1-.155.218.218 0 0 0 .045-.076.766.766 0 0 1 .211-.262c.1-.065.167-.144.166-.206a.413.413 0 0 1 .167-.262.274.274 0 0 0 .1-.116c.034-.081.047-.09.067-.055a.319.319 0 0 0 .225.021.687.687 0 0 1 .421-.137c.109-.009.228-.022.267-.03s.069-.006.068.011.014.017.033.01.029-.012 0 .024a.06.06 0 0 0 0 .08c.019.034.017.046-.02.083a.193.193 0 0 0-.044.059.415.415 0 0 0 .187.1c.028-.02.161.045.18.089a.076.076 0 0 0 .064.043.417.417 0 0 1 .131.046c.076.044.088.045.112.011a.2.2 0 0 0 .024-.088.118.118 0 0 1 .154-.1c.027.008.049.023.049.033s.052.033.114.051l.178.057a.2.2 0 0 0 .2 0 .078.078 0 0 1 .107 0c.082.058.137.012.173-.142a1.15 1.15 0 0 0 .035-.193v-.1l-.057.008c-.032 0-.061.017-.065.029-.01.034-.08.025-.14-.018s-.055-.033-.08 0-.038.033-.072.013l-.092-.056a.1.1 0 0 1-.055-.064c0-.02-.01-.037-.019-.037s-.013-.027-.01-.061 0-.06-.018-.061-.019-.015-.014-.034c.018-.079-.11-.125-.151-.054a.045.045 0 0 1-.055.023c-.037-.018-.048.02-.014.048a.051.051 0 0 1 .008.051c0 .019 0 .034.007.032.082-.018.11.041.037.076-.031.016-.043.035-.034.06s0 .036-.015.036c-.032 0-.116-.107-.092-.119s-.017-.049-.057-.1a.285.285 0 0 1-.076-.156.153.153 0 0 0-.074-.124.556.556 0 0 0-.121-.076.172.172 0 0 1-.078-.084c-.017-.045-.038-.064-.056-.057a.028.028 0 0 1-.038-.021c-.014-.057-.081-.018-.083.048 0 .031 0 .057.015.057a.357.357 0 0 1 .084.1c.038.052.084.1.1.1s.03.01.029.024a.025.025 0 0 0 .024.024c.03 0 .152.1.14.11s-.027 0-.049-.019-.043-.024-.062 0-.019.036 0 .053.019.034-.026.09-.053.066-.04.013c.023-.1-.008-.147-.129-.222a.8.8 0 0 1-.191-.182c-.042-.057-.084-.1-.094-.1a.461.461 0 0 0-.108.058c-.069.044-.1.052-.125.033-.058-.04-.121 0-.135.074a.1.1 0 0 1-.068.09.307.307 0 0 0-.157.184c0 .048-.056.146-.085.146-.012 0-.027.018-.035.037s-.039.037-.08.038a.341.341 0 0 0-.115.026c-.041.023-.055.018-.079-.023a.061.061 0 0 0-.083-.033c-.05.015-.055.011-.046-.042a.177.177 0 0 0 0-.085c-.01-.022-.006-.048.019-.1a.737.737 0 0 0 .042-.178c.008-.094.013-.108.051-.133s.049-.023.059-.016a1.022 1.022 0 0 0 .166.015c.144.007.151 0 .173-.051a.632.632 0 0 0 .029-.118c.011-.088-.061-.2-.13-.2a.028.028 0 0 1-.027-.035c.005-.035.035-.046.118-.038.031 0 .042-.008.048-.048s.01-.045.035-.024.041.018.085-.011a.205.205 0 0 0 .067-.072.109.109 0 0 1 .061-.05.23.23 0 0 0 .1-.088c.033-.055.049-.066.055-.045s.015.016.023-.019.024-.054.139-.059c.042 0 .044-.017.034-.186 0-.067 0-.085.012-.074s.028 0 .042-.019c.028-.042.076-.051.06-.014a.072.072 0 0 0 0 .058c.013.023.009.035-.016.046a.078.078 0 0 0-.039.046c-.018.053.03.093.123.093a.267.267 0 0 1 .1.016.229.229 0 0 0 .128-.027c.072-.03.115-.036.125-.023.022.03.09.032.089 0 0-.014.014-.023.031-.022s.031-.016.029-.076c0-.124.04-.176.1-.114.038.04.056.031.064-.033 0-.029 0-.048-.024-.056a.049.049 0 0 1-.03-.037c0-.032.042-.047.169-.052a.221.221 0 0 0 .111-.019c.015-.027-.034-.06-.079-.053l-.13.021c-.109.017-.18-.019-.18-.094a.382.382 0 0 0-.012-.084c-.011-.036.007-.052.16-.181.044-.037.025-.069-.047-.077s-.139.038-.121.079-.014.056-.092.1a.2.2 0 0 0-.11.174c0 .023.009.041.02.041a.092.092 0 0 1 .048.032c.025.028.026.035.007.062a.263.263 0 0 1-.065.061c-.035.022-.041.038-.036.093.007.073-.025.117-.09.117-.021 0-.039.009-.039.021 0 .042-.063.044-.078 0a.1.1 0 0 1-.006-.051c0-.007-.006-.03-.021-.053a.142.142 0 0 1-.028-.073c0-.016 0-.03-.014-.03s-.014-.014-.013-.032a.119.119 0 0 0-.019-.059c-.014-.018-.021-.021-.022 0a.2.2 0 0 1-.065.073.123.123 0 0 1-.116.033c-.07-.02-.077-.034-.044-.07s.026-.035-.008-.02-.034.009-.012-.016.023-.035.01-.06a.125.125 0 0 1 .056-.171.287.287 0 0 1 .086-.039c.013 0 .025-.016.026-.034s.01-.027.022-.02.037-.007.058-.034.044-.041.05-.034.013 0 .013-.011a.023.023 0 0 1 .02-.025c.011 0 .033-.029.046-.065a.352.352 0 0 1 .105-.128c.075-.057.109-.111.057-.085a.038.038 0 0 1-.043-.012c-.016-.018-.011-.02.012-.009s.027.009.021-.01 0-.02.02 0 .085.012.053-.021c-.016-.018-.014-.022.013-.024h.048c.009 0 .014-.006.009-.018s0-.024.04 0a.049.049 0 0 0 .06-.01.081.081 0 0 1 .064-.018.035.035 0 0 0 .041-.008.187.187 0 0 1 .062-.042c.041-.018.045-.016.029.007a.092.092 0 0 0-.019.045c0 .009.009 0 .018-.01a.085.085 0 0 1 .044-.031.117.117 0 0 0 .05-.02c.011-.008.02-.006.022.01s.009.018.017.014a.113.113 0 0 1 .059.011c.045.022.046.022.017.04s-.017.019.047.035a1.042 1.042 0 0 1 .328.116.436.436 0 0 1 .138.1c.007.018 0 .041-.03.061s-.058.027-.17 0c-.127-.033-.177-.031-.1 0a.049.049 0 0 1 .034.046.141.141 0 0 0 .017.065.264.264 0 0 0 .134.089c.028 0 .015-.037-.016-.052a.064.064 0 0 1-.032-.039c0-.018.006-.022.028-.01a.356.356 0 0 0 .091.032c.054.014.057.012.036-.022s-.028-.048.028-.081a.094.094 0 0 1 .081-.01c.041.02.067-.023.036-.054a.078.078 0 0 1-.016-.051.094.094 0 0 0-.019-.053c-.022-.021.058-.019.091 0s.036.054.008.052-.035.032-.007.051.092.022.095-.007.077-.067.143-.076a.172.172 0 0 0 .051-.021c.01-.007.023 0 .032.012s.04.023.11.013.1-.006.11.014.02.021.033.006.006-.056-.053-.1c-.036-.029-.038-.034-.013-.02s.071.027.12.043a1.139 1.139 0 0 1 .184.085c.112.064.135.046.04-.034-.034-.027-.055-.05-.047-.049s.008-.013 0-.03a.064.064 0 0 0-.024-.036c-.008 0 0-.015.01-.029a.1.1 0 0 0 .024-.064c0-.022.008-.038.017-.037s.016-.008.012-.018 0-.019.016-.017.021.007.015.022 0 .02.025.024a.072.072 0 0 1 .06.08.052.052 0 0 0 .015.048.253.253 0 0 1 .039.088.242.242 0 0 0 .048.1c.023.028.025.036.011.089s-.022.058-.061.043-.041-.009-.031.006c.024.04.112.037.146 0a.07.07 0 0 0 .012-.085c-.014-.034-.013-.046 0-.048a.1.1 0 0 1 .094.066c.012.032.013.032.012.006a.118.118 0 0 0-.11-.1c-.06-.009-.085-.037-.083-.087 0-.026 0-.034-.028-.062s-.031-.037-.023-.051a.028.028 0 0 1 .027-.016c.009 0 .012-.012 0-.033s-.007-.026 0-.017a.331.331 0 0 1 .029.061c.013.038.024.047.054.056s.033.007.008-.012c-.047-.035-.045-.053 0-.031s.041.019.01-.016-.03-.036.013-.017c.025.01.068.034.094.048s.057.027.065.023 0-.011-.024-.027-.1-.1-.081-.1h.114c.058 0 .1 0 .077-.012l-.029-.021.014-.019c.022-.036.2-.045.313-.016.036.009.059.01.052 0s0-.012.012-.008.021 0 .018-.012a.026.026 0 0 1 .016-.027.1.1 0 0 1 .114.047c0 .017.068.05.121.061a.246.246 0 0 1 .078.035.5.5 0 0 0 .048.032.076.076 0 0 1 .023.022c.024.039.024.05 0 .06l-.056.023a.422.422 0 0 1-.048.022c-.032.008 0 .03.043.029.026 0 .036-.007.026-.022s0-.015.037.006a1.245 1.245 0 0 0 .133.055.4.4 0 0 1 .112.057.3.3 0 0 0 .084.044c.04.013.047.011.035-.014s0-.023.047 0a.869.869 0 0 1 .084.047c.022.015.023.017.016.025s-.005.012.01.017.051.049.032.043-.01 0 .017.029c.06.067.085.082.086.055s.014-.021.055 0a.3.3 0 0 1 .076.04c.012.01.018.01.015 0s.006-.008.018 0 .02.013 0-.022-.021-.038-.007-.036l.031.011.058.03a.1.1 0 0 1 .058.049c.01.017.013.022.007.007-.013-.032.06 0 .09.044s-.009.03.076.071a.445.445 0 0 1 .08.044l.043.052a.054.054 0 0 0 .022.028l.007.006.016.02v.007c.011.018.015.023.016.018a6.836 6.836 0 0 1 .443.624s-.009 0-.016-.007c-.024-.031-.04-.035-.042-.013s-.005.014-.011 0-.01-.015-.012-.009-.008.007-.016 0-.01.014 0 .048c.011.062.017.077.031.083s.014.013.024.04a.12.12 0 0 0 .02.039.057.057 0 0 1 .015.023v.009c0-.007-.015.015 0 .052s.016.038.007.042-.008.018 0 .041.009.039 0 .042a.043.043 0 0 0 0 .036c.016.038.015.105 0 .072l-.062-.124c-.028-.054-.062-.124-.076-.157a.257.257 0 0 1-.032-.164.086.086 0 0 0 .008-.044.3.3 0 0 1 0-.071.194.194 0 0 0-.037-.137c-.006 0 0 .013 0 .034s.013.034.009.025-.009 0-.011.015-.02.021-.036-.024a.056.056 0 0 0-.039-.036c-.023-.01-.029 0-.029.046s0 .06.017.075.018.019.006.014a.131.131 0 0 0-.034 0c-.016 0-.026 0-.03-.016s-.068-.067-.066-.045-.02.005-.045-.006c-.089-.041-.025-.012-.04.151a.466.466 0 0 1-.016.077l-.012.031.025.012a.077.077 0 0 1 .04.045c.013.03.014.03.008.006s0-.012.018.026.015.02.018-.006c.006-.062.118.094.131.183a.871.871 0 0 0 .035.111.689.689 0 0 1 .042.254c.01.2 0 .241-.038.2-.021-.021-.027-.018-.034.023a.194.194 0 0 0 0 .078.169.169 0 0 1-.013.111.465.465 0 0 0 .055.1.546.546 0 0 1 .082.165c.022.07.022.076 0 .1s-.03.015-.032.009a1.1 1.1 0 0 1-.055-.171.071.071 0 0 0-.042-.063c-.024 0-.033-.02-.046-.078s-.013-.05-.042-.066-.036-.006-.043.013-.037.005-.038-.051c0-.037 0-.041-.019-.055s-.023.007-.032.049-.022.065-.03.066 0 .062.028.073a.073.073 0 0 1 .031.038c.014.041.037.055.039.022s.016-.021.038-.01c.041.019.052.044.028.06a.177.177 0 0 0-.017.146.537.537 0 0 1 .088.137c.056.1.076.159.063.185l-.01.022h.018c.034.006.051.073.047.2a.412.412 0 0 0 0 .079l.007.033a.466.466 0 0 1-.018.157c-.017.068-.067.106-.088.068-.009-.017-.01-.013 0 .01s0 .044-.028.069-.04.077 0 .131a.109.109 0 0 1 .017.067c0 .051-.01.07-.034.054s-.038-.114-.005-.114c.015 0 .013-.007 0-.025a.229.229 0 0 1-.029-.063c-.019-.068-.068-.049-.086.033s0 .142.08.262a.691.691 0 0 1 .144.286c.022.084.023.1.011.147s-.022.05-.03.05-.014.011-.011.024a.191.191 0 0 1-.025.1s-.013-.022-.019-.05a.126.126 0 0 0-.032-.064.534.534 0 0 1-.077-.089c-.031-.042-.064-.077-.072-.076s-.017-.014-.022-.033c-.017-.067-.025-.013-.017.1.011.144.015.161.053.213a.33.33 0 0 1 .041.089c.007.031.019.051.036.057.047.023.143.126.13.2a.682.682 0 0 0-.008.121c0 .051 0 .057-.011.058-.044.007-.084-.157-.109-.269a.633.633 0 0 0-.107-.191.871.871 0 0 1-.044-.169 1.072 1.072 0 0 0-.07-.247c-.02-.045-.051-.119-.07-.168zm-5.442-1.889a.019.019 0 0 1 .018-.024c.031 0 .035.014.009.036 0 .021-.012.017-.018.002zm.387-.133c.041-.012.053 0 .049.079s-.032.1-.075.1c-.007 0-.01-.039-.008-.085s.023-.075.043-.08zm0-.123c.023-.029.041-.012.038.033 0 .026-.009.048-.018.048s-.024-.047-.009-.064zm.224.389c0-.009.041-.02.092-.02.086 0 .091 0 .081.06 0 .034-.014.061-.021.056s-.044-.024-.081-.043-.061-.025-.061-.038zm.858.236c.035 0 .05.006.034.013a.146.146 0 0 1-.065 0c-.005.006.006.002.041.002zm.445.03c0-.014.027-.023.052-.023s.039.011.036.025a.056.056 0 0 1-.052.023c-.017.015-.03.005-.026-.01zm-1.366-1.7c-.008.007-.018 0-.024-.012a.016.016 0 0 1 .015-.023c.038.017.042.031.019.052zm.06-.065c.044-.019.05-.016.049 0 0 .035-.036.069-.058.058s-.013-.031.02-.041zm.353-.13a.029.029 0 0 1 .024-.023c.008 0 .014.009.014.023a.023.023 0 0 1-.024.022.016.016 0 0 1-.003-.005zm.2-.064c0-.014.014-.022.034-.022s.029.005.011.023-.03.045-.031.02zm4.911.655v.015a.041.041 0 0 1-.01-.019v-.015c0 .001.02.025.024.036zm-.374.126a.053.053 0 0 1-.015-.022c-.005-.012-.005-.019 0-.018a.041.041 0 0 1 .015.022c.017.027.018.036.014.035zm.368 5.98s0-.009.012-.012.012 0 .006.005-.001.026-.004.024zm.094.3c-.012.024-.021.04-.022.036s-.009.007-.02.024c-.026.042-.029.02-.011-.056l.026-.044.04-.019c.045-.022.045-.017.001.073zm.322-.164c-.017.03-.036.065-.04.075s-.008.017-.007.012-.033.038-.058.088c-.037.075-.062.108-.087.111s-.017-.006-.012-.018a1.163 1.163 0 0 1 .11-.168 1.261 1.261 0 0 0 .086-.138c.029-.054.041-.075.04-.064s0 .013.007.01.012.042-.026.106zm.15-.253a.073.073 0 0 0-.016.029.712.712 0 0 1-.078.141c0-.005 0-.016.015-.043s.017-.038.014-.05a.054.054 0 0 1 .011-.044.269.269 0 0 0 .024-.046.46.46 0 0 0 .041-.134.223.223 0 0 1 .006-.041c.009-.036.013-.042.016-.023a.257.257 0 0 1-.013.064c-.008.028-.011.047-.007.041s.007 0 0 .018 0 .022.014.007.016-.015.013-.008a.443.443 0 0 1-.026.103zm.046-1.3c.009.009.009.024 0 .058a.611.611 0 0 0-.015.076c0 .015-.007.05-.013.077a.15.15 0 0 0 0 .079.221.221 0 0 1 0 .089.147.147 0 0 0 0 .065.037.037 0 0 1 0 .029.384.384 0 0 0-.006.08.346.346 0 0 1-.015.107c-.009.027-.02.069-.025.091a.771.771 0 0 1-.035.1l-.044.111a.866.866 0 0 1-.042.087c-.029.048-.136.266-.154.313-.011.029-.018.039-.029.044a.349.349 0 0 0-.057.059c-.041.05-.043.051-.043.026s0-.023-.027.011-.029.034-.033.025a.034.034 0 0 0-.023-.014c-.023 0-.024-.024-.005-.072s.02-.078 0-.058-.01.006 0-.019c.024-.05.025-.072 0-.029s-.025.027.009-.037c.045-.086.041-.092-.011-.012s-.064.094-.052.059.015-.138 0-.135a.022.022 0 0 1-.024-.008c0-.006-.026 0-.052.02-.127.085-.174.123-.2.171-.012.023-.027.033-.066.046a.231.231 0 0 0-.1.065c-.06.06-.07.065-.094.037s-.018-.04.008-.063a.394.394 0 0 0 .059-.149.183.183 0 0 1 .01-.057c.007-.029.019-.092.028-.143.013-.076.018-.1.032-.112a.078.078 0 0 0 .018-.061c0-.053.063-.221.076-.21s.013 0 .016-.015a.038.038 0 0 1 .017-.024.132.132 0 0 0 .034-.037.666.666 0 0 1 .1-.086.8.8 0 0 0 .088-.07.524.524 0 0 0 .072-.135c.015-.047.045-.093.041-.063v.021c0-.001.01-.015.011-.029s.009-.028.019-.031a.032.032 0 0 0 .019-.026.247.247 0 0 1 .057-.1.03.03 0 0 0 .012-.019c.007-.024.036-.045.044-.029a.055.055 0 0 1 0 .036c0 .015 0 .018.017.008a.051.051 0 0 0 .026-.037.18.18 0 0 1 .021-.053.27.27 0 0 0 .023-.049.082.082 0 0 1 .045-.051.062.062 0 0 0 .027-.06c-.009-.021 0-.019.021 0a.055.055 0 0 0 .044.017c.019 0 .023 0 .018.022a.207.207 0 0 1-.016.037c0 .006-.016.035-.029.065a.1.1 0 0 0 .009.129.124.124 0 0 1 .019.051c0 .026.016.01.039-.039a1.271 1.271 0 0 0 .049-.142c.035-.124.06-.21.069-.233s.016-.019 0 .078c.018.095.018.118.026.129zm-.156.014v.017a.034.034 0 0 1-.012.02v-.017a.062.062 0 0 1 .023-.009zm.049-.433c.006-.019.013-.042.014-.051s.007-.017.01-.018 0 .021-.018.065-.002.044.007.015zm.232.067c0-.068-.019-.087-.042-.053a.166.166 0 0 0-.023.05c-.01.046-.052.059-.058.021s-.01-.029-.029-.014-.024.016-.015-.01a.063.063 0 0 1 .019-.033s.01-.012.013-.024a.3.3 0 0 0-.01-.125s-.019-.012-.034-.03-.03-.025-.032-.016-.006.017-.01.018 0-.01 0-.025a.075.075 0 0 0 0-.04c-.007-.013 0-.017.015-.024s.02-.011.008-.012a.026.026 0 0 1-.017-.024.052.052 0 0 0-.015-.031l-.014-.01.024-.028c.021-.025.055-.032.059-.013a.253.253 0 0 1 0 .053.293.293 0 0 0 0 .074c0 .03.007.028.044-.041s.039-.067.048-.055a.567.567 0 0 0 .053.051c.044.039.059.071.054.1a.067.067 0 0 0 .013.043c.012.016.013.027.005.034a.1.1 0 0 0-.014.086.157.157 0 0 1 0 .052v.009c0-.004.008.011.01.035s0 .045 0 .041l-.023-.009c-.006.011-.015-.013-.016-.039zm.047.692s-.007-.02-.008-.048c0-.066 0-.07.011-.006a.119.119 0 0 1 .01.065zm.054-.892a.013.013 0 0 1-.021 0l-.011-.015.024-.015a.091.091 0 0 0 .037-.05c.014-.036.021-.047.017-.02a.45.45 0 0 1-.032.111zm.057-.116a.074.074 0 0 1 0-.025c0-.01 0-.013.006-.008a.062.062 0 0 1 0 .025c.011.021.009.024.007.02zm.025.117c-.006.015-.009-.033 0-.061 0-.01 0 0 .007.014a.129.129 0 0 1 .006.058zm.036.141s-.008 0-.006-.011.006-.013.01-.011a.011.011 0 0 1 .005.011s.009.021.002.023zm.023-.047v.016a.071.071 0 0 1 0-.025c.013-.011.015-.008.013.021zm.037.433c0-.015.006-.023.011-.021s.006.007 0 .017c.009.038-.002.04.002.016zm.034-.067v-.016a.054.054 0 0 1 .01-.021v.016a.058.058 0 0 1 .007.033z" class="cls-3" transform="translate(-647.347 -501.924)"/>
                        <path id="Path_1321" d="M686 514.6c.009.024.014.031.01.014a.122.122 0 0 0-.016-.041c-.01-.009-.008.003.006.027z" class="cls-3" transform="translate(-674.735 -510.887)"/>
                        <path id="Path_1322" d="M686.451 510.028s0-.008-.006-.018a.044.044 0 0 0-.018-.021s0 .006.007.017a.085.085 0 0 0 .017.022z" class="cls-3" transform="translate(-675.046 -507.641)"/>
                        <path id="Path_1323" d="M685.115 514.661s-.006.008 0 .021a.038.038 0 0 0 .024.024c.008 0 .008-.01 0-.021s-.018-.024-.024-.024z" class="cls-3" transform="translate(-674.114 -510.952)"/>
                        <path id="Path_1324" d="M676.759 528.257c-.006-.007-.024 0-.04.025s-.026.044-.02.049.024 0 .04-.025.026-.045.02-.049z" class="cls-3" transform="translate(-668.151 -520.587)"/>
                        <path id="Path_1325" d="M678.286 517.5c-.017 0-.021.006-.007.014s.027.006.03 0-.009-.014-.023-.014z" class="cls-3" transform="translate(-669.266 -512.964)"/>
                        <path id="Path_1326" d="M679.4 511.871c0-.014-.008-.023-.01-.023s-.008.008-.008.021 0 .022.011.023.013-.01.007-.021z" class="cls-3" transform="translate(-670.055 -508.958)"/>
                        <path id="Path_1327" d="M676.4 517.376c.007.012.017.024.021.024s.006-.012 0-.024a.025.025 0 0 0-.021-.025c-.006 0-.008.01 0 .025z" class="cls-3" transform="translate(-667.936 -512.859)"/>
                        <path id="Path_1328" d="M679.2 515.8a.018.018 0 0 0-.019-.022c-.015 0-.025-.017-.028-.043s.008-.037.025-.032a.058.058 0 0 0 .045 0c.014-.008.009-.023-.024-.064s-.046-.049-.066-.026-.022.025-.024-.02c0-.028-.009-.05-.016-.05a.445.445 0 0 1-.082-.086c-.038-.048-.059-.084-.047-.084s.026-.013.03-.031.022-.029.036-.024.039-.026.027-.082c-.016-.073-.1-.073-.186 0s-.107.121-.063.2a.4.4 0 0 1 .035.072.778.778 0 0 0 .077.118l.074.1-.012.075a.285.285 0 0 0 0 .119c.032.082.2.156.26.116.023-.015 0-.163-.03-.188a.047.047 0 0 1-.012-.048z" class="cls-3" transform="translate(-669.631 -511.316)"/>
                        <path id="Path_1329" d="M678.781 517.672s0 .016.009.036.023.036.031.037.005-.014-.01-.036a.159.159 0 0 0-.03-.037z" class="cls-3" transform="translate(-669.627 -513.086)"/>
                        <path id="Path_1330" d="M675.177 516.745c-.033 0-.065.007-.069.022s.016.024.052.026.065-.01.069-.022-.016-.026-.052-.026z" class="cls-3" transform="translate(-667.023 -512.429)"/>
                        <path id="Path_1331" d="M678.532 512.866c.01-.018.014-.038.009-.045s-.014.006-.023.028c-.013.044.011.13.031.106.006-.009 0-.023-.012-.035s-.019-.027-.005-.054z" class="cls-3" transform="translate(-669.438 -509.647)"/>
                        <path id="Path_1332" d="M676.257 530.005a.326.326 0 0 0 .031.156.322.322 0 0 1 .042.093c.007.029.022.05.032.049.028 0 .024-.027-.02-.11a.435.435 0 0 1-.043-.153c-.008-.131-.04-.162-.042-.035z" class="cls-3" transform="translate(-667.839 -521.771)"/>
                        <path id="Path_1333" d="M675.253 511.036c.054 0 .046-.054-.014-.1s-.064-.043-.072-.012.047.115.086.112z" class="cls-3" transform="translate(-667.065 -508.291)"/>
                        <path id="Path_1334" d="M680.815 515.476a.075.075 0 0 1-.018-.07c.007-.03 0-.035-.029-.034-.06 0-.1.076-.086.158.012.049.024.061.1.084.044.014.058.012.046-.007a.084.084 0 0 1 0-.06.065.065 0 0 0-.013-.071z" class="cls-3" transform="translate(-670.973 -511.456)"/>
                        <path id="Path_1335" d="M675.925 510.852a.145.145 0 0 0-.026-.075c-.019-.032-.033-.044-.03-.026s0 .024-.018.015c-.036-.022-.02.021.025.066.024.021.044.031.049.02z" class="cls-3" transform="translate(-667.537 -508.174)"/>
                        <path id="Path_1336" d="M676.54 511.749a.113.113 0 0 0-.035-.047c-.025-.019-.03-.02-.024 0 .019.056.067.098.059.047z" class="cls-3" transform="translate(-667.996 -508.845)"/>
                        <path id="Path_1337" d="M675.764 515.242c-.042-.027-.075-.057-.077-.069s.008-.012.021 0 .043-.057.026-.079c0 0 .009-.023.028-.039l.034-.032h-.038a.12.12 0 0 0-.066.018.731.731 0 0 1-.09.044c-.056.026-.061.031-.032.06a.074.074 0 0 0 .067.019c.026-.009.034 0 .029.015a.04.04 0 0 1-.039.025.108.108 0 0 0-.06.021c-.021.018-.037.013-.065-.024s-.036-.051-.013-.071.015-.023-.027-.027-.054-.014-.056-.026c-.007-.071-.11.011-.125.1 0 .023-.013.038-.021.028s-.073.193-.059.234c.026.07.18.091.267.034a.175.175 0 0 1 .2.016.425.425 0 0 0 .3.036c.089-.115-.129-.233-.204-.283z" class="cls-3" transform="translate(-667.089 -511.205)"/>
                    </g>
                </g>
            </g>
            <g id="Group_1796" transform="translate(28.549)">
                <g id="Group_1795" transform="translate(0 8.77)">
                    <g id="Group_1794">
                        <path id="Path_1338" d="M745.389 526.348v-20.9h6.392v20.9z" class="cls-3" transform="translate(-745.389 -505.451)"/>
                    </g>
                </g>
                <path id="Path_1339" d="M749.042 475.333a2.994 2.994 0 1 1-2.96 2.994 3.008 3.008 0 0 1 2.96-2.994z" class="cls-3" transform="translate(-745.88 -475.333)"/>
            </g>
        </g>
    </g>
</svg>
