<svg xmlns="http://www.w3.org/2000/svg" width="205.883" height="41.193" viewBox="0 0 205.883 41.193">
    <defs>
        <style>
            .cls-1{fill:#fff}
        </style>
    </defs>
    <g id="Group_5464" data-name="Group 5464" transform="translate(-130.641 -2505.236)">
        <g id="Group_4034" data-name="Group 4034" transform="translate(130.641 2505.236)">
            <g id="Group_3889" data-name="Group 3889">
                <g id="Group_3888" data-name="Group 3888">
                    <path id="Path_2379" data-name="Path 2379" class="cls-1" d="M143.018 259.208v20.213h-5.075v-20.213z" transform="translate(-137.943 -258.928)"/>
                    <path id="Path_2380" data-name="Path 2380" class="cls-1" d="m164.035 259.208 6.078 10.037h.056v-10.037h4.461v20.213h-3.514l-6.3-10.511h-.057v10.511H160.3v-20.213z" transform="translate(-151.878 -258.928)"/>
                    <path id="Path_2381" data-name="Path 2381" class="cls-1" d="M213.822 279.421h-5.3l-6.106-20.213h5.577l3.179 14h.057l3.122-14h5.6z" transform="translate(-178.134 -258.928)"/>
                    <path id="Path_2382" data-name="Path 2382" class="cls-1" d="M265.014 259.208v4.349h-6.859v3.624h4.991v3.793h-4.991v4.154h7.083v4.294h-12.185v-20.214z" transform="translate(-209.697 -258.928)"/>
                    <path id="Path_2383" data-name="Path 2383" class="cls-1" d="M294.814 258.466a6.859 6.859 0 0 1 4.336 1.269 7.841 7.841 0 0 1 2.467 3.359l-3.429 1.533a3.389 3.389 0 0 0-1.116-1.673 2.739 2.739 0 0 0-1.645-.5 2.177 2.177 0 0 0-1.407.361 1.335 1.335 0 0 0-.431 1.086 1.5 1.5 0 0 0 .612 1.2 10.723 10.723 0 0 0 1.519 1.02q.905.516 1.967 1.087a10.382 10.382 0 0 1 1.966 1.379 7.141 7.141 0 0 1 1.518 1.939 5.631 5.631 0 0 1 .614 2.719 6.444 6.444 0 0 1-.474 2.539 5.268 5.268 0 0 1-1.325 1.881 5.717 5.717 0 0 1-2.076 1.171 8.712 8.712 0 0 1-2.733.406 7.725 7.725 0 0 1-2.314-.35 7.153 7.153 0 0 1-2.036-1 6.907 6.907 0 0 1-1.589-1.574 5.841 5.841 0 0 1-.948-2.092l3.765-1.282a3.3 3.3 0 0 0 1.311 1.8 3.238 3.238 0 0 0 1.757.571 2.35 2.35 0 0 0 1.491-.363 1.339 1.339 0 0 0 .432-1.087 1.959 1.959 0 0 0-.628-1.45 7.818 7.818 0 0 0-1.574-1.156q-.948-.544-2.034-1.116a11.315 11.315 0 0 1-2.037-1.366 6.983 6.983 0 0 1-1.576-1.882 5.284 5.284 0 0 1-.627-2.676 5.831 5.831 0 0 1 .432-2.245 5.262 5.262 0 0 1 1.255-1.827 5.963 5.963 0 0 1 1.981-1.226 7.116 7.116 0 0 1 2.576-.455z" transform="translate(-231.661 -258.466)"/>
                    <path id="Path_2384" data-name="Path 2384" class="cls-1" d="M339.875 259.208v4.377h-4.267v15.836h-5.074v-15.836h-4.266v-4.377z" transform="translate(-255.336 -258.928)"/>
                    <path id="Path_2385" data-name="Path 2385" class="cls-1" d="M372.945 259.208v20.213h-5.075v-20.213z" transform="translate(-281.269 -258.928)"/>
                    <path id="Path_2386" data-name="Path 2386" class="cls-1" d="M396.227 258.466a7.528 7.528 0 0 1 4.5 1.31 6.04 6.04 0 0 1 2.384 3.624l-3.679 1.31a3.365 3.365 0 0 0-1.159-1.616 2.864 2.864 0 0 0-1.6-.448 2.775 2.775 0 0 0-2.231.823 4.1 4.1 0 0 0-.7 2.663v5.717a3.353 3.353 0 0 0 .739 2.439 2.807 2.807 0 0 0 2.077.739 2.877 2.877 0 0 0 1.228-.236 2.654 2.654 0 0 0 .948-.822v-2.455h-1.952v-3.262h6.328v10.706h-4.071V277.9h-.055a5.773 5.773 0 0 1-3.847 1.34 7.328 7.328 0 0 1-2.607-.448 5.5 5.5 0 0 1-2.049-1.338 6.015 6.015 0 0 1-1.339-2.271 10.051 10.051 0 0 1-.473-3.25v-5.827a10.01 10.01 0 0 1 .46-3.135 6.376 6.376 0 0 1 1.394-2.413 6.172 6.172 0 0 1 2.356-1.549 9.373 9.373 0 0 1 3.348-.543z" transform="translate(-294.235 -258.466)"/>
                    <path id="Path_2387" data-name="Path 2387" class="cls-1" d="M438.878 264.169h-.055l-3.372 15.252h-5.1l5.658-20.213h5.8l5.661 20.213h-5.16z" transform="translate(-320.214 -258.928)"/>
                    <path id="Path_2388" data-name="Path 2388" class="cls-1" d="M486.891 259.208v4.377h-4.265v15.836h-5.076v-15.836h-4.264v-4.377z" transform="translate(-346.98 -258.928)"/>
                    <path id="Path_2389" data-name="Path 2389" class="cls-1" d="M519.959 259.208v20.213h-5.076v-20.213z" transform="translate(-372.909 -258.928)"/>
                    <path id="Path_2390" data-name="Path 2390" class="cls-1" d="M543.047 258.466a8.984 8.984 0 0 1 3.165.516 6.414 6.414 0 0 1 2.327 1.463 5.991 5.991 0 0 1 1.421 2.3 8.986 8.986 0 0 1 .476 3v6.217a8.973 8.973 0 0 1-.476 3 5.984 5.984 0 0 1-1.421 2.3 6.449 6.449 0 0 1-2.327 1.465 9.971 9.971 0 0 1-6.33 0 6.309 6.309 0 0 1-2.314-1.465 6.1 6.1 0 0 1-1.408-2.3 9.017 9.017 0 0 1-.474-3v-6.217a9.03 9.03 0 0 1 .474-3 6.1 6.1 0 0 1 1.408-2.3 6.274 6.274 0 0 1 2.314-1.463 8.974 8.974 0 0 1 3.165-.516zm2.315 7.277a4.053 4.053 0 0 0-.531-2.412 2.123 2.123 0 0 0-1.785-.685 2.093 2.093 0 0 0-1.742.685 3.985 3.985 0 0 0-.542 2.412v6.217a4.412 4.412 0 0 0 .528 2.524 2.047 2.047 0 0 0 1.756.71 2.083 2.083 0 0 0 1.785-.71 4.393 4.393 0 0 0 .531-2.524z" transform="translate(-385.877 -258.466)"/>
                    <path id="Path_2391" data-name="Path 2391" class="cls-1" d="M586.047 276.509v-7.6h.057l2.756 4.6 7.058-7.531v-6.77h-4.461v10.037h-.057l-6.079-10.037h-3.734v20.213h1.729z" transform="translate(-414.491 -258.928)"/>
                    <path id="Path_2392" data-name="Path 2392" class="cls-1" d="m574.484 300.109-4.608.006L608.47 259.2h4.6z" transform="translate(-407.189 -258.922)"/>
                </g>
            </g>
        </g>
    </g>
</svg>
