<svg xmlns="http://www.w3.org/2000/svg" width="255" height="87.931" viewBox="0 0 255 87.931">
    <defs>
        <clipPath id="prefix__clip-path">
            <path id="prefix__Path_1357" d="M0-45.212h167.453v-70.442H0z" class="prefix__cls-1" data-name="Path 1357" transform="translate(0 115.654)"/>
        </clipPath>
        <style>
            .prefix__cls-1{fill:#e5eaf1}.prefix__cls-3{clip-path:url(#prefix__clip-path)}
        </style>
    </defs>
    <g id="prefix__Group_2538" data-name="Group 2538" transform="translate(-355 -2278)">
        <g id="prefix__CTVComedyChannel-ShowPage-Logo" transform="translate(278 1518)">
            <path id="prefix__Rectangle_113" d="M0 0H255V87.931H0z" data-name="Rectangle 113" transform="translate(77 760)" style="fill:none"/>
            <g id="prefix__CTV_Comedy" data-name="CTV Comedy" transform="translate(79.025 777)">
                <g id="prefix__Group_1142" class="prefix__cls-3" data-name="Group 1142">
                    <g id="prefix__Group_1141" data-name="Group 1141" transform="translate(45.462)">
                        <path id="prefix__Path_1356" d="M-7.813 0a12.173 12.173 0 0 0-12.173 12.173A12.173 12.173 0 0 0-7.813 24.346 12.173 12.173 0 0 0 4.36 12.173 12.173 12.173 0 0 0-7.813 0m0 18.026a5.855 5.855 0 0 0 5.055-2.91l1.741 1.013a7.861 7.861 0 0 1-6.8 3.908 7.865 7.865 0 0 1-7.865-7.865 7.865 7.865 0 0 1 7.869-7.864 7.861 7.861 0 0 1 6.8 3.908l-1.745 1.013A5.855 5.855 0 0 0-7.813 6.32a5.86 5.86 0 0 0-5.853 5.853 5.86 5.86 0 0 0 5.853 5.853" class="prefix__cls-1" data-name="Path 1356" transform="translate(19.986)"/>
                    </g>
                </g>
                <path id="prefix__Path_1358" d="M117.156-91.545h22.707v-23.084h-22.707zm0-23.084l18.572 6.042h-6.186v13.027h-2.065v-13.026h-6.187v-2.014h14.439z" class="prefix__cls-1" data-name="Path 1358" transform="translate(-45.799 115.253)"/>
                <g id="prefix__Group_1143" data-name="Group 1143" transform="translate(95.096 .625)">
                    <path id="prefix__Path_1359" d="M0 0l13.657 23.72L27.314 0zm5 4.028h2.4L13.657 15l6.257-10.972h2.405l-8.662 15.041z" class="prefix__cls-1" data-name="Path 1359"/>
                </g>
                <g id="prefix__Group_1148" class="prefix__cls-3" data-name="Group 1148">
                    <g id="prefix__Group_1144" data-name="Group 1144" transform="translate(20.534 28.746)">
                        <path id="prefix__Path_1360" d="M-8.186 0A12.776 12.776 0 0 1 4.66 12.754 12.825 12.825 0 0 1-8.186 25.6a12.805 12.805 0 0 1-12.755-12.846A12.756 12.756 0 0 1-8.186 0m-6.331 12.754a6.461 6.461 0 0 0 6.331 6.7 6.507 6.507 0 0 0 6.423-6.7 6.427 6.427 0 0 0-6.423-6.606 6.38 6.38 0 0 0-6.331 6.606" class="prefix__cls-1" data-name="Path 1360" transform="translate(20.941)"/>
                    </g>
                    <g id="prefix__Group_1145" data-name="Group 1145" transform="translate(0 28.746)">
                        <path id="prefix__Path_1361" d="M-11.21-11.126a5.966 5.966 0 0 1-4.665 2.164 6.5 6.5 0 0 1-6.377-6.7 6.526 6.526 0 0 1 6.377-6.7 6.213 6.213 0 0 1 4.654 2.115 16.693 16.693 0 0 1 2.913-5.77 12.7 12.7 0 0 0-7.567-2.447 12.775 12.775 0 0 0-12.8 12.8 12.776 12.776 0 0 0 12.8 12.8 12.582 12.582 0 0 0 7.6-2.449 16.863 16.863 0 0 1-2.938-5.817" class="prefix__cls-1" data-name="Path 1361" transform="translate(28.676 28.46)"/>
                    </g>
                    <g id="prefix__Group_1146" data-name="Group 1146" transform="translate(48.516 28.745)">
                        <path id="prefix__Path_1362" d="M-4.152-15.813h-6.469v-23.811h6.515v2.89a7.581 7.581 0 0 1 6.561-3.716 7.71 7.71 0 0 1 6.469 3.533 9.361 9.361 0 0 1 7.753-3.533c5.551 0 9.084 4.083 9.084 11.011v13.626h-6.423v-13.121c0-3.257-1.423-5.643-4.4-5.643-2.753 0-4.175 2.431-4.175 5.643v13.121H4.381v-13.121c0-3.257-1.468-5.643-4.4-5.643-2.752 0-4.129 2.431-4.129 5.643z" class="prefix__cls-1" data-name="Path 1362" transform="translate(10.621 40.45)"/>
                    </g>
                    <g id="prefix__Group_1147" data-name="Group 1147" transform="translate(114.266 22.226)">
                        <path id="prefix__Path_1363" d="M-12.427-6.629v-10.327h6.469V14.2h-6.469v-2.523c-1.193 1.926-4.175 3.487-7.524 3.487-6.468 0-11.837-5.689-11.837-12.708 0-7.112 5.46-12.892 11.929-12.892a9.019 9.019 0 0 1 7.433 3.808M-25.41 2.456A6.534 6.534 0 0 0-18.9 9.2a6.545 6.545 0 0 0 6.423-6.744A6.514 6.514 0 0 0-18.9-4.38a6.5 6.5 0 0 0-6.51 6.836" class="prefix__cls-1" data-name="Path 1363" transform="translate(31.788 16.956)"/>
                    </g>
                </g>
                <g id="prefix__Group_1149" data-name="Group 1149" transform="translate(141.852 29.574)">
                    <path id="prefix__Path_1365" d="M-11.9 0l-5.735 11.653L-23.367 0h-7.065l9.5 18.168-6.248 11.672h6.928L-4.831 0z" class="prefix__cls-1" data-name="Path 1365" transform="translate(30.432)"/>
                </g>
                <g id="prefix__Group_1151" class="prefix__cls-3" data-name="Group 1151">
                    <g id="prefix__Group_1150" data-name="Group 1150" transform="translate(87.29 28.746)">
                        <path id="prefix__Path_1366" d="M-7.98 0a12.486 12.486 0 0 0-12.433 12.754A12.488 12.488 0 0 0-7.567 25.6a12.591 12.591 0 0 0 9.807-4.109l-4.168-4.262a7.53 7.53 0 0 1-5.639 2.453c-3.3 0-5.413-1.743-6.148-4.45H4.316a10.683 10.683 0 0 0 .184-2.478A12.553 12.553 0 0 0-7.98 0m-5.735 10.369a5.7 5.7 0 0 1 5.735-4.4 5.66 5.66 0 0 1 5.689 4.4z" class="prefix__cls-1" data-name="Path 1366" transform="translate(20.413)"/>
                    </g>
                </g>
                <g id="prefix__Group_1152" data-name="Group 1152" transform="translate(54.751 59.18)">
                    <path id="prefix__Path_1368" d="M-4.712 0v4.245h-4.755V0h-2.587v10.971h2.587V6.725h4.755v4.246h2.572V0z" class="prefix__cls-1" data-name="Path 1368" transform="translate(12.054)"/>
                </g>
                <g id="prefix__Group_1153" data-name="Group 1153" transform="translate(66.149 59.18)">
                    <path id="prefix__Path_1369" d="M-3.653 0l-5.692 10.971h2.761l.828-1.64h4.8l.828 1.64h2.76L-3.076 0zm.289 4.054l1.479 2.927h-2.958z" class="prefix__cls-1" data-name="Path 1369" transform="translate(9.345)"/>
                </g>
                <g id="prefix__Group_1154" data-name="Group 1154" transform="translate(79.611 59.18)">
                    <path id="prefix__Path_1370" d="M-4.751 0v5.836L-11.546 0h-.608v10.971h2.587V5.06l6.753 5.862.055.049h.593V0z" class="prefix__cls-1" data-name="Path 1370" transform="translate(12.154)"/>
                </g>
                <g id="prefix__Group_1155" data-name="Group 1155" transform="translate(92.286 59.18)">
                    <path id="prefix__Path_1371" d="M-4.751 0v5.836L-11.546 0h-.608v10.971h2.587V5.06l6.753 5.862.055.049h.593V0z" class="prefix__cls-1" data-name="Path 1371" transform="translate(12.154)"/>
                </g>
                <g id="prefix__Group_1156" data-name="Group 1156" transform="translate(104.962 59.18)">
                    <path id="prefix__Path_1372" d="M0 0v10.971h8.617V8.49h-6.03V6.725h5.594v-2.48H2.587V2.48h6.03V0z" class="prefix__cls-1" data-name="Path 1372"/>
                </g>
                <g id="prefix__Group_1157" data-name="Group 1157" transform="translate(115.992 59.18)">
                    <path id="prefix__Path_1373" d="M0 0v10.971h8.363V8.49H2.587V0z" class="prefix__cls-1" data-name="Path 1373"/>
                </g>
                <g id="prefix__Group_1159" class="prefix__cls-3" data-name="Group 1159">
                    <g id="prefix__Group_1158" data-name="Group 1158" transform="translate(42.429 58.889)">
                        <path id="prefix__Path_1374" d="M-4.787-1.953a3.289 3.289 0 0 1 .881.944l2.321-1.316a5.666 5.666 0 0 0-1.806-1.8 5.768 5.768 0 0 0-3.062-.873A5.78 5.78 0 0 0-10.5-3.36 5.723 5.723 0 0 0-12.244.781a5.677 5.677 0 0 0 1.729 4.109 5.7 5.7 0 0 0 4.063 1.668 5.893 5.893 0 0 0 3.079-.889A5.791 5.791 0 0 0-1.6 3.9l-2.317-1.322a3.327 3.327 0 0 1-.81.893 2.993 2.993 0 0 1-3.843-.334 3.264 3.264 0 0 1-1-2.355 3.406 3.406 0 0 1 1-2.387 2.994 2.994 0 0 1 3.781-.347" class="prefix__cls-1" data-name="Path 1374" transform="translate(12.244 4.995)"/>
                    </g>
                </g>
            </g>
        </g>
    </g>
</svg>
