<svg xmlns="http://www.w3.org/2000/svg" width="375.98" height="212.909" viewBox="0 0 335.57 190.026">
    <defs>
        <style>
            .cls-3{fill:#fff}
        </style>
    </defs>
    <g id="Group_5506" transform="translate(-1143 -1005)">
        <g id="Group_5173">
            <rect id="HBO_Button_BG_copy_4" width="335.57" height="190.026" fill="#2fc89a" rx="6" transform="translate(1143 1005)"/>
            <g id="CTVLifeChannel-Link" transform="translate(1262 1049)" style="isolation:isolate">
                <g id="Group_610" transform="translate(57.641 45.46)">
                    <g id="Group_609">
                        <g id="Group_608">
                            <g id="Group_607">
                                <g id="Group_606">
                                    <path id="Path_1014" d="M428.715 295.059c-9.988 0-17.812 8.036-17.812 18.294 0 10.681 7.753 18.433 18.433 18.433a17.956 17.956 0 0 0 13.5-5.311l-5.045-5.161a11.79 11.79 0 0 1-8.46 3.326c-5.146 0-8.821-2.673-10.084-7.335l-.3-1.1h27.5a16.467 16.467 0 0 0 .14-2.848c.013-10.262-7.845-18.298-17.872-18.298zm9.69 15.585h-19.46l.308-1.111a9.423 9.423 0 0 1 9.462-7.259 9.3 9.3 0 0 1 9.4 7.269z" class="cls-3" transform="translate(-410.903 -295.059)"/>
                                </g>
                            </g>
                        </g>
                    </g>
                </g>
                <g id="Group_616" transform="translate(16.482 32.858)">
                    <g id="Group_615">
                        <g id="Group_614">
                            <g id="Group_613">
                                <g id="Group_612">
                                    <path id="Path_1015" d="M348.14 274.327a5.563 5.563 0 0 0-4.862 4.2 5.4 5.4 0 0 0 1.227 4.925 5.628 5.628 0 0 0 4.881 1.812 5.539 5.539 0 0 0 2.972-9.542 5.448 5.448 0 0 0-4.218-1.4z" class="cls-3" transform="translate(-343.12 -274.305)"/>
                                </g>
                            </g>
                        </g>
                    </g>
                </g>
                <g id="Group_621" transform="translate(1.711 33.195)">
                    <g id="Group_620">
                        <g id="Group_619">
                            <g id="Group_618">
                                <path id="Path_1016" d="M318.793 323.463h8.63v-48.6h-8.63z" class="cls-3" transform="translate(-318.793 -274.86)"/>
                            </g>
                        </g>
                    </g>
                </g>
                <g id="Group_626" transform="translate(17.624 48.798)">
                    <g id="Group_625">
                        <g id="Group_624">
                            <g id="Group_623">
                                <path id="Path_1017" d="M345 333.556h8.63v-33H345z" class="cls-3" transform="translate(-345 -300.555)"/>
                            </g>
                        </g>
                    </g>
                </g>
                <g id="Group_630" transform="translate(32.03 33.208)">
                    <g id="Group_629">
                        <g id="Group_628">
                            <path id="Path_1018" d="M374.783 323.471h8.63v-25.057h9.261v-7.906h-9.261l.067-.69c.556-5.652 4.523-6.838 7.753-6.838a11.4 11.4 0 0 1 2.963.432l2.07-7.652a18.387 18.387 0 0 0-5.825-.88c-9.39 0-15.235 5.617-15.634 15.026l-.024.6h-6.059v7.906h6.059z" class="cls-3" transform="translate(-368.724 -274.88)"/>
                        </g>
                    </g>
                </g>
                <path id="Path_1019" d="M348.922 370.449h-5.669v-5.062h-3.084v13.08h3.084V373.4h5.669v5.062h3.066v-13.08h-3.066z" class="cls-3" transform="translate(-325.478 -277.223)"/>
                <path id="Path_1020" d="M369.337 365.387l-6.786 13.079h3.291l.987-1.955h5.722l.987 1.955h3.292l-6.805-13.079zm-1.419 8.323l1.763-3.489 1.763 3.489z" class="cls-3" transform="translate(-334.269 -277.223)"/>
                <path id="Path_1021" d="M397.809 372.346l-8.1-6.959h-.725v13.08h3.084v-7.047l8.052 6.989.067.057h.707v-13.08h-3.084z" class="cls-3" transform="translate(-344.651 -277.223)"/>
                <path id="Path_1022" d="M422.7 372.346l-8.1-6.959h-.725v13.08h3.084v-7.047l8.052 6.989.067.057h.707v-13.08H422.7z" class="cls-3" transform="translate(-354.428 -277.223)"/>
                <path id="Path_1023" d="M438.759 378.467h10.274v-2.957h-7.19v-2.11h6.669v-2.956h-6.669v-2.105h7.19v-2.956h-10.274z" class="cls-3" transform="translate(-364.203 -277.223)"/>
                <path id="Path_1024" d="M463.5 375.51v-10.123h-3.084v13.08h9.97v-2.957z" class="cls-3" transform="translate(-372.711 -277.223)"/>
                <path id="Path_1025" d="M324.866 368.442a3.922 3.922 0 0 1 1.051 1.126l2.767-1.568a6.754 6.754 0 0 0-2.153-2.142 6.9 6.9 0 0 0-10.556 5.846 6.909 6.909 0 0 0 6.905 6.887 7.027 7.027 0 0 0 3.671-1.06 6.894 6.894 0 0 0 2.11-2.106l-2.759-1.579a3.974 3.974 0 0 1-.966 1.065 3.566 3.566 0 0 1-4.581-.4 3.89 3.89 0 0 1-1.188-2.808 4.066 4.066 0 0 1 1.189-2.847 3.572 3.572 0 0 1 4.51-.414z" class="cls-3" transform="translate(-315.975 -276.998)"/>
                <path id="Path_1026" d="M331.344 220.192a14.513 14.513 0 1 0 14.513 14.514 14.513 14.513 0 0 0-14.513-14.514zm0 21.492a6.98 6.98 0 0 0 6.028-3.468l2.075 1.208a9.377 9.377 0 1 1 0-9.436l-2.075 1.208a6.977 6.977 0 1 0-6.028 10.488z" class="cls-3" transform="translate(-316.311 -220.192)"/>
                <path id="Path_1027" d="M367.675 221.418v27.523h27.072v-27.523zm22.144 7.2h-7.376v15.531h-2.463v-15.527h-7.38v-2.4h17.215z" class="cls-3" transform="translate(-336.282 -220.673)"/>
                <path id="Path_1028" d="M414.288 221.418l16.283 28.28 16.283-28.28zm5.96 4.8h2.86l7.463 13.082 7.46-13.082h2.869l-10.327 17.932z" class="cls-3" transform="translate(-354.591 -220.673)"/>
            </g>
        </g>
    </g>
</svg>
