<svg xmlns="http://www.w3.org/2000/svg" width="255" height="87.931" viewBox="0 0 255 87.931">
    <defs>
        <style>
            .prefix__cls-2{fill:#e5eaf1}
        </style>
    </defs>
    <g id="prefix__Group_2541" data-name="Group 2541" transform="translate(-1240 -2278)">
        <g id="prefix__CTVLifeChannel-ShowPage-Logo" transform="translate(1163 1518)">
            <path id="prefix__Rectangle_113" d="M0 0H255V87.931H0z" data-name="Rectangle 113" transform="translate(77 760)" style="fill:none"/>
            <g id="prefix__Group_2205" data-name="Group 2205" transform="translate(78.466 761.466)">
                <g id="prefix__Group_610" data-name="Group 610" transform="translate(48.227 38.036)">
                    <g id="prefix__Group_609" data-name="Group 609">
                        <g id="prefix__Group_608" data-name="Group 608">
                            <g id="prefix__Group_607" data-name="Group 607">
                                <g id="prefix__Group_606" data-name="Group 606">
                                    <path id="prefix__Path_1014" d="M425.806 295.059a14.948 14.948 0 0 0-14.9 15.306c0 8.937 6.487 15.422 15.423 15.422a15.023 15.023 0 0 0 11.3-4.444l-4.221-4.318a9.864 9.864 0 0 1-7.078 2.783c-4.306 0-7.381-2.237-8.437-6.137l-.249-.924h23.006a13.776 13.776 0 0 0 .117-2.383 14.976 14.976 0 0 0-14.961-15.305zm8.107 13.04h-16.282l.258-.929a7.884 7.884 0 0 1 7.917-6.074 7.784 7.784 0 0 1 7.861 6.082z" class="prefix__cls-2" data-name="Path 1014" transform="translate(-410.903 -295.059)"/>
                                </g>
                            </g>
                        </g>
                    </g>
                </g>
                <g id="prefix__Group_616" data-name="Group 616" transform="translate(13.791 27.492)">
                    <g id="prefix__Group_615" data-name="Group 615">
                        <g id="prefix__Group_614" data-name="Group 614">
                            <g id="prefix__Group_613" data-name="Group 613">
                                <g id="prefix__Group_612" data-name="Group 612">
                                    <path id="prefix__Path_1015" d="M347.32 274.324a4.654 4.654 0 0 0-4.068 3.518 4.519 4.519 0 0 0 1.027 4.12 4.709 4.709 0 0 0 4.084 1.516 4.635 4.635 0 0 0 2.487-7.983 4.558 4.558 0 0 0-3.529-1.171z" class="prefix__cls-2" data-name="Path 1015" transform="translate(-343.12 -274.305)"/>
                                </g>
                            </g>
                        </g>
                    </g>
                </g>
                <g id="prefix__Group_621" data-name="Group 621" transform="translate(1.432 27.773)">
                    <g id="prefix__Group_620" data-name="Group 620">
                        <g id="prefix__Group_619" data-name="Group 619">
                            <g id="prefix__Group_618" data-name="Group 618">
                                <path id="prefix__Path_1016" d="M318.793 315.526h7.221V274.86h-7.221z" class="prefix__cls-2" data-name="Path 1016" transform="translate(-318.793 -274.86)"/>
                            </g>
                        </g>
                    </g>
                </g>
                <g id="prefix__Group_626" data-name="Group 626" transform="translate(14.746 40.828)">
                    <g id="prefix__Group_625" data-name="Group 625">
                        <g id="prefix__Group_624" data-name="Group 624">
                            <g id="prefix__Group_623" data-name="Group 623">
                                <path id="prefix__Path_1017" d="M345 328.166h7.22v-27.611H345z" class="prefix__cls-2" data-name="Path 1017" transform="translate(-345 -300.555)"/>
                            </g>
                        </g>
                    </g>
                </g>
                <g id="prefix__Group_630" data-name="Group 630" transform="translate(26.799 27.784)">
                    <g id="prefix__Group_629" data-name="Group 629">
                        <g id="prefix__Group_628" data-name="Group 628">
                            <path id="prefix__Path_1018" d="M373.794 315.535h7.221v-20.964h7.749v-6.615h-7.749l.056-.577c.465-4.729 3.784-5.722 6.487-5.722a9.536 9.536 0 0 1 2.479.361l1.732-6.4a15.384 15.384 0 0 0-4.874-.736c-7.857 0-12.747 4.7-13.08 12.572l-.02.5h-5.07v6.615h5.07z" class="prefix__cls-2" data-name="Path 1018" transform="translate(-368.724 -274.88)"/>
                        </g>
                    </g>
                </g>
                <path id="prefix__Path_1019" d="M347.493 369.622h-4.743v-4.235h-2.581v10.943h2.581v-4.23h4.743v4.235h2.565v-10.948h-2.565z" class="prefix__cls-2" data-name="Path 1019" transform="translate(-327.877 -291.621)"/>
                <path id="prefix__Path_1020" d="M368.228 365.387l-5.677 10.943h2.749l.826-1.636h4.788l.826 1.636h2.76l-5.7-10.943zm-1.187 6.964l1.475-2.919 1.475 2.919z" class="prefix__cls-2" data-name="Path 1020" transform="translate(-338.888 -291.621)"/>
                <path id="prefix__Path_1021" d="M396.367 371.209l-6.778-5.823h-.607v10.944h2.58v-5.9l6.737 5.848.056.048h.592v-10.939h-2.581z" class="prefix__cls-2" data-name="Path 1021" transform="translate(-351.891 -291.621)"/>
                <path id="prefix__Path_1022" d="M421.255 371.209l-6.778-5.823h-.607v10.944h2.581v-5.9l6.737 5.848.056.048h.592v-10.939h-2.581z" class="prefix__cls-2" data-name="Path 1022" transform="translate(-364.136 -291.621)"/>
                <path id="prefix__Path_1023" d="M438.759 376.33h8.6v-2.474h-6.016V372.1h5.58v-2.474h-5.58v-1.766h6.016v-2.474h-8.6z" class="prefix__cls-2" data-name="Path 1023" transform="translate(-376.379 -291.621)"/>
                <path id="prefix__Path_1024" d="M463 373.857v-8.47h-2.581v10.943h8.342v-2.474z" class="prefix__cls-2" data-name="Path 1024" transform="translate(-387.035 -291.621)"/>
                <path id="prefix__Path_1025" d="M323.414 367.85a3.28 3.28 0 0 1 .879.942l2.316-1.313a5.651 5.651 0 0 0-1.8-1.792 5.769 5.769 0 0 0-8.832 4.891 5.781 5.781 0 0 0 5.777 5.762 5.879 5.879 0 0 0 3.072-.887 5.768 5.768 0 0 0 1.765-1.762l-2.308-1.321a3.325 3.325 0 0 1-.808.891 2.984 2.984 0 0 1-3.833-.334 3.255 3.255 0 0 1-.994-2.349 3.4 3.4 0 0 1 1-2.382 2.988 2.988 0 0 1 3.766-.346z" class="prefix__cls-2" data-name="Path 1025" transform="translate(-315.975 -291.34)"/>
                <path id="prefix__Path_1026" d="M328.974 220.192a12.143 12.143 0 1 0 12.143 12.143 12.143 12.143 0 0 0-12.143-12.143zm0 17.982a5.84 5.84 0 0 0 5.043-2.9l1.736 1.011a7.846 7.846 0 1 1 0-7.895l-1.736 1.011a5.837 5.837 0 1 0-5.043 8.775z" class="prefix__cls-2" data-name="Path 1026" transform="translate(-316.396 -220.192)"/>
                <path id="prefix__Path_1027" d="M367.675 221.418v23.028h22.651v-23.028zm18.527 6.027h-6.172v12.995h-2.06v-12.995h-6.17v-2.009h14.4z" class="prefix__cls-2" data-name="Path 1027" transform="translate(-341.409 -220.795)"/>
                <path id="prefix__Path_1028" d="M414.288 221.418l13.624 23.662 13.624-23.662zm4.986 4.019h2.393l6.244 10.946 6.241-10.946h2.4l-8.64 15z" class="prefix__cls-2" data-name="Path 1028" transform="translate(-364.341 -220.795)"/>
            </g>
        </g>
    </g>
</svg>
