<svg xmlns="http://www.w3.org/2000/svg" width="375.98" height="212.909" viewBox="0 0 335.57 190.026">
    <defs>
        <style>
            .cls-2{fill:#fff;stroke:transparent}
        </style>
    </defs>
    <g id="Group_5508" transform="translate(-1142 -780)">
        <g id="Group_5176">
            <rect id="HBO_Button_BG_copy_4" width="335.57" height="190.026" fill="#fa5c1f" rx="6" transform="translate(1142 780)"/>
            <g id="Group_5145" transform="translate(0 -47)">
                <g id="Group_2233" transform="translate(1214 882)">
                    <g id="Group_602" transform="translate(51.912)">
                        <g id="Group_599">
                            <path id="Path_998" d="M334.755 237.157a13.9 13.9 0 1 0 13.9 13.9 13.9 13.9 0 0 0-13.9-13.9zm0 20.584a6.686 6.686 0 0 0 5.772-3.322l1.988 1.157a8.981 8.981 0 1 1 0-9.037l-1.988 1.157a6.682 6.682 0 1 0-5.772 10.045z" class="cls-2" transform="translate(-320.855 -237.157)"/>
                        </g>
                        <g id="Group_600" transform="translate(29.569 .713)">
                            <path id="Path_999" d="M371.7 238.383v26.36h25.929v-26.36zm21.208 6.9h-7.065v14.875h-2.358v-14.876h-7.065v-2.3h16.487z" class="cls-2" transform="translate(-371.699 -238.383)"/>
                        </g>
                        <g id="Group_601" transform="translate(56.677 .713)">
                            <path id="Path_1000" d="M418.312 238.383l15.595 27.085 15.6-27.085zm5.708 4.6h2.74l7.147 12.53 7.144-12.53h2.749l-9.891 17.175z" class="cls-2" transform="translate(-418.312 -238.383)"/>
                        </g>
                    </g>
                    <g id="Group_603" transform="translate(0 25.38)">
                        <path id="Path_1001" d="M286.473 293.6a14.616 14.616 0 1 1-14.564 14.564 14.589 14.589 0 0 1 14.564-14.564zm-7.229 14.564a7.286 7.286 0 1 0 7.229-7.543 7.285 7.285 0 0 0-7.229 7.542z" class="cls-2" transform="translate(-248.461 -286.155)"/>
                        <path id="Path_1002" d="M251.534 313.393a6.813 6.813 0 0 1-5.328 2.471 7.658 7.658 0 0 1 0-15.3 7.1 7.1 0 0 1 5.314 2.415 19.062 19.062 0 0 1 3.326-6.588 14.6 14.6 0 1 0 .043 23.641 19.25 19.25 0 0 1-3.355-6.639z" class="cls-2" transform="translate(-231.59 -286.155)"/>
                        <path id="Path_1003" d="M334.238 321.732h-7.388v-27.19h7.439v3.3a8.656 8.656 0 0 1 7.492-4.243 8.8 8.8 0 0 1 7.387 4.034 10.689 10.689 0 0 1 8.854-4.034c6.339 0 10.373 4.662 10.373 12.573v15.559h-7.334v-14.983c0-3.72-1.624-6.444-5.029-6.444-3.144 0-4.767 2.776-4.767 6.444v14.983h-7.282v-14.983c0-3.72-1.676-6.444-5.029-6.444-3.143 0-4.715 2.776-4.715 6.444z" class="cls-2" transform="translate(-271.451 -286.155)"/>
                        <path id="Path_1004" d="M478.062 292.591V280.8h7.387v35.577h-7.387v-2.881c-1.362 2.2-4.768 3.981-8.592 3.981-7.387 0-13.517-6.5-13.517-14.511 0-8.12 6.234-14.721 13.621-14.721a10.3 10.3 0 0 1 8.488 4.346zm-14.826 10.373a7.393 7.393 0 1 0 14.774 0c0-4.453-3.2-7.806-7.335-7.806-4.295 0-7.439 3.353-7.439 7.806z" class="cls-2" transform="translate(-325.474 -280.798)"/>
                        <path id="Path_1005" d="M520.964 315.972l-10.844-20.746h8.068l6.549 13.306 6.549-13.306h8.068L521.743 329.3h-7.911z" class="cls-2" transform="translate(-348.14 -286.835)"/>
                        <path id="Path_1006" d="M417.183 293.6a14.634 14.634 0 1 0 11.67 24.54l-4.759-4.866a8.6 8.6 0 0 1-6.439 2.8c-3.772 0-6.182-1.991-7.02-5.082h20.589a12.192 12.192 0 0 0 .209-2.829 14.335 14.335 0 0 0-14.25-14.563zm-6.548 11.84a6.744 6.744 0 0 1 13.045 0z" class="cls-2" transform="translate(-303.31 -286.155)"/>
                    </g>
                    <g id="Group_604" transform="translate(48.449 67.244)">
                        <path id="Path_1007" d="M347.477 358.205h-5.429v-4.848h-2.954v12.527h2.954v-4.848h5.429v4.848h2.936v-12.526h-2.936z" class="cls-2" transform="translate(-325.023 -353.025)"/>
                        <path id="Path_1008" d="M367.974 353.358l-6.5 12.527h3.153l.945-1.873h5.481l.945 1.873h3.153l-6.518-12.527zm-1.359 7.971l1.689-3.342 1.688 3.342z" class="cls-2" transform="translate(-334.388 -353.025)"/>
                        <path id="Path_1009" d="M396.36 360.022l-7.759-6.665h-.694v12.527h2.954v-6.749l7.712 6.694.064.055h.677v-12.526h-2.954z" class="cls-2" transform="translate(-345.449 -353.025)"/>
                        <path id="Path_1010" d="M421.248 360.022l-7.759-6.665h-.689v12.527h2.954v-6.749l7.712 6.694.064.055h.677v-12.526h-2.954z" class="cls-2" transform="translate(-355.863 -353.025)"/>
                        <path id="Path_1011" d="M437.683 365.885h9.84v-2.831h-6.886v-2.016h6.388v-2.831h-6.388v-2.016h6.886v-2.831h-9.84z" class="cls-2" transform="translate(-366.278 -353.025)"/>
                        <path id="Path_1012" d="M462.3 363.053v-9.7h-2.954v12.527h9.55v-2.831z" class="cls-2" transform="translate(-375.341 -353.025)"/>
                        <path id="Path_1013" d="M323.415 356.259a3.758 3.758 0 0 1 1.007 1.078l2.65-1.5a6.471 6.471 0 0 0-2.062-2.052 6.605 6.605 0 0 0-10.111 5.6 6.62 6.62 0 0 0 6.613 6.6 6.728 6.728 0 0 0 3.516-1.015 6.6 6.6 0 0 0 2.021-2.018l-2.642-1.511a3.805 3.805 0 0 1-.925 1.019 3.416 3.416 0 0 1-4.387-.382 3.726 3.726 0 0 1-1.138-2.689 3.89 3.89 0 0 1 1.139-2.726 3.42 3.42 0 0 1 4.319-.404z" class="cls-2" transform="translate(-314.899 -352.785)"/>
                    </g>
                </g>
            </g>
        </g>
    </g>
</svg>
