<svg xmlns="http://www.w3.org/2000/svg" width="289" height="107" viewBox="0 0 289 107">
    <defs>
        <style>
            .cls-2{fill:#fff}
        </style>
    </defs>
    <g id="Group_5271" transform="translate(-1922 -5435)">
        <g id="Group_3523" transform="translate(741 619)">
            <g id="Group_2588" transform="translate(-46)">
                <path id="Rectangle_139" fill="none" d="M0 0H289V107H0z" transform="translate(1227 4816)"/>
            </g>
        </g>
        <g id="Discovery-Logo-Channel-Dropdown" transform="translate(1962 5467)">
            <g id="Group_1793" transform="translate(0 .035)">
                <path id="Path_1247" d="M779.943 520.053a3.411 3.411 0 0 0 3.759 3.228c1.879 0 2.8-1.013 2.8-2.072 0-.867-.579-1.59-2.362-1.975l-2.746-.627c-5.109-1.109-7.133-4-7.133-7.372 0-4.385 3.856-7.95 9.205-7.95 6.939 0 9.349 4.337 9.59 7.131l-6.072 1.108a3.146 3.146 0 0 0-3.421-2.939c-1.4 0-2.6.819-2.6 2.072 0 1.012.819 1.59 1.879 1.782l3.18.627c4.964 1.012 7.373 4 7.373 7.516 0 4.1-3.132 8.1-9.541 8.1-7.518 0-9.927-4.867-10.12-7.516z" class="cls-2" transform="translate(-731.556 -493.993)"/>
                <path id="Path_1248" d="M844.958 516.006c0 3.806 2.554 5.926 5.59 5.926a4.937 4.937 0 0 0 4.963-3.566l6.458 1.975c-1.06 4.192-5.012 8.336-11.421 8.336a12.493 12.493 0 0 1-12.867-12.672 12.362 12.362 0 0 1 12.625-12.721c6.6 0 10.458 4.048 11.518 8.336l-6.554 1.98a4.71 4.71 0 0 0-4.819-3.566c-3.036-.004-5.493 2.116-5.493 5.972z" class="cls-2" transform="translate(-774.169 -493.993)"/>
                <path id="Path_1249" d="M939.5 515.957a12.722 12.722 0 1 1-12.722-12.672 12.386 12.386 0 0 1 12.722 12.672zm-7.325 0c0-4.047-2.6-5.927-5.4-5.927-2.747 0-5.4 1.88-5.4 5.927 0 4 2.651 5.975 5.4 5.975 2.798 0 5.4-1.932 5.4-5.975z" class="cls-2" transform="translate(-825.059 -493.993)"/>
                <path id="Path_1250" d="M1003.906 529.4h-7.373l-9.833-23.949h7.951l5.542 14.888 5.108-14.888h7.71z" class="cls-2" transform="translate(-873.464 -495.436)"/>
                <path id="Path_1251" d="M1086.344 521.065c-1.156 4.144-4.963 7.613-11.036 7.613-6.6 0-12.481-4.722-12.481-12.768 0-7.71 5.735-12.624 11.951-12.624 7.422 0 12 4.578 12 12.287a15.379 15.379 0 0 1-.145 2.264h-16.673a5.183 5.183 0 0 0 5.445 4.626c2.651 0 4.144-1.253 4.819-3.133zm-6.651-7.95c-.1-1.831-1.349-4.047-4.819-4.047a4.563 4.563 0 0 0-4.771 4.047z" class="cls-2" transform="translate(-924.187 -493.993)"/>
                <path id="Path_1252" d="M1158.062 512.2a9.9 9.9 0 0 0-2.313-.241c-2.94 0-5.59 1.734-5.59 6.5v10.456h-7.325v-23.946h7.084v3.231c1.253-2.7 4.289-3.47 6.216-3.47a7.23 7.23 0 0 1 1.928.241z" class="cls-2" transform="translate(-977.496 -494.954)"/>
                <path id="Path_1253" d="M1196.118 538.6l5.445-12.432-10.072-20.719h8.193l5.831 12.817 5.3-12.817h7.759l-14.746 33.151z" class="cls-2" transform="translate(-1009.917 -495.436)"/>
                <g id="Group_1792">
                    <path id="Path_1254" d="M673.77 492.418a10.159 10.159 0 0 0-10.154-10.188h-10.188v-6.792h10.188c9.845 0 17.608 7.195 17.608 16.979s-7.763 16.983-17.608 16.983h-10.188v-6.792h10.188a10.159 10.159 0 0 0 10.154-10.19z" class="cls-2" transform="translate(-651.399 -475.438)"/>
                    <g id="Group_1791" transform="translate(0 8.838)">
                        <path id="Path_1255" d="M653.149 513.289c-.022.026-.016.024.021-.007s.026-.023.011-.018a.077.077 0 0 0-.032.025z" class="cls-2" transform="translate(-651.205 -509.479)"/>
                        <path id="Path_1256" d="M668.322 508.33c0-.03-.008-.028-.027.013-.012.025-.01.033.006.023a.042.042 0 0 0 .021-.036z" class="cls-2" transform="translate(-661.299 -506.179)"/>
                        <path id="Path_1257" d="M669.969 505.956c0-.019-.034-.01-.045.012s0 .017.016.01.029-.017.029-.022z" class="cls-2" transform="translate(-662.389 -504.604)"/>
                        <path id="Path_1258" d="M658.273 541.591c-.018.021-.017.023.012.018s.031-.01.032-.02c.002-.026-.023-.025-.044.002z" class="cls-2" transform="translate(-654.619 -528.341)"/>
                        <path id="Path_1259" d="M665.723 548.192c.01.007.019.008.021 0s-.006-.011-.018-.013-.014.005-.003.013z" class="cls-2" transform="translate(-659.586 -532.746)"/>
                        <path id="Path_1260" d="M664.672 509.173c.008-.008 0-.015-.012-.011s-.021.009-.013.015.018.004.025-.004z" class="cls-2" transform="translate(-658.871 -506.746)"/>
                        <path id="Path_1261" d="M689.544 524.661c.008.007.007 0 0-.021-.018-.043-.028-.049-.02-.016a.074.074 0 0 0 .02.037z" class="cls-2" transform="translate(-675.448 -517.035)"/>
                        <path id="Path_1262" d="M653.863 524.866c-.019 0-.02 0-.012.043s.034.039.033-.011a.028.028 0 0 0-.021-.032z" class="cls-2" transform="translate(-651.677 -517.21)"/>
                        <path id="Path_1263" d="M653.9 516.987c0-.007-.007 0-.015.01a.093.093 0 0 0-.01.038c0 .007.008 0 .015-.01a.073.073 0 0 0 .01-.038z" class="cls-2" transform="translate(-651.696 -511.958)"/>
                        <path id="Path_1264" d="M655.762 525.558c-.019.027-.029.108-.011.109s.02-.014.031-.034c.024-.043.006-.112-.02-.075z" class="cls-2" transform="translate(-652.94 -517.665)"/>
                        <path id="Path_1265" d="M658.073 541.3a.021.021 0 0 0 .013.022c.009 0 .013-.007.01-.017s-.01-.021-.013-.021-.01.002-.01.016z" class="cls-2" transform="translate(-654.494 -528.147)"/>
                        <path id="Path_1266" d="M656.471 532.934a.1.1 0 0 0 .045.049c.027.012.027.007 0-.031s-.061-.062-.045-.018z" class="cls-2" transform="translate(-653.423 -522.568)"/>
                        <path id="Path_1267" d="M657.639 540.383c-.008 0-.008.006 0 .02a.092.092 0 0 0 .023.024v-.02a.037.037 0 0 0-.023-.024z" class="cls-2" transform="translate(-654.201 -527.55)"/>
                        <path id="Path_1268" d="M663.707 507.016s0 .013.006.02.016 0 .022-.011 0-.021-.007-.02a.035.035 0 0 0-.021.011z" class="cls-2" transform="translate(-658.247 -505.309)"/>
                        <path id="Path_1269" d="M671.993 524.824c-.073-.034-.078-.028-.04.049.023.049.1.051.1 0 .005-.006-.024-.029-.06-.049z" class="cls-2" transform="translate(-663.727 -517.169)"/>
                        <path id="Path_1270" d="M668.2 526.516c-.019-.009-.036-.011-.036-.006a.161.161 0 0 0 .032.046c.021.02.035.023.036.005a.064.064 0 0 0-.032-.045z" class="cls-2" transform="translate(-661.216 -518.304)"/>
                        <path id="Path_1271" d="M678.169 525.291a.041.041 0 0 0 .019-.031c0-.005-.01-.011-.024-.011s-.021.014-.019.031a.014.014 0 0 0 .024.011z" class="cls-2" transform="translate(-667.868 -517.466)"/>
                        <path id="Path_1272" d="M668.23 526.853c-.009.014 0 .028.008.028a.032.032 0 0 0 .029-.028c0-.017 0-.029-.008-.029s-.021.012-.029.029z" class="cls-2" transform="translate(-661.258 -518.516)"/>
                        <path id="Path_1273" d="M678.116 527.556a.144.144 0 0 0 .032.109c.033.032.035.032.012 0a.339.339 0 0 1-.03-.109.364.364 0 0 0-.015-.07.345.345 0 0 1 .001.07z" class="cls-2" transform="translate(-667.848 -518.954)"/>
                        <path id="Path_1274" d="M689.839 516.694c0-.013-.01-.023-.017-.025s-.009.007 0 .021.013.024.017.025.002-.009 0-.021z" class="cls-2" transform="translate(-675.644 -511.749)"/>
                        <path id="Path_1275" d="M677.382 531.524c0-.032 0-.062-.014-.068s-.02.046-.021.117-.006.144-.005.166a.17.17 0 0 0 .021.078c.021.032.024.02.031-.084a.457.457 0 0 0-.005-.138.156.156 0 0 1-.007-.071z" class="cls-2" transform="translate(-667.333 -521.601)"/>
                        <path id="Path_1276" d="M672.087 511.519a.14.14 0 0 0-.03.049c0 .021.067-.01.078-.036s-.015-.047-.048-.013z" class="cls-2" transform="translate(-663.811 -508.303)"/>
                        <path id="Path_1277" d="M676.987 529.043a.385.385 0 0 1 .089-.017c.019 0 .029-.012.02-.02a.214.214 0 0 1 .038-.1c.043-.079.046-.093.016-.1-.058-.022-.147-.014-.166.019a.481.481 0 0 0-.034.135c-.018.087-.013.095.037.083z" class="cls-2" transform="translate(-667.066 -519.821)"/>
                        <path id="Path_1278" d="M681.336 508.993v.023c0 .014.015.025.022.026s0-.011 0-.023a.067.067 0 0 0-.022-.026z" class="cls-2" transform="translate(-669.994 -506.634)"/>
                        <path id="Path_1279" d="M674.785 510.687c0 .015-.008.023-.021.015s-.027 0-.03.022-.013.033-.022.022-.019 0-.024.012a.02.02 0 0 0 .017.027c.041 0 .1-.053.1-.092 0-.018-.007-.034-.012-.034s-.009.012-.008.028z" class="cls-2" transform="translate(-665.564 -507.744)"/>
                        <path id="Path_1280" d="M674.493 508.915c0 .013.008.026.016.026s.018-.012.021-.024 0-.025-.016-.026a.02.02 0 0 0-.021.024z" class="cls-2" transform="translate(-665.435 -506.566)"/>
                        <path id="Path_1281" d="M674.5 510.592c0 .013.01.018.016.011a.035.035 0 0 0 .014-.028c0-.005-.007-.011-.017-.011s-.013.012-.013.028z" class="cls-2" transform="translate(-665.437 -507.681)"/>
                        <path id="Path_1282" d="M674.293 510.813a.046.046 0 0 0 .011.042c.008.008.016 0 .015-.023-.004-.046-.014-.055-.026-.019z" class="cls-2" transform="translate(-665.3 -507.832)"/>
                        <path id="Path_1283" d="M662.741 509.038c.01-.018-.03-.005-.046.016s-.005.015.012.007a.118.118 0 0 0 .034-.023z" class="cls-2" transform="translate(-657.57 -506.658)"/>
                        <path id="Path_1284" d="M659.927 514.191a.074.074 0 0 0-.044.029c-.035.044-.024.047.021.007s.04-.037.023-.036z" class="cls-2" transform="translate(-655.686 -510.097)"/>
                        <path id="Path_1285" d="M662.3 510.132c.018 0 .018-.006.007-.022s-.042-.022-.062.019-.011.033.008.022a.244.244 0 0 1 .047-.019z" class="cls-2" transform="translate(-657.266 -507.367)"/>
                        <path id="Path_1286" d="M661.938 508.749a.093.093 0 0 1 .035-.028c.014-.008.006-.011-.015-.01a.071.071 0 0 1-.052-.009c-.008-.005-.013 0-.015.007a.115.115 0 0 1-.028.045c-.017.019-.012.025.021.018a.089.089 0 0 0 .054-.023z" class="cls-2" transform="translate(-657.013 -506.438)"/>
                        <path id="Path_1287" d="M660.772 509.323h.027c.01 0 .008-.011-.008-.009s-.022.003-.019.009z" class="cls-2" transform="translate(-656.292 -506.845)"/>
                        <path id="Path_1288" d="M660.684 514.059c.017-.038.007-.051-.021-.023s-.026.062-.009.062.021-.018.03-.039z" class="cls-2" transform="translate(-656.207 -509.984)"/>
                        <path id="Path_1289" d="M661.7 513.364c.009 0 .016-.013.017-.026s0-.025-.011-.025-.014.01-.016.026-.001.025.01.025z" class="cls-2" transform="translate(-656.9 -509.513)"/>
                        <path id="Path_1290" d="M662.252 506.805c-.012 0-.018.01-.014.015s.014 0 .021-.007.006-.013-.007-.008z" class="cls-2" transform="translate(-657.268 -505.175)"/>
                        <path id="Path_1291" d="M662.6 506.5c.02-.025.013-.023-.038.008l-.036.023h.027a.082.082 0 0 0 .047-.031z" class="cls-2" transform="translate(-657.463 -504.96)"/>
                        <path id="Path_1292" d="M659.912 510.621c.008-.031-.021-.048-.037-.021-.006.012-.008.02 0 .019a.03.03 0 0 1 .021.013c.004.008.011.005.016-.011z" class="cls-2" transform="translate(-655.691 -507.696)"/>
                        <path id="Path_1293" d="M661.746 506.962c-.013-.012-.018-.011-.024.011a.08.08 0 0 1-.04.035c-.025.011-.022.013.008.009s.073-.036.056-.055z" class="cls-2" transform="translate(-656.887 -505.276)"/>
                        <path id="Path_1294" d="M660.209 537.613c.012-.018.016-.037.011-.042s-.041.029-.035.055c.003.012.015.005.024-.013z" class="cls-2" transform="translate(-655.9 -525.675)"/>
                        <path id="Path_1295" d="M662.3 513.413c.022-.029.022-.029-.029 0-.031.019-.034.023-.014.023s.03-.01.043-.023z" class="cls-2" transform="translate(-657.272 -509.565)"/>
                        <path id="Path_1296" d="M657.1 515.661a1.352 1.352 0 0 0-.169.336c0 .048.065-.031.115-.141a.412.412 0 0 1 .112-.161c.08-.077.081-.078.088-.017a.08.08 0 0 1-.024.081.265.265 0 0 0-.044.059c-.006.013 0 .01.017-.005s.03-.021.026.025l-.006.059.059-.091a1.035 1.035 0 0 0 .065-.111c0-.01.012 0 .019.02.016.058.051 0 .041-.062s-.041-.072-.049-.026c0 .012-.01.026-.017.026s-.009-.01 0-.023c.025-.057-.176-.03-.233.031z" class="cls-2" transform="translate(-653.733 -511.036)"/>
                        <path id="Path_1297" d="M658.256 516.17a.141.141 0 0 0 .106-.037c.03-.034.037-.083.007-.052a.189.189 0 0 1-.077.027c-.092.022-.122.063-.036.062z" class="cls-2" transform="translate(-654.581 -511.35)"/>
                        <path id="Path_1298" d="M656.357 511.032l-.061.059-.061.06h.023a.106.106 0 0 0 .044-.029.086.086 0 0 1 .033-.026c.009 0 0 .008-.011.024s0 .012.022-.013a.417.417 0 0 1 .078-.055c.056-.024.073-.064.02-.044-.036.014-.042.014-.019 0 .047-.037-.014-.018-.115.039l-.08.044.063-.026z" class="cls-2" transform="translate(-653.265 -507.959)"/>
                        <path id="Path_1299" d="M658.175 511.383c.015-.025-.015-.018-.037.008-.01.011-.015.025-.011.03s.029-.006.048-.038z" class="cls-2" transform="translate(-654.529 -508.216)"/>
                        <path id="Path_1300" d="M657.833 514.575c.016-.033.009-.054-.011-.033s-.036.057-.018.056a.042.042 0 0 0 .029-.023z" class="cls-2" transform="translate(-654.308 -510.326)"/>
                        <path id="Path_1301" d="M657.077 512.8c-.02.023-.03.037-.023.036a.634.634 0 0 0 .115-.128c.018-.031-.006-.019-.041.02-.018.02-.03.037-.026.036s-.002.02-.025.036z" class="cls-2" transform="translate(-653.814 -509.1)"/>
                        <path id="Path_1302" d="M657.166 515.071c.03-.019.047-.024.037-.012-.024.031.009.057.075.057h.057l.022-.071c.009-.028.015-.065 0-.059s-.021 0-.022-.019c-.007-.064-.048-.057-.173.032-.067.047-.127.091-.135.1-.027.029.085.006.139-.028z" class="cls-2" transform="translate(-653.796 -510.587)"/>
                        <path id="Path_1303" d="M659.26 510.22s-.013.01-.018.023-.006.021 0 .02a.083.083 0 0 0 .018-.023c.006-.013.006-.021 0-.02z" class="cls-2" transform="translate(-655.27 -507.452)"/>
                        <path id="Path_1304" d="M656.746 514.373a.177.177 0 0 0 .022-.069c.006-.031 0-.044 0-.032-.019.028-.036.116-.022.101z" class="cls-2" transform="translate(-653.606 -510.148)"/>
                        <path id="Path_1305" d="M656.652 512.458a.169.169 0 0 0-.074.041c-.047.045-.047.044.041-.007.065-.037.068-.039.033-.034z" class="cls-2" transform="translate(-653.477 -508.942)"/>
                        <path id="Path_1306" d="M656.823 513.711c-.032.042-.039.053-.031.064s0 .023-.01.035a.062.062 0 0 0-.016.038c0 .006.016-.011.032-.042a.927.927 0 0 0 .049-.1c.016-.047.016-.047-.024.005z" class="cls-2" transform="translate(-653.622 -509.751)"/>
                        <path id="Path_1307" d="M657.557 516.521c-.053.021-.076.063-.035.062a.552.552 0 0 0 .209-.108c.026-.033.005-.027-.174.046z" class="cls-2" transform="translate(-654.113 -511.607)"/>
                        <path id="Path_1308" d="M657.061 513.646l-.029.017a.091.091 0 0 0-.036.031.2.2 0 0 0-.017.125.163.163 0 0 1-.013.087c-.021.048-.02.053 0 .021a.589.589 0 0 0 .062-.164c.02-.063.033-.117.033-.117z" class="cls-2" transform="translate(-653.747 -509.734)"/>
                        <path id="Path_1309" d="M656.953 514.773c.01 0 .027-.019.037-.038a.185.185 0 0 0 .01-.035.391.391 0 0 0-.038.038c-.022.029-.026.036-.009.035z" class="cls-2" transform="translate(-653.741 -510.436)"/>
                        <path id="Path_1310" d="M656.4 511.737c-.007-.01-.011-.008-.016.015s-.018.036-.069.075l-.059.045.048-.008a.242.242 0 0 0 .079-.031l.084-.065a.427.427 0 0 1 .069-.047.088.088 0 0 0 .034-.026c.029-.035-.011-.02-.066.024s-.087.047-.104.018z" class="cls-2" transform="translate(-653.282 -508.422)"/>
                        <path id="Path_1311" d="M683.736 516.641c-.019 0-.036.008-.035.024s.014.026.033.028.035-.011.035-.024a.032.032 0 0 0-.033-.028z" class="cls-2" transform="translate(-671.57 -511.73)"/>
                        <path id="Path_1312" d="M683.554 515.565c-.021 0-.028 0-.012.011a.053.053 0 0 0 .04 0c.006-.003-.005-.009-.028-.011z" class="cls-2" transform="translate(-671.459 -511.013)"/>
                        <path id="Path_1313" d="M683.955 508.747s-.006.006 0 .02a.054.054 0 0 0 .02.025c.006 0 .005-.008 0-.019a.052.052 0 0 0-.02-.026z" class="cls-2" transform="translate(-671.736 -506.47)"/>
                        <path id="Path_1314" d="M683.037 515.471c-.048.022-.059.044-.045.092s.031.046.034-.013c0-.029.016-.05.035-.049s.031-.01.027-.023-.01-.026-.01-.024a.372.372 0 0 1-.041.017z" class="cls-2" transform="translate(-671.094 -510.939)"/>
                        <path id="Path_1315" d="M681.926 509.07c0 .026 0 .033.014.035s.018.019.021.035.011.031.017.025 0-.035-.014-.068c-.027-.067-.037-.073-.038-.027z" class="cls-2" transform="translate(-670.388 -506.666)"/>
                        <path id="Path_1316" d="M683.643 508.789c-.021-.035-.065-.076-.053-.049a.222.222 0 0 0 .04.048c.027.028.028.026.013.001z" class="cls-2" transform="translate(-671.495 -506.46)"/>
                        <path id="Path_1317" d="M684.141 515.146c-.006 0 0 .012.015.027a.139.139 0 0 0 .041.029c.007 0 0-.013-.015-.027a.109.109 0 0 0-.041-.029z" class="cls-2" transform="translate(-671.862 -510.734)"/>
                        <path id="Path_1318" d="M686.459 513.616a.62.62 0 0 0 0 .079.386.386 0 0 1-.052.233c-.02.016-.02.016 0 .022s.034-.014.045-.037.025-.043.031-.041c.022 0 .02-.109 0-.181a.387.387 0 0 0-.024-.075z" class="cls-2" transform="translate(-673.365 -509.714)"/>
                        <path id="Path_1319" d="M687.236 518.331c-.006 0-.007.009 0 .025s.016.026.027.026.01-.012 0-.024-.02-.027-.027-.027z" class="cls-2" transform="translate(-673.922 -512.856)"/>
                        <path id="Path_1320" d="M655.489 501.924a8.142 8.142 0 1 0 8.142 8.142 8.142 8.142 0 0 0-8.142-8.142zm7.4 8.826a.02.02 0 0 1 0 .02c0 .006-.005 0-.006-.009s-.003-.02.002-.011zm-.521-.334c.008 0 .012 0 .008.008s-.01.01-.014.005-.006-.011.003-.013zm-.061-.106c.007-.025.009-.024.008.008v.011c0-.016.006-.025.008-.019a1.093 1.093 0 0 1-.051.164 1.37 1.37 0 0 1 .028-.164zm-.017.318c.024-.006.035 0 .033.02s-.006.028-.02.021a.043.043 0 0 0-.033 0c-.008 0-.014 0-.014-.014s.012-.022.031-.027zm0 .3a.12.12 0 0 1-.013.037c-.009.016-.013.019-.01.007a.152.152 0 0 1 .013-.036c.001-.01.006-.013.007-.008zm-.109-1.138a.15.15 0 0 1 .014-.058.8.8 0 0 1 .061.189c0 .011-.008.015-.015.009s-.013 0 0 .033.011.046 0 .048-.039-.02-.055-.08c-.012-.043-.018-.051-.034-.042a.039.039 0 0 0-.02.037c0 .015 0 .012-.01-.012a.138.138 0 0 1 .01-.073c.01-.019.02-.025.023-.014.004.033.013.021.022-.036zm.029.917c-.007 0-.013-.007-.013-.016a.023.023 0 0 1 .015-.024c.01 0 .016 0 .013.017a.033.033 0 0 1-.019.024zm.005.5v.018a.034.034 0 0 1-.023.024c-.017.006-.016 0 0-.018a.224.224 0 0 1 .019-.019zm0-.823a.075.075 0 0 1-.078.042c-.044 0-.056.005-.066.036a.153.153 0 0 0-.006.072c.007.033.011.034.037 0a.12.12 0 0 1 .046-.038c.013 0 .008.008-.022.051l-.039.053v.153a.212.212 0 0 1-.019.1c-.013 0-.01-.026 0-.055s.006-.037-.015 0c-.01.019-.015.014-.016-.02a.469.469 0 0 1 0-.069.032.032 0 0 0 0-.026.312.312 0 0 0-.034.1.383.383 0 0 1-.042.114c-.012.011-.011 0 .005-.054a.2.2 0 0 0 .014-.094.538.538 0 0 1 .046-.2.218.218 0 0 0 .02-.061c.009-.048.062-.138.071-.119s.07.016.089-.014c.033-.039.034-.016.004.035zm-.076.67a.054.054 0 0 1-.021.025.314.314 0 0 0-.055.065c-.051.071-.055.074-.045.032a.365.365 0 0 1 .093-.12c.021-.019.032-.018.023.004zm-.241.125a.015.015 0 0 1 .02.017c0 .037-.014.048-.027.017l-.012-.029zm-.029-.037a.117.117 0 0 0-.039.024c-.016.016-.019.015-.01-.01s.019-.031.028-.029.013-.005.013-.015.006-.018.016-.014a.024.024 0 0 1-.013.05zm-.011-.356c-.019.023-.025.022-.027 0s-.017-.025-.046-.017-.044 0-.041-.009-.008-.015-.022-.013-.024-.008-.018-.061a.183.183 0 0 0 0-.075.39.39 0 0 1 .017-.185c.009-.025.02-.033.045-.029s.033 0 .039-.03a.153.153 0 0 1 .045-.072.478.478 0 0 0 .068-.093c.007-.032.016-.061.023-.062a.165.165 0 0 0 .02-.082c.009-.09.02-.1.051-.048a.537.537 0 0 0 .046.061c.021.022.021.024.008.026s-.013.02-.008.037 0 .033-.008.035-.007.01-.006.023 0 .021-.007.022a.214.214 0 0 0-.006.084.2.2 0 0 0 .012.08c.017 0 0 .039-.021.049s-.026.027-.035.064a.433.433 0 0 1-.039.1.154.154 0 0 0-.025.06.284.284 0 0 1-.07.141zm-.044.354c0 .011-.009.022-.015.024s-.007-.009 0-.02.01-.023.015-.024-.002.013-.005.026zm-.525-.455a.045.045 0 0 1 0 .034c0 .014-.007.017-.013.011a.058.058 0 0 1 0-.035c-.003-.007.003-.011.008-.005zm-.022-.14s-.008-.01-.009-.021 0-.023.009-.023.012.007.009.021a.048.048 0 0 1-.015.028zm.013-.2a1.474 1.474 0 0 0-.093-.165c0-.014 0-.02.016-.014a.106.106 0 0 0 .046.01.245.245 0 0 1 .112.119.374.374 0 0 0 .057.115c.006 0 .02.015.029.033a.726.726 0 0 0 .036.074.1.1 0 0 1 .006.07.238.238 0 0 0 .018.118.226.226 0 0 1 0 .188c-.023.079-.034.1-.053.111s-.1-.174-.1-.272a.684.684 0 0 0-.016-.139.271.271 0 0 1-.011-.087.639.639 0 0 0-.053-.152zm.28.695c.01.019.036.022.08.008s.063-.01.065.015a.039.039 0 0 0 .042.037c.022 0 .038.013.035.024s-.117.033-.169.018a.412.412 0 0 0-.077-.013c-.051 0-.084-.039-.069-.078a.055.055 0 0 1 .087-.002zm-.024-.352c.017-.027.024-.017.024.036 0 .03 0 .054-.008.055s-.031-.068-.021-.079zm.063.082a.023.023 0 0 1 .014-.024c.019 0 .019.009 0 .032-.013.016-.019.013-.019.001zm.125.281c-.007 0 0-.012.009-.014s.016 0 .01.008-.019.019-.025.014zm0-4.375a.693.693 0 0 0 .046.08c.032.049.035.056.018.04s-.02-.009-.02 0-.012-.012-.082-.19c-.046-.119-.093-.227-.1-.243a.418.418 0 0 1-.05-.141s0-.016-.011-.039-.005-.019.022.028a.58.58 0 0 1 .042.085 1.879 1.879 0 0 0 .108.219c.024.039.03.061.015.057s-.012.065.006.113zm.055 2.007v.049l-.024-.05a.3.3 0 0 1-.032-.119.244.244 0 0 1 0-.08c0-.007.01-.014.011-.014a1.006 1.006 0 0 1 .039.223zm.21.97a.245.245 0 0 1-.006.092c-.017.114-.031.107-.014-.008a.222.222 0 0 1 .014-.075zm-.02-.21c0-.009 0-.012.012-.005a.151.151 0 0 1 .029.062c.011.047.011.047-.012.006a.438.438 0 0 1-.035-.054zm.141.31c-.014-.019-.016-.032-.016-.08s0-.059-.012-.031-.014.022-.026-.027-.009-.052.006-.044.041.053.054.138c.004.062.002.071-.016.052zm.011-.076c0-.031 0-.031.017 0a.091.091 0 0 1 .018.048c0 .009-.008 0-.013-.012s-.013-.021-.015-.014-.012.001-.013-.014zm-.159 1.409c.039 0 .032.025-.009.036-.017 0-.03 0-.026-.013a.039.039 0 0 1 .029-.015zm.155-1.581c.018 0 .03.032.043.127.007.047.006.047-.013.013s-.018-.043-.015-.055 0-.025-.014-.048-.018-.027-.007-.028zm-.029.034a.053.053 0 0 1-.019-.021c0-.018.014-.01.025.012s-.004.024-.013.018zm-.035-.1c-.018-.026-.03-.036-.027-.021s0 .02-.008.01a.053.053 0 0 0-.034-.016c-.011 0-.021-.012-.026-.037s-.011-.034-.014-.027-.017-.015-.031-.052-.024-.067-.019-.071a.126.126 0 0 0-.007-.063.839.839 0 0 1-.019-.091c0-.023.005-.035.022-.033s.029.015.045.073a.418.418 0 0 1 .017.109.189.189 0 0 0 .07.165.086.086 0 0 1 .048.058c.011.057.01.057-.024.005zm-.026-1.828c.022.071.026.111.008.076s-.015-.02-.014 0a.026.026 0 0 1-.03.025c-.023 0-.029.008-.023.042.009.057-.012.057-.029 0-.009-.028-.018-.04-.031-.042s-.016 0 0 .034.034.092.014.067c-.007-.008-.014 0-.015.021s0 .034-.019 0-.013-.044 0-.057.01-.044-.014-.042a.017.017 0 0 0-.012.024c0 .012 0 .016-.008.008s-.02.007.006.041.024.034.034.1c.014.1-.008.1-.034 0-.014-.054-.019-.066-.024-.055s-.023-.027-.019-.078c.007-.1.026-.142.065-.138s.043-.015.019-.132c-.006-.027 0-.027.008.008s.016.038.025.008a.4.4 0 0 0-.021-.2c-.029-.084-.037-.122-.019-.106s.012.006 0-.011-.014-.028-.012-.028a.746.746 0 0 1 .046.084.362.362 0 0 1 .05.145 1.158 1.158 0 0 0 .042.215zm-.1-.527c-.007 0-.012.012-.011.032s0 .029-.021.011-.057-.034-.055-.01a.019.019 0 0 0 .01.017c.009 0 .011.008.012.028s0 .021-.018-.008-.032-.114-.017-.111 0-.047-.031-.126c-.023-.062-.016-.058.039.023a.2.2 0 0 0 .051.055c.031.027.064.105.036.098zm-.041-.542v-.019c0 .001.013.018.008.03s-.01.01-.013-.002zm-1.025-1.914l.023.013.038.039a.252.252 0 0 1-.062-.04c-.025-.009-.025-.012-.004-.003zm-.266-.148a.027.027 0 0 1 .025.009.691.691 0 0 0 .088.049c.072.036.092.051.1.073s-.139-.027-.172-.056-.064-.055-.046-.066zm.242.244c.019.023-.009.015-.046-.016-.018-.014-.024-.022-.023-.031s.032.023.064.056zm-.939-.382c0 .01 0 .018-.009.015a.054.054 0 0 1-.024-.026c-.006-.013 0-.019.009-.016a.038.038 0 0 1 .02.036zm-.6-.457c.014-.036.059-.048.066-.017 0 .008.021.021.044.029.038.013.065.034.065.05a.342.342 0 0 1-.094-.01l-.094-.015zm-.355-.183c.009-.007.012-.016.006-.018s-.007-.017 0-.028c.021-.04.165.015.181.066a.106.106 0 0 0 .053.039.1.1 0 0 1 .065.063c.018.041.015.042-.073.009s-.149-.068-.141-.091c0-.007-.019-.017-.051-.021s-.052-.002-.04-.01zm-1.115-.3a.085.085 0 0 1 .045-.01c.018 0 .019.007 0 .017a.088.088 0 0 1-.045.01c-.016.006-.017.002.001-.008zm-.114-.019c.034.005.06.016.058.023 0 .023-.089.016-.1-.008s.007-.012.043-.006zm-.106.005c.021 0 .024.008.016.024s-.027.025-.036-.005c-.003-.007.006-.007.021-.007zm-.068.683c.014 0 .03-.018.035-.044s.018-.046.029-.044.014-.015.009-.034 0-.035.012-.034.03-.022.044-.051a.3.3 0 0 1 .269-.094.222.222 0 0 0 .089-.006c.033-.02.12-.008.129.018s-.032.026-.081.031c-.156.023-.225.042-.226.062a.018.018 0 0 1-.022.018c-.033 0-.14.149-.129.188a.277.277 0 0 0 .071.084l.061.055-.073-.006a.158.158 0 0 1-.1-.042.137.137 0 0 0-.064-.04c-.043.002-.093-.056-.052-.051zm-.028.236c.006.027-.041.05-.062.031a.051.051 0 0 1-.012-.038c.005-.019.068-.013.075.017zm-.246-.982h.068l-.064.021c-.064.024-.076.023-.074-.011.004.005.033-.003.071 0zm-1.53-.186a.3.3 0 0 0 .106 0 .33.33 0 0 1 .194.034c.016.026-.145.076-.178.054a.537.537 0 0 0-.11-.031c-.126-.014-.134-.058-.011-.047zm-.221.069c.012.013.023.013.021 0a.179.179 0 0 1 0-.039c0-.027.064-.018.073.012.005.015.017.02.027.013a.017.017 0 0 1 .025.008c0 .012.029.03.056.039a.628.628 0 0 1 .119.064c.038.024.075.04.082.036s.009 0 0 .017c-.021.041-.148.041-.135 0s-.037-.078-.073-.079c-.013 0-.036.021-.049.048s-.032.048-.042.048-.023.019-.03.041-.019.036-.08 0c-.039-.023-.054-.044-.038-.046s.015-.01-.013-.02-.032-.021.035-.039.067-.023.041-.036a.083.083 0 0 0-.068.005c-.04.026-.136 0-.123-.037.006-.013 0-.022-.01-.022a.033.033 0 0 1-.026-.025c-.007-.019.176-.011.209.022zm-1.285 2.5c-.01-.007-.014-.037-.009-.066s.021-.051.048-.052a.073.073 0 0 0 .056-.041c.023-.056.146-.06.151 0a.09.09 0 0 1-.022.064.058.058 0 0 0-.018.051.159.159 0 0 1-.092.146c-.028.009-.069.024-.094.035a.063.063 0 0 1-.064-.009c-.017-.024-.014-.032.021-.07s.036-.041.024-.049zm.23-.466a.046.046 0 0 1 .03-.027c.009 0 .009.01 0 .026s-.022.027-.03.027-.006-.004.001-.017zm.01.691a.207.207 0 0 1 .095-.061c.034 0 .033-.009-.014-.024a.1.1 0 0 0-.07-.009c-.01.008-.014 0-.012-.01a.075.075 0 0 1 .044-.042c.032-.014.035-.022.022-.056s-.009-.043.029-.043a.073.073 0 0 0 .058-.041c.008-.022.007-.04 0-.04s-.013-.018-.011-.039-.008-.034-.048-.02-.051.012-.029-.055 0-.1-.027-.036c-.009.019-.008.008 0-.024s.009-.053-.009-.042-.014-.007.017-.077a.6.6 0 0 1 .06-.107.126.126 0 0 1 .069-.023c.042 0 .044 0 .015.036-.049.051-.044.059.02.047s.071.022.016.1c-.029.043-.03.048 0 .064a.081.081 0 0 1 .034.065.087.087 0 0 0 .031.065.138.138 0 0 1 .042.079c.007.037.028.066.045.066.045 0 .055.055.015.1a.072.072 0 0 0-.026.062c0 .016 0 .032-.016.033s-.047.009-.077.012l-.153.027a.6.6 0 0 0-.135.036c-.028.024-.023.011.016-.033zm.413-1.212c-.057-.006-.1-.02-.085-.026.03-.019.031-.06 0-.059s-.02-.007 0-.039.018-.039-.025-.037-.038-.037.028-.064a.041.041 0 0 1 .059.023c.011.028.029.035.047.022a.365.365 0 0 1 .118-.031c.05-.009.1-.025.1-.038s.012-.023.016-.023a.416.416 0 0 1 .128.128c-.03.123-.263.168-.385.154zm-1.13-1.719c.025 0 .041 0 .035.013s-.092.021-.085 0a.107.107 0 0 1 .051-.003zm-1.939.663a.137.137 0 0 1 .044-.038.067.067 0 0 0 .031-.027c.006-.015.025-.026.086-.046a.156.156 0 0 1 .1.025.07.07 0 0 0 .028.006.066.066 0 0 1 .032.012c.012.006.018 0 .023-.013s.034-.029.106-.043a.414.414 0 0 0 .115-.035c.015-.016-.041-.01-.141.018-.04.011-.047.01-.027-.008s.027-.026.011-.022a.107.107 0 0 0-.039.029.065.065 0 0 1-.1 0c-.018-.023.006-.045.077-.067a.545.545 0 0 0 .1-.044.134.134 0 0 1 .076-.021.094.094 0 0 0 .064-.021.625.625 0 0 1 .146-.066 1.212 1.212 0 0 1 .658-.087.3.3 0 0 1-.107.048c-.052.017-.092.037-.088.045s-.021.024-.057.04a1.5 1.5 0 0 0-.141.069 1.451 1.451 0 0 1-.271.121c-.04.009-.058.045-.02.037.023 0 .024 0-.014.032a.208.208 0 0 1-.082.045.087.087 0 0 0-.053.028.141.141 0 0 1-.043.04c-.033.02-.034.022-.01.032s.007.02-.233.075c-.2.045-.245.041-.129-.014.044-.019.051-.027.043-.038s.013-.016.053-.019.061-.009.057-.014 0-.015.006-.024-.005-.01-.028 0c-.049.015-.056 0-.023-.026.018-.015.012-.016-.013 0-.116.06-.153.073-.18.065-.042-.013-.042-.026.005-.054.031-.017.027-.018-.014-.005-.047.021-.073.01-.047-.025zm.068.146c.008-.026.032-.032.037-.009s0 .019-.02.023-.019.007-.016-.003zm.005.036v.019c0 .012-.012.022-.017.022s-.006-.008 0-.019a.077.077 0 0 1 .018-.012zm-.192-.14c.014 0 .016 0 .007.006s-.022.01-.025.007.006.002.023-.002zm-.02.083a.035.035 0 0 1 .036-.017.168.168 0 0 0 .049 0c.018 0 .019 0 0 .024s-.016.033.008.032.03 0-.016.013c-.027.009-.049.011-.047 0a.011.011 0 0 0-.008-.014.025.025 0 0 1-.02-.028zm-.011.108c.009-.011.025-.019.034-.016a.6.6 0 0 0 .083 0c.039 0 .072.01.077.028s.027.026.173-.012c.118-.032.171-.037.178-.021l.01.022-.034.022a1.359 1.359 0 0 1-.248.064c-.164.031-.2.036-.2.014s.01-.029.015-.03.009-.015.008-.03-.02-.023-.043-.017c-.053.026-.074.014-.051-.014zm.02.089c.015.043-.051.084-.089.058l-.017-.009.04-.03c.053-.027.059-.028.067-.006zm-.229-.163a.057.057 0 0 1 .053-.025h.07c.036 0 .054.023.037.052s-.061.034-.053.011-.025-.01-.062 0-.059.013-.034 0 .033-.023.005-.016-.023 0-.015-.012zm-.061.118c0 .013 0 .017-.015.021s-.013 0-.009-.014.023-.018.025.003zm.015.07c.013.019.017.018.034-.01s.02-.026.024-.013.034.015.031-.008.013-.021.049-.031.049-.008.031.027a.193.193 0 0 1-.116.1c-.026.007-.027 0-.006-.027s.019-.032-.025-.011-.051.019-.045.005 0-.016-.016-.013-.02 0-.017-.012a.029.029 0 0 1 .057.003zm-.084.068c.017 0 .012.007-.013.03-.009.007-.013.005-.009-.006a.045.045 0 0 1 .023-.014zm.011.158c.016-.017.018-.023.006-.02s0-.034.035-.049a.217.217 0 0 1 .11-.031c.007 0 0 .013-.028.04s-.036.035-.014.04-.012.071-.054.081a.1.1 0 0 0-.047.031c-.011.016-.025.013-.036-.01a.09.09 0 0 0-.039-.039c-.012 0-.012-.015 0-.027s.023-.015.031-.006.02.017.036 0zm-.122-.3l.053-.03a.014.014 0 0 1 .013.008c.005.008-.011.016-.053.03s-.053.022-.012-.001zm-.016.036c.031-.01.044-.008.032.005a.174.174 0 0 1-.066.037c-.025.009-.039.005-.032 0a.157.157 0 0 1 .068-.035zm-.1.034c.011-.005.013 0 .005.006s-.017.011-.019.008.009-.003.016-.007zm-.017.119a.044.044 0 0 0 .049.011c.035-.011.035-.011.035-.037a.055.055 0 0 1 .024-.048c.037-.033.046-.032.035.006s0 .03.036.012.041-.013.032 0a.22.22 0 0 1-.118.083.54.54 0 0 0-.128.056c-.066.037-.089.044-.093.034s0-.018.022-.026.023-.01.022-.022-.012-.006-.025 0a.117.117 0 0 1-.046.025.149.149 0 0 0-.04.006l-.021.005.052-.051a.205.205 0 0 1 .1-.066.071.071 0 0 1 .069.02zm-.234.087a.1.1 0 0 1 .038-.029c.017-.006.014 0-.007.018s-.051.047-.026.018zm-.01-.049c.1-.075.206-.121.17-.075s-.1.082-.089.056 0-.008-.03.017-.039.033-.034.025 0 0-.014.008a.112.112 0 0 1-.058.028h-.033zm-.307.31c.046-.047.065-.069.066-.078s.015-.02.04-.037a.3.3 0 0 1 .085-.031.348.348 0 0 0 .07-.017c.036-.015.066.009.045.033s-.007.017.015.007.03-.007.018.01-.007.02.032 0 .048-.017.041 0 0 .015.025-.006c.05-.042.066-.043.054 0s.012.043.033-.018.018-.049.042-.056a.109.109 0 0 0 .044-.03c.022-.025.092-.049.079-.028a.27.27 0 0 1-.038.042c-.027.025-.033.037-.055.1-.016.048-.016.074 0 .073a.048.048 0 0 1 .039.018l.018.021-.039.012c-.02.007-.034.016-.031.021.025.032-.094.082-.134.056-.014-.008-.031 0-.053.015-.057.047-.236.109-.228.08 0-.013-.008-.021-.027-.016a.043.043 0 0 1-.042-.012l-.009-.02.054-.03a.3.3 0 0 1 .089-.031.081.081 0 0 0 .049-.02c.007-.011-.032-.005-.082.009s-.089.02-.084.008a.073.073 0 0 1 .04-.031c.035-.012.033-.017 0-.022h-.026l.054-.049.054-.049-.032.02a.5.5 0 0 0-.117.092c-.026.039-.1.068-.123.048l-.021-.018zm-2.46 4.233a.1.1 0 0 1-.019.034c-.007.006 0-.008 0-.035s.017-.041.02-.037a.092.092 0 0 1 .004.046zm1.06 2c-.006 0-.013-.022-.016-.044s0-.033.008-.023a.113.113 0 0 1 .015.044c.007.024.003.034-.002.033zm1.936 4.477c0 .031 0 .054-.016.051a.022.022 0 0 1-.02-.022c0-.009-.012-.014-.03-.012a.05.05 0 0 1-.049-.018c-.011-.013-.013-.023 0-.021s-.01-.038-.042-.088c-.041-.07-.063-.093-.083-.094s-.022-.005-.016-.013.006-.1-.009-.1-.014.012-.018.03-.009.025-.02-.027a.149.149 0 0 0-.036-.079c-.013-.01-.022-.026-.019-.031s.02.007.04.028.034.036.034.033c-.024-.123-.043-.151-.107-.156-.012 0-.012-.01 0-.026a.044.044 0 0 1 .055-.008c.026.015.031 0 .023-.047l-.012-.086c-.017-.119-.032-.175-.053-.179s-.017.018-.01.051 0 .058-.006.06-.019 0-.019-.031a1.009 1.009 0 0 0-.018-.119.286.286 0 0 1-.01-.1.211.211 0 0 0-.02-.093.329.329 0 0 1-.02-.175.819.819 0 0 0-.027-.355c-.019-.053-.025-.093-.017-.1s.006-.027 0-.046a.559.559 0 0 1-.018-.142 4.27 4.27 0 0 0-.081-.583.53.53 0 0 0-.216-.371c-.112-.094-.213-.219-.209-.26a.644.644 0 0 0-.058-.151c-.033-.065-.092-.2-.133-.3a1.6 1.6 0 0 0-.116-.246.308.308 0 0 1-.05-.29c.032-.042.03-.108 0-.108-.014 0-.028-.027-.034-.058-.015-.074.011-.289.035-.285s.019-.028.018-.068a.111.111 0 0 1 .019-.068c.05-.02.08-.357.084-.47a.49.49 0 0 0-.008-.128c-.013-.026-.086.054-.09.1s-.037.042-.062-.014a.111.111 0 0 0-.046-.057c-.044-.017-.045-.018-.033-.055a.085.085 0 0 0-.052-.1c-.007 0 0-.029.006-.062a.333.333 0 0 0 0-.133.3.3 0 0 1-.006-.1c0-.01 0-.021-.019-.023a.234.234 0 0 1-.153-.172c-.02-.119-.035-.135-.089-.1s-.053.027-.111-.045a.519.519 0 0 1-.072-.109.214.214 0 0 0-.031-.051.363.363 0 0 1-.047-.176.225.225 0 0 1 .029-.068.594.594 0 0 0 .047-.322.963.963 0 0 1 0-.144.783.783 0 0 0 .006-.138.928.928 0 0 1 .026-.212c.017-.061.02-.1.008-.116s-.017-.024-.048.055a.4.4 0 0 0-.028.1 1.282 1.282 0 0 1-.014.134 1.028 1.028 0 0 0-.013.122c0 .007-.012.056-.026.107a.234.234 0 0 0-.014.108c.013.011 0 .077-.015.1s-.024-.152-.007-.193a.163.163 0 0 0 .011-.083c-.03-.123-.027-.113 0-.144s.03-.036.028-.091a1.1 1.1 0 0 1 .037-.209c.044-.163.045-.21.01-.23a.026.026 0 0 1-.014-.033.8.8 0 0 0 .028-.117.476.476 0 0 1 .044-.135c.014-.021.017-.031.006-.021s-.006-.061.02-.11a.135.135 0 0 0 .016-.044 3.363 3.363 0 0 1 .227-.427 1.046 1.046 0 0 0 .107-.2c.019-.056.02-.058.03-.048.033.033.042.032.059-.008.026-.059.03-.091.014-.105a.024.024 0 0 1 0-.031c.007-.011.008-.02 0-.019s-.033.057-.029.1a.055.055 0 0 1-.013.051c-.021.016-.053-.131-.035-.16.007-.011.014-.017.017-.011.015.028.026.03.039.009s0-.023-.007-.021-.013-.018.011-.049a.476.476 0 0 0 .024-.053c.013-.03.012-.042 0-.031s-.014 0 .017-.039.034-.05.012-.026c-.054.057-.053.04 0-.041.03-.047.043-.07.034-.065s-.008-.076.011-.095.006-.015 0-.012-.021.006-.032.045c-.007.022-.007.035 0 .028s0 .01-.014.031-.026.04-.025.021a.3.3 0 0 1 .026-.073c.013-.027.015-.04.007-.033s-.01 0 0-.007a.069.069 0 0 1 .029-.027c.015 0 .055-.07.049-.082s-.011.007-.021.027a.09.09 0 0 1-.026.036v-.019l.026-.043a.2.2 0 0 0 .018-.044c.006-.019 0-.019 0 0s-.016.027-.023.029a.021.021 0 0 0-.014.018.582.582 0 0 1-.064.128c-.013 0 .03-.1.063-.145.02-.028.025-.037.013-.023-.029.038-.046.04-.048.011s.026-.081.011-.08c-.031 0-.021-.017-.024-.026-.008-.025-.017-.018-.036.018s-.022.031-.034.035a.294.294 0 0 0-.057.042c-.045.042-.084.06-.044.022.018-.017.022-.023.015-.021s.065-.08.092-.1.019-.014.006-.011a.5.5 0 0 0-.116.1.164.164 0 0 1-.037.032c-.03.021-.06.061-.042.055s.008 0-.021.029-.053.048-.078.068a.378.378 0 0 0-.055.052.058.058 0 0 1-.022.02.379.379 0 0 0-.059.05.62.62 0 0 1-.087.07.4.4 0 0 0-.042.031l.018-.03c.015-.013.026-.02.024-.015s.006 0 .016-.01.043-.044.077-.075a1.084 1.084 0 0 0 .1-.1c.037-.047.039-.051.02-.042a.1.1 0 0 0-.032.025c-.006.008-.01.008-.009 0s-.011-.009-.028 0-.026.014 0-.025.023-.037.014-.034c.053-.078.107-.155.163-.231a.33.33 0 0 0 .07-.057l.032-.044c.019-.025.018-.027 0-.01l-.029.02.074-.1a.056.056 0 0 0 .028-.018c.024-.032.042-.063.026-.045a.035.035 0 0 1-.013.01c.063-.078.126-.155.191-.23l.09-.065c.016-.011.038-.026.053-.038s.028-.019.029-.016l.03-.006a.2.2 0 0 1 .043-.006.128.128 0 0 0 .046-.007c.11-.036.065.007.115.019.024.007.037 0 .066-.023a.7.7 0 0 1 .2-.1.277.277 0 0 0 .076-.046c.024-.023.028-.022.024.005s.005.038.044 0c.019-.018.024-.02.02 0s.013.011.042 0a.1.1 0 0 1 .084-.007.193.193 0 0 0 .086.007c.047-.012.079.01.036.023a.133.133 0 0 0-.044.032c-.014.016.006.016.071 0 .109-.029.154-.021.125.024-.011.018-.013.025 0 .018a.214.214 0 0 0 .039-.055.117.117 0 0 1 .067-.061c.025-.013.047-.027.048-.033s-.021 0-.053.021-.049.02-.047.012c.013-.035.108-.063.118-.033s.177.028.225-.02.05-.065.02-.059-.013 0 .031-.037.084-.039.087.008c0 .027 0 .027-.019.033a.122.122 0 0 1-.037.007c-.008 0-.012.008-.009.023a.074.074 0 0 1-.014.051c-.01.014-.013.03-.005.035s.019 0 .034-.032a.111.111 0 0 1 .059-.06c.046-.022.089-.066.062-.061-.01 0-.007-.009 0-.02s.017-.023.013-.024c-.048 0-.059-.025-.032-.071a.213.213 0 0 1 .065-.07.18.18 0 0 0 .08-.111.112.112 0 0 1 .043-.065c.027-.022.208-.068.2-.05a.427.427 0 0 1-.146.1c-.009-.006-.033.01-.064.041s-.045.049-.037.047.026.1.006.113-.041.051-.013.046.023.009.007.04c-.025.053-.021.055.034 0 .035-.034.043-.035.055-.017s.008.028-.016.048-.028.029-.025.054.028.026.052-.024c.012-.025.022-.035.028-.027s.033-.013.061-.04.046-.051.039-.05.008-.039.037-.053c.013-.006-.009-.013-.046-.018-.053 0-.07-.017-.069-.052s0-.047.055-.107a.308.308 0 0 1 .183-.121c.048-.008.048-.006.008.024a.2.2 0 0 0-.049.046l-.026.046a.054.054 0 0 0-.005.052c.016.028.019.028.036 0 .008-.013.006-.022 0-.02s-.006-.017.005-.041a.222.222 0 0 1 .156-.118c.055-.019.071-.019.065 0s0 .021.009 0a.092.092 0 0 1 .071-.035c.061-.009.108.02.08.053-.01.012-.007.02.007.018s.031.022.038.051.026.045.042.03.086 0 .07.03c-.006.012 0 .017.018.016.048 0 .054 0 .035.025s-.008.021.016.01.036-.008.033.006a.039.039 0 0 1-.033.03c-.024 0-.026.009 0 .02s.021.017 0 .021c-.081.014-.059.086.035.1.024.005.041.02.039.035s.017.03.042.035l.048.012-.06.058c-.034.033-.065.053-.067.046s-.012 0-.021.023c-.019.042-.059.034-.068-.012-.019-.074-.033-.084-.076-.049s-.041.037-.03.074c.007.021.02.036.03.035s.018.023.019.054a.114.114 0 0 1-.035.1c-.031.038-.037.035-.081 0-.057-.056-.082-.036-.035.026.034.046.03.111 0 .087a.439.439 0 0 0-.055-.023.078.078 0 0 1-.04-.039c0-.012-.013-.016-.026-.005s-.057-.031-.034-.061c.009-.01.006-.019-.006-.018s-.024-.014-.027-.031-.035-.025-.107-.011-.1.009-.09 0c.023-.043.078-.084.1-.073a.123.123 0 0 0 .074-.01c.04-.013.052-.023.055-.046s.013-.035.039-.049c.1-.055.13-.141.066-.179-.024-.011-.037-.031-.031-.043s0-.015-.022-.008-.029.008-.021 0a.05.05 0 0 0 0-.051c-.024-.038-.029-.039-.043 0-.008.023-.035.032-.12.039a.392.392 0 0 0-.1.014l.039.028c.018.012.023.036.014.049s-.025.025-.029.021-.033.036-.026.068l.006.032-.04.031a.305.305 0 0 1-.078.04.06.06 0 0 0-.049.04c-.008.023-.012.026-.012.008a.049.049 0 0 0-.04-.03h-.031c.003 0-.176.2-.212.208a.176.176 0 0 0-.111.082.035.035 0 0 1-.03.023.669.669 0 0 0-.219.189c-.095.115-.117.157-.087.171s.019.034.008.068c-.017.052-.01.058.04.057a.082.082 0 0 1 .081.046c.011.027.032.049.045.048a.016.016 0 0 1 .018.023c0 .012.024.021.061.019.069 0 .069 0-.016.164a.214.214 0 0 0-.005.105c.009.066.015.074.054.049s.063-.058.105-.19l.028-.092.08-.053a.419.419 0 0 0 .106-.091.234.234 0 0 0 .052-.181c-.017-.025-.017-.027.028-.075a.4.4 0 0 0 .086-.152.7.7 0 0 1 .057-.123.063.063 0 0 1 .058-.007.268.268 0 0 0 .086.007c.047-.008.091.033.076.066-.005.01.009.023.031.032.039.012.038.017 0 .1s-.04.092-.017.081a.023.023 0 0 1 .033.018c.008.044.082.006.164-.086l.07-.079c0 .057 0 .086.008.143a.555.555 0 0 1-.007.184.08.08 0 0 0-.005.066.123.123 0 0 1 .016.051c0 .013.013.025.029.03a.08.08 0 0 1 .032.01c0 .008.019.018.039.022s.01.008-.011.023-.014.034.015.057.038.044.014.107a.14.14 0 0 1-.1.1.649.649 0 0 0-.144.081c-.06.044-.087.049-.206.037s-.145 0-.186.028-.077.055-.11.076a1.039 1.039 0 0 0-.137.126c-.062.068-.066.076-.022.034a.481.481 0 0 1 .266-.153c.056 0 .069.007.056.036a.114.114 0 0 1-.066.055c-.038.013-.043.019-.019.021s.024.018.008.055a.094.094 0 0 0 .059.14c.036.006.061-.007.107-.06s.056-.058.042-.021-.01.048 0 .048.007.008-.015.027-.031.013-.029-.008 0-.024-.013 0a.373.373 0 0 1-.177.118.366.366 0 0 0-.089.055c-.033.026-.063.039-.067.029s.018-.093.036-.093a.191.191 0 0 0 .058-.042c.043-.04.041-.04-.006-.024l-.067.024a.463.463 0 0 0-.057.031c-.022.016-.073.042-.113.063a.281.281 0 0 0-.161.2c0 .027-.014.037-.08.053s-.077.026-.07.039 0 .024-.028.024-.046.015-.074.065-.046.066-.064.065-.029.013-.035.037a.3.3 0 0 1-.044.087c-.03.042-.031.036-.006-.04.019-.061.021-.076 0-.053a.447.447 0 0 0-.065.189.114.114 0 0 1-.028.061c-.023.023-.026.034-.015.034s.007.014 0 .027-.023.018-.028.01-.012 0-.017.024-.018.045-.036.044a.111.111 0 0 0-.059.038.129.129 0 0 1-.049.039.236.236 0 0 0-.077.064.252.252 0 0 1-.075.064.462.462 0 0 0-.114.158.732.732 0 0 0-.027.111 1.116 1.116 0 0 1-.085.322c-.02.037-.041.065-.049.064s-.028-.068-.017-.095a.405.405 0 0 0 .006-.082.251.251 0 0 1 .026-.111c.038-.07.018-.174-.026-.144-.025.017-.038.014-.043-.01s-.043-.038-.086-.04c-.072 0-.076 0-.1.057s-.021.057-.06.034a.164.164 0 0 0-.2.006.151.151 0 0 1-.061.042c-.031 0-.107.111-.137.2a.278.278 0 0 1-.04.088.858.858 0 0 0-.082.17.774.774 0 0 0-.074.286c-.015.153.013.205.089.173.027-.01.053-.013.056-.005.01.024.085-.063.108-.124a.164.164 0 0 1 .15-.125c.074-.01.077.007.02.094a1.182 1.182 0 0 0-.064.113c-.018.038-.036.065-.039.057s-.021.027-.041.077a.657.657 0 0 1-.061.123c-.031.039-.034.038.094.047.07 0 .092.017.1.055s0 .065-.063.221-.071.176-.067.243a.322.322 0 0 0 .028.112c.019.035.03.036.082 0s.1-.024.123.059c.015.053.014.053.079-.021a.519.519 0 0 0 .075-.114c.007-.021.02-.038.027-.037h.03a.052.052 0 0 0 .033-.02.052.052 0 0 1 .038-.014.211.211 0 0 0 .084-.047c.071-.057.085-.044.032.031-.042.058-.041.107 0 .063a.081.081 0 0 1 .056-.026c.014 0 .03-.013.032-.032s.006-.024.006-.013a.024.024 0 0 0 .021.024c.013 0 .029.028.034.061s.029.055.064.051a.086.086 0 0 1 .069.025c.011.023.041.024.1 0s.081-.024.083.015a.084.084 0 0 0 .04.065c.029.017.034.035.014.074s-.019.053.019.058.06.049.09.133c.045.119.055.129.17.154s.127.043.17.127a1.525 1.525 0 0 1 .081.194.438.438 0 0 0 .061.13c.035.036.034.048 0 .117a.26.26 0 0 0-.036.135c.008.049.011.046.036-.015s.041-.066.078-.05c.072.026.088.073.044.13-.02.026-.031.058-.022.07s.034-.012.056-.055l.038-.077.117.07c.094.056.121.085.125.13s.012.054.05.036a.085.085 0 0 1 .087.013.329.329 0 0 0 .13.042c.073.008.115.035.215.134a.515.515 0 0 0 .174.128c.041 0 .056.028.084.117a.555.555 0 0 1 .027.179 1.433 1.433 0 0 1-.21.392c-.025.038-.029.086-.014.2a1.2 1.2 0 0 1 0 .244.28.28 0 0 0-.005.1.236.236 0 0 1-.026.1.411.411 0 0 0-.029.108c.006.041-.065.091-.122.086a.485.485 0 0 0-.291.148.282.282 0 0 0-.008.146.274.274 0 0 1-.02.174l-.052.107c-.009.02-.013.027-.008.012a.049.049 0 0 0-.006-.045c-.018-.02-.046.044-.059.138a.342.342 0 0 1-.048.131c-.037.05-.049.052-.135.028a.353.353 0 0 1-.124-.058c-.02-.02-.028-.021-.024-.006a.134.134 0 0 0 .045.054.151.151 0 0 1 .049.071c.006.024.019.045.028.046.03 0 .031.055 0 .109s-.088.069-.2.054c-.045-.008-.059 0-.047.018a.218.218 0 0 1 .013.082c0 .051-.006.052-.076.027s-.075-.024-.05.025a.258.258 0 0 0 .045.067c.016.015.016.019 0 .017s-.017 0-.013.014a.436.436 0 0 1 .005.124.043.043 0 0 1-.037.033c-.071.01-.031.132.047.146a.051.051 0 0 1 .008.1.08.08 0 0 0-.032.067c0 .025-.009.045-.021.042-.034-.007-.031.022 0 .085.027.047.029.055.006.053s-.015 0 .015.021a.131.131 0 0 1 .047.048.417.417 0 0 0 .169.13c.058.011.036.04-.03.037a.142.142 0 0 1-.091-.03c-.024-.022-.026-.022-.01 0s.007.024-.02.018-.039-.016-.038-.027-.017-.023-.046-.029-.046-.016-.043-.022a.015.015 0 0 1 .017-.011c.007 0 .017-.011.025-.029s.012-.029-.012-.035-.023-.01-.016-.032 0-.028-.016-.032-.061.006-.058.041zm-1.845-9.306c-.035.021-.017-.013.021-.037a.215.215 0 0 0 .044-.04.062.062 0 0 1 .025-.023c.01 0 .008 0-.013.02s-.021.023-.017.022-.029.052-.055.069zm.249.138a.051.051 0 0 1 .03-.022c.013 0 .01.009-.015.051a.624.624 0 0 1-.036.056.213.213 0 0 1 .026-.074zm2.758-1.466c-.031.056-.059.079-.1.083s0-.073.066-.1l.054-.023c.003-.002-.002.029-.015.05zm.034.008c.017 0 .02 0 .009.01a.033.033 0 0 1-.029 0c0 .007.009.001.025 0zm-.118-.091a.145.145 0 0 1-.046.038c-.007 0 .007-.016.029-.036.059-.037.065-.038.022.008zm-.233.5c-.008.008-.02.011-.025 0s0-.014.015-.015.023.013.016.02zm-.176-.022c-.02-.018-.034-.014-.086.025s-.06.04-.062.018-.016-.02-.036-.009-.03.015 0-.018a.6.6 0 0 0 .079-.1.287.287 0 0 1 .065-.073l.031-.017a.123.123 0 0 1-.013.023c-.01.014-.013.03 0 .031.043.012.081.05.071.069s0 .023.011.021.018.007.011.021c-.014.041-.037.043-.066.015zm.048.111c.01 0 .009.008 0 .024a.077.077 0 0 1-.038.026c-.01 0-.008-.011 0-.023a.072.072 0 0 1 .043-.021zm-.1-.014a.085.085 0 0 1-.049.027c-.016 0-.021-.007-.01-.022a.081.081 0 0 1 .049-.027c.027.005.027.014.019.028zm-.144.535a.129.129 0 0 1-.03.026c-.014.008-.02 0-.014-.009a.046.046 0 0 1 .031-.026c.019.006.025.01.022.015zm-.231.295c-.006.012-.017.018-.024.011s-.009-.019-.006-.024a.032.032 0 0 1 .023-.011c.02.005.023.015.016.03zm1.127.522c-.013.019-.033.027-.044.015s-.016-.022.025-.067.07-.066.041-.026c-.012.013-.014.029-.007.035s.009.031-.006.048zm.029-.182c-.025.046-.028.056-.007.041s-.01.018-.056.063c-.085.082-.138.11-.083.047.025-.029.007-.032-.085-.028-.068 0-.111 0-.1-.02s.018-.027.026-.027.022-.018.031-.039.022-.04.029-.04.027-.021.044-.05a.9.9 0 0 1 .092-.118c.073-.079.142-.1.073-.023s-.1.124-.069.1c.013-.011.027 0 .03.021s.025.035.061.025.05-.001.023.054zm-.451-.018a.1.1 0 0 1-.039-.039c-.006-.042.052-.026.065.015s.016.046-.018.029zm-.131.277c-.017 0-.035-.016-.041-.04s-.006-.032 0-.024a.2.2 0 0 0 .041.04c.034.024.035.027.008.03zm-1.1 3.388c0 .014-.015.026-.025.025s-.013-.015-.009-.029.016-.026.024-.025.028.019.022.035zm-.054-.754a.048.048 0 0 1-.049.023c-.022 0-.035-.017-.031-.03a.046.046 0 0 1 .049-.023c.035.007.049.024.044.035zm-.547-.292c-.017 0-.027-.021-.024-.042s-.009-.041-.026-.042a.032.032 0 0 1-.031-.03c0-.016-.014-.028-.033-.029a.023.023 0 0 1-.023-.029c.012-.031-.032-.037-.06-.007a.228.228 0 0 1-.062.039c-.036.016-.037.013-.007-.025a.256.256 0 0 1 .085-.061c.085-.031.122-.006.257.172a.706.706 0 0 0 .066.076c.038.033-.015.07-.087.064s-.066-.014-.049-.045.028-.034.007-.036zm-.029.241c.009.02 0 .027-.034.024s-.045-.018-.044-.031c.013-.03.074-.025.09.012zm.138-.611c.006-.016.017-.026.024-.026s.01.012 0 .027-.015.026-.024.025.01-.008.01-.021zm.034.594c.043.018.073-.029.061-.09s.132-.025.178.039a.169.169 0 0 1 .034.069.374.374 0 0 1-.072.01.232.232 0 0 0-.084.017c-.029.019-.171-.021-.163-.042s.037-.008.058.002zm2.089 7.265c0 .008 0 .014-.015.012s-.02-.008-.01-.018.03-.009.037.011zm-.186.34a.1.1 0 0 0-.065-.017.065.065 0 0 1-.062-.02c-.014-.016-.016-.021 0-.019a.164.164 0 0 0 .036.005l.061.005c.05.006.058-.006.012-.02-.024-.008-.031-.014-.023-.02s0-.026-.01-.045-.014-.037 0-.038c.034-.005.049 0 .117.082.119.132.116.17-.009.14-.073-.016-.079-.021-.039-.029.016.001.015-.001-.006-.019zm-.15-.1c.058.018.057.025 0 .018-.026 0-.045-.012-.044-.019s.031-.005.056.002zm-.029-.051c.012 0 .021.01.018.013s-.011 0-.021-.005.002-.011.015-.007zm.2-.089c.007-.019.023-.018.031.006a.025.025 0 0 1-.01.027c-.007.014-.021-.006-.01-.036zm-.23.222c0 .007-.009.011-.021.008a.084.084 0 0 1-.035-.026c-.009-.011 0-.014.021-.007s.046.018.045.026zm-.335-1.39c-.031.008-.033.006-.024-.022a.041.041 0 0 1 .044-.023c.052.01.04.035-.01.046zm-.067-.022c-.019.014-.023.011-.025-.014s.009-.027.022-.025c.042.006.041.02.013.04zm-.107 1.239v.012a.043.043 0 0 1-.018-.02v-.012a.037.037 0 0 1 .028.021zm-.289-1.962c0 .01 0 .02-.01.018a.039.039 0 0 1-.022-.024c0-.013 0-.02.01-.018a.031.031 0 0 1 .032.025zm.042 1.858l-.081-.028a.045.045 0 0 1-.027-.018.085.085 0 0 0-.036-.029c-.019-.01.008 0 .063.021.119.042.187.089.092.055zm1.265.759a.132.132 0 0 1-.048.006l-.055-.025c0-.008.023-.012.047-.012.087.004.113.018.067.032zm.19-.251c-.022-.009-.039-.011-.035 0a.038.038 0 0 0 .024.019c.012 0 .012.017 0 .039s-.026.026-.035.019-.02-.006-.02.008-.033.019-.088.013-.1-.009-.126-.009a.561.561 0 0 1-.253-.086.242.242 0 0 0-.093-.04c-.015.013.088.089.167.124.043.018.062.032.055.039a.984.984 0 0 1-.257-.1c-.035-.018-.047-.019-.036-.005a.172.172 0 0 0 .067.039.256.256 0 0 1 .077.041c.008.008 0 .007-.017 0a7.6 7.6 0 0 1-.93-.534.116.116 0 0 0-.023-.018.115.115 0 0 1-.03-.024.343.343 0 0 0-.042-.036c-.013-.009 0 0 .032.012s.051.02.047.011a.191.191 0 0 0-.067-.038.149.149 0 0 1-.068-.041c-.006-.011 0-.009.029.005a1.908 1.908 0 0 0 .463.186.058.058 0 0 1 .045.014.2.2 0 0 0 .063.032.173.173 0 0 1 .062.028.416.416 0 0 0 .091.051c.068.032.082.034.088.016s.017-.014.041 0a.492.492 0 0 0 .064.033l.078.04c.032.017.044.02.039.007a.053.053 0 0 0-.022-.025c-.008 0-.006-.009 0-.016s.024 0 .045.024.037.037.142.054.151.011.139-.017a.6.6 0 0 0-.047-.069c-.1-.131-.093-.124-.055-.113s.031 0 .019-.04-.018-.05-.028-.046-.015 0-.019-.016.013-.031.039-.046a.2.2 0 0 0 .058-.04.394.394 0 0 1 .147-.047.067.067 0 0 0 .04-.012.058.058 0 0 1 .042 0l.039.011-.034.006c-.019 0-.032.014-.03.023s-.007.014-.023.01c-.044-.01-.1.02-.1.055 0 .018-.01.025-.024.017s-.039 0-.072.042a.129.129 0 0 0 .019.042c.015.026.029.038.046.039s.13.094.128.115.013.023.029.032a.069.069 0 0 1 .039.055c.006.022.016.041.023.043a.01.01 0 0 1 .008.013c0 .006.016.024.038.041l.041.031zm-.053-.505c0 .008 0 .015-.013.013a.043.043 0 0 1-.024-.021c0-.011 0-.015.013-.013a.035.035 0 0 1 .035.023zm.16.9h.007s.034-.01.052.011a.031.031 0 0 1 .008.017zm.191-12.4c-.026-.11-.026-.112.019-.166s.045-.052 0-.025-.062.038-.046-.005a.186.186 0 0 0 0-.091c-.012-.034-.01-.056.005-.064s.02-.021.011-.042 0-.036.048-.085a.217.217 0 0 1 .086-.059c.018 0 .044-.027.069-.067s.036-.06.01-.034-.026.018-.024.006-.012-.03-.034-.036c-.038-.012-.038-.012-.021.018l.018.032-.037.017c-.051.023-.087 0-.07-.04.008-.019.02-.035.028-.035s.014-.01.015-.022a.057.057 0 0 1 .028-.037c.013-.008.017-.006.007.008s0 .024.027.022a.105.105 0 0 1 .059.01c.031.029.03-.033 0-.069a.082.082 0 0 0-.092-.017c-.063.019-.065 0-.008-.062.025-.025.029-.045.019-.119-.006-.048-.019-.087-.027-.086s-.018-.012-.02-.027c0-.055-.106-.072-.254-.042-.1.022-.146.025-.155.009a.084.084 0 0 0-.037-.034c-.022-.009-.016-.012.036-.022a.127.127 0 0 0 .073-.036c.005-.011 0-.017-.007-.007s-.141-.008-.13-.03.052-.034.222-.09c.095-.03.128-.047.14-.072s-.011-.019-.037-.015-.039 0-.029-.012a.6.6 0 0 1 .223-.1c.038-.006.059-.017.066-.037.015-.039.3-.115.311-.081.007.018.016.02.028 0a.032.032 0 0 1 .049-.008c.046.026.064.021.063-.018s.016-.047.128-.014.105.03.107 0c0-.013.008-.023.016-.024.027 0 .01-.03-.026-.044s.023-.018.12-.02a.433.433 0 0 0 .164-.024.143.143 0 0 1 .09-.033 1.186 1.186 0 0 1 .458.008.233.233 0 0 0 .094.022c.037 0 .054.009.046.023a.1.1 0 0 1-.073.024c-.033 0-.065.01-.073.024s.017.019.068.009c.074-.013.078-.01.049.023a.116.116 0 0 1-.045.038.008.008 0 0 0-.008.012c0 .007.032 0 .066-.019a.149.149 0 0 1 .1-.021.21.21 0 0 0 .1-.016.21.21 0 0 1 .141-.009l.08.022-.08.029a.524.524 0 0 0-.179.1.106.106 0 0 1-.057.021.059.059 0 0 0-.046.036c-.008.02-.023.037-.034.036s-.035.021-.057.051l-.038.051.032-.017c.02-.01.033 0 .037.013a.046.046 0 0 0 .046.03c.048 0 .054.021.021.064-.015.019-.023.022-.02 0s-.02-.023-.059-.022c-.006.009-.014.015-.019.015s-.008-.006-.009-.013c-.067.007-.079.042-.006.043a.077.077 0 0 1 .06.085c0 .007-.018.015-.037.014-.051 0-.051.049 0 .052h.043l-.043.017c-.025.007-.045.024-.045.039 0 .04-.1.061-.141.033-.021-.015-.044-.023-.05-.016s.011.028.039.046c.048.028.058.058.031.081s-.095-.034-.089-.059 0-.025-.016-.025c-.04 0-.011.072.037.09a.153.153 0 0 1 .078.132c-.006.028-.119.014-.124-.017a.076.076 0 0 0-.033-.043c-.024-.016-.031-.01-.031.02a.047.047 0 0 1-.034.05c-.02.007-.012.012.021.018a.254.254 0 0 1 .088.023c.027.016.016.026-.081.073-.159.075-.343.116-.371.081s-.023-.021-.025.013a1.482 1.482 0 0 1-.3.042c-.009 0 .238.024.2.058a.367.367 0 0 1-.126.08.428.428 0 0 0-.1.045c-.03.023-.031.018-.011-.02s.02-.043-.014 0a.269.269 0 0 1-.106.061c-.055.016-.066.024-.061.055s0 .035-.022.038-.023.008-.014.016c.024.02 0 .051-.064.1-.037.026-.066.058-.064.071a.4.4 0 0 1-.055.114c-.043.068-.063.086-.1.087s-.037-.012-.032-.025a.015.015 0 0 0-.015-.02c-.011 0-.018-.01-.013-.023s-.011-.015-.034-.007c-.044.022-.074-.008-.101-.128zm.524 12.607h-.069c-.1-.028-.209-.058-.312-.091h.032c.043 0 .062-.012.068-.038a.059.059 0 0 1 .048-.041c.07-.008.193.036.2.072a.175.175 0 0 0 .031.052c.035.03.035.033.013.044zm.033-1.983c-.039-.029-.039-.031 0-.016a.141.141 0 0 1 .056.031c.034.028.002.02-.045-.017zm1.906 2.251a7.708 7.708 0 0 1-1.352-.121.051.051 0 0 0 .031-.014.085.085 0 0 0-.038-.021l-.037-.009.027-.019c.026-.018.024-.018-.042-.022a.407.407 0 0 0-.083 0 .541.541 0 0 1-.16-.076c.018-.077.461-.084.6-.065.042.006.073 0 .073-.009s.034-.034.075-.052c.064-.029.068-.034.026-.028s-.048 0-.046-.018.02-.024.041-.025a.073.073 0 0 0 .048-.018.033.033 0 0 1 .028-.013.124.124 0 0 0 .051-.012c.028-.015.028-.017.005-.045s-.023-.029 0-.018a.07.07 0 0 0 .061 0c.033-.014.041-.012.062.017s.026.033.055 0 .08-.047.069-.015c0 .008.046.023.111.031a.409.409 0 0 0 .228-.021 1.026 1.026 0 0 1 .332.006.045.045 0 0 0 .051 0 .955.955 0 0 1 .343 0 .907.907 0 0 0 .259-.016.459.459 0 0 0 .247-.091c.021-.018.031-.015.056.016s.039.031.053.024.025 0 .024.005.054.006.081-.025a.463.463 0 0 1 .177-.082.49.49 0 0 0 .077-.029.19.19 0 0 1 .083-.014c.031 0 .04 0 .041-.015s.009-.018.037-.016.036 0 .04-.018c.011-.047.189-.091.227-.058a.06.06 0 0 1 .018.029 1.03 1.03 0 0 0 .306.011c.059 0 .1 0 .095.01a.294.294 0 0 1-.1.1.063.063 0 0 0-.029.018c-.018.02 0 .032.028.015s.019-.011-.006.016a.142.142 0 0 1-.04.032c-.024 0-.05.053-.032.058s.1-.038.142-.088c.021-.024.039-.04.039-.036s.013 0 .028-.017a.508.508 0 0 1 .1-.056.887.887 0 0 0 .14-.079.4.4 0 0 1 .089-.054.172.172 0 0 0 .054-.028.671.671 0 0 1 .18-.064.174.174 0 0 0 .056-.037.1.1 0 0 1 .029-.022.24.24 0 0 1 .153-.031c.088 0 .1-.006.127-.03s.107-.067.114-.051.055.02.1.006a1.159 1.159 0 0 0 .221-.091c.008-.007.017-.005.018 0s.036.01.069-.023a.212.212 0 0 1 .081-.046c.048-.017.055-.023.073-.05a.1.1 0 0 1 .031-.034c.008 0 .005 0-.012.027s-.02.03-.009.027c.027-.007.045-.011.082-.018a.624.624 0 0 0 .114-.03c.009-.005.01 0 0 .007s.018.021.058.011h.014.021a.122.122 0 0 0 .034-.023c.012-.017.025-.02.016-.005s.008.007.025 0a.073.073 0 0 1 .045-.008c.01.008.026.005.074-.017a7.621 7.621 0 0 1-4.496 1.455zm-1.1-.445v-.017s.01.008.016.02 0 .018 0 .018a.024.024 0 0 1-.001-.023zm.694-.164c0-.014.01-.026.01-.026l.011.028c.005.015 0 .027-.011.026s.001-.014.004-.03zm2.937-4.62a.225.225 0 0 1 .151-.253.3.3 0 0 0 .113-.087.788.788 0 0 1 .079-.1.176.176 0 0 0 .044-.079.129.129 0 0 1 .022-.054.075.075 0 0 1 .02-.019.489.489 0 0 1 .036.218c0 .077-.006.088-.03.077s-.027 0-.024.035a.138.138 0 0 1-.016.075.443.443 0 0 0-.03.065 2.839 2.839 0 0 1-.255.592.287.287 0 0 1-.085.037c-.09.028-.13-.02-.125-.163a.25.25 0 0 1 .057-.178.186.186 0 0 0 .057-.168zm.693 2.56c.028 0 .031.009.015.023-.037.033-.074.035-.063 0s.036-.028.062-.026zm-.006-2.438c0-.014.008-.023.011-.023s.012.007.014.02a.018.018 0 0 1-.012.024c.005-.002-.001-.012.002-.024zm.116-2.98c.034 0 .043.016.02.041-.008.008-.022 0-.033-.013s.011-.031.027-.031zm.7 6.108c-.006 0 0-.01.012-.014s.016 0 .009.005-.005.009-.009.006zm1.034-5.568c-.024.027-.034.025-.053 0a.875.875 0 0 1-.061-.259c0-.062.016-.049.074.054.081.117.094.164.051.202zm.509-1.013l-.016.063c-.016.063-.03.071-.069.048-.016-.01-.023-.027-.024-.07 0-.06-.054-.19-.075-.19s-.014-.018-.017-.038a.092.092 0 0 0-.041-.065.4.4 0 0 1-.085-.124c-.05-.106-.093-.148-.084-.079 0 .025 0 .045-.009.048a.283.283 0 0 0-.059.015.577.577 0 0 1-.059.013c-.009 0-.011.023 0 .049.014.054 0 .108-.022.108-.01 0-.028.039-.042.083-.038.143-.074.229-.09.23s-.013.011-.01.023a.037.037 0 0 1-.021.037c-.021.013-.021.034.006.14a.811.811 0 0 1 .028.451c-.04.123-.068.12-.123-.017-.023-.053-.068-.145-.1-.2a.946.946 0 0 1-.068-.141 1.077 1.077 0 0 0-.071-.15 1.906 1.906 0 0 1-.18-.494.341.341 0 0 0-.032-.1c-.034-.071-.034-.071-.033-.016 0 .1-.05.1-.129.01-.064-.077-.067-.083-.032-.083.019 0 .032-.013.027-.029s-.012-.019-.018-.01-.1-.051-.194-.17c-.04-.049-.077-.084-.084-.076a.839.839 0 0 1-.5-.036.292.292 0 0 1-.046-.08c-.032-.068-.071-.091-.059-.033 0 .016 0 .022-.008.013s-.028-.006-.044.01c-.127.027-.263-.134-.326-.233s-.1-.131-.164-.081c-.03.03-.03.03.026.135a.384.384 0 0 0 .085.123.339.339 0 0 1 .069.119c.04.1.044.1.047.045.007-.077.051-.049.051.031 0 .154.163.155.242.006l.045-.092.021.076c.028.1.057.134.121.157a.27.27 0 0 1 .1.077l.049.063-.022.087c-.009.035-.03.087-.041.087s-.032.076-.012.106c.006.013-.006.035-.026.052s-.037.044-.034.06-.011.027-.031.028a.03.03 0 0 0-.03.038c0 .022-.021.044-.066.055a.163.163 0 0 0-.1.083.255.255 0 0 1-.1.1.479.479 0 0 0-.115.081.143.143 0 0 1-.054.042.11.11 0 0 0-.054.02.181.181 0 0 1-.071.026.176.176 0 0 0-.077.04.11.11 0 0 1-.078.029.863.863 0 0 1-.121-.325.551.551 0 0 0-.086-.17.562.562 0 0 1-.082-.146.334.334 0 0 0-.088-.107.255.255 0 0 1-.092-.143.41.41 0 0 0-.13-.253.185.185 0 0 1-.057-.077.931.931 0 0 0-.1-.175c-.053-.079-.1-.164-.115-.186s-.015-.02-.01.022c.008.087-.037.066-.1-.047a.338.338 0 0 0-.068-.091c-.01 0 .007.042.034.09s.071.133.095.181.066.139.1.2a.783.783 0 0 1 .066.149.354.354 0 0 0 .071.119.457.457 0 0 1 .091.206.345.345 0 0 0 .091.191.472.472 0 0 1 .1.166.327.327 0 0 0 .126.176c.117.089.27.269.241.286-.014.006 0 .039.039.083l.061.071.206-.059a1.715 1.715 0 0 0 .234-.081c.032-.023.035-.014.044.109a.65.65 0 0 1-.006.162c-.007.017-.03.105-.05.2a.786.786 0 0 1-.273.469 1.132 1.132 0 0 0-.182.183l-.189.218a1.233 1.233 0 0 0-.139.211c-.059.108-.069.144-.054.188a.624.624 0 0 1 .015.174.256.256 0 0 0 .026.146c.023.021.027.08.01.239-.019.192-.024.215-.077.273a.42.42 0 0 1-.123.091.388.388 0 0 0-.129.1.868.868 0 0 1-.113.109c-.048.038-.051.047-.036.128a.7.7 0 0 1 0 .178c-.009.084-.014.091-.107.139s-.1.052-.115.154a.27.27 0 0 1-.079.174c-.035.037-.093.106-.129.151a.671.671 0 0 1-.52.264.5.5 0 0 0-.169.037.1.1 0 0 1-.095 0c-.057-.023-.11-.111-.088-.146a.775.775 0 0 0-.17-.32.5.5 0 0 1-.124-.306.574.574 0 0 0-.065-.2 1.021 1.021 0 0 1-.211-.388.647.647 0 0 1 .1-.363.142.142 0 0 0 .03-.152c-.013-.052-.03-.136-.037-.184a1.091 1.091 0 0 0-.261-.505c-.144-.148-.192-.231-.161-.276a.469.469 0 0 0 .028-.162.9.9 0 0 1 .02-.173c.006-.026-.017-.072-.063-.113a.158.158 0 0 0-.183-.052c-.119.02-.168-.006-.165-.078a.136.136 0 0 0-.059-.083c-.129-.079-.315 0-.435.058a.3.3 0 0 1-.238.04.435.435 0 0 0-.2 0c-.215.054-.229.053-.283 0-.1-.1-.282-.234-.289-.354a.485.485 0 0 0-.063-.17.491.491 0 0 1-.065-.136c0-.014-.018-.034-.044-.043s-.045-.034-.029-.093a.315.315 0 0 0 0-.138c-.012-.042-.01-.065.005-.073a.81.81 0 0 0 .113-.3c.025-.166.026-.219 0-.267s-.016-.059.044-.169a1.75 1.75 0 0 1 .111-.178.249.249 0 0 0 .052-.087.879.879 0 0 1 .242-.3c.12-.074.191-.165.19-.236a.474.474 0 0 1 .192-.3.314.314 0 0 0 .115-.133c.039-.092.054-.1.077-.063a.366.366 0 0 0 .258.024.787.787 0 0 1 .482-.157c.124-.01.261-.025.306-.034s.079-.006.078.013.016.02.038.011.033-.014.005.028a.069.069 0 0 0 0 .092c.022.039.02.053-.023.1a.222.222 0 0 0-.051.068.474.474 0 0 0 .214.113c.032-.023.184.052.207.1a.087.087 0 0 0 .073.05.477.477 0 0 1 .15.052c.088.05.1.052.128.013a.229.229 0 0 0 .027-.1.135.135 0 0 1 .176-.112c.031.009.056.026.057.038s.059.038.131.059.162.051.2.066a.225.225 0 0 0 .228 0 .089.089 0 0 1 .122.006c.094.066.157.014.2-.163a1.318 1.318 0 0 0 .029-.263v-.113l-.065.009c-.036 0-.07.02-.074.034-.011.039-.092.028-.161-.021-.054-.038-.064-.038-.092 0s-.043.038-.082.015l-.105-.064a.109.109 0 0 1-.063-.073c0-.023-.011-.042-.021-.042s-.015-.031-.011-.07-.005-.069-.021-.07-.021-.017-.016-.039c.02-.091-.126-.144-.173-.062a.052.052 0 0 1-.063.026c-.042-.02-.055.023-.016.055a.059.059 0 0 1 .009.058c-.005.022 0 .039.008.037.093-.02.126.047.042.087-.035.018-.049.04-.039.068s0 .042-.017.041c-.037 0-.133-.123-.106-.136.011 0-.019-.056-.065-.115a.328.328 0 0 1-.087-.178.175.175 0 0 0-.084-.142.636.636 0 0 0-.138-.087.2.2 0 0 1-.09-.1c-.02-.052-.043-.074-.064-.065a.032.032 0 0 1-.044-.025c-.016-.065-.093-.021-.095.055 0 .035.006.065.018.065a.411.411 0 0 1 .1.109c.044.06.1.109.113.109s.034.011.033.028a.029.029 0 0 0 .027.027c.034 0 .174.11.16.127s-.031 0-.057-.022-.049-.027-.071 0-.022.042 0 .061.022.039-.03.1-.061.075-.046.014c.026-.111-.01-.169-.148-.254a.92.92 0 0 1-.219-.208c-.048-.065-.1-.12-.108-.117a.53.53 0 0 0-.124.067c-.08.05-.112.059-.143.037-.066-.046-.139 0-.155.085a.119.119 0 0 1-.078.1.351.351 0 0 0-.18.21c0 .055-.064.168-.1.168-.013 0-.031.02-.04.042s-.044.043-.091.044a.39.39 0 0 0-.132.03c-.046.026-.063.021-.09-.026a.07.07 0 0 0-.1-.037c-.058.018-.062.012-.052-.049a.2.2 0 0 0-.005-.1c-.012-.025-.007-.055.022-.12a.846.846 0 0 0 .048-.2c.009-.107.015-.124.058-.152.026-.017.056-.026.067-.018a1.164 1.164 0 0 0 .19.018c.165.008.173 0 .2-.058a.722.722 0 0 0 .034-.135c.012-.1-.07-.228-.149-.226a.032.032 0 0 1-.031-.04c.006-.041.04-.052.135-.044.036 0 .048-.009.055-.055s.011-.052.04-.028.047.021.1-.012a.235.235 0 0 0 .077-.082.125.125 0 0 1 .07-.058.264.264 0 0 0 .111-.1c.038-.063.057-.076.063-.052s.017.018.027-.022c.014-.056.028-.062.16-.068.048 0 .051-.02.039-.213 0-.077 0-.1.014-.085s.032 0 .048-.021c.032-.048.088-.058.068-.016a.082.082 0 0 0 .005.066c.015.026.01.04-.018.053a.089.089 0 0 0-.045.053c-.021.061.034.106.141.106a.307.307 0 0 1 .12.018.262.262 0 0 0 .147-.031c.083-.034.132-.042.143-.026.025.035.1.037.1 0 0-.016.016-.026.036-.025s.035-.018.033-.087c-.005-.142.046-.2.115-.131.044.045.065.036.073-.038 0-.034-.005-.055-.028-.064a.057.057 0 0 1-.034-.043c0-.037.049-.054.193-.059a.251.251 0 0 0 .128-.021c.017-.031-.039-.069-.09-.06l-.148.024c-.125.019-.207-.022-.207-.107a.44.44 0 0 0-.014-.1c-.013-.042.008-.06.183-.208.05-.042.028-.079-.054-.089s-.159.044-.138.09c.013.031-.016.064-.106.113a.234.234 0 0 0-.126.2c0 .026.01.047.022.047a.105.105 0 0 1 .055.037c.028.032.03.04.008.071a.3.3 0 0 1-.075.07c-.04.025-.047.044-.042.107.008.084-.029.134-.1.134-.024 0-.044.01-.044.024 0 .048-.073.051-.09 0a.116.116 0 0 1-.007-.058c.006-.008-.006-.034-.024-.061a.163.163 0 0 1-.031-.084c0-.019-.006-.034-.016-.034s-.017-.016-.015-.037a.136.136 0 0 0-.022-.068c-.016-.021-.024-.024-.025 0a.225.225 0 0 1-.075.084.14.14 0 0 1-.133.038c-.081-.023-.089-.038-.05-.081s.03-.04-.009-.023-.039.011-.013-.018.027-.04.011-.068a.143.143 0 0 1 .064-.2.326.326 0 0 1 .1-.045c.014 0 .028-.018.03-.039s.012-.031.025-.023.042-.008.067-.039.05-.046.058-.039.014 0 .015-.013a.027.027 0 0 1 .023-.028c.013 0 .038-.033.053-.074a.4.4 0 0 1 .12-.146c.085-.065.125-.127.065-.1a.044.044 0 0 1-.05-.013c-.018-.02-.013-.023.014-.01s.031.011.024-.012 0-.023.023 0 .1.014.061-.024c-.018-.02-.016-.025.015-.027h.055c.011 0 .016-.007.01-.02s.005-.027.046 0a.056.056 0 0 0 .068-.011.093.093 0 0 1 .073-.02.04.04 0 0 0 .047-.009.213.213 0 0 1 .071-.048c.047-.021.052-.018.034.009a.106.106 0 0 0-.022.052c0 .01.01.005.021-.012a.1.1 0 0 1 .05-.036.134.134 0 0 0 .057-.023c.013-.009.023-.006.025.011s.01.02.02.016a.129.129 0 0 1 .068.013c.051.025.053.025.02.046s-.019.022.054.04a1.194 1.194 0 0 1 .376.133.5.5 0 0 1 .158.112c.008.021 0 .047-.034.07s-.066.031-.194 0c-.146-.038-.2-.036-.12 0a.056.056 0 0 1 .04.052.16.16 0 0 0 .019.075.3.3 0 0 0 .154.1c.032 0 .017-.043-.019-.06a.074.074 0 0 1-.036-.045c0-.021.006-.025.032-.011a.41.41 0 0 0 .1.036c.061.016.065.014.041-.025s-.032-.055.032-.093a.108.108 0 0 1 .093-.012c.047.023.077-.027.041-.062a.089.089 0 0 1-.019-.059.107.107 0 0 0-.022-.061c-.025-.024.066-.022.1 0s.041.062.009.06-.04.036-.008.059.106.026.109-.008.088-.076.164-.086a.2.2 0 0 0 .058-.024c.011-.008.027 0 .036.013s.046.026.126.015.112-.007.126.016.023.024.038.007.006-.064-.061-.117c-.041-.034-.043-.038-.015-.023s.081.031.137.05a1.3 1.3 0 0 1 .211.1c.128.073.155.053.046-.039-.039-.031-.063-.058-.054-.056s.009-.015 0-.034a.073.073 0 0 0-.027-.041c-.009 0 0-.017.011-.033a.117.117 0 0 0 .028-.074c0-.025.009-.044.02-.043s.018-.009.014-.021 0-.022.019-.019.024.008.017.025 0 .022.029.027a.082.082 0 0 1 .068.092.06.06 0 0 0 .018.055.29.29 0 0 1 .044.1.279.279 0 0 0 .055.116c.027.032.028.041.012.1s-.025.067-.07.049-.047-.011-.036.007c.028.046.129.043.167 0a.08.08 0 0 0 .013-.1c-.016-.039-.015-.053 0-.055a.112.112 0 0 1 .107.076c.013.036.015.037.014.007a.135.135 0 0 0-.126-.111c-.068-.011-.1-.043-.095-.1 0-.029 0-.039-.032-.071s-.035-.042-.026-.058a.032.032 0 0 1 .031-.018c.011 0 .014-.014.005-.037s-.008-.03 0-.02a.379.379 0 0 1 .033.07c.015.043.028.054.062.064s.038.009.009-.014c-.054-.04-.051-.06 0-.035s.047.021.011-.018-.035-.042.015-.02c.028.012.078.038.107.055s.066.031.075.026.006-.012-.027-.031-.112-.115-.093-.118c0 0 .064 0 .13.006.083.008.11 0 .088-.014l-.033-.024.016-.021c.025-.041.231-.051.358-.019.041.011.068.012.06 0s0-.013.014-.01.024 0 .021-.014a.03.03 0 0 1 .019-.031.115.115 0 0 1 .13.054c0 .02.078.058.139.07a.283.283 0 0 1 .089.04.552.552 0 0 0 .055.036.086.086 0 0 1 .026.025c.027.045.027.057 0 .068l-.064.026a.465.465 0 0 1-.055.025c-.037.009 0 .035.049.033.03 0 .041-.008.03-.025s0-.017.042.006a1.431 1.431 0 0 0 .152.063.456.456 0 0 1 .128.065.347.347 0 0 0 .1.05c.046.015.054.012.04-.016s-.006-.027.054 0a1.017 1.017 0 0 1 .1.054c.025.018.027.02.018.029s-.006.013.012.02.058.057.036.049-.011 0 .019.033c.069.076.1.094.1.063s.016-.024.064-.005a.345.345 0 0 1 .087.045c.013.012.021.011.018 0s.007-.009.021 0 .023.015 0-.026-.024-.044-.008-.041l.036.013.067.034a.114.114 0 0 1 .066.056c.011.02.014.025.008.008-.015-.036.068 0 .1.051s-.01.034.087.081a.516.516 0 0 1 .091.051l.05.06a.061.061 0 0 0 .025.032l.008.007.019.023.005.008c.013.021.018.026.018.021a7.821 7.821 0 0 1 .507.715c0 .005-.01 0-.019-.008-.028-.036-.045-.04-.049-.015s-.006.016-.012 0-.011-.017-.013-.011-.01.007-.018 0-.011.016 0 .055c.013.072.019.088.036.095s.016.015.028.046a.137.137 0 0 0 .023.044.064.064 0 0 1 .017.026c.005.013 0 .018 0 .01s-.018.017 0 .059.018.043.008.048-.009.021 0 .047.01.045.005.048a.05.05 0 0 0 0 .041c.018.044.017.121 0 .082l-.071-.141c-.031-.061-.071-.142-.087-.18a.294.294 0 0 1-.037-.188.1.1 0 0 0 .009-.051.344.344 0 0 1 0-.082.222.222 0 0 0-.042-.157c-.007 0 0 .015 0 .038s.015.039.01.029-.01 0-.013.017c-.005.034-.022.024-.042-.027a.064.064 0 0 0-.044-.041c-.027-.011-.034 0-.033.052s0 .069.02.086.02.021.007.017a.149.149 0 0 0-.039 0c-.019 0-.03 0-.034-.019s-.078-.076-.076-.051c0 .01-.023.006-.051-.007-.1-.047-.028-.013-.046.173a.535.535 0 0 1-.018.088l-.013.035.029.014a.088.088 0 0 1 .045.052c.015.035.016.035.01.007s0-.013.021.03c.01.027.018.023.02-.007.007-.071.135.107.15.209a.992.992 0 0 0 .04.127.787.787 0 0 1 .048.291c.012.228 0 .277-.044.234-.025-.024-.031-.021-.039.027a.224.224 0 0 0 0 .09.194.194 0 0 1-.015.127.526.526 0 0 0 .063.113.63.63 0 0 1 .094.189c.025.08.025.087 0 .11s-.035.017-.037.01a1.256 1.256 0 0 1-.063-.2.082.082 0 0 0-.048-.073c-.027 0-.038-.023-.053-.089-.011-.05-.015-.057-.048-.075s-.041-.007-.05.015c-.018.039-.042.006-.044-.059 0-.042 0-.047-.021-.063s-.027.008-.036.056-.025.074-.034.075c-.025 0 0 .071.032.084a.084.084 0 0 1 .036.044c.016.046.043.063.045.026 0-.021.018-.024.043-.012.047.022.06.051.032.069a.2.2 0 0 0-.019.167.615.615 0 0 1 .1.157c.064.113.087.182.073.213l-.012.025h.02c.038.007.058.083.053.227a.482.482 0 0 0 0 .09l.008.038a.535.535 0 0 1-.02.18c-.019.078-.077.121-.1.078-.011-.019-.012-.014 0 .012s0 .051-.032.079-.046.088 0 .15a.125.125 0 0 1 .019.077c0 .058-.012.08-.039.061s-.044-.13-.006-.131c.017 0 .015-.008 0-.029a.26.26 0 0 1-.033-.072c-.022-.077-.078-.056-.1.037s0 .163.092.3a.791.791 0 0 1 .166.327c.025.1.027.12.012.168-.009.032-.025.057-.034.058s-.016.013-.012.027a.219.219 0 0 1-.029.12c-.005 0-.014-.025-.022-.057a.144.144 0 0 0-.037-.074.619.619 0 0 1-.088-.1.3.3 0 0 0-.082-.087c-.009 0-.02-.016-.025-.038-.02-.077-.029-.015-.019.114.013.166.017.185.06.245a.374.374 0 0 1 .047.1c.008.036.022.058.042.066.054.026.164.145.149.225a.772.772 0 0 0-.01.138c0 .058 0 .065-.013.067-.051.008-.1-.18-.125-.308a.728.728 0 0 0-.122-.219 1 1 0 0 1-.05-.193 1.23 1.23 0 0 0-.081-.283c-.022-.051-.059-.136-.081-.193zM654.829 507a.021.021 0 0 1 .021-.028c.036 0 .04.016.01.041-.011.008-.024.003-.031-.013zm.443-.152c.047-.014.061.005.057.091 0 .069-.037.112-.086.112-.008 0-.012-.044-.009-.1s.015-.098.039-.104zm0-.141c.026-.033.047-.014.044.038 0 .03-.011.055-.021.055s-.038-.071-.021-.093zm.256.446c0-.011.047-.023.105-.023.1 0 .1 0 .092.069 0 .039-.016.07-.024.064s-.05-.027-.093-.049-.078-.05-.078-.061zm.983.271c.04 0 .058.007.039.015a.165.165 0 0 1-.075 0c-.019-.011-.002-.016.039-.015zm.51.034c0-.016.031-.027.06-.026s.045.012.041.029a.065.065 0 0 1-.059.027c-.027-.002-.044-.014-.04-.03zm-1.565-1.947c-.009.008-.021 0-.027-.014a.019.019 0 0 1 .017-.026c.034 0 .039.016.012.04zm.069-.074c.05-.021.057-.019.056 0 0 .04-.042.079-.066.066s-.025-.053.012-.066zm.4-.149a.034.034 0 0 1 .027-.026c.009 0 .016.011.016.027a.027.027 0 0 1-.028.026.018.018 0 0 1-.008-.027zm.233-.073c0-.016.016-.026.039-.025s.033.006.013.026-.044.033-.045-.001zm5.628.751v.017a.047.047 0 0 1-.012-.022v-.017c0 .001.014.009.018.022zm-.428.144a.061.061 0 0 1-.017-.025c-.006-.014-.006-.022 0-.021a.047.047 0 0 1 .018.025c.008.011.01.022.005.021zm.422 6.853s0-.01.014-.014.013 0 .006.006-.011.01-.014.008zm.107.341c-.013.028-.025.046-.025.041s-.011.008-.023.027c-.03.048-.034.023-.012-.064l.017-.071.046-.021c.055-.021.054-.016.003.084zm.369-.188c-.02.035-.041.074-.046.086s-.009.019-.008.014-.038.043-.066.1c-.043.086-.071.124-.1.127s-.02-.007-.014-.021a1.33 1.33 0 0 1 .127-.193 1.447 1.447 0 0 0 .1-.158c.033-.062.047-.086.046-.073s0 .014.008.011-.003.033-.041.107zm.172-.29a.082.082 0 0 0-.019.033.818.818 0 0 1-.09.162c0-.006 0-.018.017-.049s.02-.044.016-.057a.062.062 0 0 1 .013-.05.322.322 0 0 0 .028-.052.532.532 0 0 0 .047-.154.26.26 0 0 1 .007-.047c.01-.041.015-.048.019-.027a.3.3 0 0 1-.015.074c-.009.032-.013.053-.008.047s.008 0 .005.021 0 .025.016.009.018-.018.015-.009a.514.514 0 0 1-.045.098zm.052-1.493c.01.011.01.027 0 .066a.712.712 0 0 0-.018.087c0 .017-.008.057-.015.089a.172.172 0 0 0 0 .09.255.255 0 0 1 0 .1.17.17 0 0 0 0 .074.042.042 0 0 1 0 .033.45.45 0 0 0-.007.092.4.4 0 0 1-.017.123l-.029.1a.892.892 0 0 1-.04.12c-.015.038-.038.1-.051.127a.988.988 0 0 1-.049.1c-.033.055-.156.3-.176.358-.013.033-.021.045-.034.051a.4.4 0 0 0-.065.068c-.047.057-.049.058-.049.03s0-.026-.031.012-.034.039-.038.029a.039.039 0 0 0-.026-.016c-.026 0-.028-.027-.006-.083s.023-.089 0-.066-.012.007 0-.022c.028-.057.029-.082 0-.034s-.029.031.01-.043c.052-.1.047-.105-.012-.014s-.074.107-.059.068.017-.158 0-.154a.026.026 0 0 1-.027-.009c0-.007-.029 0-.06.023-.145.1-.2.141-.227.2-.014.027-.031.038-.075.053a.265.265 0 0 0-.115.075c-.069.069-.08.074-.108.042s-.02-.046.009-.072a.451.451 0 0 0 .068-.171.208.208 0 0 1 .011-.066c.008-.033.022-.105.032-.164.015-.087.021-.112.037-.128a.09.09 0 0 0 .02-.07c0-.06.072-.254.087-.241s.014 0 .018-.017a.044.044 0 0 1 .02-.027.15.15 0 0 0 .039-.042.765.765 0 0 1 .112-.1.911.911 0 0 0 .1-.081.6.6 0 0 0 .083-.155c.017-.054.052-.107.047-.072 0 .014 0 .025.005.023s.012-.017.013-.033.01-.032.022-.036a.036.036 0 0 0 .022-.03.283.283 0 0 1 .065-.113.034.034 0 0 0 .014-.022c.008-.027.041-.051.051-.033a.063.063 0 0 1 0 .042c0 .017 0 .021.02.009a.059.059 0 0 0 .03-.042.207.207 0 0 1 .024-.061.3.3 0 0 0 .026-.057.094.094 0 0 1 .052-.058.072.072 0 0 0 .031-.069c-.01-.024 0-.021.024 0a.063.063 0 0 0 .05.019c.021 0 .027 0 .021.025a.24.24 0 0 1-.018.042c0 .007-.019.04-.033.075a.12.12 0 0 0 .011.147.142.142 0 0 1 .022.058c0 .03.019.011.044-.045a1.452 1.452 0 0 0 .056-.163c.041-.142.069-.241.079-.268.018-.043.019-.022 0 .089.007.099.006.125.016.138zm-.179.016v.02a.039.039 0 0 1-.014.023v-.02a.07.07 0 0 1 .021-.024zm.056-.5c.007-.021.015-.048.016-.058s.008-.019.012-.021 0 .024-.02.075-.012.04-.001.007zm.266.077c-.005-.078-.021-.1-.048-.061a.19.19 0 0 0-.027.057c-.011.052-.06.068-.067.024s-.012-.033-.034-.016-.027.018-.017-.011a.072.072 0 0 1 .021-.037c.005 0 .012-.013.015-.027a.348.348 0 0 0-.011-.143c-.005 0-.022-.014-.039-.034s-.034-.028-.036-.018-.007.019-.011.02 0-.012 0-.028a.085.085 0 0 0 0-.045c-.008-.015 0-.02.018-.028s.023-.012.01-.014a.03.03 0 0 1-.02-.028.059.059 0 0 0-.017-.036l-.016-.012.028-.032c.024-.029.063-.037.067-.015a.288.288 0 0 1-.005.061.338.338 0 0 0 0 .085c0 .035.008.032.05-.046s.045-.077.055-.063a.641.641 0 0 0 .061.058c.05.044.068.081.061.118a.077.077 0 0 0 .015.05c.013.019.015.031.006.039a.12.12 0 0 0-.016.1.183.183 0 0 1 0 .059v.01c0-.005.009.013.012.04s0 .051 0 .047a.173.173 0 0 0-.026-.011c-.012-.003-.021-.03-.022-.06zm.054.793s-.008-.023-.009-.055c0-.076.005-.08.012-.006a.135.135 0 0 1 .003.064zm.062-1.022a.015.015 0 0 1-.024 0l-.013-.017.028-.017a.105.105 0 0 0 .042-.057c.016-.042.024-.054.02-.023a.514.514 0 0 1-.046.117zm.065-.133a.087.087 0 0 1 0-.028c0-.011 0-.015.007-.01a.071.071 0 0 1 0 .028c.004.015.002.018 0 .013zm.029.134c-.007.017-.011-.038 0-.07 0-.011.006 0 .008.016a.148.148 0 0 1-.002.056zm.041.162c-.005 0-.009 0-.007-.013s.007-.015.012-.012a.012.012 0 0 1 .006.013s.001.013-.005.015zm.026-.054c0 .014 0 .022-.006.018a.083.083 0 0 1 0-.028c.013-.023.015-.019.012.014zm.043.5c0-.017.007-.026.013-.024s.007.008 0 .019c.001.03-.012.033-.007.005zm.039-.077v-.018a.061.061 0 0 1 .012-.024v.018a.066.066 0 0 1-.006.024z" class="cls-2" transform="translate(-647.347 -501.924)"/>
                        <path id="Path_1321" d="M686 514.6c.01.027.016.035.012.016a.14.14 0 0 0-.019-.047c-.009-.006-.007.008.007.031z" class="cls-2" transform="translate(-673.093 -510.35)"/>
                        <path id="Path_1322" d="M686.455 510.034s0-.009-.007-.02a.051.051 0 0 0-.02-.024s0 .006.008.02a.1.1 0 0 0 .019.024z" class="cls-2" transform="translate(-673.385 -507.298)"/>
                        <path id="Path_1323" d="M685.116 514.661c-.006 0-.007.009 0 .024a.044.044 0 0 0 .028.028c.009 0 .009-.011 0-.024s-.021-.028-.028-.028z" class="cls-2" transform="translate(-672.51 -510.411)"/>
                        <path id="Path_1324" d="M676.768 528.257c-.007-.008-.027 0-.046.029s-.029.05-.023.056.027 0 .046-.029.03-.051.023-.056z" class="cls-2" transform="translate(-666.904 -519.468)"/>
                        <path id="Path_1325" d="M678.288 517.5c-.02 0-.024.007-.008.016s.031.007.034 0-.006-.016-.026-.016z" class="cls-2" transform="translate(-667.952 -512.302)"/>
                        <path id="Path_1326" d="M679.406 511.874c0-.016-.009-.026-.012-.026s-.009.009-.009.024 0 .026.012.026.013-.011.009-.024z" class="cls-2" transform="translate(-668.694 -508.537)"/>
                        <path id="Path_1327" d="M676.4 517.38c.008.014.019.028.025.028s.006-.013 0-.027a.029.029 0 0 0-.025-.028c-.006-.002-.009.01 0 .027z" class="cls-2" transform="translate(-666.702 -512.204)"/>
                        <path id="Path_1328" d="M679.262 515.887a.021.021 0 0 0-.021-.026c-.017 0-.029-.02-.032-.05s.009-.043.029-.036a.066.066 0 0 0 .052 0c.016-.01.01-.026-.027-.073s-.053-.056-.075-.03-.025.028-.027-.023c0-.032-.01-.057-.018-.057a.5.5 0 0 1-.094-.1c-.044-.055-.067-.1-.054-.1s.03-.015.035-.036.026-.033.041-.027c.032.007.045-.03.03-.094-.018-.084-.12-.084-.213 0s-.123.139-.072.224a.452.452 0 0 1 .041.083.9.9 0 0 0 .089.136l.085.114-.013.086a.322.322 0 0 0 0 .136c.037.094.23.179.3.133.026-.018 0-.186-.035-.215a.054.054 0 0 1-.021-.045z" class="cls-2" transform="translate(-668.295 -510.753)"/>
                        <path id="Path_1329" d="M678.781 517.672s0 .019.01.041.027.042.036.042.006-.016-.011-.041a.183.183 0 0 0-.035-.042z" class="cls-2" transform="translate(-668.291 -512.417)"/>
                        <path id="Path_1330" d="M675.187 516.745c-.038 0-.075.008-.079.025s.018.028.06.029.075-.012.079-.025-.018-.029-.06-.029z" class="cls-2" transform="translate(-665.844 -511.799)"/>
                        <path id="Path_1331" d="M678.535 512.873c.012-.02.016-.043.01-.052s-.016.007-.026.032c-.015.051.013.149.035.122.007-.01 0-.026-.013-.04s-.023-.035-.006-.062z" class="cls-2" transform="translate(-668.114 -509.184)"/>
                        <path id="Path_1332" d="M676.257 530.017a.372.372 0 0 0 .036.179.371.371 0 0 1 .048.107c.008.033.025.057.037.057.032 0 .028-.031-.023-.126a.5.5 0 0 1-.05-.175c-.005-.152-.046-.188-.048-.042z" class="cls-2" transform="translate(-666.61 -520.581)"/>
                        <path id="Path_1333" d="M675.266 511.055c.061-.005.052-.062-.016-.11s-.073-.049-.082-.014.054.127.098.124z" class="cls-2" transform="translate(-665.883 -507.909)"/>
                        <path id="Path_1334" d="M680.835 515.491a.086.086 0 0 1-.02-.08c.008-.034 0-.04-.033-.039-.069 0-.119.087-.1.181.014.056.028.07.115.1.05.016.066.014.053-.008a.1.1 0 0 1 0-.069.075.075 0 0 0-.015-.085z" class="cls-2" transform="translate(-669.556 -510.885)"/>
                        <path id="Path_1335" d="M675.939 510.868a.167.167 0 0 0-.03-.086c-.022-.037-.038-.05-.035-.03s-.005.028-.021.017c-.041-.026-.022.024.028.076.026.024.052.035.058.023z" class="cls-2" transform="translate(-666.327 -507.799)"/>
                        <path id="Path_1336" d="M676.549 511.758a.128.128 0 0 0-.04-.054c-.028-.022-.035-.023-.027 0 .018.065.076.109.067.054z" class="cls-2" transform="translate(-666.758 -508.43)"/>
                        <path id="Path_1337" d="M675.847 515.274c-.048-.031-.086-.065-.088-.079s.009-.013.025 0 .05-.066.03-.091c0-.005.01-.027.032-.045l.038-.036h-.044a.137.137 0 0 0-.076.021.828.828 0 0 1-.1.05c-.064.03-.07.035-.037.069a.085.085 0 0 0 .077.022c.029-.01.039 0 .033.017a.046.046 0 0 1-.045.028.125.125 0 0 0-.068.025c-.024.021-.042.015-.075-.027s-.042-.058-.015-.082.017-.027-.031-.03c-.033 0-.062-.016-.064-.03-.008-.082-.126.012-.143.115-.005.027-.015.043-.024.032-.021-.028-.084.221-.068.268.03.08.206.1.306.039a.2.2 0 0 1 .234.018.487.487 0 0 0 .341.041c.098-.131-.153-.267-.238-.325z" class="cls-2" transform="translate(-665.906 -510.649)"/>
                    </g>
                </g>
            </g>
            <g id="Group_1796" transform="translate(32.715)">
                <g id="Group_1795" transform="translate(0 10.05)">
                    <g id="Group_1794">
                        <path id="Path_1338" d="M745.389 529.4v-23.949h7.325V529.4z" class="cls-2" transform="translate(-745.389 -505.451)"/>
                    </g>
                </g>
                <path id="Path_1339" d="M749.474 475.333a3.431 3.431 0 1 1-3.392 3.431 3.448 3.448 0 0 1 3.392-3.431z" class="cls-2" transform="translate(-745.851 -475.333)"/>
            </g>
        </g>
    </g>
</svg>
