<svg xmlns="http://www.w3.org/2000/svg" width="375.98" height="212.909" viewBox="0 0 335.57 190.026">
    <defs>
        <style>
            .cls-2{fill:#fff}
        </style>
    </defs>
    <g id="Group_5500" transform="translate(-781 -1630.026)">
        <g id="Group_5190" transform="translate(0 -283.974)">
            <rect id="HBO_Button_BG_copy_4" width="335.57" height="190.026" fill="#557fb2" rx="6" transform="translate(781 1914)"/>
            <g id="Group_5070" transform="translate(321.203 1075)">
                <g id="Group_5067" transform="translate(542.797 876)">
                    <g id="Group_4752" transform="translate(4.321)">
                        <path id="Path_2607" d="M24.7 21.29a10.225 10.225 0 0 0 2.6 2.345 9.973 9.973 0 0 0 3.577 1.372C30.9 25 30.869 25 30.863 25c-.053-.016.006-.019.031-.009.034-.009-.044-.019-.081-.025s-.094-.022-.09-.041a3.551 3.551 0 0 1 .886.119c-.212.031-.458-.053-.674-.025.221.034.455.069.7.094s.5.019.73.031h.062a.246.246 0 0 1-.1-.022c.053 0 .09.012.147.006l-.028-.006a1.291 1.291 0 0 1 .349-.028c-.022-.019-.069-.009-.1-.025a.546.546 0 0 1 .284.012c0 .019.022.016.022.034.028 0 .075-.006.094.006a3.792 3.792 0 0 1-.5.006c0 .016.028 0 .041.009a1.186 1.186 0 0 1-.128.006 9.565 9.565 0 0 0 2.13-.181 9.764 9.764 0 0 0 1.893-.577 9.885 9.885 0 0 0 3.01-1.943 10.067 10.067 0 0 0 2.822-4.594 10.247 10.247 0 0 0-.262-6.378 10.2 10.2 0 0 0-1.865-3.088A9.7 9.7 0 0 0 37.48 6.2a9.967 9.967 0 0 0-3.77-1.184 10.382 10.382 0 0 0-4.338.5A9.915 9.915 0 0 0 26.2 7.287a10.029 10.029 0 0 0-2.27 2.682 10.167 10.167 0 0 0-1.279 3.674 10.4 10.4 0 0 0 .343 4.4A9.892 9.892 0 0 0 24.7 21.29m4.379-11.131h.044c.006.025.037.025.034.056-.047.031-.078-.034-.078-.056m.09.09c.025-.047.081-.069.094 0-.019.022-.075.031-.094 0m1.837 14.618c.072-.016.147.025.221.031a.531.531 0 0 1-.221-.031m.246.031c.037-.022.09.012.15 0-.006.034-.122.016-.15 0m.218.016c.006-.016.047-.009.053 0s-.047.006-.053 0m.112.006c.028-.016.087-.006.087.034a.078.078 0 0 1-.087-.034m.065.112a.347.347 0 0 1 .159.022.31.31 0 0 1-.159-.022m.059-.012a.132.132 0 0 1 .115.012c-.034.019-.081-.009-.115-.012m.153-.028c.019-.006.065-.016.065.016-.009.009-.072.016-.065-.016m-.025-.019c.006-.025.047-.006.065-.006-.009.016-.047 0-.065.006m.218-.09c.041-.022.094.012.125.006a.209.209 0 0 1-.125-.006m.053-.031c.041-.037.165-.019.237-.019.044 0 .106-.022.115.028a2.7 2.7 0 0 1-.352-.009m.159.016c0 .009-.059.019-.053-.006l.053.006m.543.047c-.056.006-.122 0-.184 0-.181.009-.318.072-.458.006.012-.028.05.006.084-.006.019-.016-.025-.025-.05-.019.143-.009.34 0 .536 0 .031-.009.037-.044.09-.034.025 0 .025.028.047.034.044 0 .069-.012.112-.006a.417.417 0 0 1-.178.025m.331.106c.012-.006.072-.016.075.006s-.078.019-.075-.006m2.03-.689a.064.064 0 0 1 .069-.037c.009.041-.034.037-.069.037m-.393.112c0 .028.009.022-.006.041-.056-.031-.1.065-.137.006-.084.056-.234.059-.265.147.037 0 .078 0 .09-.019.009.016-.044.031-.053.056.006.025.044-.016.034.016-.084.022-.1.109-.2.119.012.022-.047.078-.115.059a1.373 1.373 0 0 1-.661.119l.012-.012c-.065.009-.112-.028-.175-.006a.03.03 0 0 0-.037-.028c.053-.041.184 0 .212-.065.016 0 .041-.012.053 0s-.016.019-.034.022a1.519 1.519 0 0 0 .508-.085c0-.022-.019-.012-.016-.034.062-.078.181-.1.274-.15a.159.159 0 0 1 .09-.1c.025-.006.031.009.041.012a4.275 4.275 0 0 1 .948-.3c-.162.094-.409.1-.564.2m-1.45.44c.016-.016 0-.022.006-.037.028 0 .047.016.081.006-.009.034-.056.025-.087.031m.508-.106c-.012-.019.025-.019.031-.028v-.034c.012-.016.156-.087.168-.019 0 .012-.047.075-.078.1a.477.477 0 0 1-.281.056c.012-.019.059-.009.087-.012-.025-.069-.128.025-.184-.012a1.282 1.282 0 0 1 .256-.05m0-11.583c-.006-.025.012-.034.019-.047.05.009.056.069.106.084-.022.037-.1-.019-.125-.037m-.156 11.564c-.016.034-.1.034-.131.031a.906.906 0 0 1 .131-.031m-.065-.016a.092.092 0 0 1 .081-.028c-.009.028-.041.031-.081.028m.589-.153c.025-.041.078-.05.122-.072-.019.047-.069.056-.122.072m.327-.134c0-.022.019-.025.041-.025 0 .022-.022.025-.041.025m.3-.119c0 .034-.034.047-.078.041a.092.092 0 0 1 .078-.041m-.025-.842c.009-.012.012-.031.041-.025.006.028-.016.028-.041.025m.069.842c.016-.016.028-.037.062-.031 0 .028-.025.031-.062.031m.274-.131c.016-.022.025-.041.069-.031a.073.073 0 0 1-.069.031m.09-.022c.009-.031.05-.034.087-.031 0 .031-.041.034-.087.031m-.156-.6c0-.022.022-.019.025-.034a.083.083 0 0 0-.069.019v.028c-.016.028-.056.006-.065-.012a.07.07 0 0 1-.065.006c-.006-.022.009-.022.012-.034-.041.009-.044-.016-.072-.019.016-.047.09 0 .125-.031a.118.118 0 0 1-.012-.05c.031-.022.09-.019.119-.05-.028-.037-.069.009-.106.006.034-.056.115-.069.2-.075-.025.044 0 .094-.044.119.109-.006.119.084.228.081-.078.047-.193.012-.274.047m-.2-.078c0-.028.006-.047.034-.041 0 .022-.006.044-.034.041m.524.739c0-.037.065-.047.1-.031a.159.159 0 0 1-.1.031m-.034-.1c0-.041.044-.031.075-.034-.006.034-.05.022-.075.034m2.015-10.847c0 .019-.044.006-.034.037l.016.022c.031-.009.037-.053.069-.069 0-.022-.019-.031-.016-.059a.638.638 0 0 1 .309-.131.438.438 0 0 0-.009.259c.009.031.05.053.041.112 0 .031-.044.019-.041.053.041.022.106.106.131.012.078-.006.137 0 .168.047.112 0 .306-.028.221.119a.034.034 0 0 0 .041.019c.028 0 .028-.028.041-.047.112-.025.119.109.066.153-.05-.006-.09-.059-.147-.047.022.044.047.081.069.122h.022c.025-.006.022-.047.044-.059a.056.056 0 0 1 .034.084c.009.034.062.028.062.072.025-.016.05.006.069.022a.647.647 0 0 0 .006.234c.062 0 .056-.069.072-.106.034.019.053.006.075-.016.034.025.112 0 .137.028a.1.1 0 0 1 .128-.009c0 .147.09.059.05-.047.022-.019.075-.012.081.012a.189.189 0 0 1 .187-.006c0 .09 0 .175.053.209.031 0 .078-.009.1 0 0 .072-.031.1-.041.162 0 .019.025.006.028.019.028-.034.037-.087.066-.128.084.012.009.143.059.187a.089.089 0 0 1-.009.059.3.3 0 0 1 .044.234c-.056.016-.1.072-.062.125-.025.041-.059.115-.016.165h.069l.028.047h.072c.022.069.094.084.128.14h.072c0 .019.016.019.012.041h.075c.016.012.009.044.037.044s.037-.031.053-.044h.187c.047.078.1.147.14.231h.05c.022-.041.081-.044.094-.094h.118c.016.019.016.059.059.047.006.037.034.05.041.084.028.009.012-.028.041-.025 0 .022.016.022.012.041.025-.006.009-.05.037-.053.044 0 .041.053.062.078s.022-.025.053-.019c.025.031.037.072.081.084.012.053.019.112.059.14 0 .044-.044.078-.028.112.037-.006.031-.056.053-.078.028 0 .019.034.019.059.016.019.031-.022.05 0a.506.506 0 0 0-.009.112c.037-.031.053-.109.128-.078 0 .112.025.246.025.365a1.1 1.1 0 0 1-.193.515c-.1.047-.109.193-.187.265 0 .031-.016.041-.009.072-.019.031-.05.047-.059.081a.08.08 0 0 0-.044.006.971.971 0 0 0-.1.287c-.012.006-.016.028-.028.041a2.031 2.031 0 0 1-.15.561c-.128.134-.156.371-.25.536-.022 0-.028.012-.044.022a.831.831 0 0 1-.118.14.3.3 0 0 1-.112.15c-.028.022-.05.072-.094.065 0-.022.016-.034.022-.053-.044 0-.05.022-.069.041-.062-.006-.075.034-.125.028-.047.047-.1.084-.143.134-.131-.009-.172.069-.243.122a.093.093 0 0 1-.044-.006c-.053.044-.062.125-.14.14a.157.157 0 0 0-.047.09c-.09.119-.078.25-.147.365-.025.05-.081.078-.131.115a1.59 1.59 0 0 0-.178.2c-.019-.019-.041-.006-.069 0 0-.016-.009-.012-.006-.031-.065.056-.094.153-.184.184a.2.2 0 0 1-.112.115c-.025.012-.031.047-.053.065-.047 0-.062.041-.112.044a1.6 1.6 0 0 1-.159.215c-.012.025.022.016.019.037-.1.041-.162.115-.281.134-.025 0-.025.025-.044.031-.087-.006-.106.05-.153.081h-.059a.176.176 0 0 1-.159.041c-.019 0-.019-.019-.019-.034a.159.159 0 0 0-.087.081c.034.05.09.075.072.178 0 .022.022.019.028.031a.169.169 0 0 1-.028.047.42.42 0 0 0-.218.053c-.109 0-.159.056-.29.041a.414.414 0 0 1-.2-.084c-.031.022-.065.041-.078.084.037.009.094-.031.112.025-.025.022-.072.025-.078.059s.022.016.016.041a.5.5 0 0 0-.109.034c0 .025.016.025.037.025-.016.028-.041.044-.053.075s.041.016.022.037c-.05.022-.1-.016-.134-.031.009-.028.009-.044-.012-.053-.069.05-.05.184-.106.246 0 .022.028.016.037.025-.022.053-.087.056-.115.1s-.034.125-.081.172a.48.48 0 0 0-.1.072c-.081 0-.274.1-.281.168s.094.072.14.119c-.084.109-.25.14-.343.246a.292.292 0 0 0-.1.025.12.12 0 0 0-.006.059c-.062.025-.125.053-.125.14a.514.514 0 0 1-.1.019.1.1 0 0 0 .056.053.541.541 0 0 1-.39.034c-.012.009-.028.012-.031.031.019.037.084-.012.112.016-.006.031-.069.009-.094.025.006.022-.009.022-.012.034a1.308 1.308 0 0 0 .159-.034c-.022.025-.028.065-.059.078-.062-.031-.115.019-.159.012a.081.081 0 0 1-.034-.037c.025-.006.05-.009.053-.041 0-.012-.028 0-.031-.012 0-.05 0-.084.031-.1 0-.041-.022-.053.009-.078-.006-.016-.031-.012-.037-.028.019-.041.031-.084.05-.125-.022-.022-.034.019-.069.006v-.031c-.012-.019-.037.009-.053-.009.012-.012.037-.016.041-.037s-.016 0-.031-.009a.275.275 0 0 1 .1-.115c.012 0 .012.016.019.025.065-.084.128-.172.2-.253-.044 0-.09.1-.162.047-.006-.081.065-.087.128-.1 0 .016.025.012.019.041.016-.016.037-.016.053-.028a.1.1 0 0 0 .006-.044c.072-.025.065-.125.134-.153.006-.119.1-.153.115-.253 0-.022.034-.019.044-.034-.034-.05.016-.072-.034-.112a.1.1 0 0 0 .05-.028c-.05-.034-.081.084-.156.047a.315.315 0 0 1 .178-.243c-.031-.025.012-.059.022-.081-.037-.028-.056-.106-.006-.131-.047-.1.022-.1.072-.147a.227.227 0 0 0 .072-.147c.125-.087.162-.259.271-.362-.006-.084.062-.119.081-.193-.034-.087.031-.184 0-.271a.2.2 0 0 0 .1-.234c.016-.081.09-.109.1-.206l.044-.031c-.006-.062.031-.078.028-.134.081-.05.047-.215.119-.278-.05-.109.059-.2.028-.29a1.106 1.106 0 0 0 .147-.424c0-.053.025-.115.025-.175a.715.715 0 0 1-.02-.249 1.251 1.251 0 0 0-.134-.119.16.16 0 0 0-.131-.125.5.5 0 0 0-.237-.134.883.883 0 0 0-.212-.125c-.05-.106-.265-.2-.159-.34a1.108 1.108 0 0 0-.159-.262c-.006-.025.012-.044 0-.056-.072-.065-.075-.2-.156-.265l.006-.037c-.006-.028-.037-.031-.05-.05v-.056a.124.124 0 0 0-.031-.047.874.874 0 0 0-.14-.3c-.012-.031-.012-.059-.025-.087-.044-.087-.14-.134-.15-.237-.006-.022-.022-.031-.031-.047.009-.1 0-.181-.109-.168-.065-.09.065-.131.09-.193.137.006.165-.094.193-.2 0-.025-.028-.031-.025-.062a.166.166 0 0 0 .031-.178h-.047a.105.105 0 0 0-.025.14c-.016.031-.047.047-.069.072-.072-.028-.1-.153-.072-.253.012-.037.084-.072.062-.15a.174.174 0 0 0 .078-.193 1.012 1.012 0 0 0 .115-.059.1.1 0 0 1 .044.012.142.142 0 0 0 .066-.031c-.006-.062.044-.065.059-.106.019 0 .031-.016.05-.012a1.534 1.534 0 0 0 .156-.312c.012-.012.034-.016.037-.034-.012-.084.053-.131.041-.193s-.084-.075-.106-.14c.05-.062-.031-.14 0-.209a.2.2 0 0 1-.069-.106.13.13 0 0 1-.075-.181c.025 0 .069.009.081-.006v-.031c-.016-.016-.053-.019-.05-.062-.119.05-.15-.065-.212-.119-.044.006-.056.047-.106.047-.009-.022-.025-.034-.019-.072.1-.044.181.05.3.031.044.094.15.122.19.221-.065.1.012.249.041.356a.078.078 0 0 1 .05.044c-.012-.112-.078-.274-.025-.374 0-.037-.016-.078 0-.112a.647.647 0 0 0 .078 0c.009-.012 0-.059.006-.075.037 0 .006.069.037.075.041-.009.053-.047.1-.053.028.019.022.1.022.125.087.09.15-.05.2-.1a.538.538 0 0 1 .028.34c.062.009.053-.053.053-.106 0-.031.034-.041.034-.075s-.025-.031-.034-.059a.28.28 0 0 1 .022-.225c-.006-.028-.012-.053-.056-.044-.009.009-.006.037-.019.044a.173.173 0 0 1-.131-.078c.012-.1.131-.134.069-.246.087-.041.218.016.315-.031a1.007 1.007 0 0 0 .084.137.794.794 0 0 0-.134.312c.037.025.09.031.115.065.075-.059.2-.094.206-.193 0-.084-.087-.094-.078-.2a.575.575 0 0 0 .059-.062c.087-.019.159-.056.25-.075.022.019.016.059.037.075.028 0 .028-.022.044-.028.078 0 .069.065.072.128.09 0 .209-.016.352-.009.016.1.2.047.19.181m-2.4 9.15l.006.012c-.006.028-.025.044-.031.075-.016-.025-.031-.1.025-.087m-.031-.009v-.031h.019c-.006.012 0 .037-.019.031m.062-.212c.056-.025.019-.14.087-.125-.012.056-.016.172-.087.125m.7-9.035c.065.034.056.221-.034.218-.053-.075.012-.159.034-.218m.471-5.514v.037c-.075 0-.056.053-.1.084a.121.121 0 0 1-.131-.047c.037-.084.143-.09.234-.072m-.109-.094a.172.172 0 0 1 .087.012c-.016.012-.09.019-.087-.012m.3-.14c.041.012.044.062.072.09-.016.022-.059.016-.059.056-.012-.009-.031-.016-.028-.041s.006-.019.022-.016a.13.13 0 0 1-.006-.09m.025.181c-.019.019-.062.016-.062.053-.084.016-.134-.012-.156-.075.022-.016.037.012.065.006.069-.037.072.022.153.016m-.031 5.193a.2.2 0 0 1-.1.084.066.066 0 0 1-.028-.031c.019-.041.075-.106.128-.053m.652-5.458l.053.047.016-.016c.041.006.05.065.041.094-.047 0-.05-.044-.081-.059-.019.006.009.016 0 .034-.012-.006-.031-.009-.031-.028s.028-.037 0-.072m-.58-.377c.094-.009.059.112.112.147 0-.025.031-.022.059-.022a.041.041 0 0 1 .006.034c.1.087.271.084.343.206a.09.09 0 0 1-.059.065c-.034 0-.019-.05-.059-.047-.019.006.009.019-.006.025s-.031-.016-.047-.025c-.1.034-.206-.031-.3 0-.025 0-.022-.022-.041-.025a.088.088 0 0 1 .034-.053c-.012-.028-.037-.044-.047-.069s.031-.009.037-.019-.031-.019-.037-.034c.019-.075-.022-.125 0-.184M33.8 5.341c.056.053.2.016.243.078.034 0 .094-.012.075.028.025.006.041 0 .072.006-.009.022-.037 0-.047.012.006.053.09.041.14.053a.957.957 0 0 1 .24.065 2.026 2.026 0 0 1 .225.047c-.012.028-.025.022-.016.059-.019.006-.022-.006-.041-.006 0 .025.05.034.037.047a2.883 2.883 0 0 0-.365-.106c-.022.016.028.012.025.034-.022 0-.022-.016-.047-.012.128.087.324.094.455.2-.009.025-.012-.012-.031 0s.037.019.028.05c-.109-.022-.212-.056-.321-.078.078.069.234.059.3.137-.175-.009-.293-.078-.462-.09-.062-.087-.218-.075-.293-.147.012-.009.031 0 .053-.012a.078.078 0 0 0-.041-.053c.012-.009.031-.012.034-.028.044.009.053.056.1.059.009-.009.037 0 .028-.025h.1c-.009-.047-.081-.056-.125-.047-.14-.016-.253-.137-.4-.147l-.037.006a1.717 1.717 0 0 0-.346-.09l-.006.025c-.109 0-.221.019-.327.006a.683.683 0 0 1-.072-.028c-.041 0-.094.022-.122-.019a.268.268 0 0 0 .075-.006c-.025-.031-.119 0-.14-.031 0-.106.125-.1.215-.087-.019.016-.053.016-.062.041a.2.2 0 0 0 .087.059c0 .016-.016.016-.034.012a.4.4 0 0 1 .087.022c.022 0 .009-.034.022-.041-.012-.016-.047 0-.069-.006.006-.025-.012-.031-.025-.053a.244.244 0 0 1 .218-.016v-.024c.087.012.215-.009.253.053.131 0 .178.078.318.053m.954.742c-.022 0-.037 0-.034-.022.019 0 .034 0 .034.022m-.867-.365c-.006.022-.022.025-.028.047-.05 0-.106 0-.112-.041.034-.041.078-.006.14-.006m-.8-.3a.451.451 0 0 1 .168.022c.012.081.122.065.143.137-.047.006-.069.034-.112.034s-.072-.047-.128-.034c.022.022.069.016.087.034-.065.025-.15-.019-.212-.041.016-.031.053-.044.053-.09l.041-.009c0-.031-.041-.019-.041-.053m.14.359c-.019-.025-.006-.056-.006-.094a.52.52 0 0 1 .153.041c.05-.006.1.009.078.053a.5.5 0 0 0-.225 0m.006.019a.016.016 0 1 1-.031 0zm-.608-.661c.025-.006.084-.025.09.012.15.041.327-.012.5.022-.009.012-.016.012-.006.031-.187-.006-.39.009-.546-.012 0-.019-.006-.025.006-.031-.009-.016-.031-.012-.044-.022m.209-.094c0-.016-.009-.012 0-.025a.13.13 0 0 1-.1-.009 2.694 2.694 0 0 1 .614 0c.006.031-.09.044-.119.047-.012 0 .009.025.028.019-.006.025-.044.019-.075.019.019.009.016.022-.012.022 0 .016.031.009.041.019-.147.012-.3 0-.433 0 .006-.025.056-.009.081-.012.006-.022-.022-.006-.012-.028.044-.009.056.019.1.016-.028-.031-.065-.025-.109-.022l.012-.012c-.053-.012-.143.037-.231-.006 0-.016.022 0 .034-.006-.041-.016-.075 0-.112-.016.081-.062.193 0 .3 0m-.225.081c-.022.031-.078 0-.119.006.025-.031.1-.006.119-.006m-.012.059c-.022.034-.075 0-.106 0 .019-.025.087-.031.106 0m-.281-.006c0-.019.016-.028.016-.047.037.009.056-.006.087.006a.076.076 0 0 1-.1.041m.081.119c-.006.019-.025.022-.053.022-.009-.044.041-.041.053-.022m-.025-.225c-.012.022-.1.012-.1-.012.041.009.075 0 .1.012m-.059.078c-.006.016-.065.025-.056-.012.025 0 .034.012.056.012m.065.081c-.019.037-.069.037-.112.047.006-.025-.025-.025-.009-.041.034-.009.078 0 .122-.006m-.062.065c.009.022-.025.009-.034.012v-.017zm-.374-.159l.019-.006c.012.034.062.028.112.019-.025.037-.084.037-.147.041.031-.022.022-.012.016-.053m.078.119c-.025.006-.062.016-.065-.019.025 0 .069-.012.065.019m-.087.087a.137.137 0 0 1-.065.006c0-.037-.05-.044-.031-.078a.147.147 0 0 1 .1 0c.028.031-.012.034 0 .072m-.031-.165c-.009.019-.05.012-.072.019 0-.025.053-.031.072-.019m-.212-.053c0 .019-.037.012-.047.025-.016-.009.031-.022.047-.025m.125.037c0 .028-.041.022-.072.022 0 .012.031 0 .047.006-.028.025-.087.022-.14.025 0-.022.044-.009.059-.019-.031-.025-.072.006-.119 0 0-.012 0-.012-.012-.012a.342.342 0 0 1 .237-.022m-.855.162a.759.759 0 0 0 .253-.094 1 1 0 0 1 .293.012c-.022.031-.078.025-.122.034.053.022.1-.019.159-.012-.012.031-.065.025-.1.037.069.016.128-.034.2-.019l-.019.012c.047.016.1-.019.153-.006a.181.181 0 0 1-.034.065c.044.022.206-.028.212.053a.339.339 0 0 1-.225.022l-.006.025a1.192 1.192 0 0 1-.393.031c0-.012.019-.012.025-.019-.05-.041-.14.019-.19-.031a1.292 1.292 0 0 1 .4-.028.994.994 0 0 0-.365-.019c.022-.044.087-.019.125-.034-.031-.006-.059-.016-.09-.019a.6.6 0 0 1 .143-.047c-.156-.006-.268.081-.424.087.025-.031 0-.028.006-.053m-2.769.755a2.44 2.44 0 0 1 .443-.218c-.044 0-.087.028-.143.031a3.352 3.352 0 0 1 .574-.2c-.034-.022-.065.025-.106.022a1.057 1.057 0 0 1 .58-.193 4 4 0 0 1 .4-.047c0 .034.05.016.081.022 0 .012-.009.012-.006.025a.167.167 0 0 1 .056.016c-.016.044-.081.041-.1.084a.655.655 0 0 0 .231-.106c.019.022-.022.016-.028.034.1-.05.225-.034.324-.081.016 0 .009.012.022.016.031-.019.109-.047.14-.009.09.025.165-.041.243-.031.022 0 .028.019.047.025s.044 0 .059 0c.05.006.1.025.147.028.019 0 .037-.022.053 0a.244.244 0 0 1-.115.047c.072.037.259-.022.362-.006.019 0 .059.006.053.037.022 0 .016-.025.037-.019 0 .019-.016.019-.012.041s.062.006.078-.009c0-.022-.009-.028 0-.05.034-.025.109-.009.156-.022l-.009.022a2.075 2.075 0 0 0 .418.019c.025-.006.025.016.041.019a.13.13 0 0 1 .159.041.205.205 0 0 0 .087-.041c0-.016-.022-.012-.016-.037a1.177 1.177 0 0 0 .187-.05c-.022-.022-.012-.041-.012-.065-.062-.025-.128.025-.206-.012-.009-.028.034-.041-.016-.037.009-.031.05-.047.069-.016 0-.016 0-.041.031-.047 0-.031-.037-.031-.019-.059.053-.056.156-.019.253-.025a.107.107 0 0 1-.134.041c-.031.009-.041.041-.072.053.05.016.069.059.131.062 0 .019-.025.006-.019.028 0 .037.065.019.094.034.006.016.019.025.012.053a.162.162 0 0 0 .072.019.235.235 0 0 1 .022-.059.667.667 0 0 1 .084.028c0 .016-.025 0-.028.019a1.417 1.417 0 0 0 .175.131c-.056.09-.175.006-.259.016.041.05.159.016.184.078-.05.059-.131.031-.218.019-.016 0-.009.031-.025.034a.931.931 0 0 1-.269-.055c-.047.022-.15.037-.187-.006a.052.052 0 0 0-.016.065c.065.019.237-.044.231.081a.3.3 0 0 0-.206.059c.072.009.1.078.019.1.034.034.006.09 0 .147a.383.383 0 0 0 .159.109c0 .019.006.019.006.028 0 .037-.041.031-.031.075.019.016.056.009.053.047a.269.269 0 0 1 .112 0c.016 0 0-.041.012-.047s.037.016.053.022.019-.028.041-.025a.583.583 0 0 1 .3.078c0 .041-.031.047-.065.053.1.047.2-.078.293 0 .009.028.012.034-.006.053.047 0 .047.056.084.065.041-.019.022-.056.034-.1l.016-.009c.05.05.137.022.215.034.006.031-.012.037-.025.053 0 .016.025.012.034.028-.009.019-.041.016-.041.047a.093.093 0 0 1 .025.053c.009.016.025.009.028.016.019.044.006.112.047.128.022.009.056-.019.09-.012.053.009.065.065.09.106.115-.05.271.034.356-.065a.1.1 0 0 1-.006-.1c-.037-.025-.094-.087-.059-.14-.019-.041-.075-.037-.087-.084a1.262 1.262 0 0 0 .147-.168c-.025-.119-.147-.14-.181-.249a.124.124 0 0 1 .065-.028c-.009-.016-.031-.019-.044-.028s.019-.009.012-.031a.352.352 0 0 0-.147-.081c-.022-.022.028-.016.019-.047-.025-.025-.094-.012-.1-.065.056-.025.106.012.162.022s.119-.016.168-.012A.636.636 0 0 1 34.4 6c.065.016.15.009.19.053a.526.526 0 0 0 .112.175c.062-.053.128.022.165.056a.052.052 0 0 1 .066 0c.028-.009.031-.037.075-.031 0-.019-.022-.012-.016-.034.019 0 .041.006.047-.006-.028-.041-.019-.09-.031-.137a.86.86 0 0 0 .137.078c.047.025.087.059.134.087h.021c.019.009.028.031.044.041s.047 0 .069.019c.037.028.056.087.115.087.019.016-.016.016 0 .047.075.05.193.056.237.137h.041c.019 0 .025.019.037.025.041-.031.131.012.193.022a.072.072 0 0 1-.087.047c-.006.034-.022.019-.047.034a.034.034 0 0 1-.006.031c.006.022.041.022.065.019.019-.025.05-.034.05-.078.065.006.143.006.165.059.119-.031.162.112.25.153.009.041-.037.025-.037.059a.357.357 0 0 0-.134.012.314.314 0 0 1-.059.053l-.012.028c-.084.037-.193-.009-.3 0-.041 0-.075.012-.119.012-.081 0-.159.006-.234.006-.041.031-.028.147-.125.106a.241.241 0 0 0-.1.181c-.012.019-.044.028-.056.056.006.016 0 .037.019.041.065-.041.072-.1.112-.159.122-.065.368-.181.487-.037-.016.025-.028.056-.059.065A.094.094 0 0 0 35.7 7.3c.044.047.112.053.159.084a.1.1 0 0 1-.044.062.344.344 0 0 1 .2.143c-.009.034-.065.016-.075.047-.041.006-.037-.028-.062-.034-.019.059-.081.028-.14.041-.025.009-.016.053-.034.065-.062.022-.075-.078-.1-.078-.05 0-.019.072-.006.119a.045.045 0 0 1-.065-.006c-.047.062-.147.137-.14.234 0 .044.05.072.028.125-.037 0-.075.006-.119.012-.028-.022-.006-.094-.044-.106a.084.084 0 0 0 .022.094.386.386 0 0 0-.1.065c-.081-.016-.125.072-.162.125h-.048v.047c-.119.009-.156.1-.218.162.028.053-.025.1-.025.131-.009.059.05.1.044.178a.716.716 0 0 0-.081.125c-.072.006-.075.084-.122.115a.1.1 0 0 1-.065-.016c-.031.031-.025.084-.056.106a.143.143 0 0 1-.041-.025c-.016.019-.022.056-.059.059.006.025.041.019.041.047a.1.1 0 0 1-.162.012c-.019.041.028.062.031.1-.031.025-.037.075-.069.1-.019 0-.031-.016-.047-.019-.037.006-.047.041-.062.065.012.019.05.016.069.031a.215.215 0 0 1-.225.119c-.016-.028 0-.065 0-.1-.056-.034-.1.053-.153.019a.107.107 0 0 1-.14.041c-.022 0 .009.037-.012.05-.075 0-.09-.056-.159-.062-.037.006-.047.037-.084.044-.022-.031.012-.041.012-.072a.609.609 0 0 0-.249 0v.065c-.031.019-.1.025-.109-.019-.012 0 0 .022-.006.031a.347.347 0 0 1-.234-.031c0-.028.025-.028.028-.047-.053-.031-.159-.006-.231-.012a.1.1 0 0 1-.15.053c-.022.009-.028.034-.044.047-.028 0-.019-.037-.031-.059-.022 0-.053-.006-.065.006-.009.031.025.025.025.053a.087.087 0 0 1-.134-.025.117.117 0 0 0-.072.016c.009.022.05.009.053.034-.006.065-.084.05-.1.106-.019 0-.025-.012-.041-.022a.165.165 0 0 1-.125.1.822.822 0 0 1-.2.2.39.39 0 0 0-.006.065c-.075.062-.006.228-.106.271.112.05-.006.218.087.284 0 .059-.034.087-.047.134.006.025.044.022.065.012a.144.144 0 0 1-.094.15c-.025.006-.028-.016-.044-.025-.05.028-.037.119-.069.165.016.047.084.031.094.081.053-.053.112 0 .147.041l-.012.047c.062.059.115.128.184.184.041.122-.034.334.1.34.041 0 .072-.05.134-.022 0 .031-.022.037-.028.059a.082.082 0 0 0 .059.059c.037.006.028-.034.053-.041a.147.147 0 0 1 .087.016.966.966 0 0 1 .583.044l.025-.012c.006-.041-.022-.044-.025-.072a.1.1 0 0 0 .05-.119c-.025 0-.047.016-.065 0a.921.921 0 0 1 .094-.119c.028 0 .025.034.047.047.041-.019-.006-.072-.012-.1a.6.6 0 0 0 .037-.156c.131-.034.165.081.221.14 0 .031-.031.028-.041.047.062.034.056.2-.012.218a.179.179 0 0 1 .012.087c.031.037.1.034.106.09-.041.069-.106.112-.143.181 0 .022.022.034.019.069-.025.009-.069 0-.087.016.034.044.09-.009.134.022.025 0 .012-.047.031-.059a.087.087 0 0 0 .106-.012c.022.019.019.065.041.084.025-.006.016-.05.031-.065s.072-.031.094-.006a.257.257 0 0 1 .218-.012.292.292 0 0 1 .281.056c.006.047.047.059.044.115 0 .016-.012.016-.025.022.047.081-.025.156-.044.218.006.078.109.1.09.184h-.037a.179.179 0 0 0 .078.131c-.009.075-.009.153-.062.181a.815.815 0 0 0 .221.131 1.514 1.514 0 0 0 .212.212c.072-.006.128.012.2 0a.2.2 0 0 1 .2-.034c0 .119-.162.075-.2.153.031.031.075.059.109.087.009.028-.05.047-.059.078-.069 0-.059-.084-.087-.131-.034-.006-.037.022-.062.025-.006-.031-.047-.034-.056-.065a.52.52 0 0 0-.178-.059c-.134-.025-.181-.165-.312-.193a.2.2 0 0 0-.106-.1.163.163 0 0 0-.025-.075h-.084c-.022-.041-.059-.072-.031-.125.1 0 .134.119.246.059-.012-.059-.056-.065-.084-.115s-.162-.162-.24-.122a.084.084 0 0 1 .006.106c-.084-.034-.106-.125-.156-.19 0-.022.028-.019.022-.044-.016-.078-.1-.084-.15-.128-.037 0-.034.034-.059.044-.062.019-.094-.019-.153-.028s-.1.006-.137-.006-.081-.062-.115-.081-.062 0-.078-.034c-.053-.019-.122 0-.181-.025-.041-.019-.047-.084-.106-.087-.072-.115-.215-.159-.3-.265-.09.006-.112-.059-.225-.037-.022.012-.016.053-.031.075a.262.262 0 0 0-.134.056.973.973 0 0 1-.377-.094c-.041-.065-.134-.069-.212-.084-.094-.019-.159-.087-.259-.087-.037-.056-.109-.081-.153-.131-.072.006-.143 0-.172-.041a.154.154 0 0 1-.106-.025c0-.022-.009-.025-.006-.047-.034-.087-.172-.072-.234-.131 0-.084-.156-.168-.022-.206a.924.924 0 0 1 .05-.221.705.705 0 0 0-.24-.29c0-.094-.078-.1-.084-.187-.075-.072-.112-.181-.212-.225 0-.078-.062-.09-.062-.165-.009-.012-.034-.019-.05-.028 0-.081-.094-.075-.119-.131a.226.226 0 0 1-.081.006c.022-.075-.012-.206-.112-.178-.019-.047-.034-.1-.053-.143a.18.18 0 0 0-.2-.256c0-.034.016-.112.05-.137-.119-.009-.109-.137-.215-.153-.009.022.034.062-.006.084.044.072-.016.2.094.218a2.294 2.294 0 0 0 .006.287c.106.044.125.175.2.253-.031.069.019.084.044.125s.025.147.087.14a.733.733 0 0 0 .1.278c-.041.047 0 .1.016.143.022 0 .028-.019.044-.025.069.037.137.193.006.212-.016-.178-.231-.193-.19-.405-.044-.1-.131-.15-.181-.243l.009-.047a.423.423 0 0 1-.112-.237c-.025-.028-.056-.044-.062-.087-.05-.047-.122-.053-.14-.134 0-.022.009-.05.009-.078-.006-.044-.044-.084-.053-.125-.016-.059.006-.115-.041-.147.044-.1-.031-.15-.047-.225-.022-.037-.065-.034-.112-.028a.259.259 0 0 0-.206-.072c.084-.134-.165-.228-.019-.324 0-.037-.05-.022-.062-.047s.056-.019.069-.037a.107.107 0 0 0-.028-.069c.006-.019.031-.022.059-.019a.591.591 0 0 1 .075.162c.078.012.031.112.078.147a.088.088 0 0 0 .069-.053.153.153 0 0 0-.062-.094c-.059-.128-.012-.293-.059-.421-.119.019-.047.15-.112.212-.028.006-.072 0-.078.034-.031 0 0-.025.006-.034a.207.207 0 0 0-.059-.028c-.047-.081.044-.172-.022-.246a.51.51 0 0 0 .162-.337 1.257 1.257 0 0 0 .262-.377c.019-.009.031-.025.053-.028a.291.291 0 0 1 .053-.1.145.145 0 0 1 0-.147c.05-.006.106.025.165.025-.016.053-.081.059-.1.112A.26.26 0 0 0 29.2 7.3c0-.025-.012-.031-.012-.053.028-.006.034-.034.053-.047 0-.044-.081-.009-.081-.053-.012 0-.022.009-.044.006 0-.034-.05-.053-.069-.087-.041.016-.05.047-.041.094a.088.088 0 0 0 .062.022c0 .034.016.081-.016.1a.288.288 0 0 1-.09-.012c-.022-.078-.115-.084-.122-.159l-.045-.011c0-.022 0-.041-.016-.047 0-.022.031-.019.041-.034.025.025.109.059.131.009.006-.037-.031-.034-.056-.041a.485.485 0 0 1 .065-.14c-.012-.019-.034-.022-.062-.025 0-.031.022-.037.028-.056s-.037.006-.053-.012c.034-.062.09-.109.087-.178-.009-.016-.025-.009-.041-.006l.041-.07c0-.016-.025 0-.034-.006.031-.025-.022-.016.006-.041-.006-.019-.022.012-.034-.009.044-.034.1-.056.128-.109 0 0-.019-.028 0-.028 0-.019-.019.006-.034 0 .016-.031.044-.053.053-.087-.041.019-.05.072-.1.081.012-.019 0-.028.016-.047-.056.006-.069.072-.128.031.019-.016 0-.037.028-.056-.034-.016-.009-.047.006-.062-.09.047-.115-.022-.206 0 .006-.022-.025-.012-.006-.031a.077.077 0 0 1-.053 0l.012-.031c-.094-.006-.143.056-.212.094a.743.743 0 0 0-.231.075c-.022-.019.031-.019.041-.028.087-.1.271-.1.362-.206a8.239 8.239 0 0 0-.78.387c-.025-.05.065-.069.119-.084h-.028c.05-.053.147-.053.206-.094a.3.3 0 0 0-.143.044c0-.012-.028-.009-.012-.025-.053.016-.084.053-.134.065l.012-.012c-.006-.012-.028.019-.047.012a5.657 5.657 0 0 1 .577-.312c-.062-.012-.09.062-.159.062m4.56-.234c-.019.009-.056.016-.072 0 0-.037.069-.031.072 0m3.268 1.325c-.031.022-.125 0-.122-.053a.192.192 0 0 1 .122.053m-1.856 5.215c-.016.016-.031 0-.047 0 .006-.019.05-.028.047 0m-1.971-.614c-.047 0-.069-.022-.072-.047-.012-.087.143-.034.072.047m-3.53-4.937c-.031 0 0-.131.034-.137.022-.006.016.019.044.009a.051.051 0 0 1-.037.028c.009.025-.022.1-.041.1m.131-.365c.056-.044.028-.2.14-.147-.044.053-.072.119-.14.147m.2-.153a.1.1 0 0 1-.087.078c.028-.028.044-.065.087-.078m-.087.18c-.025.025-.028.072-.059.094s0-.031-.025-.022c0-.044.05-.037.047-.084.025-.009.012.019.037.012m-.986-.1a.371.371 0 0 1-.165.078.294.294 0 0 1 .165-.078m-.218.053a.54.54 0 0 1-.165.078c.034-.044.112-.05.165-.078m-.234.106c0 .028-.072.05-.119.059a.283.283 0 0 1 .119-.059m-.156.072c0 .025-.028.009-.034.028-.016-.009.019-.028.034-.028" class="cls-2" transform="translate(47.784 10.518)"/>
                        <path id="Path_2608" d="M154.013 0L80.541 39.633 6.256.056H0l80.482 68.375L160.447 0z" class="cls-2"/>
                    </g>
                    <g id="Group_4753" transform="translate(0 79.453)">
                        <path id="Path_2605" d="M92.907 6.373c0 3.554-2.734 6.3-6.685 6.3H82.4a6 6 0 0 0 1.875-2.011h1.947a4.1 4.1 0 0 0 4.366-4.253 4.128 4.128 0 0 0-4.366-4.3h-2.478v1.854a5.982 5.982 0 0 0-1.269-1.184 5.832 5.832 0 0 0-.939-.528V.1h4.686c3.951 0 6.685 2.716 6.685 6.273m1.256 6.378h2.177V3.259h-2.177zm10.244-4.7a4.3 4.3 0 0 0-.944-.529 10.316 10.316 0 0 0-1.04-.374c-.274-.1-.542-.188-.8-.273a5.508 5.508 0 0 1-.684-.276 1.644 1.644 0 0 1-.475-.348.584.584 0 0 1-.178-.436v-.036a.84.84 0 0 1 .348-.689 1.608 1.608 0 0 1 .978-.268 4.087 4.087 0 0 1 1.3.243 7.112 7.112 0 0 1 1.385.657l.861-1.543a6.3 6.3 0 0 0-1.671-.792 5.9 5.9 0 0 0-1.816-.287 4.348 4.348 0 0 0-1.316.2 3.309 3.309 0 0 0-1.081.575 2.717 2.717 0 0 0-.719.91 2.675 2.675 0 0 0-.261 1.21v.039a2.3 2.3 0 0 0 .268 1.151 2.578 2.578 0 0 0 .694.777 3.6 3.6 0 0 0 .952.514c.354.129.706.25 1.052.343.276.082.542.165.8.242a3.74 3.74 0 0 1 .683.271 1.531 1.531 0 0 1 .469.348.692.692 0 0 1 .172.469v.031a.871.871 0 0 1-.389.748 1.813 1.813 0 0 1-1.088.279 4.364 4.364 0 0 1-1.534-.3 6.042 6.042 0 0 1-1.573-.869l-.972 1.476a6.665 6.665 0 0 0 1.95 1.058 6.326 6.326 0 0 0 2.078.358 4.982 4.982 0 0 0 1.382-.185 3.348 3.348 0 0 0 1.119-.56 2.514 2.514 0 0 0 .75-.928 2.94 2.94 0 0 0 .271-1.307v-.042a2.074 2.074 0 0 0-.271-1.093 2.629 2.629 0 0 0-.693-.766m20.988-1.98a4.827 4.827 0 0 1 .379 1.916v.039a4.694 4.694 0 0 1-.389 1.9 4.932 4.932 0 0 1-2.667 2.643 5.114 5.114 0 0 1-2.025.4 5.167 5.167 0 0 1-2-.384 4.968 4.968 0 0 1-1.6-1.057 4.734 4.734 0 0 1-1.052-1.563 4.856 4.856 0 0 1-.374-1.906v-.032a4.859 4.859 0 0 1 .379-1.927 4.955 4.955 0 0 1 2.647-2.64 4.99 4.99 0 0 1 2.019-.39 5.158 5.158 0 0 1 2.024.382 4.871 4.871 0 0 1 1.6 1.062 4.8 4.8 0 0 1 1.049 1.558M123.6 8.025a3.389 3.389 0 0 0-.216-1.189 2.866 2.866 0 0 0-4.781-.978 2.6 2.6 0 0 0-.577.952 3.425 3.425 0 0 0-.2 1.176v.039a3.248 3.248 0 0 0 .212 1.163 3.043 3.043 0 0 0 .6.983 2.906 2.906 0 0 0 .915.666 3.019 3.019 0 0 0 2.352 0 2.735 2.735 0 0 0 .913-.661 2.81 2.81 0 0 0 .575-.96 3.356 3.356 0 0 0 .2-1.158zm7.149 2.208L128.2 3.259h-2.34l3.9 9.561h1.958l3.887-9.561h-2.285zm13.96-4.015A6.512 6.512 0 0 1 145 8.165c0 .1 0 .2-.008.3s-.02.2-.031.315h-6.969a2.638 2.638 0 0 0 2.731 2.406 3.128 3.128 0 0 0 1.4-.291 4.537 4.537 0 0 0 1.168-.84l1.279 1.13a5.239 5.239 0 0 1-1.63 1.294 4.839 4.839 0 0 1-2.256.487 5.1 5.1 0 0 1-1.917-.359 4.766 4.766 0 0 1-1.547-1.007 4.656 4.656 0 0 1-1.027-1.55 5.184 5.184 0 0 1-.379-2.007V8a5.4 5.4 0 0 1 .341-1.917 4.659 4.659 0 0 1 .964-1.571 4.4 4.4 0 0 1 3.33-1.444 4.579 4.579 0 0 1 1.989.407 4.142 4.142 0 0 1 1.418 1.116 4.727 4.727 0 0 1 .854 1.628m-1.868.89a2.287 2.287 0 0 0-.234-.748 2.622 2.622 0 0 0-.485-.8 2.17 2.17 0 0 0-.732-.536 2.4 2.4 0 0 0-.955-.183 2.209 2.209 0 0 0-1.669.691 2.492 2.492 0 0 0-.794 1.574zm-31.483 3.967A2.892 2.892 0 0 1 108.521 8a2.855 2.855 0 0 1 2.729-3.038 3.2 3.2 0 0 1 2.463 1.189l1.349-1.457a4.744 4.744 0 0 0-3.791-1.632 4.893 4.893 0 0 0-4.921 4.975 4.975 4.975 0 0 0 8.782 3.147l-1.312-1.292a3.362 3.362 0 0 1-2.463 1.182M148.8 4.83V3.259h-2.176v9.493h2.176V9.137a4.736 4.736 0 0 1 .235-1.656 4.139 4.139 0 0 1 3.427-2.354l-.748-1.813A4.792 4.792 0 0 0 148.8 4.83m11.359-1.571l-2.435 6.958-2.267-6.958h-2.327l3.526 9.426-.023.059a7.343 7.343 0 0 1-1.351 2.391 5.418 5.418 0 0 1-2.1.2v1.775a8.7 8.7 0 0 0 3.147-.318 3.013 3.013 0 0 0 1.383-1.664c.549-1.1 4.7-11.872 4.7-11.872z" class="cls-2" transform="translate(-33.802 -.1)"/>
                        <path id="Path_2606" d="M52.311 13.3h2.234l6.318 12.245L67.2 13.3h2.158l-7.633 14.319h-1.777zm25.888 0h12.84v1.462H80.2v4.856h9.7v1.46h-9.7v4.973h10.965v1.46H78.2zm22.335 0h2v12.736h10v1.48h-12zm19.237 7.149v-.041c0-3.918 3.68-7.35 9.084-7.35s9.034 3.389 9.034 7.307c.023.021.023.021 0 .042 0 3.917-3.68 7.347-9.084 7.347s-9.034-3.386-9.034-7.306m16.036 0v-.041c0-3.229-2.943-5.87-7-5.87s-6.953 2.6-6.953 5.828v.042c0 3.227 2.945 5.867 7 5.867s6.951-2.6 6.951-5.826m10.87 0v-.041c0-4.02 3.752-7.35 8.98-7.35a10.5 10.5 0 0 1 6.928 2.252l-1.369 1.179a8.707 8.707 0 0 0-5.583-1.952c-3.933 0-6.878 2.561-6.878 5.828v.042c0 3.288 2.968 5.867 6.878 5.867a8.668 8.668 0 0 0 5.733-2.048l1.32 1.032a10.384 10.384 0 0 1-7.1 2.5c-5.127 0-8.906-3.226-8.906-7.306M171.7 13.3h2.007v14.216H171.7zm17.235 1.483h-5.966V13.3h13.957v1.483h-5.963v12.733h-2.027zm22.636 7.1l-7.384-8.583h2.439l5.988 7.108 6.038-7.108h2.336l-7.386 8.57v5.641h-2.032z" class="cls-2" transform="translate(-52.311 8.109)"/>
                        <path id="Path_2611" d="M86.921 6.684a4.967 4.967 0 1 0-4.967 4.967 4.967 4.967 0 0 0 4.967-4.967m-2.138-2.179l-.015.013a.107.107 0 0 1-.06.015.68.68 0 0 1-.441-.212V4.27l.015-.038c.008-.016.057-.011.078-.031a1.17 1.17 0 0 1 .426.305m-1.119-1.143c.047.023.018.065.033.069a.945.945 0 0 1 .157.065.6.6 0 0 1 .041-.073l.056-.047h.07a.293.293 0 0 1 .082-.013.21.21 0 0 1 .2.122.068.068 0 0 1-.034.029h-.021a.05.05 0 0 1-.039-.016v-.033a.329.329 0 0 0-.07.041.41.41 0 0 0-.08-.016h-.026v.016c0 .011 0 .02-.02.038-.07 0-.147.059-.209.06a.062.062 0 0 1-.036-.016v-.015a.4.4 0 0 1 .008-.042v-.01a.057.057 0 0 1-.023-.02.146.146 0 0 1-.038 0 .211.211 0 0 1-.2-.121l.013-.007c.031 0 .065.013.09.013a.1.1 0 0 0 .057-.023m.158.75c0 .024.064.057.093.075v.016l-.011.015a.475.475 0 0 1-.054.015 1.417 1.417 0 0 0-.222-.106c0-.01 0-.018.01-.021a.04.04 0 0 1-.039-.029.386.386 0 0 0 .049-.154V3.91h-.008c-.038-.015-.1 0-.147-.039v-.016l.016-.018-.076-.037c-.069-.029-.131-.067-.2-.1H83.2a.2.2 0 0 1-.137-.087v-.018c.026-.018.1-.028.132-.046a.135.135 0 0 1 .065.1c.044-.011.088-.023.136-.033a.614.614 0 0 1 .332.186 1.114 1.114 0 0 1 .132.1c0 .011 0 .021-.028.034l.314.168-.008.02-.041.02c-.1-.02-.131-.059-.191-.057h-.082zm-.45 3.086c-.116.024-.131.186-.294.062-.029-.021-.031-.069-.057-.088-.051-.038-.149 0-.158-.075v-.01c.038-.013.051.033.088.023l.015-.018c.01-.039 0-.083.018-.111.1-.031.17.023.252-.033a.074.074 0 0 1 .036.007.561.561 0 0 0 .046.043c.069.021.1-.044.158-.034.028.021.016.056.034.085.031.046.219.111.18.173a.345.345 0 0 1-.173 0 .28.28 0 0 0-.145-.026m.132.521l-.015.021c-.041.015-.145.033-.172-.008V7.71c.021-.039.064-.051.1-.072a.085.085 0 0 1 .082.087m-.812-2.411c-.016.015-.033.029-.047.028a.081.081 0 0 1 .013.041.048.048 0 0 1-.021.039.106.106 0 0 1-.06.013h-.018A.09.09 0 0 0 82.5 5.4h-.024a.048.048 0 0 1-.007.036c-.026 0-.028.029-.06.052h-.02a.053.053 0 0 1-.041-.02v-.039l-.074.042c-.028.033 0 .093-.067.118l-.016-.013a.131.131 0 0 1 0-.034v-.01c-.02 0-.034.025-.065.026a.041.041 0 0 1-.028-.01.03.03 0 0 1-.007-.031 1.23 1.23 0 0 1 .346-.341c.026-.023.108-.073.1-.1-.007-.025-.037-.024-.037-.076.033-.041.083-.075.095-.113 0-.007-.01-.015 0-.015a.284.284 0 0 1-.085 0 .092.092 0 0 1-.07.067v-.007l-.13-.012-.09.029a.555.555 0 0 0-.194.18v.007c0 .008.011.016.013.038v.007l-.028.064v.005a.14.14 0 0 1 0 .067l-.052-.007a.124.124 0 0 0-.018-.026h-.01a.1.1 0 0 1-.031.057.071.071 0 0 1-.031.007h-.049c0 .054-.036.09-.034.118v.015c.029.01.085.015.106.056a.427.427 0 0 1 0 .077v.01a.139.139 0 0 1 .08-.007v.02c-.026.034-.054.067-.088.1a.2.2 0 0 1-.049.008c-.01.013-.02.023-.036.041l-.042.011-.052.054a1.521 1.521 0 0 0-.147.091h-.015l-.023-.02c0-.01-.021-.024-.031-.023-.007 0-.016.007-.018 0v.033a.038.038 0 0 1-.011.028.619.619 0 0 0-.1.015c-.015 0-.016.021-.041.041l-.031.008c-.036.018-.065.06-.113.078A.827.827 0 0 1 81 6.14a.6.6 0 0 1-.132.044c-.007 0-.015 0-.034-.016l.007-.02A.762.762 0 0 0 81 6.027a.032.032 0 0 1 .026-.02h.016l.018-.01h.013s.021-.011.042-.015h.013a.062.062 0 0 0 .062-.051l-.015-.052c-.064.02-.132.026-.189.049-.038.015-.069.052-.121.065a.426.426 0 0 1-.113.011h-.07a.615.615 0 0 0-.095.007c-.046.008-.082.038-.132.047a.263.263 0 0 1-.075-.02.389.389 0 0 1-.268.119h-.029a1.052 1.052 0 0 0-.106-.028.085.085 0 0 0-.039.008.306.306 0 0 1-.023.056.268.268 0 0 1-.051.01c-.049 0-.049-.034-.093-.046a.053.053 0 0 0-.026 0c-.034 0-.073.016-.113.016h-.01v-.005l-.008.01a.117.117 0 0 1 .057.056l-.007.015a.124.124 0 0 1-.028.021h-.008c-.064 0-.083-.052-.114-.072l-.07-.039-.016.01h-.015c-.015 0-.028.008-.062.008-.025-.034-.041-.078-.065-.091a.485.485 0 0 1-.062.016h-.016c-.021.008-.026.042-.06.073l-.034-.008v-.016l.016-.036a1.5 1.5 0 0 0-.046-.163h-.013c-.038.024-.074.049-.123.075-.064-.026-.175-.059-.206-.132v-.02a.058.058 0 0 1 .015-.038.125.125 0 0 1 .033 0c.042.021.065.008.121.029.01 0 .011-.007.011-.016a.224.224 0 0 0-.029-.078l-.167-.189c-.039 0-.069.052-.137.067l-.018-.018c0-.062.028-.072.038-.1v-.046a.043.043 0 0 1 .02-.039.057.057 0 0 1 .028.011c0 .021.008.031 0 .038.015 0 .059-.083.065-.1a.042.042 0 0 1-.02-.044v.007l-.002-.08-.034-.051-.09.078h-.015l-.015-.015c0-.024 0-.038-.011-.041h-.008c-.02 0-.041.015-.069.015l-.018-.011v-.016c0-.015.011-.02.018-.028s.034-.024.054-.038a.065.065 0 0 1 .029 0h.046l.008-.039c.01-.015.059-.064.057-.09a.044.044 0 0 0-.013-.026.415.415 0 0 1-.049.06.219.219 0 0 1-.057-.011.121.121 0 0 1-.015-.052.062.062 0 0 1 .026-.057.141.141 0 0 1-.013-.062.3.3 0 0 1 .038-.149c.057 0 .036-.039.072-.087.018-.02.041-.018.042-.026.023-.026 0-.085.062-.1l.015.011v.026a.332.332 0 0 1-.039.116c-.023.056-.044.111-.065.16 0 .021.01.042.015.072s-.011.029-.01.038a.335.335 0 0 0 .028-.024h.015l.02.013h.008c.02-.1.082-.158.1-.245v-.026c0-.029-.011-.057-.011-.091v-.011a.183.183 0 0 0 .059-.113v-.018a.45.45 0 0 0-.049.011c-.013-.011-.029-.024-.047-.042V4.4c0-.051.026-.059.036-.082a.486.486 0 0 1 .013-.059.7.7 0 0 1 .056-.09l.037-.034c.049-.09.1-.261.191-.315l.054-.024a.787.787 0 0 1 .194-.211l.047-.01.013.018a1.459 1.459 0 0 0-.067.167c-.108.028-.106.129-.178.194a.174.174 0 0 1 .012.046c0 .031-.015.024-.021.069v.026a.036.036 0 0 1-.008.024.245.245 0 0 1-.036.036l-.02.085c-.011.042-.028.09-.044.136-.036.07-.074.137-.108.2v.083a.357.357 0 0 1-.155.212h-.01a.092.092 0 0 1 .028.062.062.062 0 0 1-.006.028c-.026.023-.078.049-.077.085v.011a.082.082 0 0 1 .016.041v.013c-.008.023-.02.026-.016.029l.078.082.031.016a.178.178 0 0 1 .051-.034l.011.015v.023a.344.344 0 0 1-.028.154l-.01.016.021.02a.1.1 0 0 0 .069.1.386.386 0 0 0 .054.011.394.394 0 0 1 .127.116c.028.041.046.121.078.134h.033c.044 0 .085-.039.132-.041.023 0 .047.013.069.056a.124.124 0 0 1-.028.038h-.026a1.334 1.334 0 0 0 .147.08c.011.011.025.023.033.033.024.018.062.013.106.023s.075.031.108.039a.306.306 0 0 1 .046-.007.333.333 0 0 1 .044.011h.008c.011 0 .02-.008.041-.015l.077.01a1.037 1.037 0 0 0 .119-.02c.06-.016.144 0 .181-.023a.416.416 0 0 0 .106-.14h.021l.065.08h.036c.129 0 .149 0 .229-.1h.008a.477.477 0 0 0 .1-.011c.031 0 .054-.008.062-.008h.007c-.029-.021-.057-.034-.1-.062v-.02A.76.76 0 0 1 81 5.661h.015a.241.241 0 0 1 .054.016l.078-.016.067-.041.147-.057a1.292 1.292 0 0 0 .348-.325c.039-.046.17-.158.168-.23v-.013c-.049-.217-.188-.261-.421-.3a.2.2 0 0 0-.042 0c-.062 0-.122.021-.185.021a.165.165 0 0 1-.047-.007c-.029-.013-.057-.026-.087-.038a.524.524 0 0 0-.189-.034.4.4 0 0 0-.078.008.522.522 0 0 0-.165.06l-.087.06a.148.148 0 0 1-.046.007c-.031 0-.065-.01-.095-.008a.128.128 0 0 0-.036 0c-.021.007-.039.036-.077.059a.179.179 0 0 1-.052-.029.063.063 0 0 0 .007-.029v-.01h-.007c-.013 0-.02 0-.029.01a.112.112 0 0 1-.047.008h-.013v-.015a.5.5 0 0 1 .049-.088.229.229 0 0 1 .062-.007.425.425 0 0 0 .028-.046.272.272 0 0 1 .069-.047l-.007-.039h-.015c-.024.01-.049.021-.069.028s0 .015-.018.031h-.023a.062.062 0 0 1-.059-.047l.011-.011c0-.024-.015-.026-.034-.028s-.047.007-.072.007a.065.065 0 0 1-.047-.016v-.02h.011c.06-.031.144-.023.185-.051a.272.272 0 0 1 .049-.049c.02 0 .049.007.074.007s.031 0 .036.007v-.024c0-.09.085-.188.083-.289v-.02L80.477 4l-.065.01s-.024.023-.033.024a.392.392 0 0 1-.02.114.324.324 0 0 1-.065.007.3.3 0 0 0-.039-.046h-.007v.013a.165.165 0 0 1-.034.034l-.029-.007-.028-.036v-.034c-.054.026-.1.082-.17.083-.008 0-.018 0-.015-.008-.036.042-.127.111-.137.165a.3.3 0 0 1 .006.041v.015c-.028.026-.067.034-.083.056a.981.981 0 0 1-.119.163.371.371 0 0 1-.049-.013h-.007c-.023 0-.01.057-.059.072l-.015.007h-.013v-.023-.06c-.088.016-.106.087-.144.185a.311.311 0 0 0-.033.095l.015.052.054.034c.013 0 .008-.047.018-.047a.067.067 0 0 1 .054.028v.029c0 .013 0 .016.013.025a1.457 1.457 0 0 0 .252.121v.046h-.011c-.01 0-.007 0-.036.015l-.028-.007a.139.139 0 0 0 .118.078.152.152 0 0 0 .038 0 .093.093 0 0 0 .062-.033l.1-.018a.12.12 0 0 0 .077.031h.008l.052-.039a.078.078 0 0 1 .038-.008h.055a.45.45 0 0 1 .114-.036h.02c.021.013.042.021.06.033a.105.105 0 0 1 .062.039l-.007.026c-.011 0-.023.01-.026 0l-.013.013h.02c.052 0 .132-.072.2-.073a.053.053 0 0 1 .034.013c0 .013.008.028 0 .033h.01c.028 0 .059-.013.093-.015h.025c.031.008.059.026.088.033H80.989a.1.1 0 0 1 .082.036v.015c-.029.021-.067.021-.088.034s-.036.036-.062.059l-.088-.007h-.085a.2.2 0 0 0-.052.008l-.119-.039c-.016.02-.073.039-.069.047s0 0 0 .007c.011.023.026.023.064.049v.034a.124.124 0 0 1-.062.056l-.082-.018c-.052.011-.092.083-.158.085a.081.081 0 0 1-.031-.007l-.134-.07c-.036.01-.085.016-.106.021h-.008c.026.042.013.065.036.1l-.008.018-.06.01c-.036-.028-.08-.059-.106-.078-.054.013-.064 0-.087.02a.479.479 0 0 1 .09.193.715.715 0 0 1-.095.049c-.018-.015-.075-.02-.1-.041l-.042-.067a1.233 1.233 0 0 1-.14-.209l-.033-.018c-.013-.016-.026-.034-.036-.049-.042-.033-.093-.044-.131-.093a.216.216 0 0 1-.023-.077l-.064-.091c-.022-.032-.006-.064-.018-.082l-.059-.062.026-.057v-.084c0-.034 0-.072.039-.073.011 0 .021 0 .021.011s.013-.01.015 0v-.167a.82.82 0 0 1 .029-.265c.025-.051.078-.073.093-.113l.024-.018a.723.723 0 0 0 .067-.163 1.074 1.074 0 0 1 .25-.376c.08-.057.2-.073.279-.121l-.008-.01v-.016l.011-.007c.041-.021.031-.008.054-.028h.008a.1.1 0 0 1-.031-.023v-.046a.2.2 0 0 1-.042-.026v-.003a.108.108 0 0 1 .006-.049.081.081 0 0 1 .026 0 .069.069 0 0 0 .057.031c.078 0 .191-.127.3-.131.008 0 .016 0 .034.02l-.077.181.029.042c.235-.015.147-.232.317-.287l.058-.025a.917.917 0 0 1 .126-.1l.358-.1a.3.3 0 0 1 .1-.016c.042 0 .08.007.114.008h.077c.026 0 .054-.018.069-.02v-.046a.074.074 0 0 1 .016-.047h.025a.114.114 0 0 1 .08.028C81.66 3 81.652 3 81.64 3a.19.19 0 0 0 .054 0h.085a.144.144 0 0 1 .069.013v.028a.127.127 0 0 1-.021.064c.044 0 .109 0 .14.041a.256.256 0 0 0-.016.038.719.719 0 0 1 .078 0 .2.2 0 0 1 .183.1.124.124 0 0 1-.031.049c-.041-.007-.091-.039-.127-.038h-.021l-.01.015c.077.021.106.08.178.093v-.026c0-.008 0-.015.021-.026.028.01.1.015.126.052l.006.013-.006.018-.033.01-.062-.034a.332.332 0 0 1-.021.09h-.016c-.074 0-.1-.046-.154-.064h-.018l-.013.023a.117.117 0 0 1-.072-.047V3.4c0-.018-.018-.011-.026-.044V3.319a1.805 1.805 0 0 0-.219-.06l-.1-.024c-.02.02-.067.023-.067.033a.74.74 0 0 1-.119.013l-.038.036a2.26 2.26 0 0 1 .364.056v.015c0 .013.059.028.074.057.075.021.238.085.268.152.007.028.113.044.139.082s.054.109.087.165c-.01.021-.025.016-.033.024l-.008.011h-.018c-.108-.052-.19-.2-.438-.216h-.09l-.023-.033h-.016a2.008 2.008 0 0 0-.261.034h-.023c-.023 0-.031-.047-.051-.047l-.043.02.026.047.038.026a.075.075 0 0 1-.028.031.372.372 0 0 0-.073-.007.874.874 0 0 0-.219.036.3.3 0 0 0-.06-.042c-.07.073-.144.082-.207.145l-.059.083c0 .039.038.09.042.136v.007a.35.35 0 0 1-.137.211h-.007a.46.46 0 0 0 .1.021.084.084 0 0 0 .041-.01.128.128 0 0 1 .062-.039c.024.023.028.052.044.057h.013c.023 0 .038-.023.075-.041.036.023.057.008.118.028.007.031.01.025.054.051-.016.049-.085.073-.08.1a.314.314 0 0 0 .212-.121.629.629 0 0 0 .091.008c.031 0 .044 0 .044-.018V4.34c0-.007-.09-.028-.124-.062l.01-.028a.555.555 0 0 1 .051-.033.2.2 0 0 1 .126.052.193.193 0 0 1 .013.051l.069.034c.015.02.033.039.042.054.026.007.056.013.087.023a.183.183 0 0 1 .036.033h.008c.01 0 .021-.01.041-.01s.006 0 .018.011c.018.118.077.059.178.108l.008.024s.047-.033.067-.049c-.051-.02-.08-.07-.116-.109a.1.1 0 0 1 .021-.038c.026 0 .023-.023.08-.021a.046.046 0 0 0 .018.034h.018a.051.051 0 0 0 .026-.01.134.134 0 0 0 .011-.034v-.013a.126.126 0 0 0-.036-.031.288.288 0 0 1-.065.011.072.072 0 0 1-.038-.01c-.015-.046-.069-.051-.1-.113l.01-.024c.029-.013.034-.036.067-.057a.481.481 0 0 1 .189-.067c.042.026.056.051.095.051h.026a.037.037 0 0 1 .018.038c-.023.046-.011.139-.041.2s-.1.059-.1.1a.078.078 0 0 0 .038.023l.044-.024h.015a.143.143 0 0 1 .029.088.119.119 0 0 1-.033.085.079.079 0 0 0-.052.029c0 .034.013.044.044.07a.325.325 0 0 0-.01.041l.033.042c.083 0 .083-.064.129-.131l.124-.1c.018-.023 0-.056.016-.108s.059-.054.059-.075l-.054-.168v-.013c0-.034.021-.049.02-.056 0-.023-.018-.034-.026-.051-.02 0-.031.011-.059.011h-.021l-.017-.011v-.021a.1.1 0 0 1 .041-.036.156.156 0 0 0-.049-.05.071.071 0 0 1-.056.051L82.3 4.02v-.013c0-.07.036-.088.085-.119.165.024.181.252.216.39.007.028.033.049.049.09 0 0 0 .007-.013.02s-.023.008-.029 0c0 .013.018.031.018.057v.07c.038-.008.057-.075.08-.114l.072-.087a.058.058 0 0 1 .024.02l-.007.046-.015.121a.323.323 0 0 0 .1-.028c.011-.007.021-.036.039-.064h.015a.237.237 0 0 1 .082.02.07.07 0 0 1 .011.041.072.072 0 0 1-.02.051.262.262 0 0 0-.057.031h.007a.229.229 0 0 1 .072.026c.007.041.077.067.119.093a.032.032 0 0 1 .013.034l.038.021v.018c-.02.026-.057.028-.093.029a.065.065 0 0 1-.028-.007c-.015-.021-.011-.026-.026-.033a.1.1 0 0 1-.064.038l-.008-.011v-.017l-.1-.046v.016a.068.068 0 0 1-.051.029c-.007 0-.013 0-.029-.016a.072.072 0 0 0-.036-.056h-.01a.15.15 0 0 0-.113.136.116.116 0 0 0 .016.054h.157a.063.063 0 0 0 .018.024c.021 0 .062-.023.1-.024a.064.064 0 0 1 .047.023l-.011.015a.145.145 0 0 0-.1.047v.016l-.023.031a.055.055 0 0 1 .011.028l-.007.02-.01.01a.531.531 0 0 0-.116.046c0 .007.008.015 0 .016h.033a.071.071 0 0 1 .049.02v.016a.19.19 0 0 1-.018.088.194.194 0 0 1-.074.024.28.28 0 0 1 0 .056m-1.753 2.85h-.031c-.029-.018-.057-.039-.087-.059-.047-.018-.111 0-.152-.028h-.007v-.023a.591.591 0 0 1 .358-.119c.057 0 .1.062.178.029s.062-.136.121-.186h.052l.095.1.238.163.02.1c.065.029.15.008.212.034.038.016.069.073.1.1.059-.02.072-.08.137-.07.033.007.051.021.06.064-.064.23-.611.152-.7.036-.011-.023 0-.057-.021-.082s-.059-.038-.087-.057c-.029-.047-.018-.1-.049-.142a.858.858 0 0 0-.364.042c-.028.033-.054.067-.083.1m.05 1.27h-.01a.845.845 0 0 0-.088.051.1.1 0 0 1-.062-.038.238.238 0 0 1 .021-.129l.011-.007a.138.138 0 0 1 .128.123m-.833-1.788c.074-.039.167-.039.253-.082a.205.205 0 0 1 .176.067c-.013.206-.368.171-.433.041V7.65M80 7.068c.02-.059.106-.091.229-.14l.118-.021c.021 0 .044 0 .064.008.044.033-.118.165-.22.178A.348.348 0 0 1 80 7.068m1.262.309a.1.1 0 0 1 .024-.047c.077 0 .165.077.2-.013a.089.089 0 0 0 .01-.062c-.012-.02-.026-.023-.038-.044l.01-.01c.021 0 .038 0 .057-.011.041-.17.2-.049.345-.1a.082.082 0 0 1 .067.024v.029c-.046.02-.113.02-.145.054 0 .034.02.036.038.052s.031.039.057.049c.087.026.2-.021.252.041v.016a1.035 1.035 0 0 1-.464.023l-.124-.028-.024.016a.043.043 0 0 0 .008.028.44.44 0 0 1 .142.038c0 .021 0 .021-.011.033-.083.016-.165.034-.245.052a.9.9 0 0 1-.418.041c-.072-.016-.1-.113-.171-.122-.02.029-.07.1-.119.087s-.072-.067-.1-.093a.034.034 0 0 1 .007-.025.2.2 0 0 1 .217.01c.077-.016.188-.011.276-.026.06-.01.118.015.158-.007m-.067-.619c0-.132.083-.07.142-.132h.025a.11.11 0 0 1 .059.088.2.2 0 0 1-.207.06zm.89.078v-.015l.059-.039c.018-.029.013-.059.039-.078l.074-.038h.018c.052.038.031.134 0 .185-.06.021-.155.034-.194-.018m.031.289l-.007.008c-.072 0-.171-.054-.178-.118V7.01l.006-.01c.06 0 .2.06.171.122m.152-.732a.657.657 0 0 0-.181-.042c-.069.069-.056.163-.23.154-.2-.145.145-.284.291-.374h.039a.268.268 0 0 1 .126.258.424.424 0 0 0-.044.01m-1.166.156a.146.146 0 0 0-.052.124.148.148 0 0 1 0 .06h-.007a.015.015 0 0 1-.02 0 .159.159 0 0 0-.167-.047l-.015.02c-.01.039.031.052.02.088v.011h-.147c-.054.015-.087.077-.122.113-.067-.008-.025-.073-.047-.122-.011-.021-.028-.013-.031-.047s.011-.038.042-.041l.01.007.007.051c.083 0 .157-.091.217-.129a1.023 1.023 0 0 1 .18-.09l.095-.021h.028l.011.01zm-.715 2.489a1.049 1.049 0 0 1 .4.238v.018l-.007.01a1.208 1.208 0 0 1-.4-.154c-.015-.02-.015-.067-.023-.088a.063.063 0 0 1 .029-.024m1.736-1.024c-.056-.01-.139.026-.173-.011a.088.088 0 0 1 0-.119c.062-.011.091.015.144.015.18 0 .175-.013.268.129v.042l-.013.013-.052.011-.023-.011c-.047-.023-.1-.044-.144-.069m.229-.647c-.051-.011-.116 0-.121-.051a.105.105 0 0 1 .031-.021h.1c-.023-.015-.044-.034-.016-.047.046-.028.046-.059.108-.051a.187.187 0 0 1 .124.051c.052.034.091.106.039.111a.34.34 0 0 1 .064.036v.01l-.007.01a1.183 1.183 0 0 1-.318-.051m-1.5-4.482a.179.179 0 0 1 .1-.072c.007-.024.033-.042.029-.046l.008-.011a.167.167 0 0 1 .054-.007s.01.01 0 .011l.1-.024h.008a.128.128 0 0 1 .067.018v.02l-.046.052-.044.034c-.091.072-.083.056-.2.056h-.085a.051.051 0 0 1 0-.029m2.543 1.4c.056-.01.111-.02.168-.028v.011a.845.845 0 0 0-.1.1 1 1 0 0 1 .1.057v.015a.092.092 0 0 0-.062.058l.029.02-.011.016c-.042.011-.056.038-.083.06-.052-.008-.065-.062-.095-.093l.021-.065a.224.224 0 0 1-.031-.041l-.03-.014v-.012l.008-.007-.028-.062a.282.282 0 0 1-.1.034l-.01-.065a.087.087 0 0 1-.085-.042c.013-.033.026-.065.038-.1a.273.273 0 0 1 .072.018 1.994 1.994 0 0 0-.158-.178.238.238 0 0 1 .026-.091h.008c.077.024.044.095.077.116l.1.021a.426.426 0 0 1 .207.158c-.016.016-.034.033-.052.047s-.015.046-.021.069h.008m-.373-.789a.4.4 0 0 1-.261-.211l.01-.015a.215.215 0 0 1 .056-.007c.137 0 .26.1.263.175a.054.054 0 0 1-.021.041.069.069 0 0 1-.046.016m-.232 3.866a1.211 1.211 0 0 1 .366.193c.023.013.082.078.031.109h-.015l-.172-.126c-.058-.043-.191-.1-.224-.16 0-.013.007-.011.013-.02m-.385-5.09a.14.14 0 0 0 .108-.067.446.446 0 0 1 .189.08l-.039.077h-.011v.01c-.127-.034-.158-.036-.253-.06v-.015zm-.544.181l.06.007c.016-.007.06 0 .06-.007l.132-.049-.008-.041a.156.156 0 0 1-.062.011c-.01-.011-.029-.023-.029-.046s.01-.029.031-.042a.557.557 0 0 1 .124-.024.059.059 0 0 1 .031.007l.011.023-.006.009a.113.113 0 0 1-.038.021l-.011.007a1.346 1.346 0 0 1 .145-.011.244.244 0 0 1 .165.051l-.007.013a.063.063 0 0 1-.021.018c-.042 0-.072-.007-.1-.007a.752.752 0 0 0-.113.011l-.044.049h.007a.37.37 0 0 1 .127-.018 1.984 1.984 0 0 1 .281.033h.029a.511.511 0 0 0 .069-.007.347.347 0 0 1 .069 0v-.018a.036.036 0 0 1 .02-.021c-.013-.016-.031-.028-.034-.056a.049.049 0 0 1 .021-.038.13.13 0 0 0 .08-.033.476.476 0 0 1 .235.073.045.045 0 0 1 0 .029c-.031.023-.065.046-.106.072-.036 0-.075-.029-.106-.029a.189.189 0 0 1-.028 0l.062.026.007.016-.01.011a.184.184 0 0 1-.069.01h-.007a.5.5 0 0 0 .085.02h.029c.108 0 .222-.082.356-.087l.011.018-.018.044a.28.28 0 0 1 .093.02l-.011.015a.551.551 0 0 0-.17.036.152.152 0 0 1 .042.024v.013c0 .011 0 .023-.023.034a.2.2 0 0 0-.046 0 .3.3 0 0 0-.118.025c0 .01.006.023 0 .026l.305.085.007.02a.19.19 0 0 1-.041.041h-.031a.022.022 0 0 1-.015.021.035.035 0 0 1 .021.033c-.01.024.14.051.157.111 0 .034.065.024.083.088V3.1a.038.038 0 0 1-.041.039.232.232 0 0 0-.054 0h-.007c-.036 0-.059-.033-.119-.057s-.067-.04-.118-.082a.142.142 0 0 0-.085-.029H83.1l-.01.01a.142.142 0 0 1-.039.038c-.078-.033-.216-.067-.273-.149l.015-.018c.031 0 .072.007.108.007h.029a.041.041 0 0 1 .021 0l.007-.011a.034.034 0 0 1-.016-.044c-.026 0-.087 0-.109.007a.253.253 0 0 0-.122-.039h-.036c-.023.02-.067.013-.085.023h-.016c-.011-.007-.01-.015-.036-.015a.155.155 0 0 0-.047.01 1.049 1.049 0 0 0-.193-.064.157.157 0 0 0-.056.018.691.691 0 0 1 .31.157v.016l.023.033c.015.015.029.026.033.036a.129.129 0 0 1 .036-.01h.007V3a.061.061 0 0 0-.015.038.127.127 0 0 1 .051.056.4.4 0 0 1 .065-.007c.056 0 .111.01.116.056a.052.052 0 0 1-.008.028.091.091 0 0 1-.08.042.49.49 0 0 1-.06-.007.166.166 0 0 1-.087-.064.426.426 0 0 1-.31-.136l-.059.023h-.015a.131.131 0 0 1-.113-.091l.011-.013c-.047-.023-.059-.065-.088-.082l-.054-.013c-.051-.029-.1-.085-.155-.085-.057 0-.083.034-.149.046a.047.047 0 0 0-.026-.018c.01.007.013.02.016.038l-.015.016-.124-.026a.186.186 0 0 0-.042 0c-.049 0-.1.01-.154.01a.127.127 0 0 1-.091-.031v-.047l.007-.046.013-.011a.161.161 0 0 0 .046 0 .207.207 0 0 0 .1-.021s0-.016.021-.026l.1-.023a1.093 1.093 0 0 0 .18.02.173.173 0 0 0 .064-.008c.011 0 .024-.036.046-.054s.028-.011.036-.016l-.078-.031V2.5s.018-.049.051-.054h.008m-3.588 1.9a1.141 1.141 0 0 1 .209-.546l.14-.167a1.784 1.784 0 0 1 .113-.214 2.316 2.316 0 0 1 .684-.591q.145-.073.289-.142c.06-.039.118-.087.186-.122a4.042 4.042 0 0 1 .542-.206l.243-.1a.624.624 0 0 1 .147-.015h.142a1.6 1.6 0 0 0 .286-.021h.283l.025.008c.056 0 .1-.054.157-.082l.069-.021h.008a.066.066 0 0 1 .036.011.046.046 0 0 1 .008.024c-.01.028 0 .062-.041.093-.024 0-.067-.011-.1-.011h-.02a.079.079 0 0 1-.015.031q-.1.015-.186.024l-.211.093c-.049.007-.1.011-.139.015l-.116.065c-.065.029-.131.057-.2.085a1.592 1.592 0 0 1-.237.072l-.114.01a3.072 3.072 0 0 0-.464.209h-.021c-.024 0-.031-.015-.044-.013h-.008a.631.631 0 0 0-.15.1c-.042.028-.087.057-.136.085-.024 0-.051.008-.073.01a1.565 1.565 0 0 1-.149.1l-.015-.007v-.007a.076.076 0 0 1 .023-.064 1.957 1.957 0 0 0 .211-.122l.059-.013.106-.073a3.057 3.057 0 0 1 .451-.225c.091-.034.3-.091.314-.16l-.021-.021a.637.637 0 0 0-.292.106 1.436 1.436 0 0 1-.25.101c-.057.023-.116.044-.173.065a2.052 2.052 0 0 0-.371.232l-.136.087c-.044.034-.069.1-.118.139-.08.064-.122.078-.2.139.008 0 .021.034 0 .042v.046l-.038.062c-.075.064-.145.142-.211.2v.02c.049-.008.067-.085.147-.1l.007.011V3.6l-.034.057-.345.454a1.4 1.4 0 0 0-.128.189l-.087.276c-.011.016-.013.069-.057.072h-.015a.081.081 0 0 1-.021-.059 2.161 2.161 0 0 1 .046-.229m-.495 1.333l.044-.224a2.465 2.465 0 0 0 .229-.273c.047-.139.171-.289.216-.278h.021c-.01.129-.243.487-.14.717v.169a.813.813 0 0 1 .167.346h.021l.093.144c.01.056.111.113.116.162 0 0 .372.114.434.142.091.039.1-.059.154-.07a.5.5 0 0 1 .35.031c0 .013.1.042.1.078l.2.018c-.155.245-.626.189-.916.134l-.3-.044a1.176 1.176 0 0 1-.578-.4l-.072-.108c0-.016-.065-.211-.065-.227-.057-.07-.186-.237-.168-.294s.049-.047.1-.023m-.325.7l-.018-.041v-.024l-.044-.042a.221.221 0 0 1-.072.018l-.007-.013-.01-.044.01-.011.033.008V6.22a.338.338 0 0 1-.044-.12.135.135 0 0 1 .072-.01v.044l.015-.007v-.011c.01-.036-.026-.052-.026-.109l.01-.016h.064a.165.165 0 0 1-.039-.165c.01-.013.021-.023.031-.034h.042a.257.257 0 0 0 0 .113l.049.217a.064.064 0 0 1-.057 0v.042l.021.01.038-.029c.013.02.029.038.044.056l.008-.018c.036.018.073.118.083.152v.039c0 .036-.007.036 0 .056l.057.124c0 .02.145.157.15.173a3.234 3.234 0 0 1 .467.144l.028.065a.439.439 0 0 1 .367.134c0 .016-.02.008 0 .018.087.056.2.039.292.1l-.044.023.007.011.173.093c.056 0 .044-.015.106-.007v.023l-.038.023-.069.007a.783.783 0 0 0-.162-.057l-.261-.104c0 .007-.1-.021-.1-.015l-.047.042c-.016.052 0 .051.049.077l.131-.024c.047.01.072.1.121.126.132.078.234.02.384.034-.016-.018-.025-.01-.039-.036a1.02 1.02 0 0 1 .278-.021c0-.036-.024-.028-.013-.047.011 0 .033-.018.046-.018V7.28l.051-.052c.051-.046.095-.023.142-.072.085.015.021.052.077.062-.011.026.056.038.034.052-.056.046-.09.033-.152.062l-.144.1c-.021.013-.322.085-.348.09-.15.023-.165-.041-.286-.018a1.212 1.212 0 0 1-.441-.116c-.137-.077-.111-.206-.333-.185-.091-.062-.163-.042-.232-.16-.015-.024.031-.026.044-.029-.021-.011-.083-.059-.088-.091.038-.026.286.113.286.113-.1-.2-.2-.1-.366-.214l-.154-.14a1.029 1.029 0 0 1-.183-.276m.779 1.953c-.124.029-.237-.328-.333-.394-.057-.041-.16-.036-.178-.114l.013-.015a.908.908 0 0 1 .346.2c.018.034 0 .065.036.087.047.033.119.036.165.065.015.054 0 .149-.049.168m.188.26a.1.1 0 0 1-.044.01c-.028-.013-.1-.077-.091-.111l.013-.013.054-.008c.056 0 .082.046.08.1l-.011.021m.217-.142a.1.1 0 0 1-.01.057h-.015a.364.364 0 0 1-.111-.085v-.023c.023-.042.069-.029.113-.025l.039-.039c.069 0 .157.118.222.149.028.015.085.016.1.041v.018l-.016.008c-.1.028-.256-.074-.309-.111l-.021.01m.541.305l-.01.01a.674.674 0 0 1-.207-.007.378.378 0 0 1-.062-.136l.008-.01a.437.437 0 0 1 .271.127zm.2.58c-.093-.018-.176-.131-.14-.214a.18.18 0 0 1 .157.207l-.016.007m-.06-.6c.018-.042.062-.042.082-.078v-.064c-.036-.067-.188-.119-.271-.145a1.5 1.5 0 0 1-.374-.167c-.026 0-.039.021-.06.026-.093.021-.183-.114-.219-.162-.024-.029-.082-.056-.087-.1v-.01c.026-.011.08 0 .095-.029s-.016-.047-.023-.069-.01-.041-.013-.062c-.028-.056-.176-.091-.242-.121a.851.851 0 0 1-.113-.09l-.039-.072-.055-.054.01-.054-.016-.042.021-.01a.564.564 0 0 1 .242.1 1.315 1.315 0 0 0 .176.051v.013c-.008.02-.015.029 0 .049.095.01.09.119.224.142a.477.477 0 0 0 .158-.021h.1c.007 0 .15-.047.155-.049.033-.023.016-.057.075-.073.116-.031.109.051.168.06l.206-.036a.551.551 0 0 1 .214.038c.038.008.265-.124.327-.038v.016a.171.171 0 0 1-.191.134.8.8 0 0 0-.087-.034.2.2 0 0 0-.131.083.407.407 0 0 0-.1.013h-.093l.015.052c0 .02-.033.023-.054.028a.446.446 0 0 1-.211.026c-.052-.008-.139-.034-.181-.015v.015c.057.114.33.018.462.039.059.093.185.114.279.171.034.021.052.057.111.047v-.018c-.028-.042-.083-.057-.119-.091v-.023a.839.839 0 0 1 .356-.01.366.366 0 0 0 .147.126c.023.011.083.018.091.041.016.047-.077.139-.1.16 0 .029.023.039.039.054a.054.054 0 0 1-.013.038h-.007c-.075.018-.363-.093-.4-.024s.113.119.149.155l-.01.021-.052.021v.02c.018.039.059.056.082.093l-.039.013c-.02.015-.02.042-.041.056-.17-.031-.253-.363-.51-.31.021.033.065.029.083.067-.013.02-.042.02-.062.031.023.054.085.023.137.047.028.013.029.046.042.075s.025.038.016.062l-.008.013a.568.568 0 0 1-.273-.031.266.266 0 0 1-.082-.106m.89.364l-.011.013a1.323 1.323 0 0 1-.314-.067.041.041 0 0 1 .013-.033.17.17 0 0 0 .051-.046c.1 0 .139.067.227.077-.013-.047.01-.056.029-.083 0-.036-.02-.034-.026-.062.069 0 .188.1.15.163-.049.011-.09-.015-.147-.016a.554.554 0 0 0 .028.054m-.255.838a.219.219 0 0 1-.155.057h-.015c-.01-.025-.021-.051-.033-.075l.029-.015.034-.011h.07c.033.008.08.031.069.049m-.142.59c-.129.01-.243.011-.305-.062.016-.023.038-.02.065-.034h.184a.155.155 0 0 1 .06.087m.276.332l-.258-.149.046-.056.016-.01a.313.313 0 0 1 .232.111.154.154 0 0 1-.036.1m0-.681c-.021-.054-.09-.113-.056-.175.054 0 .1.064.134.1 0 .046-.034.1-.078.078m1.441 1.016a.239.239 0 0 1-.139.023v-.007c.015-.011.036-.024.028-.049a.513.513 0 0 1-.284-.015.032.032 0 0 1 .007-.024.5.5 0 0 0 .134.007c.046-.01.126-.047.178-.026v.044c.018 0 .026-.015.039-.011a.077.077 0 0 1 .046.054h-.007m.632.021c-.056.02-.124-.007-.181.018s-.119.108-.214.1l-.01-.007c-.008-.154.056-.062.136-.09.01-.007.008-.02.02-.026.046-.033.126-.011.183-.036h.07v.007a.045.045 0 0 1-.007.036m.088-.428a.311.311 0 0 0-.149.026l-.016.024c-.023 0-.047 0-.07.007s-.015.015-.023.018c-.033.015-.18-.026-.24 0l-.036.042c-.016.013-.033.024-.049.036v.011a.158.158 0 0 1 .07.034v.008c-.026.02-.038.018-.07.01v.023c-.073 0-.158.087-.258.036a.055.055 0 0 0-.018-.028.973.973 0 0 1-.186.018.955.955 0 0 0-.4.008c0 .021-.011.026-.015.046.013.015.052.062.067.077l-.051.013c-.075-.026-.165-.015-.238-.093.023-.047.124.011.17-.018v-.007a.48.48 0 0 0-.051-.025v-.007c.031-.018.1.008.127-.013a1.231 1.231 0 0 0-.142-.033c-.069-.008-.119.031-.168.039a.508.508 0 0 1-.108-.043l.008-.011-.007-.01a.071.071 0 0 1-.041-.021v-.021a.271.271 0 0 0 .171-.041.035.035 0 0 0-.018-.036c-.1-.023-.194-.046-.291-.07v-.011l.013-.018c.018 0 .039 0 .051-.008a.3.3 0 0 1-.023-.137h.052c.047 0 .1-.01.149-.011l.026-.031c.051 0 .268.091.266.124-.044.007-.114 0-.142.024h-.007v.013a.727.727 0 0 0 .235-.011h.113c0-.015 0-.016.007-.023.095.01.206.114.3.129.026 0 .057-.021.074-.031v-.007c-.119-.054-.238-.036-.32-.137l.007-.02a.3.3 0 0 0 .044-.01c0-.01 0-.007-.01-.011l-.059-.008c-.038-.013-.041-.039-.09-.034l.007-.047a.59.59 0 0 1-.069-.059c-.114.018-.15-.026-.163-.139l.007-.008a.257.257 0 0 1 .209.118.606.606 0 0 1 .2.046c.041.02.085.07.132.075a.113.113 0 0 1 .158.039l-.015.024a.923.923 0 0 0 .322.173c.059.007.087-.034.126-.046s.036.016.057.01h.01v-.01c-.013-.007-.018-.011-.02-.031.024-.01.08.011.109.015.1.011.2-.018.278 0a.051.051 0 0 1-.01.044h-.029v.01l.007.008.047.007V10.8m-1.784-.64l.008-.007a.27.27 0 0 1 .23.1v.01c-.116.008-.224 0-.237-.106m4.929-1.1a3.352 3.352 0 0 1-.563.712c-.042.021-.2.144-.24.167-.02.02-.154.1-.173.124-.036.026-.145.046-.183.072a1.379 1.379 0 0 1-.464.224c-.129.038-.34.057-.423.075a1.375 1.375 0 0 1-.428 0c-.114 0-.167-.029-.281-.031a1.147 1.147 0 0 0-.162.028 1.354 1.354 0 0 1-.18.026 1.287 1.287 0 0 1-.518 0c-.064-.015-.152-.021-.189-.065v-.007a3.4 3.4 0 0 0 .364-.083c.039-.015.1-.026.085-.083-.008-.031-.036-.039-.062-.052a.271.271 0 0 0-.193-.042c-.051 0-.1.013-.152.018a1.317 1.317 0 0 1-.181-.047c-.039-.008-.1.013-.132 0l-.024-.025h-.049c-.085-.011-.168-.026-.25-.039l-.209-.044v.031h-.023a.285.285 0 0 1-.126-.056l.015-.011a.117.117 0 0 0 .07.008v.013a.159.159 0 0 0-.1-.021c-.042.01-.078.067-.126 0v-.008a.071.071 0 0 0 .026-.016l-.008-.01c-.036-.007-.168-.042-.157-.077.059-.023.052-.007.1 0V9.83l-.006-.01a.746.746 0 0 1-.139-.056v-.008h.007c.015-.007.028 0 .033-.021a.547.547 0 0 1-.222-.093v-.031c0-.007.038-.007.056-.011.038.01.142.106.185.057a.265.265 0 0 0-.136-.106c-.025 0-.028.018-.047.015-.036-.02-.074-.039-.109-.056v-.017c.049-.023.062.039.109.041.132-.056.136-.013.23.047.026.016.064.008.083.038v.013l-.087.026v.01a1.582 1.582 0 0 1 .139.093c.02.013.046.015.062.033v.011l-.033.01v.007c.021.036.054 0 .069-.011a.276.276 0 0 1 .088.015.368.368 0 0 1 .237.062c.028.016.047.059.082.067.1 0 .207 0 .31-.007a.347.347 0 0 1 .139.044l.029.02v.013c0 .026.033.041.056.046.047-.01.09.02.137.011a1.519 1.519 0 0 1 .318-.038l.163-.008.065.036.075-.013.189-.018.193.015c.051.01.1-.013.163-.007.108.011.155-.046.32-.038h.108L83.38 10l.172.007c.026 0 .034.01.054.013.051.008.139-.062.186-.065a.132.132 0 0 0 .028.024 1.2 1.2 0 0 1-.121.1l-.211.028-.028-.01-.137.028a2.246 2.246 0 0 1-.359.031 1.047 1.047 0 0 0-.238 0c0 .008.007.008 0 .02a.052.052 0 0 0-.047.026v.011c.057.095.2-.033.291-.013.07.013.129.044.2.054a1.091 1.091 0 0 0 .439-.06l.147-.026c.041-.02.073-.059.119-.077l.234-.057v-.008h-.006l.167-.1.113-.083a1.67 1.67 0 0 1-.276.06l.073-.073c.1-.07.245-.069.351-.14.034-.021.064-.052.1-.072s.077-.031.108-.056a7.516 7.516 0 0 1 .66-.684v.008a.226.226 0 0 1-.038.171" class="cls-2" transform="translate(-36.685 .924)"/>
                    </g>
                </g>
            </g>
        </g>
    </g>
</svg>
